G04 #@! TF.GenerationSoftware,KiCad,Pcbnew,8.0.1-8.0.1-1~ubuntu22.04.1*
G04 #@! TF.CreationDate,2024-08-08T21:33:10+00:00*
G04 #@! TF.ProjectId,gemini-panel,67656d69-6e69-42d7-9061-6e656c2e6b69,1.0*
G04 #@! TF.SameCoordinates,Original*
G04 #@! TF.FileFunction,Paste,Bot*
G04 #@! TF.FilePolarity,Positive*
%FSLAX46Y46*%
G04 Gerber Fmt 4.6, Leading zero omitted, Abs format (unit mm)*
G04 Created by KiCad (PCBNEW 8.0.1-8.0.1-1~ubuntu22.04.1) date 2024-08-08 21:33:10*
%MOMM*%
%LPD*%
G01*
G04 APERTURE LIST*
G04 Aperture macros list*
%AMRoundRect*
0 Rectangle with rounded corners*
0 $1 Rounding radius*
0 $2 $3 $4 $5 $6 $7 $8 $9 X,Y pos of 4 corners*
0 Add a 4 corners polygon primitive as box body*
4,1,4,$2,$3,$4,$5,$6,$7,$8,$9,$2,$3,0*
0 Add four circle primitives for the rounded corners*
1,1,$1+$1,$2,$3*
1,1,$1+$1,$4,$5*
1,1,$1+$1,$6,$7*
1,1,$1+$1,$8,$9*
0 Add four rect primitives between the rounded corners*
20,1,$1+$1,$2,$3,$4,$5,0*
20,1,$1+$1,$4,$5,$6,$7,0*
20,1,$1+$1,$6,$7,$8,$9,0*
20,1,$1+$1,$8,$9,$2,$3,0*%
%AMOutline5P*
0 Free polygon, 5 corners , with rotation*
0 The origin of the aperture is its center*
0 number of corners: always 5*
0 $1 to $10 corner X, Y*
0 $11 Rotation angle, in degrees counterclockwise*
0 create outline with 5 corners*
4,1,5,$1,$2,$3,$4,$5,$6,$7,$8,$9,$10,$1,$2,$11*%
%AMOutline6P*
0 Free polygon, 6 corners , with rotation*
0 The origin of the aperture is its center*
0 number of corners: always 6*
0 $1 to $12 corner X, Y*
0 $13 Rotation angle, in degrees counterclockwise*
0 create outline with 6 corners*
4,1,6,$1,$2,$3,$4,$5,$6,$7,$8,$9,$10,$11,$12,$1,$2,$13*%
%AMOutline7P*
0 Free polygon, 7 corners , with rotation*
0 The origin of the aperture is its center*
0 number of corners: always 7*
0 $1 to $14 corner X, Y*
0 $15 Rotation angle, in degrees counterclockwise*
0 create outline with 7 corners*
4,1,7,$1,$2,$3,$4,$5,$6,$7,$8,$9,$10,$11,$12,$13,$14,$1,$2,$15*%
%AMOutline8P*
0 Free polygon, 8 corners , with rotation*
0 The origin of the aperture is its center*
0 number of corners: always 8*
0 $1 to $16 corner X, Y*
0 $17 Rotation angle, in degrees counterclockwise*
0 create outline with 8 corners*
4,1,8,$1,$2,$3,$4,$5,$6,$7,$8,$9,$10,$11,$12,$13,$14,$15,$16,$1,$2,$17*%
%AMFreePoly0*
4,1,18,-0.437500,0.050000,-0.433694,0.069134,-0.422855,0.085355,-0.406634,0.096194,-0.387500,0.100000,0.387500,0.100000,0.406634,0.096194,0.422855,0.085355,0.433694,0.069134,0.437500,0.050000,0.437500,-0.050000,0.433694,-0.069134,0.422855,-0.085355,0.406634,-0.096194,0.387500,-0.100000,-0.337500,-0.100000,-0.437500,0.000000,-0.437500,0.050000,-0.437500,0.050000,$1*%
G04 Aperture macros list end*
%ADD10C,0.010000*%
%ADD11C,0.000000*%
%ADD12O,1.200000X0.800000*%
%ADD13RoundRect,0.166667X-0.433333X-0.233333X0.433333X-0.233333X0.433333X0.233333X-0.433333X0.233333X0*%
%ADD14C,1.000000*%
%ADD15RoundRect,0.166667X0.433333X0.233333X-0.433333X0.233333X-0.433333X-0.233333X0.433333X-0.233333X0*%
%ADD16C,2.000000*%
%ADD17RoundRect,0.250000X-0.292217X-0.292217X0.292217X-0.292217X0.292217X0.292217X-0.292217X0.292217X0*%
%ADD18FreePoly0,0.000000*%
%ADD19RoundRect,0.050000X-0.387500X-0.050000X0.387500X-0.050000X0.387500X0.050000X-0.387500X0.050000X0*%
%ADD20RoundRect,0.050000X-0.050000X-0.387500X0.050000X-0.387500X0.050000X0.387500X-0.050000X0.387500X0*%
%ADD21RoundRect,0.079500X0.079500X0.100500X-0.079500X0.100500X-0.079500X-0.100500X0.079500X-0.100500X0*%
%ADD22RoundRect,0.079500X-0.100500X0.079500X-0.100500X-0.079500X0.100500X-0.079500X0.100500X0.079500X0*%
%ADD23RoundRect,0.079500X0.100500X-0.079500X0.100500X0.079500X-0.100500X0.079500X-0.100500X-0.079500X0*%
%ADD24RoundRect,0.079500X-0.079500X-0.100500X0.079500X-0.100500X0.079500X0.100500X-0.079500X0.100500X0*%
%ADD25RoundRect,0.140000X0.170000X-0.140000X0.170000X0.140000X-0.170000X0.140000X-0.170000X-0.140000X0*%
%ADD26RoundRect,0.140000X-0.170000X0.140000X-0.170000X-0.140000X0.170000X-0.140000X0.170000X0.140000X0*%
%ADD27RoundRect,0.135000X-0.185000X0.135000X-0.185000X-0.135000X0.185000X-0.135000X0.185000X0.135000X0*%
%ADD28RoundRect,0.218750X-0.256250X0.218750X-0.256250X-0.218750X0.256250X-0.218750X0.256250X0.218750X0*%
%ADD29R,0.560000X0.400000*%
%ADD30RoundRect,0.100000X-0.180000X0.100000X-0.180000X-0.100000X0.180000X-0.100000X0.180000X0.100000X0*%
%ADD31Outline5P,-0.250000X0.187500X0.250000X0.187500X0.250000X-0.187500X-0.118750X-0.187500X-0.250000X-0.056250X270.000000*%
%ADD32R,0.300000X0.650000*%
%ADD33R,0.375000X0.500000*%
%ADD34RoundRect,0.135000X0.185000X-0.135000X0.185000X0.135000X-0.185000X0.135000X-0.185000X-0.135000X0*%
%ADD35RoundRect,0.218750X0.256250X-0.218750X0.256250X0.218750X-0.256250X0.218750X-0.256250X-0.218750X0*%
%ADD36Outline5P,-0.250000X0.187500X0.250000X0.187500X0.250000X-0.187500X-0.118750X-0.187500X-0.250000X-0.056250X90.000000*%
%ADD37RoundRect,0.250000X-0.325000X-0.250000X0.325000X-0.250000X0.325000X0.250000X-0.325000X0.250000X0*%
%ADD38RoundRect,0.250000X0.292217X0.292217X-0.292217X0.292217X-0.292217X-0.292217X0.292217X-0.292217X0*%
%ADD39FreePoly0,180.000000*%
%ADD40RoundRect,0.050000X0.387500X0.050000X-0.387500X0.050000X-0.387500X-0.050000X0.387500X-0.050000X0*%
%ADD41RoundRect,0.050000X0.050000X0.387500X-0.050000X0.387500X-0.050000X-0.387500X0.050000X-0.387500X0*%
%ADD42RoundRect,0.100000X0.180000X-0.100000X0.180000X0.100000X-0.180000X0.100000X-0.180000X-0.100000X0*%
%ADD43RoundRect,0.250000X0.325000X0.250000X-0.325000X0.250000X-0.325000X-0.250000X0.325000X-0.250000X0*%
G04 APERTURE END LIST*
D10*
G04 #@! TO.C,U2*
X71771173Y14871663D02*
X71429510Y14530001D01*
X71087847Y14871663D01*
X71429510Y15213326D01*
X71771173Y14871663D01*
G36*
X71771173Y14871663D02*
G01*
X71429510Y14530001D01*
X71087847Y14871663D01*
X71429510Y15213326D01*
X71771173Y14871663D01*
G37*
D11*
G36*
X71244510Y15270000D02*
G01*
X70999510Y15020000D01*
X70819510Y15020000D01*
X70819510Y15300000D01*
X71244510Y15300000D01*
X71244510Y15270000D01*
G37*
G36*
X71244510Y14470000D02*
G01*
X71244510Y14440000D01*
X70819510Y14440000D01*
X70819510Y14720000D01*
X70999510Y14720000D01*
X71244510Y14470000D01*
G37*
G36*
X72039510Y15020000D02*
G01*
X71859510Y15020000D01*
X71614510Y15270000D01*
X71614510Y15300000D01*
X72039510Y15300000D01*
X72039510Y15020000D01*
G37*
G36*
X72039510Y14440000D02*
G01*
X71614510Y14440000D01*
X71614510Y14470000D01*
X71859510Y14720000D01*
X72039510Y14720000D01*
X72039510Y14440000D01*
G37*
D10*
X80912153Y55708337D02*
X80570490Y55366674D01*
X80228827Y55708337D01*
X80570490Y56049999D01*
X80912153Y55708337D01*
G36*
X80912153Y55708337D02*
G01*
X80570490Y55366674D01*
X80228827Y55708337D01*
X80570490Y56049999D01*
X80912153Y55708337D01*
G37*
D11*
G36*
X80385490Y56110000D02*
G01*
X80140490Y55860000D01*
X79960490Y55860000D01*
X79960490Y56140000D01*
X80385490Y56140000D01*
X80385490Y56110000D01*
G37*
G36*
X80385490Y55310000D02*
G01*
X80385490Y55280000D01*
X79960490Y55280000D01*
X79960490Y55560000D01*
X80140490Y55560000D01*
X80385490Y55310000D01*
G37*
G36*
X81180490Y55860000D02*
G01*
X81000490Y55860000D01*
X80755490Y56110000D01*
X80755490Y56140000D01*
X81180490Y56140000D01*
X81180490Y55860000D01*
G37*
G36*
X81180490Y55280000D02*
G01*
X80755490Y55280000D01*
X80755490Y55310000D01*
X81000490Y55560000D01*
X81180490Y55560000D01*
X81180490Y55280000D01*
G37*
D10*
X11771173Y14871663D02*
X11429510Y14530001D01*
X11087847Y14871663D01*
X11429510Y15213326D01*
X11771173Y14871663D01*
G36*
X11771173Y14871663D02*
G01*
X11429510Y14530001D01*
X11087847Y14871663D01*
X11429510Y15213326D01*
X11771173Y14871663D01*
G37*
D11*
G36*
X11244510Y15270000D02*
G01*
X10999510Y15020000D01*
X10819510Y15020000D01*
X10819510Y15300000D01*
X11244510Y15300000D01*
X11244510Y15270000D01*
G37*
G36*
X11244510Y14470000D02*
G01*
X11244510Y14440000D01*
X10819510Y14440000D01*
X10819510Y14720000D01*
X10999510Y14720000D01*
X11244510Y14470000D01*
G37*
G36*
X12039510Y15020000D02*
G01*
X11859510Y15020000D01*
X11614510Y15270000D01*
X11614510Y15300000D01*
X12039510Y15300000D01*
X12039510Y15020000D01*
G37*
G36*
X12039510Y14440000D02*
G01*
X11614510Y14440000D01*
X11614510Y14470000D01*
X11859510Y14720000D01*
X12039510Y14720000D01*
X12039510Y14440000D01*
G37*
D10*
X100912153Y55708337D02*
X100570490Y55366674D01*
X100228827Y55708337D01*
X100570490Y56049999D01*
X100912153Y55708337D01*
G36*
X100912153Y55708337D02*
G01*
X100570490Y55366674D01*
X100228827Y55708337D01*
X100570490Y56049999D01*
X100912153Y55708337D01*
G37*
D11*
G36*
X100385490Y56110000D02*
G01*
X100140490Y55860000D01*
X99960490Y55860000D01*
X99960490Y56140000D01*
X100385490Y56140000D01*
X100385490Y56110000D01*
G37*
G36*
X100385490Y55310000D02*
G01*
X100385490Y55280000D01*
X99960490Y55280000D01*
X99960490Y55560000D01*
X100140490Y55560000D01*
X100385490Y55310000D01*
G37*
G36*
X101180490Y55860000D02*
G01*
X101000490Y55860000D01*
X100755490Y56110000D01*
X100755490Y56140000D01*
X101180490Y56140000D01*
X101180490Y55860000D01*
G37*
G36*
X101180490Y55280000D02*
G01*
X100755490Y55280000D01*
X100755490Y55310000D01*
X101000490Y55560000D01*
X101180490Y55560000D01*
X101180490Y55280000D01*
G37*
D10*
X60912153Y55708337D02*
X60570490Y55366674D01*
X60228827Y55708337D01*
X60570490Y56049999D01*
X60912153Y55708337D01*
G36*
X60912153Y55708337D02*
G01*
X60570490Y55366674D01*
X60228827Y55708337D01*
X60570490Y56049999D01*
X60912153Y55708337D01*
G37*
D11*
G36*
X60385490Y56110000D02*
G01*
X60140490Y55860000D01*
X59960490Y55860000D01*
X59960490Y56140000D01*
X60385490Y56140000D01*
X60385490Y56110000D01*
G37*
G36*
X60385490Y55310000D02*
G01*
X60385490Y55280000D01*
X59960490Y55280000D01*
X59960490Y55560000D01*
X60140490Y55560000D01*
X60385490Y55310000D01*
G37*
G36*
X61180490Y55860000D02*
G01*
X61000490Y55860000D01*
X60755490Y56110000D01*
X60755490Y56140000D01*
X61180490Y56140000D01*
X61180490Y55860000D01*
G37*
G36*
X61180490Y55280000D02*
G01*
X60755490Y55280000D01*
X60755490Y55310000D01*
X61000490Y55560000D01*
X61180490Y55560000D01*
X61180490Y55280000D01*
G37*
D10*
X91771173Y14871663D02*
X91429510Y14530001D01*
X91087847Y14871663D01*
X91429510Y15213326D01*
X91771173Y14871663D01*
G36*
X91771173Y14871663D02*
G01*
X91429510Y14530001D01*
X91087847Y14871663D01*
X91429510Y15213326D01*
X91771173Y14871663D01*
G37*
D11*
G36*
X91244510Y15270000D02*
G01*
X90999510Y15020000D01*
X90819510Y15020000D01*
X90819510Y15300000D01*
X91244510Y15300000D01*
X91244510Y15270000D01*
G37*
G36*
X91244510Y14470000D02*
G01*
X91244510Y14440000D01*
X90819510Y14440000D01*
X90819510Y14720000D01*
X90999510Y14720000D01*
X91244510Y14470000D01*
G37*
G36*
X92039510Y15020000D02*
G01*
X91859510Y15020000D01*
X91614510Y15270000D01*
X91614510Y15300000D01*
X92039510Y15300000D01*
X92039510Y15020000D01*
G37*
G36*
X92039510Y14440000D02*
G01*
X91614510Y14440000D01*
X91614510Y14470000D01*
X91859510Y14720000D01*
X92039510Y14720000D01*
X92039510Y14440000D01*
G37*
D10*
X31771173Y14871663D02*
X31429510Y14530001D01*
X31087847Y14871663D01*
X31429510Y15213326D01*
X31771173Y14871663D01*
G36*
X31771173Y14871663D02*
G01*
X31429510Y14530001D01*
X31087847Y14871663D01*
X31429510Y15213326D01*
X31771173Y14871663D01*
G37*
D11*
G36*
X31244510Y15270000D02*
G01*
X30999510Y15020000D01*
X30819510Y15020000D01*
X30819510Y15300000D01*
X31244510Y15300000D01*
X31244510Y15270000D01*
G37*
G36*
X31244510Y14470000D02*
G01*
X31244510Y14440000D01*
X30819510Y14440000D01*
X30819510Y14720000D01*
X30999510Y14720000D01*
X31244510Y14470000D01*
G37*
G36*
X32039510Y15020000D02*
G01*
X31859510Y15020000D01*
X31614510Y15270000D01*
X31614510Y15300000D01*
X32039510Y15300000D01*
X32039510Y15020000D01*
G37*
G36*
X32039510Y14440000D02*
G01*
X31614510Y14440000D01*
X31614510Y14470000D01*
X31859510Y14720000D01*
X32039510Y14720000D01*
X32039510Y14440000D01*
G37*
D10*
X51771173Y14871663D02*
X51429510Y14530001D01*
X51087847Y14871663D01*
X51429510Y15213326D01*
X51771173Y14871663D01*
G36*
X51771173Y14871663D02*
G01*
X51429510Y14530001D01*
X51087847Y14871663D01*
X51429510Y15213326D01*
X51771173Y14871663D01*
G37*
D11*
G36*
X51244510Y15270000D02*
G01*
X50999510Y15020000D01*
X50819510Y15020000D01*
X50819510Y15300000D01*
X51244510Y15300000D01*
X51244510Y15270000D01*
G37*
G36*
X51244510Y14470000D02*
G01*
X51244510Y14440000D01*
X50819510Y14440000D01*
X50819510Y14720000D01*
X50999510Y14720000D01*
X51244510Y14470000D01*
G37*
G36*
X52039510Y15020000D02*
G01*
X51859510Y15020000D01*
X51614510Y15270000D01*
X51614510Y15300000D01*
X52039510Y15300000D01*
X52039510Y15020000D01*
G37*
G36*
X52039510Y14440000D02*
G01*
X51614510Y14440000D01*
X51614510Y14470000D01*
X51859510Y14720000D01*
X52039510Y14720000D01*
X52039510Y14440000D01*
G37*
D10*
X20912153Y55708337D02*
X20570490Y55366674D01*
X20228827Y55708337D01*
X20570490Y56049999D01*
X20912153Y55708337D01*
G36*
X20912153Y55708337D02*
G01*
X20570490Y55366674D01*
X20228827Y55708337D01*
X20570490Y56049999D01*
X20912153Y55708337D01*
G37*
D11*
G36*
X20385490Y56110000D02*
G01*
X20140490Y55860000D01*
X19960490Y55860000D01*
X19960490Y56140000D01*
X20385490Y56140000D01*
X20385490Y56110000D01*
G37*
G36*
X20385490Y55310000D02*
G01*
X20385490Y55280000D01*
X19960490Y55280000D01*
X19960490Y55560000D01*
X20140490Y55560000D01*
X20385490Y55310000D01*
G37*
G36*
X21180490Y55860000D02*
G01*
X21000490Y55860000D01*
X20755490Y56110000D01*
X20755490Y56140000D01*
X21180490Y56140000D01*
X21180490Y55860000D01*
G37*
G36*
X21180490Y55280000D02*
G01*
X20755490Y55280000D01*
X20755490Y55310000D01*
X21000490Y55560000D01*
X21180490Y55560000D01*
X21180490Y55280000D01*
G37*
D10*
X40912153Y55708337D02*
X40570490Y55366674D01*
X40228827Y55708337D01*
X40570490Y56049999D01*
X40912153Y55708337D01*
G36*
X40912153Y55708337D02*
G01*
X40570490Y55366674D01*
X40228827Y55708337D01*
X40570490Y56049999D01*
X40912153Y55708337D01*
G37*
D11*
G36*
X40385490Y56110000D02*
G01*
X40140490Y55860000D01*
X39960490Y55860000D01*
X39960490Y56140000D01*
X40385490Y56140000D01*
X40385490Y56110000D01*
G37*
G36*
X40385490Y55310000D02*
G01*
X40385490Y55280000D01*
X39960490Y55280000D01*
X39960490Y55560000D01*
X40140490Y55560000D01*
X40385490Y55310000D01*
G37*
G36*
X41180490Y55860000D02*
G01*
X41000490Y55860000D01*
X40755490Y56110000D01*
X40755490Y56140000D01*
X41180490Y56140000D01*
X41180490Y55860000D01*
G37*
G36*
X41180490Y55280000D02*
G01*
X40755490Y55280000D01*
X40755490Y55310000D01*
X41000490Y55560000D01*
X41180490Y55560000D01*
X41180490Y55280000D01*
G37*
G04 #@! TD*
D12*
G04 #@! TO.C,Gemini1*
X89904000Y43886000D03*
X89904000Y45156000D03*
X89904000Y46426000D03*
X89904000Y47696000D03*
X89904000Y48966000D03*
X89904000Y50236000D03*
X89904000Y51506000D03*
X89904000Y52776000D03*
X89904000Y54046000D03*
X89904000Y55316000D03*
D13*
X89904000Y56586000D03*
D14*
X94100000Y62930000D03*
X95370000Y62930000D03*
X96640000Y62930000D03*
X97910000Y62930000D03*
G04 #@! TD*
D12*
G04 #@! TO.C,Gemini1*
X22096000Y26694000D03*
X22096000Y25424000D03*
X22096000Y24154000D03*
X22096000Y22884000D03*
X22096000Y21614000D03*
X22096000Y20344000D03*
X22096000Y19074000D03*
X22096000Y17804000D03*
X22096000Y16534000D03*
X22096000Y15264000D03*
D15*
X22096000Y13994000D03*
D14*
X17900000Y7650000D03*
X16630000Y7650000D03*
X15360000Y7650000D03*
X14090000Y7650000D03*
G04 #@! TD*
D16*
G04 #@! TO.C,KiKit_TO_3*
X2500000Y2500000D03*
G04 #@! TD*
G04 #@! TO.C,KiKit_TO_2*
X109500000Y68080000D03*
G04 #@! TD*
D12*
G04 #@! TO.C,Gemini1*
X42096000Y26694000D03*
X42096000Y25424000D03*
X42096000Y24154000D03*
X42096000Y22884000D03*
X42096000Y21614000D03*
X42096000Y20344000D03*
X42096000Y19074000D03*
X42096000Y17804000D03*
X42096000Y16534000D03*
X42096000Y15264000D03*
D15*
X42096000Y13994000D03*
D14*
X37900000Y7650000D03*
X36630000Y7650000D03*
X35360000Y7650000D03*
X34090000Y7650000D03*
G04 #@! TD*
D12*
G04 #@! TO.C,Gemini1*
X69904000Y43886000D03*
X69904000Y45156000D03*
X69904000Y46426000D03*
X69904000Y47696000D03*
X69904000Y48966000D03*
X69904000Y50236000D03*
X69904000Y51506000D03*
X69904000Y52776000D03*
X69904000Y54046000D03*
X69904000Y55316000D03*
D13*
X69904000Y56586000D03*
D14*
X74100000Y62930000D03*
X75370000Y62930000D03*
X76640000Y62930000D03*
X77910000Y62930000D03*
G04 #@! TD*
D12*
G04 #@! TO.C,Gemini1*
X29904000Y43886000D03*
X29904000Y45156000D03*
X29904000Y46426000D03*
X29904000Y47696000D03*
X29904000Y48966000D03*
X29904000Y50236000D03*
X29904000Y51506000D03*
X29904000Y52776000D03*
X29904000Y54046000D03*
X29904000Y55316000D03*
D13*
X29904000Y56586000D03*
D14*
X34100000Y62930000D03*
X35370000Y62930000D03*
X36640000Y62930000D03*
X37910000Y62930000D03*
G04 #@! TD*
D12*
G04 #@! TO.C,Gemini1*
X102096000Y26694000D03*
X102096000Y25424000D03*
X102096000Y24154000D03*
X102096000Y22884000D03*
X102096000Y21614000D03*
X102096000Y20344000D03*
X102096000Y19074000D03*
X102096000Y17804000D03*
X102096000Y16534000D03*
X102096000Y15264000D03*
D15*
X102096000Y13994000D03*
D14*
X97900000Y7650000D03*
X96630000Y7650000D03*
X95360000Y7650000D03*
X94090000Y7650000D03*
G04 #@! TD*
D12*
G04 #@! TO.C,Gemini1*
X82096000Y26694000D03*
X82096000Y25424000D03*
X82096000Y24154000D03*
X82096000Y22884000D03*
X82096000Y21614000D03*
X82096000Y20344000D03*
X82096000Y19074000D03*
X82096000Y17804000D03*
X82096000Y16534000D03*
X82096000Y15264000D03*
D15*
X82096000Y13994000D03*
D14*
X77900000Y7650000D03*
X76630000Y7650000D03*
X75360000Y7650000D03*
X74090000Y7650000D03*
G04 #@! TD*
D12*
G04 #@! TO.C,Gemini1*
X49904000Y43886000D03*
X49904000Y45156000D03*
X49904000Y46426000D03*
X49904000Y47696000D03*
X49904000Y48966000D03*
X49904000Y50236000D03*
X49904000Y51506000D03*
X49904000Y52776000D03*
X49904000Y54046000D03*
X49904000Y55316000D03*
D13*
X49904000Y56586000D03*
D14*
X54100000Y62930000D03*
X55370000Y62930000D03*
X56640000Y62930000D03*
X57910000Y62930000D03*
G04 #@! TD*
D12*
G04 #@! TO.C,Gemini1*
X62096000Y26694000D03*
X62096000Y25424000D03*
X62096000Y24154000D03*
X62096000Y22884000D03*
X62096000Y21614000D03*
X62096000Y20344000D03*
X62096000Y19074000D03*
X62096000Y17804000D03*
X62096000Y16534000D03*
X62096000Y15264000D03*
D15*
X62096000Y13994000D03*
D14*
X57900000Y7650000D03*
X56630000Y7650000D03*
X55360000Y7650000D03*
X54090000Y7650000D03*
G04 #@! TD*
D16*
G04 #@! TO.C,KiKit_TO_1*
X2500000Y68080000D03*
G04 #@! TD*
D12*
G04 #@! TO.C,Gemini1*
X9904000Y43886000D03*
X9904000Y45156000D03*
X9904000Y46426000D03*
X9904000Y47696000D03*
X9904000Y48966000D03*
X9904000Y50236000D03*
X9904000Y51506000D03*
X9904000Y52776000D03*
X9904000Y54046000D03*
X9904000Y55316000D03*
D13*
X9904000Y56586000D03*
D14*
X14100000Y62930000D03*
X15370000Y62930000D03*
X16640000Y62930000D03*
X17910000Y62930000D03*
G04 #@! TD*
D17*
G04 #@! TO.C,U4*
X75362500Y20767500D03*
X75362500Y19492500D03*
X76637500Y20767500D03*
X76637500Y19492500D03*
D18*
X72562500Y17530000D03*
D19*
X72562500Y17930000D03*
X72562500Y18330000D03*
X72562500Y18730000D03*
X72562500Y19130000D03*
X72562500Y19530000D03*
X72562500Y19930000D03*
X72562500Y20330000D03*
X72562500Y20730000D03*
X72562500Y21130000D03*
X72562500Y21530000D03*
X72562500Y21930000D03*
X72562500Y22330000D03*
X72562500Y22730000D03*
D20*
X73400000Y23567500D03*
X73800000Y23567500D03*
X74200000Y23567500D03*
X74600000Y23567500D03*
X75000000Y23567500D03*
X75400000Y23567500D03*
X75800000Y23567500D03*
X76200000Y23567500D03*
X76600000Y23567500D03*
X77000000Y23567500D03*
X77400000Y23567500D03*
X77800000Y23567500D03*
X78200000Y23567500D03*
X78600000Y23567500D03*
D19*
X79437500Y22730000D03*
X79437500Y22330000D03*
X79437500Y21930000D03*
X79437500Y21530000D03*
X79437500Y21130000D03*
X79437500Y20730000D03*
X79437500Y20330000D03*
X79437500Y19930000D03*
X79437500Y19530000D03*
X79437500Y19130000D03*
X79437500Y18730000D03*
X79437500Y18330000D03*
X79437500Y17930000D03*
X79437500Y17530000D03*
D20*
X78600000Y16692500D03*
X78200000Y16692500D03*
X77800000Y16692500D03*
X77400000Y16692500D03*
X77000000Y16692500D03*
X76600000Y16692500D03*
X76200000Y16692500D03*
X75800000Y16692500D03*
X75400000Y16692500D03*
X75000000Y16692500D03*
X74600000Y16692500D03*
X74200000Y16692500D03*
X73800000Y16692500D03*
X73400000Y16692500D03*
G04 #@! TD*
D21*
G04 #@! TO.C,R6*
X93955490Y45870000D03*
X93265490Y45870000D03*
G04 #@! TD*
D22*
G04 #@! TO.C,R16*
X99329510Y9430000D03*
X99329510Y8740000D03*
G04 #@! TD*
G04 #@! TO.C,C7*
X53939510Y26815000D03*
X53939510Y26125000D03*
G04 #@! TD*
D23*
G04 #@! TO.C,C2*
X32550490Y45195000D03*
X32550490Y45885000D03*
G04 #@! TD*
D22*
G04 #@! TO.C,R4*
X38749510Y26815000D03*
X38749510Y26125000D03*
G04 #@! TD*
D23*
G04 #@! TO.C,R2*
X72539510Y26125000D03*
X72539510Y26815000D03*
G04 #@! TD*
D24*
G04 #@! TO.C,R5*
X53265490Y45170000D03*
X53955490Y45170000D03*
G04 #@! TD*
D21*
G04 #@! TO.C,R13*
X16664510Y24600000D03*
X15974510Y24600000D03*
G04 #@! TD*
D23*
G04 #@! TO.C,R16*
X12670490Y61150000D03*
X12670490Y61840000D03*
G04 #@! TD*
G04 #@! TO.C,R3*
X38760490Y43765000D03*
X38760490Y44455000D03*
G04 #@! TD*
G04 #@! TO.C,R3*
X98760490Y43765000D03*
X98760490Y44455000D03*
G04 #@! TD*
D24*
G04 #@! TO.C,R11*
X54964510Y14630000D03*
X55654510Y14630000D03*
G04 #@! TD*
D25*
G04 #@! TO.C,C1*
X74059510Y9310000D03*
X74059510Y10270000D03*
G04 #@! TD*
D26*
G04 #@! TO.C,C1*
X37940490Y61270000D03*
X37940490Y60310000D03*
G04 #@! TD*
D24*
G04 #@! TO.C,R13*
X55335490Y45980000D03*
X56025490Y45980000D03*
G04 #@! TD*
D22*
G04 #@! TO.C,R16*
X79329510Y9430000D03*
X79329510Y8740000D03*
G04 #@! TD*
D23*
G04 #@! TO.C,R2*
X52539510Y26125000D03*
X52539510Y26815000D03*
G04 #@! TD*
G04 #@! TO.C,R8*
X78049510Y11490000D03*
X78049510Y12180000D03*
G04 #@! TD*
D22*
G04 #@! TO.C,R2*
X39460490Y44455000D03*
X39460490Y43765000D03*
G04 #@! TD*
D27*
G04 #@! TO.C,FB1*
X39290490Y57420000D03*
X39290490Y56400000D03*
G04 #@! TD*
D24*
G04 #@! TO.C,R6*
X18044510Y24710000D03*
X18734510Y24710000D03*
G04 #@! TD*
G04 #@! TO.C,R12*
X94935490Y55950000D03*
X95625490Y55950000D03*
G04 #@! TD*
D22*
G04 #@! TO.C,R3*
X13239510Y26815000D03*
X13239510Y26125000D03*
G04 #@! TD*
D23*
G04 #@! TO.C,R8*
X18049510Y11490000D03*
X18049510Y12180000D03*
G04 #@! TD*
D24*
G04 #@! TO.C,R13*
X35335490Y45980000D03*
X36025490Y45980000D03*
G04 #@! TD*
D25*
G04 #@! TO.C,C1*
X54059510Y9310000D03*
X54059510Y10270000D03*
G04 #@! TD*
D26*
G04 #@! TO.C,C1*
X77940490Y61270000D03*
X77940490Y60310000D03*
G04 #@! TD*
D22*
G04 #@! TO.C,R1*
X91839510Y26815000D03*
X91839510Y26125000D03*
G04 #@! TD*
D23*
G04 #@! TO.C,R15*
X92670490Y59750000D03*
X92670490Y60440000D03*
G04 #@! TD*
D24*
G04 #@! TO.C,R5*
X33265490Y45170000D03*
X33955490Y45170000D03*
G04 #@! TD*
D22*
G04 #@! TO.C,C8*
X18039510Y26815000D03*
X18039510Y26125000D03*
G04 #@! TD*
D27*
G04 #@! TO.C,FB1*
X19290490Y57420000D03*
X19290490Y56400000D03*
G04 #@! TD*
D26*
G04 #@! TO.C,C1*
X97940490Y61270000D03*
X97940490Y60310000D03*
G04 #@! TD*
D28*
G04 #@! TO.C,F1*
X99130490Y61577500D03*
X99130490Y60002500D03*
G04 #@! TD*
D29*
G04 #@! TO.C,D1*
X60350490Y59850000D03*
D30*
X60350490Y60650000D03*
G04 #@! TD*
D22*
G04 #@! TO.C,R2*
X99460490Y44455000D03*
X99460490Y43765000D03*
G04 #@! TD*
D23*
G04 #@! TO.C,R3*
X58760490Y43765000D03*
X58760490Y44455000D03*
G04 #@! TD*
D24*
G04 #@! TO.C,R12*
X54935490Y55950000D03*
X55625490Y55950000D03*
G04 #@! TD*
D31*
G04 #@! TO.C,U1*
X75462990Y58650000D03*
D32*
X76000490Y58725000D03*
D33*
X76537990Y58650000D03*
X76537990Y56950000D03*
D32*
X76000490Y56875000D03*
D33*
X75462990Y56950000D03*
G04 #@! TD*
D34*
G04 #@! TO.C,FB1*
X52709510Y13160000D03*
X52709510Y14180000D03*
G04 #@! TD*
D23*
G04 #@! TO.C,R1*
X40160490Y43765000D03*
X40160490Y44455000D03*
G04 #@! TD*
G04 #@! TO.C,R7*
X73949510Y11490000D03*
X73949510Y12180000D03*
G04 #@! TD*
D34*
G04 #@! TO.C,FB1*
X72709510Y13160000D03*
X72709510Y14180000D03*
G04 #@! TD*
D28*
G04 #@! TO.C,F1*
X19130490Y61577500D03*
X19130490Y60002500D03*
G04 #@! TD*
D21*
G04 #@! TO.C,R12*
X17064510Y14630000D03*
X16374510Y14630000D03*
G04 #@! TD*
D23*
G04 #@! TO.C,R4*
X53250490Y43765000D03*
X53250490Y44455000D03*
G04 #@! TD*
D31*
G04 #@! TO.C,U1*
X55462990Y58650000D03*
D32*
X56000490Y58725000D03*
D33*
X56537990Y58650000D03*
X56537990Y56950000D03*
D32*
X56000490Y56875000D03*
D33*
X55462990Y56950000D03*
G04 #@! TD*
D22*
G04 #@! TO.C,C2*
X79449510Y25385000D03*
X79449510Y24695000D03*
G04 #@! TD*
G04 #@! TO.C,R7*
X18050490Y59090000D03*
X18050490Y58400000D03*
G04 #@! TD*
G04 #@! TO.C,R4*
X98749510Y26815000D03*
X98749510Y26125000D03*
G04 #@! TD*
G04 #@! TO.C,C8*
X58039510Y26815000D03*
X58039510Y26125000D03*
G04 #@! TD*
D21*
G04 #@! TO.C,R11*
X77035490Y55950000D03*
X76345490Y55950000D03*
G04 #@! TD*
D23*
G04 #@! TO.C,R15*
X32670490Y59750000D03*
X32670490Y60440000D03*
G04 #@! TD*
D21*
G04 #@! TO.C,R11*
X57035490Y55950000D03*
X56345490Y55950000D03*
G04 #@! TD*
D35*
G04 #@! TO.C,F1*
X52869510Y9002500D03*
X52869510Y10577500D03*
G04 #@! TD*
D17*
G04 #@! TO.C,U4*
X95362500Y20767500D03*
X95362500Y19492500D03*
X96637500Y20767500D03*
X96637500Y19492500D03*
D18*
X92562500Y17530000D03*
D19*
X92562500Y17930000D03*
X92562500Y18330000D03*
X92562500Y18730000D03*
X92562500Y19130000D03*
X92562500Y19530000D03*
X92562500Y19930000D03*
X92562500Y20330000D03*
X92562500Y20730000D03*
X92562500Y21130000D03*
X92562500Y21530000D03*
X92562500Y21930000D03*
X92562500Y22330000D03*
X92562500Y22730000D03*
D20*
X93400000Y23567500D03*
X93800000Y23567500D03*
X94200000Y23567500D03*
X94600000Y23567500D03*
X95000000Y23567500D03*
X95400000Y23567500D03*
X95800000Y23567500D03*
X96200000Y23567500D03*
X96600000Y23567500D03*
X97000000Y23567500D03*
X97400000Y23567500D03*
X97800000Y23567500D03*
X98200000Y23567500D03*
X98600000Y23567500D03*
D19*
X99437500Y22730000D03*
X99437500Y22330000D03*
X99437500Y21930000D03*
X99437500Y21530000D03*
X99437500Y21130000D03*
X99437500Y20730000D03*
X99437500Y20330000D03*
X99437500Y19930000D03*
X99437500Y19530000D03*
X99437500Y19130000D03*
X99437500Y18730000D03*
X99437500Y18330000D03*
X99437500Y17930000D03*
X99437500Y17530000D03*
D20*
X98600000Y16692500D03*
X98200000Y16692500D03*
X97800000Y16692500D03*
X97400000Y16692500D03*
X97000000Y16692500D03*
X96600000Y16692500D03*
X96200000Y16692500D03*
X95800000Y16692500D03*
X95400000Y16692500D03*
X95000000Y16692500D03*
X94600000Y16692500D03*
X94200000Y16692500D03*
X93800000Y16692500D03*
X93400000Y16692500D03*
G04 #@! TD*
D23*
G04 #@! TO.C,C7*
X38060490Y43765000D03*
X38060490Y44455000D03*
G04 #@! TD*
D21*
G04 #@! TO.C,R11*
X17035490Y55950000D03*
X16345490Y55950000D03*
G04 #@! TD*
D23*
G04 #@! TO.C,R15*
X72670490Y59750000D03*
X72670490Y60440000D03*
G04 #@! TD*
G04 #@! TO.C,R3*
X78760490Y43765000D03*
X78760490Y44455000D03*
G04 #@! TD*
D36*
G04 #@! TO.C,U1*
X76537010Y11930000D03*
D32*
X75999510Y11855000D03*
D33*
X75462010Y11930000D03*
X75462010Y13630000D03*
D32*
X75999510Y13705000D03*
D33*
X76537010Y13630000D03*
G04 #@! TD*
D28*
G04 #@! TO.C,F1*
X79130490Y61577500D03*
X79130490Y60002500D03*
G04 #@! TD*
D23*
G04 #@! TO.C,R15*
X12670490Y59750000D03*
X12670490Y60440000D03*
G04 #@! TD*
D37*
G04 #@! TO.C,Y1*
X55135490Y44820000D03*
X56885490Y44820000D03*
X56885490Y43420000D03*
X55135490Y43420000D03*
G04 #@! TD*
D22*
G04 #@! TO.C,C7*
X73939510Y26815000D03*
X73939510Y26125000D03*
G04 #@! TD*
D26*
G04 #@! TO.C,C3*
X52440490Y44400000D03*
X52440490Y43440000D03*
G04 #@! TD*
D37*
G04 #@! TO.C,Y1*
X75135490Y44820000D03*
X76885490Y44820000D03*
X76885490Y43420000D03*
X75135490Y43420000D03*
G04 #@! TD*
D24*
G04 #@! TO.C,R5*
X73265490Y45170000D03*
X73955490Y45170000D03*
G04 #@! TD*
G04 #@! TO.C,R12*
X74935490Y55950000D03*
X75625490Y55950000D03*
G04 #@! TD*
D21*
G04 #@! TO.C,R13*
X36664510Y24600000D03*
X35974510Y24600000D03*
G04 #@! TD*
D25*
G04 #@! TO.C,C3*
X59559510Y26180000D03*
X59559510Y27140000D03*
G04 #@! TD*
D23*
G04 #@! TO.C,R2*
X12539510Y26125000D03*
X12539510Y26815000D03*
G04 #@! TD*
D21*
G04 #@! TO.C,R12*
X97064510Y14630000D03*
X96374510Y14630000D03*
G04 #@! TD*
D22*
G04 #@! TO.C,R15*
X99329510Y10830000D03*
X99329510Y10140000D03*
G04 #@! TD*
D23*
G04 #@! TO.C,R7*
X13949510Y11490000D03*
X13949510Y12180000D03*
G04 #@! TD*
G04 #@! TO.C,R16*
X52670490Y61150000D03*
X52670490Y61840000D03*
G04 #@! TD*
D25*
G04 #@! TO.C,C1*
X34059510Y9310000D03*
X34059510Y10270000D03*
G04 #@! TD*
G04 #@! TO.C,C1*
X94059510Y9310000D03*
X94059510Y10270000D03*
G04 #@! TD*
D23*
G04 #@! TO.C,R1*
X20160490Y43765000D03*
X20160490Y44455000D03*
G04 #@! TD*
D29*
G04 #@! TO.C,D1*
X80350490Y59850000D03*
D30*
X80350490Y60650000D03*
G04 #@! TD*
D21*
G04 #@! TO.C,R13*
X96664510Y24600000D03*
X95974510Y24600000D03*
G04 #@! TD*
D38*
G04 #@! TO.C,U4*
X36637500Y49812500D03*
X36637500Y51087500D03*
X35362500Y49812500D03*
X35362500Y51087500D03*
D39*
X39437500Y53050000D03*
D40*
X39437500Y52650000D03*
X39437500Y52250000D03*
X39437500Y51850000D03*
X39437500Y51450000D03*
X39437500Y51050000D03*
X39437500Y50650000D03*
X39437500Y50250000D03*
X39437500Y49850000D03*
X39437500Y49450000D03*
X39437500Y49050000D03*
X39437500Y48650000D03*
X39437500Y48250000D03*
X39437500Y47850000D03*
D41*
X38600000Y47012500D03*
X38200000Y47012500D03*
X37800000Y47012500D03*
X37400000Y47012500D03*
X37000000Y47012500D03*
X36600000Y47012500D03*
X36200000Y47012500D03*
X35800000Y47012500D03*
X35400000Y47012500D03*
X35000000Y47012500D03*
X34600000Y47012500D03*
X34200000Y47012500D03*
X33800000Y47012500D03*
X33400000Y47012500D03*
D40*
X32562500Y47850000D03*
X32562500Y48250000D03*
X32562500Y48650000D03*
X32562500Y49050000D03*
X32562500Y49450000D03*
X32562500Y49850000D03*
X32562500Y50250000D03*
X32562500Y50650000D03*
X32562500Y51050000D03*
X32562500Y51450000D03*
X32562500Y51850000D03*
X32562500Y52250000D03*
X32562500Y52650000D03*
X32562500Y53050000D03*
D41*
X33400000Y53887500D03*
X33800000Y53887500D03*
X34200000Y53887500D03*
X34600000Y53887500D03*
X35000000Y53887500D03*
X35400000Y53887500D03*
X35800000Y53887500D03*
X36200000Y53887500D03*
X36600000Y53887500D03*
X37000000Y53887500D03*
X37400000Y53887500D03*
X37800000Y53887500D03*
X38200000Y53887500D03*
X38600000Y53887500D03*
G04 #@! TD*
D36*
G04 #@! TO.C,U1*
X16537010Y11930000D03*
D32*
X15999510Y11855000D03*
D33*
X15462010Y11930000D03*
X15462010Y13630000D03*
D32*
X15999510Y13705000D03*
D33*
X16537010Y13630000D03*
G04 #@! TD*
D25*
G04 #@! TO.C,C3*
X39559510Y26180000D03*
X39559510Y27140000D03*
G04 #@! TD*
D21*
G04 #@! TO.C,R6*
X33955490Y45870000D03*
X33265490Y45870000D03*
G04 #@! TD*
D23*
G04 #@! TO.C,R15*
X52670490Y59750000D03*
X52670490Y60440000D03*
G04 #@! TD*
D17*
G04 #@! TO.C,U4*
X35362500Y20767500D03*
X35362500Y19492500D03*
X36637500Y20767500D03*
X36637500Y19492500D03*
D18*
X32562500Y17530000D03*
D19*
X32562500Y17930000D03*
X32562500Y18330000D03*
X32562500Y18730000D03*
X32562500Y19130000D03*
X32562500Y19530000D03*
X32562500Y19930000D03*
X32562500Y20330000D03*
X32562500Y20730000D03*
X32562500Y21130000D03*
X32562500Y21530000D03*
X32562500Y21930000D03*
X32562500Y22330000D03*
X32562500Y22730000D03*
D20*
X33400000Y23567500D03*
X33800000Y23567500D03*
X34200000Y23567500D03*
X34600000Y23567500D03*
X35000000Y23567500D03*
X35400000Y23567500D03*
X35800000Y23567500D03*
X36200000Y23567500D03*
X36600000Y23567500D03*
X37000000Y23567500D03*
X37400000Y23567500D03*
X37800000Y23567500D03*
X38200000Y23567500D03*
X38600000Y23567500D03*
D19*
X39437500Y22730000D03*
X39437500Y22330000D03*
X39437500Y21930000D03*
X39437500Y21530000D03*
X39437500Y21130000D03*
X39437500Y20730000D03*
X39437500Y20330000D03*
X39437500Y19930000D03*
X39437500Y19530000D03*
X39437500Y19130000D03*
X39437500Y18730000D03*
X39437500Y18330000D03*
X39437500Y17930000D03*
X39437500Y17530000D03*
D20*
X38600000Y16692500D03*
X38200000Y16692500D03*
X37800000Y16692500D03*
X37400000Y16692500D03*
X37000000Y16692500D03*
X36600000Y16692500D03*
X36200000Y16692500D03*
X35800000Y16692500D03*
X35400000Y16692500D03*
X35000000Y16692500D03*
X34600000Y16692500D03*
X34200000Y16692500D03*
X33800000Y16692500D03*
X33400000Y16692500D03*
G04 #@! TD*
D17*
G04 #@! TO.C,U4*
X55362500Y20767500D03*
X55362500Y19492500D03*
X56637500Y20767500D03*
X56637500Y19492500D03*
D18*
X52562500Y17530000D03*
D19*
X52562500Y17930000D03*
X52562500Y18330000D03*
X52562500Y18730000D03*
X52562500Y19130000D03*
X52562500Y19530000D03*
X52562500Y19930000D03*
X52562500Y20330000D03*
X52562500Y20730000D03*
X52562500Y21130000D03*
X52562500Y21530000D03*
X52562500Y21930000D03*
X52562500Y22330000D03*
X52562500Y22730000D03*
D20*
X53400000Y23567500D03*
X53800000Y23567500D03*
X54200000Y23567500D03*
X54600000Y23567500D03*
X55000000Y23567500D03*
X55400000Y23567500D03*
X55800000Y23567500D03*
X56200000Y23567500D03*
X56600000Y23567500D03*
X57000000Y23567500D03*
X57400000Y23567500D03*
X57800000Y23567500D03*
X58200000Y23567500D03*
X58600000Y23567500D03*
D19*
X59437500Y22730000D03*
X59437500Y22330000D03*
X59437500Y21930000D03*
X59437500Y21530000D03*
X59437500Y21130000D03*
X59437500Y20730000D03*
X59437500Y20330000D03*
X59437500Y19930000D03*
X59437500Y19530000D03*
X59437500Y19130000D03*
X59437500Y18730000D03*
X59437500Y18330000D03*
X59437500Y17930000D03*
X59437500Y17530000D03*
D20*
X58600000Y16692500D03*
X58200000Y16692500D03*
X57800000Y16692500D03*
X57400000Y16692500D03*
X57000000Y16692500D03*
X56600000Y16692500D03*
X56200000Y16692500D03*
X55800000Y16692500D03*
X55400000Y16692500D03*
X55000000Y16692500D03*
X54600000Y16692500D03*
X54200000Y16692500D03*
X53800000Y16692500D03*
X53400000Y16692500D03*
G04 #@! TD*
D29*
G04 #@! TO.C,D1*
X91649510Y10730000D03*
D42*
X91649510Y9930000D03*
G04 #@! TD*
D31*
G04 #@! TO.C,U1*
X95462990Y58650000D03*
D32*
X96000490Y58725000D03*
D33*
X96537990Y58650000D03*
X96537990Y56950000D03*
D32*
X96000490Y56875000D03*
D33*
X95462990Y56950000D03*
G04 #@! TD*
D22*
G04 #@! TO.C,R7*
X98050490Y59090000D03*
X98050490Y58400000D03*
G04 #@! TD*
D28*
G04 #@! TO.C,F1*
X39130490Y61577500D03*
X39130490Y60002500D03*
G04 #@! TD*
D27*
G04 #@! TO.C,FB1*
X59290490Y57420000D03*
X59290490Y56400000D03*
G04 #@! TD*
D23*
G04 #@! TO.C,R16*
X32670490Y61150000D03*
X32670490Y61840000D03*
G04 #@! TD*
D25*
G04 #@! TO.C,C1*
X14059510Y9310000D03*
X14059510Y10270000D03*
G04 #@! TD*
D22*
G04 #@! TO.C,R8*
X33950490Y59090000D03*
X33950490Y58400000D03*
G04 #@! TD*
D43*
G04 #@! TO.C,Y1*
X16864510Y25760000D03*
X15114510Y25760000D03*
X15114510Y27160000D03*
X16864510Y27160000D03*
G04 #@! TD*
D22*
G04 #@! TO.C,R15*
X19329510Y10830000D03*
X19329510Y10140000D03*
G04 #@! TD*
D23*
G04 #@! TO.C,C7*
X18060490Y43765000D03*
X18060490Y44455000D03*
G04 #@! TD*
D21*
G04 #@! TO.C,R6*
X13955490Y45870000D03*
X13265490Y45870000D03*
G04 #@! TD*
D24*
G04 #@! TO.C,R11*
X14964510Y14630000D03*
X15654510Y14630000D03*
G04 #@! TD*
D25*
G04 #@! TO.C,C3*
X19559510Y26180000D03*
X19559510Y27140000D03*
G04 #@! TD*
D34*
G04 #@! TO.C,FB1*
X92709510Y13160000D03*
X92709510Y14180000D03*
G04 #@! TD*
D24*
G04 #@! TO.C,R6*
X98044510Y24710000D03*
X98734510Y24710000D03*
G04 #@! TD*
D35*
G04 #@! TO.C,F1*
X12869510Y9002500D03*
X12869510Y10577500D03*
G04 #@! TD*
D21*
G04 #@! TO.C,R12*
X77064510Y14630000D03*
X76374510Y14630000D03*
G04 #@! TD*
D24*
G04 #@! TO.C,R5*
X93265490Y45170000D03*
X93955490Y45170000D03*
G04 #@! TD*
G04 #@! TO.C,R6*
X38044510Y24710000D03*
X38734510Y24710000D03*
G04 #@! TD*
D34*
G04 #@! TO.C,FB1*
X32709510Y13160000D03*
X32709510Y14180000D03*
G04 #@! TD*
D22*
G04 #@! TO.C,R16*
X39329510Y9430000D03*
X39329510Y8740000D03*
G04 #@! TD*
D29*
G04 #@! TO.C,D1*
X71649510Y10730000D03*
D42*
X71649510Y9930000D03*
G04 #@! TD*
D21*
G04 #@! TO.C,R13*
X76664510Y24600000D03*
X75974510Y24600000D03*
G04 #@! TD*
D22*
G04 #@! TO.C,C2*
X99449510Y25385000D03*
X99449510Y24695000D03*
G04 #@! TD*
D31*
G04 #@! TO.C,U1*
X15462990Y58650000D03*
D32*
X16000490Y58725000D03*
D33*
X16537990Y58650000D03*
X16537990Y56950000D03*
D32*
X16000490Y56875000D03*
D33*
X15462990Y56950000D03*
G04 #@! TD*
D22*
G04 #@! TO.C,R3*
X93239510Y26815000D03*
X93239510Y26125000D03*
G04 #@! TD*
G04 #@! TO.C,R3*
X73239510Y26815000D03*
X73239510Y26125000D03*
G04 #@! TD*
D23*
G04 #@! TO.C,R8*
X58049510Y11490000D03*
X58049510Y12180000D03*
G04 #@! TD*
D22*
G04 #@! TO.C,C2*
X19449510Y25385000D03*
X19449510Y24695000D03*
G04 #@! TD*
G04 #@! TO.C,C7*
X13939510Y26815000D03*
X13939510Y26125000D03*
G04 #@! TD*
D21*
G04 #@! TO.C,R11*
X97035490Y55950000D03*
X96345490Y55950000D03*
G04 #@! TD*
D23*
G04 #@! TO.C,R4*
X13250490Y43765000D03*
X13250490Y44455000D03*
G04 #@! TD*
G04 #@! TO.C,R1*
X100160490Y43765000D03*
X100160490Y44455000D03*
G04 #@! TD*
D29*
G04 #@! TO.C,D1*
X40350490Y59850000D03*
D30*
X40350490Y60650000D03*
G04 #@! TD*
D23*
G04 #@! TO.C,R8*
X38049510Y11490000D03*
X38049510Y12180000D03*
G04 #@! TD*
D27*
G04 #@! TO.C,FB1*
X99290490Y57420000D03*
X99290490Y56400000D03*
G04 #@! TD*
D22*
G04 #@! TO.C,R15*
X39329510Y10830000D03*
X39329510Y10140000D03*
G04 #@! TD*
D23*
G04 #@! TO.C,R8*
X98049510Y11490000D03*
X98049510Y12180000D03*
G04 #@! TD*
D22*
G04 #@! TO.C,R4*
X18749510Y26815000D03*
X18749510Y26125000D03*
G04 #@! TD*
D24*
G04 #@! TO.C,R11*
X34964510Y14630000D03*
X35654510Y14630000D03*
G04 #@! TD*
D22*
G04 #@! TO.C,R8*
X73950490Y59090000D03*
X73950490Y58400000D03*
G04 #@! TD*
D23*
G04 #@! TO.C,C2*
X12550490Y45195000D03*
X12550490Y45885000D03*
G04 #@! TD*
G04 #@! TO.C,R2*
X32539510Y26125000D03*
X32539510Y26815000D03*
G04 #@! TD*
G04 #@! TO.C,R7*
X33949510Y11490000D03*
X33949510Y12180000D03*
G04 #@! TD*
G04 #@! TO.C,C7*
X98060490Y43765000D03*
X98060490Y44455000D03*
G04 #@! TD*
D22*
G04 #@! TO.C,C7*
X33939510Y26815000D03*
X33939510Y26125000D03*
G04 #@! TD*
D25*
G04 #@! TO.C,C3*
X99559510Y26180000D03*
X99559510Y27140000D03*
G04 #@! TD*
D23*
G04 #@! TO.C,R16*
X92670490Y61150000D03*
X92670490Y61840000D03*
G04 #@! TD*
D21*
G04 #@! TO.C,R11*
X37035490Y55950000D03*
X36345490Y55950000D03*
G04 #@! TD*
D29*
G04 #@! TO.C,D1*
X100350490Y59850000D03*
D30*
X100350490Y60650000D03*
G04 #@! TD*
D23*
G04 #@! TO.C,R1*
X60160490Y43765000D03*
X60160490Y44455000D03*
G04 #@! TD*
D28*
G04 #@! TO.C,F1*
X59130490Y61577500D03*
X59130490Y60002500D03*
G04 #@! TD*
D22*
G04 #@! TO.C,R8*
X53950490Y59090000D03*
X53950490Y58400000D03*
G04 #@! TD*
D23*
G04 #@! TO.C,R16*
X72670490Y61150000D03*
X72670490Y61840000D03*
G04 #@! TD*
D22*
G04 #@! TO.C,R8*
X13950490Y59090000D03*
X13950490Y58400000D03*
G04 #@! TD*
G04 #@! TO.C,R3*
X53239510Y26815000D03*
X53239510Y26125000D03*
G04 #@! TD*
D24*
G04 #@! TO.C,R13*
X75335490Y45980000D03*
X76025490Y45980000D03*
G04 #@! TD*
D21*
G04 #@! TO.C,R5*
X98734510Y25410000D03*
X98044510Y25410000D03*
G04 #@! TD*
D26*
G04 #@! TO.C,C3*
X72440490Y44400000D03*
X72440490Y43440000D03*
G04 #@! TD*
D22*
G04 #@! TO.C,R16*
X59329510Y9430000D03*
X59329510Y8740000D03*
G04 #@! TD*
D21*
G04 #@! TO.C,R13*
X56664510Y24600000D03*
X55974510Y24600000D03*
G04 #@! TD*
D24*
G04 #@! TO.C,R11*
X94964510Y14630000D03*
X95654510Y14630000D03*
G04 #@! TD*
D23*
G04 #@! TO.C,R4*
X73250490Y43765000D03*
X73250490Y44455000D03*
G04 #@! TD*
G04 #@! TO.C,R1*
X80160490Y43765000D03*
X80160490Y44455000D03*
G04 #@! TD*
G04 #@! TO.C,C2*
X92550490Y45195000D03*
X92550490Y45885000D03*
G04 #@! TD*
D36*
G04 #@! TO.C,U1*
X36537010Y11930000D03*
D32*
X35999510Y11855000D03*
D33*
X35462010Y11930000D03*
X35462010Y13630000D03*
D32*
X35999510Y13705000D03*
D33*
X36537010Y13630000D03*
G04 #@! TD*
D22*
G04 #@! TO.C,R4*
X78749510Y26815000D03*
X78749510Y26125000D03*
G04 #@! TD*
D23*
G04 #@! TO.C,C7*
X78060490Y43765000D03*
X78060490Y44455000D03*
G04 #@! TD*
D22*
G04 #@! TO.C,C8*
X38039510Y26815000D03*
X38039510Y26125000D03*
G04 #@! TD*
D26*
G04 #@! TO.C,C1*
X57940490Y61270000D03*
X57940490Y60310000D03*
G04 #@! TD*
D21*
G04 #@! TO.C,R12*
X37064510Y14630000D03*
X36374510Y14630000D03*
G04 #@! TD*
D26*
G04 #@! TO.C,C3*
X32440490Y44400000D03*
X32440490Y43440000D03*
G04 #@! TD*
D22*
G04 #@! TO.C,R8*
X93950490Y59090000D03*
X93950490Y58400000D03*
G04 #@! TD*
G04 #@! TO.C,C7*
X93939510Y26815000D03*
X93939510Y26125000D03*
G04 #@! TD*
D23*
G04 #@! TO.C,R2*
X92539510Y26125000D03*
X92539510Y26815000D03*
G04 #@! TD*
D22*
G04 #@! TO.C,R16*
X19329510Y9430000D03*
X19329510Y8740000D03*
G04 #@! TD*
D24*
G04 #@! TO.C,R6*
X78044510Y24710000D03*
X78734510Y24710000D03*
G04 #@! TD*
G04 #@! TO.C,R5*
X13265490Y45170000D03*
X13955490Y45170000D03*
G04 #@! TD*
D38*
G04 #@! TO.C,U4*
X56637500Y49812500D03*
X56637500Y51087500D03*
X55362500Y49812500D03*
X55362500Y51087500D03*
D39*
X59437500Y53050000D03*
D40*
X59437500Y52650000D03*
X59437500Y52250000D03*
X59437500Y51850000D03*
X59437500Y51450000D03*
X59437500Y51050000D03*
X59437500Y50650000D03*
X59437500Y50250000D03*
X59437500Y49850000D03*
X59437500Y49450000D03*
X59437500Y49050000D03*
X59437500Y48650000D03*
X59437500Y48250000D03*
X59437500Y47850000D03*
D41*
X58600000Y47012500D03*
X58200000Y47012500D03*
X57800000Y47012500D03*
X57400000Y47012500D03*
X57000000Y47012500D03*
X56600000Y47012500D03*
X56200000Y47012500D03*
X55800000Y47012500D03*
X55400000Y47012500D03*
X55000000Y47012500D03*
X54600000Y47012500D03*
X54200000Y47012500D03*
X53800000Y47012500D03*
X53400000Y47012500D03*
D40*
X52562500Y47850000D03*
X52562500Y48250000D03*
X52562500Y48650000D03*
X52562500Y49050000D03*
X52562500Y49450000D03*
X52562500Y49850000D03*
X52562500Y50250000D03*
X52562500Y50650000D03*
X52562500Y51050000D03*
X52562500Y51450000D03*
X52562500Y51850000D03*
X52562500Y52250000D03*
X52562500Y52650000D03*
X52562500Y53050000D03*
D41*
X53400000Y53887500D03*
X53800000Y53887500D03*
X54200000Y53887500D03*
X54600000Y53887500D03*
X55000000Y53887500D03*
X55400000Y53887500D03*
X55800000Y53887500D03*
X56200000Y53887500D03*
X56600000Y53887500D03*
X57000000Y53887500D03*
X57400000Y53887500D03*
X57800000Y53887500D03*
X58200000Y53887500D03*
X58600000Y53887500D03*
G04 #@! TD*
D22*
G04 #@! TO.C,R1*
X31839510Y26815000D03*
X31839510Y26125000D03*
G04 #@! TD*
D34*
G04 #@! TO.C,FB1*
X12709510Y13160000D03*
X12709510Y14180000D03*
G04 #@! TD*
D37*
G04 #@! TO.C,Y1*
X95135490Y44820000D03*
X96885490Y44820000D03*
X96885490Y43420000D03*
X95135490Y43420000D03*
G04 #@! TD*
D22*
G04 #@! TO.C,R1*
X71839510Y26815000D03*
X71839510Y26125000D03*
G04 #@! TD*
D23*
G04 #@! TO.C,C8*
X53960490Y43765000D03*
X53960490Y44455000D03*
G04 #@! TD*
D24*
G04 #@! TO.C,R11*
X74964510Y14630000D03*
X75654510Y14630000D03*
G04 #@! TD*
D23*
G04 #@! TO.C,R7*
X53949510Y11490000D03*
X53949510Y12180000D03*
G04 #@! TD*
D29*
G04 #@! TO.C,D1*
X11649510Y10730000D03*
D42*
X11649510Y9930000D03*
G04 #@! TD*
D22*
G04 #@! TO.C,C2*
X39449510Y25385000D03*
X39449510Y24695000D03*
G04 #@! TD*
G04 #@! TO.C,R1*
X51839510Y26815000D03*
X51839510Y26125000D03*
G04 #@! TD*
D24*
G04 #@! TO.C,R13*
X95335490Y45980000D03*
X96025490Y45980000D03*
G04 #@! TD*
D29*
G04 #@! TO.C,D1*
X31649510Y10730000D03*
D42*
X31649510Y9930000D03*
G04 #@! TD*
D38*
G04 #@! TO.C,U4*
X76637500Y49812500D03*
X76637500Y51087500D03*
X75362500Y49812500D03*
X75362500Y51087500D03*
D39*
X79437500Y53050000D03*
D40*
X79437500Y52650000D03*
X79437500Y52250000D03*
X79437500Y51850000D03*
X79437500Y51450000D03*
X79437500Y51050000D03*
X79437500Y50650000D03*
X79437500Y50250000D03*
X79437500Y49850000D03*
X79437500Y49450000D03*
X79437500Y49050000D03*
X79437500Y48650000D03*
X79437500Y48250000D03*
X79437500Y47850000D03*
D41*
X78600000Y47012500D03*
X78200000Y47012500D03*
X77800000Y47012500D03*
X77400000Y47012500D03*
X77000000Y47012500D03*
X76600000Y47012500D03*
X76200000Y47012500D03*
X75800000Y47012500D03*
X75400000Y47012500D03*
X75000000Y47012500D03*
X74600000Y47012500D03*
X74200000Y47012500D03*
X73800000Y47012500D03*
X73400000Y47012500D03*
D40*
X72562500Y47850000D03*
X72562500Y48250000D03*
X72562500Y48650000D03*
X72562500Y49050000D03*
X72562500Y49450000D03*
X72562500Y49850000D03*
X72562500Y50250000D03*
X72562500Y50650000D03*
X72562500Y51050000D03*
X72562500Y51450000D03*
X72562500Y51850000D03*
X72562500Y52250000D03*
X72562500Y52650000D03*
X72562500Y53050000D03*
D41*
X73400000Y53887500D03*
X73800000Y53887500D03*
X74200000Y53887500D03*
X74600000Y53887500D03*
X75000000Y53887500D03*
X75400000Y53887500D03*
X75800000Y53887500D03*
X76200000Y53887500D03*
X76600000Y53887500D03*
X77000000Y53887500D03*
X77400000Y53887500D03*
X77800000Y53887500D03*
X78200000Y53887500D03*
X78600000Y53887500D03*
G04 #@! TD*
D22*
G04 #@! TO.C,R7*
X38050490Y59090000D03*
X38050490Y58400000D03*
G04 #@! TD*
D21*
G04 #@! TO.C,R6*
X73955490Y45870000D03*
X73265490Y45870000D03*
G04 #@! TD*
D36*
G04 #@! TO.C,U1*
X96537010Y11930000D03*
D32*
X95999510Y11855000D03*
D33*
X95462010Y11930000D03*
X95462010Y13630000D03*
D32*
X95999510Y13705000D03*
D33*
X96537010Y13630000D03*
G04 #@! TD*
D22*
G04 #@! TO.C,R7*
X78050490Y59090000D03*
X78050490Y58400000D03*
G04 #@! TD*
D23*
G04 #@! TO.C,C8*
X93960490Y43765000D03*
X93960490Y44455000D03*
G04 #@! TD*
D24*
G04 #@! TO.C,R12*
X34935490Y55950000D03*
X35625490Y55950000D03*
G04 #@! TD*
D22*
G04 #@! TO.C,C8*
X78039510Y26815000D03*
X78039510Y26125000D03*
G04 #@! TD*
D21*
G04 #@! TO.C,R12*
X57064510Y14630000D03*
X56374510Y14630000D03*
G04 #@! TD*
D22*
G04 #@! TO.C,R2*
X59460490Y44455000D03*
X59460490Y43765000D03*
G04 #@! TD*
D24*
G04 #@! TO.C,R6*
X58044510Y24710000D03*
X58734510Y24710000D03*
G04 #@! TD*
D29*
G04 #@! TO.C,D1*
X51649510Y10730000D03*
D42*
X51649510Y9930000D03*
G04 #@! TD*
D23*
G04 #@! TO.C,R3*
X18760490Y43765000D03*
X18760490Y44455000D03*
G04 #@! TD*
D36*
G04 #@! TO.C,U1*
X56537010Y11930000D03*
D32*
X55999510Y11855000D03*
D33*
X55462010Y11930000D03*
X55462010Y13630000D03*
D32*
X55999510Y13705000D03*
D33*
X56537010Y13630000D03*
G04 #@! TD*
D23*
G04 #@! TO.C,C8*
X13960490Y43765000D03*
X13960490Y44455000D03*
G04 #@! TD*
D22*
G04 #@! TO.C,C8*
X98039510Y26815000D03*
X98039510Y26125000D03*
G04 #@! TD*
G04 #@! TO.C,R7*
X58050490Y59090000D03*
X58050490Y58400000D03*
G04 #@! TD*
D29*
G04 #@! TO.C,D1*
X20350490Y59850000D03*
D30*
X20350490Y60650000D03*
G04 #@! TD*
D38*
G04 #@! TO.C,U4*
X96637500Y49812500D03*
X96637500Y51087500D03*
X95362500Y49812500D03*
X95362500Y51087500D03*
D39*
X99437500Y53050000D03*
D40*
X99437500Y52650000D03*
X99437500Y52250000D03*
X99437500Y51850000D03*
X99437500Y51450000D03*
X99437500Y51050000D03*
X99437500Y50650000D03*
X99437500Y50250000D03*
X99437500Y49850000D03*
X99437500Y49450000D03*
X99437500Y49050000D03*
X99437500Y48650000D03*
X99437500Y48250000D03*
X99437500Y47850000D03*
D41*
X98600000Y47012500D03*
X98200000Y47012500D03*
X97800000Y47012500D03*
X97400000Y47012500D03*
X97000000Y47012500D03*
X96600000Y47012500D03*
X96200000Y47012500D03*
X95800000Y47012500D03*
X95400000Y47012500D03*
X95000000Y47012500D03*
X94600000Y47012500D03*
X94200000Y47012500D03*
X93800000Y47012500D03*
X93400000Y47012500D03*
D40*
X92562500Y47850000D03*
X92562500Y48250000D03*
X92562500Y48650000D03*
X92562500Y49050000D03*
X92562500Y49450000D03*
X92562500Y49850000D03*
X92562500Y50250000D03*
X92562500Y50650000D03*
X92562500Y51050000D03*
X92562500Y51450000D03*
X92562500Y51850000D03*
X92562500Y52250000D03*
X92562500Y52650000D03*
X92562500Y53050000D03*
D41*
X93400000Y53887500D03*
X93800000Y53887500D03*
X94200000Y53887500D03*
X94600000Y53887500D03*
X95000000Y53887500D03*
X95400000Y53887500D03*
X95800000Y53887500D03*
X96200000Y53887500D03*
X96600000Y53887500D03*
X97000000Y53887500D03*
X97400000Y53887500D03*
X97800000Y53887500D03*
X98200000Y53887500D03*
X98600000Y53887500D03*
G04 #@! TD*
D26*
G04 #@! TO.C,C3*
X12440490Y44400000D03*
X12440490Y43440000D03*
G04 #@! TD*
D23*
G04 #@! TO.C,C7*
X58060490Y43765000D03*
X58060490Y44455000D03*
G04 #@! TD*
D17*
G04 #@! TO.C,U4*
X15362500Y20767500D03*
X15362500Y19492500D03*
X16637500Y20767500D03*
X16637500Y19492500D03*
D18*
X12562500Y17530000D03*
D19*
X12562500Y17930000D03*
X12562500Y18330000D03*
X12562500Y18730000D03*
X12562500Y19130000D03*
X12562500Y19530000D03*
X12562500Y19930000D03*
X12562500Y20330000D03*
X12562500Y20730000D03*
X12562500Y21130000D03*
X12562500Y21530000D03*
X12562500Y21930000D03*
X12562500Y22330000D03*
X12562500Y22730000D03*
D20*
X13400000Y23567500D03*
X13800000Y23567500D03*
X14200000Y23567500D03*
X14600000Y23567500D03*
X15000000Y23567500D03*
X15400000Y23567500D03*
X15800000Y23567500D03*
X16200000Y23567500D03*
X16600000Y23567500D03*
X17000000Y23567500D03*
X17400000Y23567500D03*
X17800000Y23567500D03*
X18200000Y23567500D03*
X18600000Y23567500D03*
D19*
X19437500Y22730000D03*
X19437500Y22330000D03*
X19437500Y21930000D03*
X19437500Y21530000D03*
X19437500Y21130000D03*
X19437500Y20730000D03*
X19437500Y20330000D03*
X19437500Y19930000D03*
X19437500Y19530000D03*
X19437500Y19130000D03*
X19437500Y18730000D03*
X19437500Y18330000D03*
X19437500Y17930000D03*
X19437500Y17530000D03*
D20*
X18600000Y16692500D03*
X18200000Y16692500D03*
X17800000Y16692500D03*
X17400000Y16692500D03*
X17000000Y16692500D03*
X16600000Y16692500D03*
X16200000Y16692500D03*
X15800000Y16692500D03*
X15400000Y16692500D03*
X15000000Y16692500D03*
X14600000Y16692500D03*
X14200000Y16692500D03*
X13800000Y16692500D03*
X13400000Y16692500D03*
G04 #@! TD*
D21*
G04 #@! TO.C,R5*
X78734510Y25410000D03*
X78044510Y25410000D03*
G04 #@! TD*
D23*
G04 #@! TO.C,C8*
X33960490Y43765000D03*
X33960490Y44455000D03*
G04 #@! TD*
D35*
G04 #@! TO.C,F1*
X92869510Y9002500D03*
X92869510Y10577500D03*
G04 #@! TD*
D22*
G04 #@! TO.C,R4*
X58749510Y26815000D03*
X58749510Y26125000D03*
G04 #@! TD*
D26*
G04 #@! TO.C,C3*
X92440490Y44400000D03*
X92440490Y43440000D03*
G04 #@! TD*
D22*
G04 #@! TO.C,R2*
X19460490Y44455000D03*
X19460490Y43765000D03*
G04 #@! TD*
G04 #@! TO.C,R1*
X11839510Y26815000D03*
X11839510Y26125000D03*
G04 #@! TD*
D37*
G04 #@! TO.C,Y1*
X15135490Y44820000D03*
X16885490Y44820000D03*
X16885490Y43420000D03*
X15135490Y43420000D03*
G04 #@! TD*
D23*
G04 #@! TO.C,R4*
X33250490Y43765000D03*
X33250490Y44455000D03*
G04 #@! TD*
D31*
G04 #@! TO.C,U1*
X35462990Y58650000D03*
D32*
X36000490Y58725000D03*
D33*
X36537990Y58650000D03*
X36537990Y56950000D03*
D32*
X36000490Y56875000D03*
D33*
X35462990Y56950000D03*
G04 #@! TD*
D23*
G04 #@! TO.C,R7*
X93949510Y11490000D03*
X93949510Y12180000D03*
G04 #@! TD*
D24*
G04 #@! TO.C,R13*
X15335490Y45980000D03*
X16025490Y45980000D03*
G04 #@! TD*
D23*
G04 #@! TO.C,C8*
X73960490Y43765000D03*
X73960490Y44455000D03*
G04 #@! TD*
D22*
G04 #@! TO.C,R3*
X33239510Y26815000D03*
X33239510Y26125000D03*
G04 #@! TD*
G04 #@! TO.C,R2*
X79460490Y44455000D03*
X79460490Y43765000D03*
G04 #@! TD*
D38*
G04 #@! TO.C,U4*
X16637500Y49812500D03*
X16637500Y51087500D03*
X15362500Y49812500D03*
X15362500Y51087500D03*
D39*
X19437500Y53050000D03*
D40*
X19437500Y52650000D03*
X19437500Y52250000D03*
X19437500Y51850000D03*
X19437500Y51450000D03*
X19437500Y51050000D03*
X19437500Y50650000D03*
X19437500Y50250000D03*
X19437500Y49850000D03*
X19437500Y49450000D03*
X19437500Y49050000D03*
X19437500Y48650000D03*
X19437500Y48250000D03*
X19437500Y47850000D03*
D41*
X18600000Y47012500D03*
X18200000Y47012500D03*
X17800000Y47012500D03*
X17400000Y47012500D03*
X17000000Y47012500D03*
X16600000Y47012500D03*
X16200000Y47012500D03*
X15800000Y47012500D03*
X15400000Y47012500D03*
X15000000Y47012500D03*
X14600000Y47012500D03*
X14200000Y47012500D03*
X13800000Y47012500D03*
X13400000Y47012500D03*
D40*
X12562500Y47850000D03*
X12562500Y48250000D03*
X12562500Y48650000D03*
X12562500Y49050000D03*
X12562500Y49450000D03*
X12562500Y49850000D03*
X12562500Y50250000D03*
X12562500Y50650000D03*
X12562500Y51050000D03*
X12562500Y51450000D03*
X12562500Y51850000D03*
X12562500Y52250000D03*
X12562500Y52650000D03*
X12562500Y53050000D03*
D41*
X13400000Y53887500D03*
X13800000Y53887500D03*
X14200000Y53887500D03*
X14600000Y53887500D03*
X15000000Y53887500D03*
X15400000Y53887500D03*
X15800000Y53887500D03*
X16200000Y53887500D03*
X16600000Y53887500D03*
X17000000Y53887500D03*
X17400000Y53887500D03*
X17800000Y53887500D03*
X18200000Y53887500D03*
X18600000Y53887500D03*
G04 #@! TD*
D21*
G04 #@! TO.C,R5*
X58734510Y25410000D03*
X58044510Y25410000D03*
G04 #@! TD*
G04 #@! TO.C,R5*
X38734510Y25410000D03*
X38044510Y25410000D03*
G04 #@! TD*
D43*
G04 #@! TO.C,Y1*
X36864510Y25760000D03*
X35114510Y25760000D03*
X35114510Y27160000D03*
X36864510Y27160000D03*
G04 #@! TD*
D35*
G04 #@! TO.C,F1*
X32869510Y9002500D03*
X32869510Y10577500D03*
G04 #@! TD*
D21*
G04 #@! TO.C,R6*
X53955490Y45870000D03*
X53265490Y45870000D03*
G04 #@! TD*
D22*
G04 #@! TO.C,R15*
X79329510Y10830000D03*
X79329510Y10140000D03*
G04 #@! TD*
D24*
G04 #@! TO.C,R12*
X14935490Y55950000D03*
X15625490Y55950000D03*
G04 #@! TD*
D43*
G04 #@! TO.C,Y1*
X96864510Y25760000D03*
X95114510Y25760000D03*
X95114510Y27160000D03*
X96864510Y27160000D03*
G04 #@! TD*
D22*
G04 #@! TO.C,C2*
X59449510Y25385000D03*
X59449510Y24695000D03*
G04 #@! TD*
D27*
G04 #@! TO.C,FB1*
X79290490Y57420000D03*
X79290490Y56400000D03*
G04 #@! TD*
D37*
G04 #@! TO.C,Y1*
X35135490Y44820000D03*
X36885490Y44820000D03*
X36885490Y43420000D03*
X35135490Y43420000D03*
G04 #@! TD*
D21*
G04 #@! TO.C,R5*
X18734510Y25410000D03*
X18044510Y25410000D03*
G04 #@! TD*
D23*
G04 #@! TO.C,R4*
X93250490Y43765000D03*
X93250490Y44455000D03*
G04 #@! TD*
G04 #@! TO.C,C2*
X72550490Y45195000D03*
X72550490Y45885000D03*
G04 #@! TD*
D22*
G04 #@! TO.C,R15*
X59329510Y10830000D03*
X59329510Y10140000D03*
G04 #@! TD*
D35*
G04 #@! TO.C,F1*
X72869510Y9002500D03*
X72869510Y10577500D03*
G04 #@! TD*
D26*
G04 #@! TO.C,C1*
X17940490Y61270000D03*
X17940490Y60310000D03*
G04 #@! TD*
D25*
G04 #@! TO.C,C3*
X79559510Y26180000D03*
X79559510Y27140000D03*
G04 #@! TD*
D43*
G04 #@! TO.C,Y1*
X76864510Y25760000D03*
X75114510Y25760000D03*
X75114510Y27160000D03*
X76864510Y27160000D03*
G04 #@! TD*
D23*
G04 #@! TO.C,C2*
X52550490Y45195000D03*
X52550490Y45885000D03*
G04 #@! TD*
D43*
G04 #@! TO.C,Y1*
X56864510Y25760000D03*
X55114510Y25760000D03*
X55114510Y27160000D03*
X56864510Y27160000D03*
G04 #@! TD*
M02*
