M48
; DRILL file {KiCad 8.0.1-8.0.1-1~ubuntu22.04.1} date 2024-08-08T21:33:10+0000
; FORMAT={-:-/ absolute / metric / decimal}
; #@! TF.CreationDate,2024-08-08T21:33:10+00:00
; #@! TF.GenerationSoftware,Kicad,Pcbnew,8.0.1-8.0.1-1~ubuntu22.04.1
; #@! TF.FileFunction,MixedPlating,1,4
FMAT,2
METRIC
; #@! TA.AperFunction,Plated,PTH,ViaDrill
T1C0.200
; #@! TA.AperFunction,Plated,PTH,ViaDrill
T2C0.300
; #@! TA.AperFunction,Plated,PTH,ViaDrill
T3C0.400
; #@! TA.AperFunction,Plated,PTH,ComponentDrill
T4C0.600
; #@! TA.AperFunction,Plated,PTH,ComponentDrill
T5C0.900
; #@! TA.AperFunction,NonPlated,NPTH,ComponentDrill
T6C0.400
; #@! TA.AperFunction,NonPlated,NPTH,ComponentDrill
T7C0.650
; #@! TA.AperFunction,NonPlated,NPTH,ComponentDrill
T8C2.000
%
G90
G05
T1
X8.35Y53.04
X8.37Y17.54
X8.38Y27.63
X8.38Y9.87
X8.38Y42.94
X8.41Y60.7
X9.904Y47.696
X10.65Y24.89
X10.91Y45.52
X11.005Y21.636
X11.015Y23.491
X11.02Y22.87
X11.02Y22.23
X11.16Y25.43
X11.42Y54.32
X11.42Y53.68
X11.795Y51.49
X11.801Y26.154
X11.81Y52.71
X11.81Y52.12
X11.93Y45.19
X12.0Y21.13
X12.01Y16.95
X12.13Y53.68
X12.18Y28.92
X12.2Y41.67
X12.44Y44.13
X12.45Y59.0
X12.511Y23.199
X12.54Y26.79
X12.71Y16.94
X12.85Y54.32
X12.85Y53.68
X12.85Y46.84
X12.852Y45.84
X13.286Y43.808
X13.297Y26.156
X13.33Y22.04
X13.33Y20.763
X13.34Y19.5
X13.37Y15.192
X13.37Y23.567
X13.37Y16.692
X13.37Y52.39
X13.38Y55.388
X13.38Y49.82
X13.386Y51.084
X13.4Y59.23
X13.4Y51.69
X13.41Y11.36
X13.49Y17.64
X13.58Y49.15
X13.73Y24.35
X13.75Y60.03
X13.8Y47.55
X13.96Y27.33
X14.05Y17.628
X14.12Y15.192
X14.13Y55.388
X14.25Y58.425
X14.29Y24.35
X14.61Y17.64
X14.75Y12.175
X14.867Y45.65
X14.87Y15.192
X14.88Y55.379
X14.92Y24.36
X14.98Y22.76
X15.169Y17.63
X15.25Y47.92
X15.27Y13.0
X15.36Y7.65
X15.37Y62.93
X15.462Y11.93
X15.463Y58.65
X15.729Y17.63
X15.75Y57.58
X15.95Y47.92
X15.99Y45.45
X15.991Y56.467
X16.009Y14.113
X16.01Y25.13
X16.05Y22.66
X16.25Y13.0
X16.271Y52.95
X16.537Y11.93
X16.538Y58.65
X16.63Y7.65
X16.64Y62.93
X16.73Y57.58
X16.75Y22.66
X16.831Y52.95
X17.02Y47.82
X17.08Y46.22
X17.12Y15.201
X17.13Y55.388
X17.133Y24.93
X17.25Y58.405
X17.39Y52.94
X17.71Y46.23
X17.75Y12.155
X17.87Y15.192
X17.88Y55.388
X17.95Y52.952
X18.04Y43.25
X18.2Y23.03
X18.25Y10.55
X18.27Y46.23
X18.42Y21.43
X18.51Y52.94
X18.59Y59.22
X18.6Y18.89
X18.6Y11.35
X18.614Y19.496
X18.62Y20.76
X18.62Y15.192
X18.63Y18.19
X18.63Y53.887
X18.63Y47.012
X18.63Y55.388
X18.66Y51.08
X18.67Y49.817
X18.67Y48.54
X18.703Y44.424
X18.714Y26.772
X19.148Y24.74
X19.15Y23.74
X19.15Y16.9
X19.15Y16.26
X19.29Y53.64
X19.46Y43.79
X19.489Y47.381
X19.55Y11.58
X19.56Y26.45
X19.8Y28.91
X19.82Y41.66
X19.87Y16.9
X19.99Y53.63
X20.0Y49.45
X20.07Y25.39
X20.19Y18.46
X20.19Y17.87
X20.199Y44.426
X20.205Y19.09
X20.58Y16.9
X20.58Y16.26
X20.84Y45.15
X20.98Y48.35
X20.98Y47.71
X20.985Y47.089
X20.995Y48.944
X21.09Y25.06
X21.35Y45.69
X22.096Y22.884
X23.59Y9.88
X23.62Y27.64
X23.62Y60.71
X23.62Y42.95
X23.63Y53.04
X23.65Y17.54
X28.35Y53.04
X28.37Y17.54
X28.38Y27.63
X28.38Y9.87
X28.38Y42.94
X28.41Y60.7
X29.904Y47.696
X30.65Y24.89
X30.91Y45.52
X31.005Y21.636
X31.015Y23.491
X31.02Y22.87
X31.02Y22.23
X31.16Y25.43
X31.42Y54.32
X31.42Y53.68
X31.795Y51.49
X31.801Y26.154
X31.81Y52.71
X31.81Y52.12
X31.93Y45.19
X32.0Y21.13
X32.01Y16.95
X32.13Y53.68
X32.18Y28.92
X32.2Y41.67
X32.44Y44.13
X32.45Y59.0
X32.511Y23.199
X32.54Y26.79
X32.71Y16.94
X32.85Y54.32
X32.85Y53.68
X32.85Y46.84
X32.852Y45.84
X33.286Y43.808
X33.297Y26.156
X33.33Y22.04
X33.33Y20.763
X33.34Y19.5
X33.37Y15.192
X33.37Y23.567
X33.37Y16.692
X33.37Y52.39
X33.38Y55.388
X33.38Y49.82
X33.386Y51.084
X33.4Y59.23
X33.4Y51.69
X33.41Y11.36
X33.49Y17.64
X33.58Y49.15
X33.73Y24.35
X33.75Y60.03
X33.8Y47.55
X33.96Y27.33
X34.05Y17.628
X34.12Y15.192
X34.13Y55.388
X34.25Y58.425
X34.29Y24.35
X34.61Y17.64
X34.75Y12.175
X34.867Y45.65
X34.87Y15.192
X34.88Y55.379
X34.92Y24.36
X34.98Y22.76
X35.169Y17.63
X35.25Y47.92
X35.27Y13.0
X35.36Y7.65
X35.37Y62.93
X35.462Y11.93
X35.463Y58.65
X35.729Y17.63
X35.75Y57.58
X35.95Y47.92
X35.99Y45.45
X35.991Y56.467
X36.009Y14.113
X36.01Y25.13
X36.05Y22.66
X36.25Y13.0
X36.271Y52.95
X36.537Y11.93
X36.538Y58.65
X36.63Y7.65
X36.64Y62.93
X36.73Y57.58
X36.75Y22.66
X36.831Y52.95
X37.02Y47.82
X37.08Y46.22
X37.12Y15.201
X37.13Y55.388
X37.133Y24.93
X37.25Y58.405
X37.39Y52.94
X37.71Y46.23
X37.75Y12.155
X37.87Y15.192
X37.88Y55.388
X37.95Y52.952
X38.04Y43.25
X38.2Y23.03
X38.25Y10.55
X38.27Y46.23
X38.42Y21.43
X38.51Y52.94
X38.59Y59.22
X38.6Y18.89
X38.6Y11.35
X38.614Y19.496
X38.62Y20.76
X38.62Y15.192
X38.63Y18.19
X38.63Y53.887
X38.63Y47.012
X38.63Y55.388
X38.66Y51.08
X38.67Y49.817
X38.67Y48.54
X38.703Y44.424
X38.714Y26.772
X39.148Y24.74
X39.15Y23.74
X39.15Y16.9
X39.15Y16.26
X39.29Y53.64
X39.46Y43.79
X39.489Y47.381
X39.55Y11.58
X39.56Y26.45
X39.8Y28.91
X39.82Y41.66
X39.87Y16.9
X39.99Y53.63
X40.0Y49.45
X40.07Y25.39
X40.19Y18.46
X40.19Y17.87
X40.199Y44.426
X40.205Y19.09
X40.58Y16.9
X40.58Y16.26
X40.84Y45.15
X40.98Y48.35
X40.98Y47.71
X40.985Y47.089
X40.995Y48.944
X41.09Y25.06
X41.35Y45.69
X42.096Y22.884
X43.59Y9.88
X43.62Y27.64
X43.62Y60.71
X43.62Y42.95
X43.63Y53.04
X43.65Y17.54
X48.35Y53.04
X48.37Y17.54
X48.38Y27.63
X48.38Y9.87
X48.38Y42.94
X48.41Y60.7
X49.904Y47.696
X50.65Y24.89
X50.91Y45.52
X51.005Y21.636
X51.015Y23.491
X51.02Y22.87
X51.02Y22.23
X51.16Y25.43
X51.42Y54.32
X51.42Y53.68
X51.795Y51.49
X51.801Y26.154
X51.81Y52.71
X51.81Y52.12
X51.93Y45.19
X52.0Y21.13
X52.01Y16.95
X52.13Y53.68
X52.18Y28.92
X52.2Y41.67
X52.44Y44.13
X52.45Y59.0
X52.511Y23.199
X52.54Y26.79
X52.71Y16.94
X52.85Y54.32
X52.85Y53.68
X52.85Y46.84
X52.852Y45.84
X53.286Y43.808
X53.297Y26.156
X53.33Y22.04
X53.33Y20.763
X53.34Y19.5
X53.37Y15.192
X53.37Y23.567
X53.37Y16.692
X53.37Y52.39
X53.38Y55.388
X53.38Y49.82
X53.386Y51.084
X53.4Y59.23
X53.4Y51.69
X53.41Y11.36
X53.49Y17.64
X53.58Y49.15
X53.73Y24.35
X53.75Y60.03
X53.8Y47.55
X53.96Y27.33
X54.05Y17.628
X54.12Y15.192
X54.13Y55.388
X54.25Y58.425
X54.29Y24.35
X54.61Y17.64
X54.75Y12.175
X54.867Y45.65
X54.87Y15.192
X54.88Y55.379
X54.92Y24.36
X54.98Y22.76
X55.169Y17.63
X55.25Y47.92
X55.27Y13.0
X55.36Y7.65
X55.37Y62.93
X55.462Y11.93
X55.463Y58.65
X55.729Y17.63
X55.75Y57.58
X55.95Y47.92
X55.99Y45.45
X55.991Y56.467
X56.009Y14.113
X56.01Y25.13
X56.05Y22.66
X56.25Y13.0
X56.271Y52.95
X56.537Y11.93
X56.538Y58.65
X56.63Y7.65
X56.64Y62.93
X56.73Y57.58
X56.75Y22.66
X56.831Y52.95
X57.02Y47.82
X57.08Y46.22
X57.12Y15.201
X57.13Y55.388
X57.133Y24.93
X57.25Y58.405
X57.39Y52.94
X57.71Y46.23
X57.75Y12.155
X57.87Y15.192
X57.88Y55.388
X57.95Y52.952
X58.04Y43.25
X58.2Y23.03
X58.25Y10.55
X58.27Y46.23
X58.42Y21.43
X58.51Y52.94
X58.59Y59.22
X58.6Y18.89
X58.6Y11.35
X58.614Y19.496
X58.62Y20.76
X58.62Y15.192
X58.63Y18.19
X58.63Y53.887
X58.63Y47.012
X58.63Y55.388
X58.66Y51.08
X58.67Y49.817
X58.67Y48.54
X58.703Y44.424
X58.714Y26.772
X59.148Y24.74
X59.15Y23.74
X59.15Y16.9
X59.15Y16.26
X59.29Y53.64
X59.46Y43.79
X59.489Y47.381
X59.55Y11.58
X59.56Y26.45
X59.8Y28.91
X59.82Y41.66
X59.87Y16.9
X59.99Y53.63
X60.0Y49.45
X60.07Y25.39
X60.19Y18.46
X60.19Y17.87
X60.199Y44.426
X60.205Y19.09
X60.58Y16.9
X60.58Y16.26
X60.84Y45.15
X60.98Y48.35
X60.98Y47.71
X60.985Y47.089
X60.995Y48.944
X61.09Y25.06
X61.35Y45.69
X62.096Y22.884
X63.59Y9.88
X63.62Y27.64
X63.62Y60.71
X63.62Y42.95
X63.63Y53.04
X63.65Y17.54
X68.35Y53.04
X68.37Y17.54
X68.38Y27.63
X68.38Y9.87
X68.38Y42.94
X68.41Y60.7
X69.904Y47.696
X70.65Y24.89
X70.91Y45.52
X71.005Y21.636
X71.015Y23.491
X71.02Y22.87
X71.02Y22.23
X71.16Y25.43
X71.42Y54.32
X71.42Y53.68
X71.795Y51.49
X71.801Y26.154
X71.81Y52.71
X71.81Y52.12
X71.93Y45.19
X72.0Y21.13
X72.01Y16.95
X72.13Y53.68
X72.18Y28.92
X72.2Y41.67
X72.44Y44.13
X72.45Y59.0
X72.511Y23.199
X72.54Y26.79
X72.71Y16.94
X72.85Y54.32
X72.85Y53.68
X72.85Y46.84
X72.852Y45.84
X73.286Y43.808
X73.297Y26.156
X73.33Y22.04
X73.33Y20.763
X73.34Y19.5
X73.37Y15.192
X73.37Y23.567
X73.37Y16.692
X73.37Y52.39
X73.38Y55.388
X73.38Y49.82
X73.386Y51.084
X73.4Y59.23
X73.4Y51.69
X73.41Y11.36
X73.49Y17.64
X73.58Y49.15
X73.73Y24.35
X73.75Y60.03
X73.8Y47.55
X73.96Y27.33
X74.05Y17.628
X74.12Y15.192
X74.13Y55.388
X74.25Y58.425
X74.29Y24.35
X74.61Y17.64
X74.75Y12.175
X74.867Y45.65
X74.87Y15.192
X74.88Y55.379
X74.92Y24.36
X74.98Y22.76
X75.169Y17.63
X75.25Y47.92
X75.27Y13.0
X75.36Y7.65
X75.37Y62.93
X75.462Y11.93
X75.463Y58.65
X75.729Y17.63
X75.75Y57.58
X75.95Y47.92
X75.99Y45.45
X75.991Y56.467
X76.009Y14.113
X76.01Y25.13
X76.05Y22.66
X76.25Y13.0
X76.271Y52.95
X76.537Y11.93
X76.538Y58.65
X76.63Y7.65
X76.64Y62.93
X76.73Y57.58
X76.75Y22.66
X76.831Y52.95
X77.02Y47.82
X77.08Y46.22
X77.12Y15.201
X77.13Y55.388
X77.133Y24.93
X77.25Y58.405
X77.39Y52.94
X77.71Y46.23
X77.75Y12.155
X77.87Y15.192
X77.88Y55.388
X77.95Y52.952
X78.04Y43.25
X78.2Y23.03
X78.25Y10.55
X78.27Y46.23
X78.42Y21.43
X78.51Y52.94
X78.59Y59.22
X78.6Y18.89
X78.6Y11.35
X78.614Y19.496
X78.62Y20.76
X78.62Y15.192
X78.63Y18.19
X78.63Y53.887
X78.63Y47.012
X78.63Y55.388
X78.66Y51.08
X78.67Y49.817
X78.67Y48.54
X78.703Y44.424
X78.714Y26.772
X79.148Y24.74
X79.15Y23.74
X79.15Y16.9
X79.15Y16.26
X79.29Y53.64
X79.46Y43.79
X79.489Y47.381
X79.55Y11.58
X79.56Y26.45
X79.8Y28.91
X79.82Y41.66
X79.87Y16.9
X79.99Y53.63
X80.0Y49.45
X80.07Y25.39
X80.19Y18.46
X80.19Y17.87
X80.199Y44.426
X80.205Y19.09
X80.58Y16.9
X80.58Y16.26
X80.84Y45.15
X80.98Y48.35
X80.98Y47.71
X80.985Y47.089
X80.995Y48.944
X81.09Y25.06
X81.35Y45.69
X82.096Y22.884
X83.59Y9.88
X83.62Y27.64
X83.62Y60.71
X83.62Y42.95
X83.63Y53.04
X83.65Y17.54
X88.35Y53.04
X88.37Y17.54
X88.38Y27.63
X88.38Y9.87
X88.38Y42.94
X88.41Y60.7
X89.904Y47.696
X90.65Y24.89
X90.91Y45.52
X91.005Y21.636
X91.015Y23.491
X91.02Y22.87
X91.02Y22.23
X91.16Y25.43
X91.42Y54.32
X91.42Y53.68
X91.795Y51.49
X91.801Y26.154
X91.81Y52.71
X91.81Y52.12
X91.93Y45.19
X92.0Y21.13
X92.01Y16.95
X92.13Y53.68
X92.18Y28.92
X92.2Y41.67
X92.44Y44.13
X92.45Y59.0
X92.511Y23.199
X92.54Y26.79
X92.71Y16.94
X92.85Y54.32
X92.85Y53.68
X92.85Y46.84
X92.852Y45.84
X93.286Y43.808
X93.297Y26.156
X93.33Y22.04
X93.33Y20.763
X93.34Y19.5
X93.37Y15.192
X93.37Y23.567
X93.37Y16.692
X93.37Y52.39
X93.38Y55.388
X93.38Y49.82
X93.386Y51.084
X93.4Y59.23
X93.4Y51.69
X93.41Y11.36
X93.49Y17.64
X93.58Y49.15
X93.73Y24.35
X93.75Y60.03
X93.8Y47.55
X93.96Y27.33
X94.05Y17.628
X94.12Y15.192
X94.13Y55.388
X94.25Y58.425
X94.29Y24.35
X94.61Y17.64
X94.75Y12.175
X94.867Y45.65
X94.87Y15.192
X94.88Y55.379
X94.92Y24.36
X94.98Y22.76
X95.169Y17.63
X95.25Y47.92
X95.27Y13.0
X95.36Y7.65
X95.37Y62.93
X95.462Y11.93
X95.463Y58.65
X95.729Y17.63
X95.75Y57.58
X95.95Y47.92
X95.99Y45.45
X95.991Y56.467
X96.009Y14.113
X96.01Y25.13
X96.05Y22.66
X96.25Y13.0
X96.271Y52.95
X96.537Y11.93
X96.538Y58.65
X96.63Y7.65
X96.64Y62.93
X96.73Y57.58
X96.75Y22.66
X96.831Y52.95
X97.02Y47.82
X97.08Y46.22
X97.12Y15.201
X97.13Y55.388
X97.133Y24.93
X97.25Y58.405
X97.39Y52.94
X97.71Y46.23
X97.75Y12.155
X97.87Y15.192
X97.88Y55.388
X97.95Y52.952
X98.04Y43.25
X98.2Y23.03
X98.25Y10.55
X98.27Y46.23
X98.42Y21.43
X98.51Y52.94
X98.59Y59.22
X98.6Y18.89
X98.6Y11.35
X98.614Y19.496
X98.62Y20.76
X98.62Y15.192
X98.63Y18.19
X98.63Y53.887
X98.63Y47.012
X98.63Y55.388
X98.66Y51.08
X98.67Y49.817
X98.67Y48.54
X98.703Y44.424
X98.714Y26.772
X99.148Y24.74
X99.15Y23.74
X99.15Y16.9
X99.15Y16.26
X99.29Y53.64
X99.46Y43.79
X99.489Y47.381
X99.55Y11.58
X99.56Y26.45
X99.8Y28.91
X99.82Y41.66
X99.87Y16.9
X99.99Y53.63
X100.0Y49.45
X100.07Y25.39
X100.19Y18.46
X100.19Y17.87
X100.199Y44.426
X100.205Y19.09
X100.58Y16.9
X100.58Y16.26
X100.84Y45.15
X100.98Y48.35
X100.98Y47.71
X100.985Y47.089
X100.995Y48.944
X101.09Y25.06
X101.35Y45.69
X102.096Y22.884
X103.59Y9.88
X103.62Y27.64
X103.62Y60.71
X103.62Y42.95
X103.63Y53.04
X103.65Y17.54
T2
X10.714Y14.666
X11.179Y14.219
X11.676Y15.549
X11.89Y14.38
X12.142Y15.112
X15.25Y51.2
X15.25Y50.45
X15.25Y49.7
X15.25Y20.88
X15.25Y20.13
X15.25Y19.38
X16.0Y51.2
X16.0Y50.45
X16.0Y49.7
X16.0Y20.88
X16.0Y20.13
X16.0Y19.38
X16.75Y51.2
X16.75Y50.45
X16.75Y49.7
X16.75Y20.88
X16.75Y20.13
X16.75Y19.38
X19.858Y55.468
X20.11Y56.2
X20.324Y55.031
X20.821Y56.361
X21.286Y55.914
X30.714Y14.666
X31.179Y14.219
X31.676Y15.549
X31.89Y14.38
X32.142Y15.112
X35.25Y51.2
X35.25Y50.45
X35.25Y49.7
X35.25Y20.88
X35.25Y20.13
X35.25Y19.38
X36.0Y51.2
X36.0Y50.45
X36.0Y49.7
X36.0Y20.88
X36.0Y20.13
X36.0Y19.38
X36.75Y51.2
X36.75Y50.45
X36.75Y49.7
X36.75Y20.88
X36.75Y20.13
X36.75Y19.38
X39.858Y55.468
X40.11Y56.2
X40.324Y55.031
X40.821Y56.361
X41.286Y55.914
X50.714Y14.666
X51.179Y14.219
X51.676Y15.549
X51.89Y14.38
X52.142Y15.112
X55.25Y51.2
X55.25Y50.45
X55.25Y49.7
X55.25Y20.88
X55.25Y20.13
X55.25Y19.38
X56.0Y51.2
X56.0Y50.45
X56.0Y49.7
X56.0Y20.88
X56.0Y20.13
X56.0Y19.38
X56.75Y51.2
X56.75Y50.45
X56.75Y49.7
X56.75Y20.88
X56.75Y20.13
X56.75Y19.38
X59.858Y55.468
X60.11Y56.2
X60.324Y55.031
X60.821Y56.361
X61.286Y55.914
X70.714Y14.666
X71.179Y14.219
X71.676Y15.549
X71.89Y14.38
X72.142Y15.112
X75.25Y51.2
X75.25Y50.45
X75.25Y49.7
X75.25Y20.88
X75.25Y20.13
X75.25Y19.38
X76.0Y51.2
X76.0Y50.45
X76.0Y49.7
X76.0Y20.88
X76.0Y20.13
X76.0Y19.38
X76.75Y51.2
X76.75Y50.45
X76.75Y49.7
X76.75Y20.88
X76.75Y20.13
X76.75Y19.38
X79.858Y55.468
X80.11Y56.2
X80.324Y55.031
X80.821Y56.361
X81.286Y55.914
X90.714Y14.666
X91.179Y14.219
X91.676Y15.549
X91.89Y14.38
X92.142Y15.112
X95.25Y51.2
X95.25Y50.45
X95.25Y49.7
X95.25Y20.88
X95.25Y20.13
X95.25Y19.38
X96.0Y51.2
X96.0Y50.45
X96.0Y49.7
X96.0Y20.88
X96.0Y20.13
X96.0Y19.38
X96.75Y51.2
X96.75Y50.45
X96.75Y49.7
X96.75Y20.88
X96.75Y20.13
X96.75Y19.38
X99.858Y55.468
X100.11Y56.2
X100.324Y55.031
X100.821Y56.361
X101.286Y55.914
T3
X11.745Y55.395
X12.834Y56.787
X13.6Y13.155
X13.6Y57.425
X14.09Y9.31
X14.09Y7.65
X14.11Y62.94
X17.89Y7.64
X17.91Y62.93
X17.91Y61.27
X18.4Y13.155
X18.4Y57.425
X19.166Y13.793
X20.255Y15.185
X31.745Y55.395
X32.834Y56.787
X33.6Y13.155
X33.6Y57.425
X34.09Y9.31
X34.09Y7.65
X34.11Y62.94
X37.89Y7.64
X37.91Y62.93
X37.91Y61.27
X38.4Y13.155
X38.4Y57.425
X39.166Y13.793
X40.255Y15.185
X51.745Y55.395
X52.834Y56.787
X53.6Y13.155
X53.6Y57.425
X54.09Y9.31
X54.09Y7.65
X54.11Y62.94
X57.89Y7.64
X57.91Y62.93
X57.91Y61.27
X58.4Y13.155
X58.4Y57.425
X59.166Y13.793
X60.255Y15.185
X71.745Y55.395
X72.834Y56.787
X73.6Y13.155
X73.6Y57.425
X74.09Y9.31
X74.09Y7.65
X74.11Y62.94
X77.89Y7.64
X77.91Y62.93
X77.91Y61.27
X78.4Y13.155
X78.4Y57.425
X79.166Y13.793
X80.255Y15.185
X91.745Y55.395
X92.834Y56.787
X93.6Y13.155
X93.6Y57.425
X94.09Y9.31
X94.09Y7.65
X94.11Y62.94
X97.89Y7.64
X97.91Y62.93
X97.91Y61.27
X98.4Y13.155
X98.4Y57.425
X99.166Y13.793
X100.255Y15.185
T5
X7.0Y61.99
X7.0Y59.45
X7.0Y56.91
X7.0Y54.37
X7.0Y51.83
X7.0Y49.29
X7.0Y46.75
X7.0Y44.21
X7.0Y41.67
X7.0Y28.91
X7.0Y26.37
X7.0Y23.83
X7.0Y21.29
X7.0Y18.75
X7.0Y16.21
X7.0Y13.67
X7.0Y11.13
X7.0Y8.59
X8.38Y61.99
X8.38Y59.45
X8.38Y56.91
X8.38Y54.37
X8.38Y51.83
X8.38Y49.29
X8.38Y46.75
X8.38Y44.21
X8.38Y41.67
X8.38Y28.91
X8.38Y26.37
X8.38Y23.83
X8.38Y21.29
X8.38Y18.75
X8.38Y16.21
X8.38Y13.67
X8.38Y11.13
X8.38Y8.59
X10.92Y44.21
X10.92Y41.67
X10.92Y40.29
X10.92Y30.29
X10.92Y28.91
X13.46Y41.67
X13.46Y40.29
X13.46Y30.29
X13.46Y28.91
X16.0Y41.636
X16.0Y40.256
X16.0Y30.324
X16.0Y28.944
X18.54Y41.67
X18.54Y40.29
X18.54Y30.29
X18.54Y28.91
X21.08Y41.67
X21.08Y40.29
X21.08Y30.29
X21.08Y28.91
X21.08Y26.37
X23.62Y61.99
X23.62Y59.45
X23.62Y56.91
X23.62Y54.37
X23.62Y51.83
X23.62Y49.29
X23.62Y46.75
X23.62Y44.21
X23.62Y41.67
X23.62Y28.91
X23.62Y26.37
X23.62Y23.83
X23.62Y21.29
X23.62Y18.75
X23.62Y16.21
X23.62Y13.67
X23.62Y11.13
X23.62Y8.59
X25.0Y61.99
X25.0Y59.45
X25.0Y56.91
X25.0Y54.37
X25.0Y51.83
X25.0Y49.29
X25.0Y46.75
X25.0Y44.21
X25.0Y41.67
X25.0Y28.91
X25.0Y26.37
X25.0Y23.83
X25.0Y21.29
X25.0Y18.75
X25.0Y16.21
X25.0Y13.67
X25.0Y11.13
X25.0Y8.59
X27.0Y61.99
X27.0Y59.45
X27.0Y56.91
X27.0Y54.37
X27.0Y51.83
X27.0Y49.29
X27.0Y46.75
X27.0Y44.21
X27.0Y41.67
X27.0Y28.91
X27.0Y26.37
X27.0Y23.83
X27.0Y21.29
X27.0Y18.75
X27.0Y16.21
X27.0Y13.67
X27.0Y11.13
X27.0Y8.59
X28.38Y61.99
X28.38Y59.45
X28.38Y56.91
X28.38Y54.37
X28.38Y51.83
X28.38Y49.29
X28.38Y46.75
X28.38Y44.21
X28.38Y41.67
X28.38Y28.91
X28.38Y26.37
X28.38Y23.83
X28.38Y21.29
X28.38Y18.75
X28.38Y16.21
X28.38Y13.67
X28.38Y11.13
X28.38Y8.59
X30.92Y44.21
X30.92Y41.67
X30.92Y40.29
X30.92Y30.29
X30.92Y28.91
X33.46Y41.67
X33.46Y40.29
X33.46Y30.29
X33.46Y28.91
X36.0Y41.636
X36.0Y40.256
X36.0Y30.324
X36.0Y28.944
X38.54Y41.67
X38.54Y40.29
X38.54Y30.29
X38.54Y28.91
X41.08Y41.67
X41.08Y40.29
X41.08Y30.29
X41.08Y28.91
X41.08Y26.37
X43.62Y61.99
X43.62Y59.45
X43.62Y56.91
X43.62Y54.37
X43.62Y51.83
X43.62Y49.29
X43.62Y46.75
X43.62Y44.21
X43.62Y41.67
X43.62Y28.91
X43.62Y26.37
X43.62Y23.83
X43.62Y21.29
X43.62Y18.75
X43.62Y16.21
X43.62Y13.67
X43.62Y11.13
X43.62Y8.59
X45.0Y61.99
X45.0Y59.45
X45.0Y56.91
X45.0Y54.37
X45.0Y51.83
X45.0Y49.29
X45.0Y46.75
X45.0Y44.21
X45.0Y41.67
X45.0Y28.91
X45.0Y26.37
X45.0Y23.83
X45.0Y21.29
X45.0Y18.75
X45.0Y16.21
X45.0Y13.67
X45.0Y11.13
X45.0Y8.59
X47.0Y61.99
X47.0Y59.45
X47.0Y56.91
X47.0Y54.37
X47.0Y51.83
X47.0Y49.29
X47.0Y46.75
X47.0Y44.21
X47.0Y41.67
X47.0Y28.91
X47.0Y26.37
X47.0Y23.83
X47.0Y21.29
X47.0Y18.75
X47.0Y16.21
X47.0Y13.67
X47.0Y11.13
X47.0Y8.59
X48.38Y61.99
X48.38Y59.45
X48.38Y56.91
X48.38Y54.37
X48.38Y51.83
X48.38Y49.29
X48.38Y46.75
X48.38Y44.21
X48.38Y41.67
X48.38Y28.91
X48.38Y26.37
X48.38Y23.83
X48.38Y21.29
X48.38Y18.75
X48.38Y16.21
X48.38Y13.67
X48.38Y11.13
X48.38Y8.59
X50.92Y44.21
X50.92Y41.67
X50.92Y40.29
X50.92Y30.29
X50.92Y28.91
X53.46Y41.67
X53.46Y40.29
X53.46Y30.29
X53.46Y28.91
X56.0Y41.636
X56.0Y40.256
X56.0Y30.324
X56.0Y28.944
X58.54Y41.67
X58.54Y40.29
X58.54Y30.29
X58.54Y28.91
X61.08Y41.67
X61.08Y40.29
X61.08Y30.29
X61.08Y28.91
X61.08Y26.37
X63.62Y61.99
X63.62Y59.45
X63.62Y56.91
X63.62Y54.37
X63.62Y51.83
X63.62Y49.29
X63.62Y46.75
X63.62Y44.21
X63.62Y41.67
X63.62Y28.91
X63.62Y26.37
X63.62Y23.83
X63.62Y21.29
X63.62Y18.75
X63.62Y16.21
X63.62Y13.67
X63.62Y11.13
X63.62Y8.59
X65.0Y61.99
X65.0Y59.45
X65.0Y56.91
X65.0Y54.37
X65.0Y51.83
X65.0Y49.29
X65.0Y46.75
X65.0Y44.21
X65.0Y41.67
X65.0Y28.91
X65.0Y26.37
X65.0Y23.83
X65.0Y21.29
X65.0Y18.75
X65.0Y16.21
X65.0Y13.67
X65.0Y11.13
X65.0Y8.59
X67.0Y61.99
X67.0Y59.45
X67.0Y56.91
X67.0Y54.37
X67.0Y51.83
X67.0Y49.29
X67.0Y46.75
X67.0Y44.21
X67.0Y41.67
X67.0Y28.91
X67.0Y26.37
X67.0Y23.83
X67.0Y21.29
X67.0Y18.75
X67.0Y16.21
X67.0Y13.67
X67.0Y11.13
X67.0Y8.59
X68.38Y61.99
X68.38Y59.45
X68.38Y56.91
X68.38Y54.37
X68.38Y51.83
X68.38Y49.29
X68.38Y46.75
X68.38Y44.21
X68.38Y41.67
X68.38Y28.91
X68.38Y26.37
X68.38Y23.83
X68.38Y21.29
X68.38Y18.75
X68.38Y16.21
X68.38Y13.67
X68.38Y11.13
X68.38Y8.59
X70.92Y44.21
X70.92Y41.67
X70.92Y40.29
X70.92Y30.29
X70.92Y28.91
X73.46Y41.67
X73.46Y40.29
X73.46Y30.29
X73.46Y28.91
X76.0Y41.636
X76.0Y40.256
X76.0Y30.324
X76.0Y28.944
X78.54Y41.67
X78.54Y40.29
X78.54Y30.29
X78.54Y28.91
X81.08Y41.67
X81.08Y40.29
X81.08Y30.29
X81.08Y28.91
X81.08Y26.37
X83.62Y61.99
X83.62Y59.45
X83.62Y56.91
X83.62Y54.37
X83.62Y51.83
X83.62Y49.29
X83.62Y46.75
X83.62Y44.21
X83.62Y41.67
X83.62Y28.91
X83.62Y26.37
X83.62Y23.83
X83.62Y21.29
X83.62Y18.75
X83.62Y16.21
X83.62Y13.67
X83.62Y11.13
X83.62Y8.59
X85.0Y61.99
X85.0Y59.45
X85.0Y56.91
X85.0Y54.37
X85.0Y51.83
X85.0Y49.29
X85.0Y46.75
X85.0Y44.21
X85.0Y41.67
X85.0Y28.91
X85.0Y26.37
X85.0Y23.83
X85.0Y21.29
X85.0Y18.75
X85.0Y16.21
X85.0Y13.67
X85.0Y11.13
X85.0Y8.59
X87.0Y61.99
X87.0Y59.45
X87.0Y56.91
X87.0Y54.37
X87.0Y51.83
X87.0Y49.29
X87.0Y46.75
X87.0Y44.21
X87.0Y41.67
X87.0Y28.91
X87.0Y26.37
X87.0Y23.83
X87.0Y21.29
X87.0Y18.75
X87.0Y16.21
X87.0Y13.67
X87.0Y11.13
X87.0Y8.59
X88.38Y61.99
X88.38Y59.45
X88.38Y56.91
X88.38Y54.37
X88.38Y51.83
X88.38Y49.29
X88.38Y46.75
X88.38Y44.21
X88.38Y41.67
X88.38Y28.91
X88.38Y26.37
X88.38Y23.83
X88.38Y21.29
X88.38Y18.75
X88.38Y16.21
X88.38Y13.67
X88.38Y11.13
X88.38Y8.59
X90.92Y44.21
X90.92Y41.67
X90.92Y40.29
X90.92Y30.29
X90.92Y28.91
X93.46Y41.67
X93.46Y40.29
X93.46Y30.29
X93.46Y28.91
X96.0Y41.636
X96.0Y40.256
X96.0Y30.324
X96.0Y28.944
X98.54Y41.67
X98.54Y40.29
X98.54Y30.29
X98.54Y28.91
X101.08Y41.67
X101.08Y40.29
X101.08Y30.29
X101.08Y28.91
X101.08Y26.37
X103.62Y61.99
X103.62Y59.45
X103.62Y56.91
X103.62Y54.37
X103.62Y51.83
X103.62Y49.29
X103.62Y46.75
X103.62Y44.21
X103.62Y41.67
X103.62Y28.91
X103.62Y26.37
X103.62Y23.83
X103.62Y21.29
X103.62Y18.75
X103.62Y16.21
X103.62Y13.67
X103.62Y11.13
X103.62Y8.59
X105.0Y61.99
X105.0Y59.45
X105.0Y56.91
X105.0Y54.37
X105.0Y51.83
X105.0Y49.29
X105.0Y46.75
X105.0Y44.21
X105.0Y41.67
X105.0Y28.91
X105.0Y26.37
X105.0Y23.83
X105.0Y21.29
X105.0Y18.75
X105.0Y16.21
X105.0Y13.67
X105.0Y11.13
X105.0Y8.59
T6
X0.0Y63.58
X0.0Y7.0
X0.625Y63.58
X0.625Y7.0
X1.25Y63.58
X1.25Y7.0
X1.875Y63.58
X1.875Y7.0
X2.5Y63.58
X2.5Y7.0
X3.125Y63.58
X3.125Y7.0
X3.75Y63.58
X3.75Y7.0
X4.375Y63.58
X4.375Y7.0
X5.0Y63.58
X5.0Y7.0
X7.0Y70.58
X7.0Y69.955
X7.0Y69.33
X7.0Y68.705
X7.0Y68.08
X7.0Y67.455
X7.0Y66.83
X7.0Y66.205
X7.0Y65.58
X7.0Y37.29
X7.0Y36.623
X7.0Y35.957
X7.0Y35.29
X7.0Y34.623
X7.0Y33.957
X7.0Y33.29
X7.0Y5.0
X7.0Y4.375
X7.0Y3.75
X7.0Y3.125
X7.0Y2.5
X7.0Y1.875
X7.0Y1.25
X7.0Y0.625
X7.0Y0.0
X7.97Y30.289
X7.97Y40.291
X8.636Y30.289
X8.637Y40.29
X9.303Y30.29
X9.304Y40.29
X9.97Y30.29
X9.97Y40.29
X12.99Y7.0
X13.01Y63.58
X13.59Y7.0
X13.61Y63.58
X14.19Y7.0
X14.21Y63.58
X14.79Y7.0
X14.81Y63.58
X15.39Y7.0
X15.41Y63.58
X15.99Y7.0
X16.01Y63.58
X16.59Y7.0
X16.61Y63.58
X17.19Y7.0
X17.21Y63.58
X17.79Y7.0
X17.81Y63.58
X18.39Y7.0
X18.41Y63.58
X18.99Y7.0
X19.01Y63.58
X22.03Y30.29
X22.03Y40.29
X22.696Y30.29
X22.697Y40.29
X23.363Y30.29
X23.364Y40.291
X24.03Y30.289
X24.03Y40.291
X26.0Y37.29
X26.0Y36.623
X26.0Y35.957
X26.0Y35.29
X26.0Y34.623
X26.0Y33.957
X26.0Y33.29
X27.97Y30.289
X27.97Y40.291
X28.636Y30.289
X28.637Y40.29
X29.303Y30.29
X29.304Y40.29
X29.97Y30.29
X29.97Y40.29
X32.99Y7.0
X33.01Y63.58
X33.59Y7.0
X33.61Y63.58
X34.19Y7.0
X34.21Y63.58
X34.79Y7.0
X34.81Y63.58
X35.39Y7.0
X35.41Y63.58
X35.99Y7.0
X36.01Y63.58
X36.59Y7.0
X36.61Y63.58
X37.19Y7.0
X37.21Y63.58
X37.79Y7.0
X37.81Y63.58
X38.39Y7.0
X38.41Y63.58
X38.99Y7.0
X39.01Y63.58
X42.03Y30.29
X42.03Y40.29
X42.696Y30.29
X42.697Y40.29
X43.363Y30.29
X43.364Y40.291
X44.03Y30.289
X44.03Y40.291
X46.0Y37.29
X46.0Y36.623
X46.0Y35.957
X46.0Y35.29
X46.0Y34.623
X46.0Y33.957
X46.0Y33.29
X47.97Y30.289
X47.97Y40.291
X48.636Y30.289
X48.637Y40.29
X49.303Y30.29
X49.304Y40.29
X49.97Y30.29
X49.97Y40.29
X52.99Y7.0
X53.01Y63.58
X53.59Y7.0
X53.61Y63.58
X54.19Y7.0
X54.21Y63.58
X54.79Y7.0
X54.81Y63.58
X55.39Y7.0
X55.41Y63.58
X55.99Y7.0
X56.01Y63.58
X56.59Y7.0
X56.61Y63.58
X57.19Y7.0
X57.21Y63.58
X57.79Y7.0
X57.81Y63.58
X58.39Y7.0
X58.41Y63.58
X58.99Y7.0
X59.01Y63.58
X62.03Y30.29
X62.03Y40.29
X62.696Y30.29
X62.697Y40.29
X63.363Y30.29
X63.364Y40.291
X64.03Y30.289
X64.03Y40.291
X66.0Y37.29
X66.0Y36.623
X66.0Y35.957
X66.0Y35.29
X66.0Y34.623
X66.0Y33.957
X66.0Y33.29
X67.97Y30.289
X67.97Y40.291
X68.636Y30.289
X68.637Y40.29
X69.303Y30.29
X69.304Y40.29
X69.97Y30.29
X69.97Y40.29
X72.99Y7.0
X73.01Y63.58
X73.59Y7.0
X73.61Y63.58
X74.19Y7.0
X74.21Y63.58
X74.79Y7.0
X74.81Y63.58
X75.39Y7.0
X75.41Y63.58
X75.99Y7.0
X76.01Y63.58
X76.59Y7.0
X76.61Y63.58
X77.19Y7.0
X77.21Y63.58
X77.79Y7.0
X77.81Y63.58
X78.39Y7.0
X78.41Y63.58
X78.99Y7.0
X79.01Y63.58
X82.03Y30.29
X82.03Y40.29
X82.696Y30.29
X82.697Y40.29
X83.363Y30.29
X83.364Y40.291
X84.03Y30.289
X84.03Y40.291
X86.0Y37.29
X86.0Y36.623
X86.0Y35.957
X86.0Y35.29
X86.0Y34.623
X86.0Y33.957
X86.0Y33.29
X87.97Y30.289
X87.97Y40.291
X88.636Y30.289
X88.637Y40.29
X89.303Y30.29
X89.304Y40.29
X89.97Y30.29
X89.97Y40.29
X92.99Y7.0
X93.01Y63.58
X93.59Y7.0
X93.61Y63.58
X94.19Y7.0
X94.21Y63.58
X94.79Y7.0
X94.81Y63.58
X95.39Y7.0
X95.41Y63.58
X95.99Y7.0
X96.01Y63.58
X96.59Y7.0
X96.61Y63.58
X97.19Y7.0
X97.21Y63.58
X97.79Y7.0
X97.81Y63.58
X98.39Y7.0
X98.41Y63.58
X98.99Y7.0
X99.01Y63.58
X102.03Y30.29
X102.03Y40.29
X102.696Y30.29
X102.697Y40.29
X103.363Y30.29
X103.364Y40.291
X104.03Y30.289
X104.03Y40.291
X105.0Y70.58
X105.0Y69.955
X105.0Y69.33
X105.0Y68.705
X105.0Y68.08
X105.0Y67.455
X105.0Y66.83
X105.0Y66.205
X105.0Y65.58
X105.0Y37.29
X105.0Y36.623
X105.0Y35.957
X105.0Y35.29
X105.0Y34.623
X105.0Y33.957
X105.0Y33.29
X105.0Y5.0
X105.0Y4.375
X105.0Y3.75
X105.0Y3.125
X105.0Y2.5
X105.0Y1.875
X105.0Y1.25
X105.0Y0.625
X105.0Y0.0
X107.0Y63.58
X107.0Y7.0
X107.625Y63.58
X107.625Y7.0
X108.25Y63.58
X108.25Y7.0
X108.875Y63.58
X108.875Y7.0
X109.5Y63.58
X109.5Y7.0
X110.125Y63.58
X110.125Y7.0
X110.75Y63.58
X110.75Y7.0
X111.375Y63.58
X111.375Y7.0
X112.0Y63.58
X112.0Y7.0
T7
X13.11Y12.08
X13.11Y58.5
X18.89Y12.08
X18.89Y58.5
X33.11Y12.08
X33.11Y58.5
X38.89Y12.08
X38.89Y58.5
X53.11Y12.08
X53.11Y58.5
X58.89Y12.08
X58.89Y58.5
X73.11Y12.08
X73.11Y58.5
X78.89Y12.08
X78.89Y58.5
X93.11Y12.08
X93.11Y58.5
X98.89Y12.08
X98.89Y58.5
T8
X2.5Y68.08
X2.5Y2.5
X109.5Y68.08
T4
X11.68Y13.13G85X11.68Y12.03
G05
X11.68Y8.8G85X11.68Y8.0
G05
X11.68Y61.78G85X11.68Y62.58
G05
X11.68Y57.45G85X11.68Y58.55
G05
X20.32Y13.13G85X20.32Y12.03
G05
X20.32Y8.8G85X20.32Y8.0
G05
X20.32Y61.78G85X20.32Y62.58
G05
X20.32Y57.45G85X20.32Y58.55
G05
X31.68Y13.13G85X31.68Y12.03
G05
X31.68Y8.8G85X31.68Y8.0
G05
X31.68Y61.78G85X31.68Y62.58
G05
X31.68Y57.45G85X31.68Y58.55
G05
X40.32Y13.13G85X40.32Y12.03
G05
X40.32Y8.8G85X40.32Y8.0
G05
X40.32Y61.78G85X40.32Y62.58
G05
X40.32Y57.45G85X40.32Y58.55
G05
X51.68Y13.13G85X51.68Y12.03
G05
X51.68Y8.8G85X51.68Y8.0
G05
X51.68Y61.78G85X51.68Y62.58
G05
X51.68Y57.45G85X51.68Y58.55
G05
X60.32Y13.13G85X60.32Y12.03
G05
X60.32Y8.8G85X60.32Y8.0
G05
X60.32Y61.78G85X60.32Y62.58
G05
X60.32Y57.45G85X60.32Y58.55
G05
X71.68Y13.13G85X71.68Y12.03
G05
X71.68Y8.8G85X71.68Y8.0
G05
X71.68Y61.78G85X71.68Y62.58
G05
X71.68Y57.45G85X71.68Y58.55
G05
X80.32Y13.13G85X80.32Y12.03
G05
X80.32Y8.8G85X80.32Y8.0
G05
X80.32Y61.78G85X80.32Y62.58
G05
X80.32Y57.45G85X80.32Y58.55
G05
X91.68Y13.13G85X91.68Y12.03
G05
X91.68Y8.8G85X91.68Y8.0
G05
X91.68Y61.78G85X91.68Y62.58
G05
X91.68Y57.45G85X91.68Y58.55
G05
X100.32Y13.13G85X100.32Y12.03
G05
X100.32Y8.8G85X100.32Y8.0
G05
X100.32Y61.78G85X100.32Y62.58
G05
X100.32Y57.45G85X100.32Y58.55
G05
M30
