G04 #@! TF.GenerationSoftware,KiCad,Pcbnew,8.0.1-8.0.1-1~ubuntu22.04.1*
G04 #@! TF.CreationDate,2024-08-08T21:33:10+00:00*
G04 #@! TF.ProjectId,gemini-panel,67656d69-6e69-42d7-9061-6e656c2e6b69,1.0*
G04 #@! TF.SameCoordinates,Original*
G04 #@! TF.FileFunction,Soldermask,Bot*
G04 #@! TF.FilePolarity,Negative*
%FSLAX46Y46*%
G04 Gerber Fmt 4.6, Leading zero omitted, Abs format (unit mm)*
G04 Created by KiCad (PCBNEW 8.0.1-8.0.1-1~ubuntu22.04.1) date 2024-08-08 21:33:10*
%MOMM*%
%LPD*%
G01*
G04 APERTURE LIST*
G04 Aperture macros list*
%AMRoundRect*
0 Rectangle with rounded corners*
0 $1 Rounding radius*
0 $2 $3 $4 $5 $6 $7 $8 $9 X,Y pos of 4 corners*
0 Add a 4 corners polygon primitive as box body*
4,1,4,$2,$3,$4,$5,$6,$7,$8,$9,$2,$3,0*
0 Add four circle primitives for the rounded corners*
1,1,$1+$1,$2,$3*
1,1,$1+$1,$4,$5*
1,1,$1+$1,$6,$7*
1,1,$1+$1,$8,$9*
0 Add four rect primitives between the rounded corners*
20,1,$1+$1,$2,$3,$4,$5,0*
20,1,$1+$1,$4,$5,$6,$7,0*
20,1,$1+$1,$6,$7,$8,$9,0*
20,1,$1+$1,$8,$9,$2,$3,0*%
%AMFreePoly0*
4,1,35,0.397255,0.149039,0.416389,0.145233,0.434413,0.137767,0.450634,0.126928,0.464428,0.113134,0.475267,0.096913,0.482733,0.078889,0.486539,0.059755,0.487500,0.050000,0.487500,-0.050000,0.486539,-0.059755,0.482733,-0.078889,0.475267,-0.096913,0.464428,-0.113134,0.450634,-0.126928,0.434413,-0.137767,0.416389,-0.145233,0.397255,-0.149039,0.387500,-0.150000,-0.337500,-0.150000,
-0.372855,-0.135355,-0.472855,-0.035355,-0.487500,0.000000,-0.487500,0.050000,-0.486539,0.059755,-0.482733,0.078889,-0.475267,0.096913,-0.464428,0.113134,-0.450634,0.126928,-0.434413,0.137767,-0.416389,0.145233,-0.397255,0.149039,-0.387500,0.150000,0.387500,0.150000,0.397255,0.149039,0.397255,0.149039,$1*%
%AMFreePoly1*
4,1,14,0.285355,0.222855,0.300000,0.187500,0.300000,-0.187500,0.285355,-0.222855,0.250000,-0.237500,-0.118750,-0.237500,-0.154105,-0.222855,-0.285355,-0.091605,-0.300000,-0.056250,-0.300000,0.187500,-0.285355,0.222855,-0.250000,0.237500,0.250000,0.237500,0.285355,0.222855,0.285355,0.222855,$1*%
%AMFreePoly2*
4,1,32,1.160355,0.535355,1.175000,0.500000,1.160355,0.464645,0.160355,-0.535355,0.125000,-0.550000,0.123223,-0.549968,0.051700,-0.547424,0.039390,-0.545431,-0.097863,-0.505130,-0.110808,-0.499218,-0.231146,-0.421881,-0.241901,-0.412561,-0.335577,-0.304453,-0.343272,-0.292481,-0.402695,-0.162362,-0.406704,-0.148707,-0.427062,-0.007116,-0.427062,0.007116,-0.406704,0.148707,-0.402695,0.162362,
-0.343272,0.292481,-0.335577,0.304453,-0.241901,0.412561,-0.231146,0.421881,-0.110808,0.499218,-0.097863,0.505130,0.039390,0.545431,0.051700,0.547424,0.123223,0.549968,0.125000,0.550000,1.125000,0.550000,1.160355,0.535355,1.160355,0.535355,$1*%
%AMFreePoly3*
4,1,32,-0.123223,0.549968,-0.051700,0.547424,-0.039390,0.545431,0.097863,0.505130,0.110808,0.499218,0.231146,0.421881,0.241901,0.412561,0.335577,0.304453,0.343272,0.292481,0.402695,0.162362,0.406704,0.148707,0.427062,0.007116,0.427062,-0.007116,0.406704,-0.148707,0.402695,-0.162362,0.343272,-0.292481,0.335577,-0.304453,0.241901,-0.412561,0.231146,-0.421881,0.110808,-0.499218,
0.097863,-0.505130,-0.039390,-0.545431,-0.051700,-0.547424,-0.123223,-0.549968,-0.125000,-0.550000,-1.125000,-0.550000,-1.160355,-0.535355,-1.175000,-0.500000,-1.160355,-0.464645,-0.160355,0.535355,-0.125000,0.550000,-0.123223,0.549968,-0.123223,0.549968,$1*%
G04 Aperture macros list end*
%ADD10C,0.010000*%
%ADD11C,0.000000*%
%ADD12C,0.400000*%
%ADD13C,0.750000*%
%ADD14O,1.100000X2.200000*%
%ADD15O,1.100000X1.900000*%
%ADD16O,3.030000X1.600000*%
%ADD17C,1.600000*%
%ADD18O,1.600000X3.030000*%
%ADD19O,1.300000X0.900000*%
%ADD20C,1.400000*%
%ADD21RoundRect,0.329412X0.963843X0.470588X-0.963843X0.470588X-0.963843X-0.470588X0.963843X-0.470588X0*%
%ADD22RoundRect,0.335625X-0.474645X0.000000X0.000000X-0.474645X0.474645X0.000000X0.000000X0.474645X0*%
%ADD23RoundRect,0.400000X0.400000X0.400000X-0.400000X0.400000X-0.400000X-0.400000X0.400000X-0.400000X0*%
%ADD24RoundRect,0.400000X-1.115000X-0.400000X1.115000X-0.400000X1.115000X0.400000X-1.115000X0.400000X0*%
%ADD25RoundRect,0.187500X-0.462500X-0.262500X0.462500X-0.262500X0.462500X0.262500X-0.462500X0.262500X0*%
%ADD26C,1.100000*%
%ADD27RoundRect,0.329412X-0.963843X-0.470588X0.963843X-0.470588X0.963843X0.470588X-0.963843X0.470588X0*%
%ADD28RoundRect,0.335625X0.474645X0.000000X0.000000X0.474645X-0.474645X0.000000X0.000000X-0.474645X0*%
%ADD29RoundRect,0.400000X-0.400000X-0.400000X0.400000X-0.400000X0.400000X0.400000X-0.400000X0.400000X0*%
%ADD30RoundRect,0.400000X1.115000X0.400000X-1.115000X0.400000X-1.115000X-0.400000X1.115000X-0.400000X0*%
%ADD31RoundRect,0.187500X0.462500X0.262500X-0.462500X0.262500X-0.462500X-0.262500X0.462500X-0.262500X0*%
%ADD32C,2.000000*%
%ADD33FreePoly0,0.000000*%
%ADD34RoundRect,0.075000X-0.412500X-0.075000X0.412500X-0.075000X0.412500X0.075000X-0.412500X0.075000X0*%
%ADD35RoundRect,0.075000X-0.075000X-0.412500X0.075000X-0.412500X0.075000X0.412500X-0.075000X0.412500X0*%
%ADD36RoundRect,0.148500X-1.501500X-1.501500X1.501500X-1.501500X1.501500X1.501500X-1.501500X1.501500X0*%
%ADD37RoundRect,0.125000X0.155000X0.125000X-0.155000X0.125000X-0.155000X-0.125000X0.155000X-0.125000X0*%
%ADD38RoundRect,0.125000X-0.125000X0.155000X-0.125000X-0.155000X0.125000X-0.155000X0.125000X0.155000X0*%
%ADD39RoundRect,0.125000X0.125000X-0.155000X0.125000X0.155000X-0.125000X0.155000X-0.125000X-0.155000X0*%
%ADD40RoundRect,0.125000X-0.155000X-0.125000X0.155000X-0.125000X0.155000X0.125000X-0.155000X0.125000X0*%
%ADD41RoundRect,0.165000X0.195000X-0.165000X0.195000X0.165000X-0.195000X0.165000X-0.195000X-0.165000X0*%
%ADD42RoundRect,0.165000X-0.195000X0.165000X-0.195000X-0.165000X0.195000X-0.165000X0.195000X0.165000X0*%
%ADD43RoundRect,0.160000X-0.210000X0.160000X-0.210000X-0.160000X0.210000X-0.160000X0.210000X0.160000X0*%
%ADD44RoundRect,0.243750X-0.281250X0.243750X-0.281250X-0.243750X0.281250X-0.243750X0.281250X0.243750X0*%
%ADD45RoundRect,0.050000X-0.350000X0.250000X-0.350000X-0.250000X0.350000X-0.250000X0.350000X0.250000X0*%
%ADD46RoundRect,0.150000X-0.250000X0.150000X-0.250000X-0.150000X0.250000X-0.150000X0.250000X0.150000X0*%
%ADD47FreePoly1,270.000000*%
%ADD48RoundRect,0.050000X-0.150000X0.325000X-0.150000X-0.325000X0.150000X-0.325000X0.150000X0.325000X0*%
%ADD49RoundRect,0.050000X-0.187500X0.250000X-0.187500X-0.250000X0.187500X-0.250000X0.187500X0.250000X0*%
%ADD50RoundRect,0.160000X0.210000X-0.160000X0.210000X0.160000X-0.210000X0.160000X-0.210000X-0.160000X0*%
%ADD51FreePoly2,270.000000*%
%ADD52FreePoly3,270.000000*%
%ADD53RoundRect,0.243750X0.281250X-0.243750X0.281250X0.243750X-0.281250X0.243750X-0.281250X-0.243750X0*%
%ADD54FreePoly1,90.000000*%
%ADD55RoundRect,0.050000X0.150000X-0.325000X0.150000X0.325000X-0.150000X0.325000X-0.150000X-0.325000X0*%
%ADD56RoundRect,0.050000X0.187500X-0.250000X0.187500X0.250000X-0.187500X0.250000X-0.187500X-0.250000X0*%
%ADD57RoundRect,0.275000X-0.350000X-0.275000X0.350000X-0.275000X0.350000X0.275000X-0.350000X0.275000X0*%
%ADD58FreePoly2,90.000000*%
%ADD59FreePoly3,90.000000*%
%ADD60FreePoly0,180.000000*%
%ADD61RoundRect,0.075000X0.412500X0.075000X-0.412500X0.075000X-0.412500X-0.075000X0.412500X-0.075000X0*%
%ADD62RoundRect,0.075000X0.075000X0.412500X-0.075000X0.412500X-0.075000X-0.412500X0.075000X-0.412500X0*%
%ADD63RoundRect,0.148500X1.501500X1.501500X-1.501500X1.501500X-1.501500X-1.501500X1.501500X-1.501500X0*%
%ADD64RoundRect,0.050000X0.350000X-0.250000X0.350000X0.250000X-0.350000X0.250000X-0.350000X-0.250000X0*%
%ADD65RoundRect,0.150000X0.250000X-0.150000X0.250000X0.150000X-0.250000X0.150000X-0.250000X-0.150000X0*%
%ADD66RoundRect,0.275000X0.350000X0.275000X-0.350000X0.275000X-0.350000X-0.275000X0.350000X-0.275000X0*%
G04 APERTURE END LIST*
D10*
G04 #@! TO.C,U2*
X71842653Y14868143D02*
X71429510Y14455001D01*
X71016367Y14868143D01*
X71429510Y15281286D01*
X71842653Y14868143D01*
G36*
X71842653Y14868143D02*
G01*
X71429510Y14455001D01*
X71016367Y14868143D01*
X71429510Y15281286D01*
X71842653Y14868143D01*
G37*
D11*
G36*
X71294510Y15220000D02*
G01*
X71049510Y14970000D01*
X70769510Y14970000D01*
X70769510Y15350000D01*
X71294510Y15350000D01*
X71294510Y15220000D01*
G37*
G36*
X71294510Y14520000D02*
G01*
X71294510Y14390000D01*
X70769510Y14390000D01*
X70769510Y14770000D01*
X71049510Y14770000D01*
X71294510Y14520000D01*
G37*
G36*
X72089510Y14970000D02*
G01*
X71809510Y14970000D01*
X71564510Y15220000D01*
X71564510Y15350000D01*
X72089510Y15350000D01*
X72089510Y14970000D01*
G37*
G36*
X72089510Y14390000D02*
G01*
X71564510Y14390000D01*
X71564510Y14520000D01*
X71809510Y14770000D01*
X72089510Y14770000D01*
X72089510Y14390000D01*
G37*
D10*
X80983633Y55711857D02*
X80570490Y55298714D01*
X80157347Y55711857D01*
X80570490Y56124999D01*
X80983633Y55711857D01*
G36*
X80983633Y55711857D02*
G01*
X80570490Y55298714D01*
X80157347Y55711857D01*
X80570490Y56124999D01*
X80983633Y55711857D01*
G37*
D11*
G36*
X80435490Y56060000D02*
G01*
X80190490Y55810000D01*
X79910490Y55810000D01*
X79910490Y56190000D01*
X80435490Y56190000D01*
X80435490Y56060000D01*
G37*
G36*
X80435490Y55360000D02*
G01*
X80435490Y55230000D01*
X79910490Y55230000D01*
X79910490Y55610000D01*
X80190490Y55610000D01*
X80435490Y55360000D01*
G37*
G36*
X81230490Y55810000D02*
G01*
X80950490Y55810000D01*
X80705490Y56060000D01*
X80705490Y56190000D01*
X81230490Y56190000D01*
X81230490Y55810000D01*
G37*
G36*
X81230490Y55230000D02*
G01*
X80705490Y55230000D01*
X80705490Y55360000D01*
X80950490Y55610000D01*
X81230490Y55610000D01*
X81230490Y55230000D01*
G37*
D10*
X11842653Y14868143D02*
X11429510Y14455001D01*
X11016367Y14868143D01*
X11429510Y15281286D01*
X11842653Y14868143D01*
G36*
X11842653Y14868143D02*
G01*
X11429510Y14455001D01*
X11016367Y14868143D01*
X11429510Y15281286D01*
X11842653Y14868143D01*
G37*
D11*
G36*
X11294510Y15220000D02*
G01*
X11049510Y14970000D01*
X10769510Y14970000D01*
X10769510Y15350000D01*
X11294510Y15350000D01*
X11294510Y15220000D01*
G37*
G36*
X11294510Y14520000D02*
G01*
X11294510Y14390000D01*
X10769510Y14390000D01*
X10769510Y14770000D01*
X11049510Y14770000D01*
X11294510Y14520000D01*
G37*
G36*
X12089510Y14970000D02*
G01*
X11809510Y14970000D01*
X11564510Y15220000D01*
X11564510Y15350000D01*
X12089510Y15350000D01*
X12089510Y14970000D01*
G37*
G36*
X12089510Y14390000D02*
G01*
X11564510Y14390000D01*
X11564510Y14520000D01*
X11809510Y14770000D01*
X12089510Y14770000D01*
X12089510Y14390000D01*
G37*
D10*
X100983633Y55711857D02*
X100570490Y55298714D01*
X100157347Y55711857D01*
X100570490Y56124999D01*
X100983633Y55711857D01*
G36*
X100983633Y55711857D02*
G01*
X100570490Y55298714D01*
X100157347Y55711857D01*
X100570490Y56124999D01*
X100983633Y55711857D01*
G37*
D11*
G36*
X100435490Y56060000D02*
G01*
X100190490Y55810000D01*
X99910490Y55810000D01*
X99910490Y56190000D01*
X100435490Y56190000D01*
X100435490Y56060000D01*
G37*
G36*
X100435490Y55360000D02*
G01*
X100435490Y55230000D01*
X99910490Y55230000D01*
X99910490Y55610000D01*
X100190490Y55610000D01*
X100435490Y55360000D01*
G37*
G36*
X101230490Y55810000D02*
G01*
X100950490Y55810000D01*
X100705490Y56060000D01*
X100705490Y56190000D01*
X101230490Y56190000D01*
X101230490Y55810000D01*
G37*
G36*
X101230490Y55230000D02*
G01*
X100705490Y55230000D01*
X100705490Y55360000D01*
X100950490Y55610000D01*
X101230490Y55610000D01*
X101230490Y55230000D01*
G37*
D10*
X60983633Y55711857D02*
X60570490Y55298714D01*
X60157347Y55711857D01*
X60570490Y56124999D01*
X60983633Y55711857D01*
G36*
X60983633Y55711857D02*
G01*
X60570490Y55298714D01*
X60157347Y55711857D01*
X60570490Y56124999D01*
X60983633Y55711857D01*
G37*
D11*
G36*
X60435490Y56060000D02*
G01*
X60190490Y55810000D01*
X59910490Y55810000D01*
X59910490Y56190000D01*
X60435490Y56190000D01*
X60435490Y56060000D01*
G37*
G36*
X60435490Y55360000D02*
G01*
X60435490Y55230000D01*
X59910490Y55230000D01*
X59910490Y55610000D01*
X60190490Y55610000D01*
X60435490Y55360000D01*
G37*
G36*
X61230490Y55810000D02*
G01*
X60950490Y55810000D01*
X60705490Y56060000D01*
X60705490Y56190000D01*
X61230490Y56190000D01*
X61230490Y55810000D01*
G37*
G36*
X61230490Y55230000D02*
G01*
X60705490Y55230000D01*
X60705490Y55360000D01*
X60950490Y55610000D01*
X61230490Y55610000D01*
X61230490Y55230000D01*
G37*
D10*
X91842653Y14868143D02*
X91429510Y14455001D01*
X91016367Y14868143D01*
X91429510Y15281286D01*
X91842653Y14868143D01*
G36*
X91842653Y14868143D02*
G01*
X91429510Y14455001D01*
X91016367Y14868143D01*
X91429510Y15281286D01*
X91842653Y14868143D01*
G37*
D11*
G36*
X91294510Y15220000D02*
G01*
X91049510Y14970000D01*
X90769510Y14970000D01*
X90769510Y15350000D01*
X91294510Y15350000D01*
X91294510Y15220000D01*
G37*
G36*
X91294510Y14520000D02*
G01*
X91294510Y14390000D01*
X90769510Y14390000D01*
X90769510Y14770000D01*
X91049510Y14770000D01*
X91294510Y14520000D01*
G37*
G36*
X92089510Y14970000D02*
G01*
X91809510Y14970000D01*
X91564510Y15220000D01*
X91564510Y15350000D01*
X92089510Y15350000D01*
X92089510Y14970000D01*
G37*
G36*
X92089510Y14390000D02*
G01*
X91564510Y14390000D01*
X91564510Y14520000D01*
X91809510Y14770000D01*
X92089510Y14770000D01*
X92089510Y14390000D01*
G37*
D10*
X31842653Y14868143D02*
X31429510Y14455001D01*
X31016367Y14868143D01*
X31429510Y15281286D01*
X31842653Y14868143D01*
G36*
X31842653Y14868143D02*
G01*
X31429510Y14455001D01*
X31016367Y14868143D01*
X31429510Y15281286D01*
X31842653Y14868143D01*
G37*
D11*
G36*
X31294510Y15220000D02*
G01*
X31049510Y14970000D01*
X30769510Y14970000D01*
X30769510Y15350000D01*
X31294510Y15350000D01*
X31294510Y15220000D01*
G37*
G36*
X31294510Y14520000D02*
G01*
X31294510Y14390000D01*
X30769510Y14390000D01*
X30769510Y14770000D01*
X31049510Y14770000D01*
X31294510Y14520000D01*
G37*
G36*
X32089510Y14970000D02*
G01*
X31809510Y14970000D01*
X31564510Y15220000D01*
X31564510Y15350000D01*
X32089510Y15350000D01*
X32089510Y14970000D01*
G37*
G36*
X32089510Y14390000D02*
G01*
X31564510Y14390000D01*
X31564510Y14520000D01*
X31809510Y14770000D01*
X32089510Y14770000D01*
X32089510Y14390000D01*
G37*
D10*
X51842653Y14868143D02*
X51429510Y14455001D01*
X51016367Y14868143D01*
X51429510Y15281286D01*
X51842653Y14868143D01*
G36*
X51842653Y14868143D02*
G01*
X51429510Y14455001D01*
X51016367Y14868143D01*
X51429510Y15281286D01*
X51842653Y14868143D01*
G37*
D11*
G36*
X51294510Y15220000D02*
G01*
X51049510Y14970000D01*
X50769510Y14970000D01*
X50769510Y15350000D01*
X51294510Y15350000D01*
X51294510Y15220000D01*
G37*
G36*
X51294510Y14520000D02*
G01*
X51294510Y14390000D01*
X50769510Y14390000D01*
X50769510Y14770000D01*
X51049510Y14770000D01*
X51294510Y14520000D01*
G37*
G36*
X52089510Y14970000D02*
G01*
X51809510Y14970000D01*
X51564510Y15220000D01*
X51564510Y15350000D01*
X52089510Y15350000D01*
X52089510Y14970000D01*
G37*
G36*
X52089510Y14390000D02*
G01*
X51564510Y14390000D01*
X51564510Y14520000D01*
X51809510Y14770000D01*
X52089510Y14770000D01*
X52089510Y14390000D01*
G37*
D10*
X20983633Y55711857D02*
X20570490Y55298714D01*
X20157347Y55711857D01*
X20570490Y56124999D01*
X20983633Y55711857D01*
G36*
X20983633Y55711857D02*
G01*
X20570490Y55298714D01*
X20157347Y55711857D01*
X20570490Y56124999D01*
X20983633Y55711857D01*
G37*
D11*
G36*
X20435490Y56060000D02*
G01*
X20190490Y55810000D01*
X19910490Y55810000D01*
X19910490Y56190000D01*
X20435490Y56190000D01*
X20435490Y56060000D01*
G37*
G36*
X20435490Y55360000D02*
G01*
X20435490Y55230000D01*
X19910490Y55230000D01*
X19910490Y55610000D01*
X20190490Y55610000D01*
X20435490Y55360000D01*
G37*
G36*
X21230490Y55810000D02*
G01*
X20950490Y55810000D01*
X20705490Y56060000D01*
X20705490Y56190000D01*
X21230490Y56190000D01*
X21230490Y55810000D01*
G37*
G36*
X21230490Y55230000D02*
G01*
X20705490Y55230000D01*
X20705490Y55360000D01*
X20950490Y55610000D01*
X21230490Y55610000D01*
X21230490Y55230000D01*
G37*
D10*
X40983633Y55711857D02*
X40570490Y55298714D01*
X40157347Y55711857D01*
X40570490Y56124999D01*
X40983633Y55711857D01*
G36*
X40983633Y55711857D02*
G01*
X40570490Y55298714D01*
X40157347Y55711857D01*
X40570490Y56124999D01*
X40983633Y55711857D01*
G37*
D11*
G36*
X40435490Y56060000D02*
G01*
X40190490Y55810000D01*
X39910490Y55810000D01*
X39910490Y56190000D01*
X40435490Y56190000D01*
X40435490Y56060000D01*
G37*
G36*
X40435490Y55360000D02*
G01*
X40435490Y55230000D01*
X39910490Y55230000D01*
X39910490Y55610000D01*
X40190490Y55610000D01*
X40435490Y55360000D01*
G37*
G36*
X41230490Y55810000D02*
G01*
X40950490Y55810000D01*
X40705490Y56060000D01*
X40705490Y56190000D01*
X41230490Y56190000D01*
X41230490Y55810000D01*
G37*
G36*
X41230490Y55230000D02*
G01*
X40705490Y55230000D01*
X40705490Y55360000D01*
X40950490Y55610000D01*
X41230490Y55610000D01*
X41230490Y55230000D01*
G37*
G04 #@! TD*
D12*
G04 #@! TO.C,KiKit_MB_35_2*
X86000000Y36623334D03*
G04 #@! TD*
G04 #@! TO.C,KiKit_MB_17_1*
X22029510Y30290000D03*
G04 #@! TD*
G04 #@! TO.C,KiKit_MB_21_3*
X37789510Y7000001D03*
G04 #@! TD*
G04 #@! TO.C,KiKit_MB_16_1*
X7969510Y30289228D03*
G04 #@! TD*
G04 #@! TO.C,KiKit_MB_43_5*
X109500000Y63580000D03*
G04 #@! TD*
G04 #@! TO.C,KiKit_MB_34_3*
X26000000Y35956667D03*
G04 #@! TD*
G04 #@! TO.C,KiKit_MB_12_6*
X76010490Y63579999D03*
G04 #@! TD*
G04 #@! TO.C,KiKit_MB_3_2*
X13610490Y63579999D03*
G04 #@! TD*
G04 #@! TO.C,KiKit_MB_22_1*
X47969510Y30289228D03*
G04 #@! TD*
G04 #@! TO.C,KiKit_MB_39_4*
X7000000Y3125000D03*
G04 #@! TD*
G04 #@! TO.C,KiKit_MB_15_6*
X96010490Y63579999D03*
G04 #@! TD*
G04 #@! TO.C,KiKit_MB_43_6*
X110125000Y63580000D03*
G04 #@! TD*
G04 #@! TO.C,KiKit_MB_6_2*
X33610490Y63579999D03*
G04 #@! TD*
G04 #@! TO.C,KiKit_MB_28_4*
X89969510Y30290000D03*
G04 #@! TD*
G04 #@! TO.C,KiKit_MB_41_6*
X3125000Y63580000D03*
G04 #@! TD*
G04 #@! TO.C,KiKit_MB_6_7*
X36610490Y63579999D03*
G04 #@! TD*
D13*
G04 #@! TO.C,J1*
X78890490Y58500000D03*
X73110490Y58500000D03*
D14*
X80320490Y58000000D03*
D15*
X80320490Y62180000D03*
X71680490Y62180000D03*
D14*
X71680490Y58000000D03*
G04 #@! TD*
D12*
G04 #@! TO.C,KiKit_MB_33_6*
X7000000Y33956667D03*
G04 #@! TD*
G04 #@! TO.C,KiKit_MB_15_7*
X96610490Y63579999D03*
G04 #@! TD*
G04 #@! TO.C,KiKit_MB_4_2*
X43363823Y40290516D03*
G04 #@! TD*
G04 #@! TO.C,KiKit_MB_27_8*
X74789510Y7000001D03*
G04 #@! TD*
G04 #@! TO.C,KiKit_MB_41_9*
X5000000Y63580000D03*
G04 #@! TD*
G04 #@! TO.C,KiKit_MB_17_3*
X23362843Y30289502D03*
G04 #@! TD*
G04 #@! TO.C,KiKit_MB_3_1*
X13010490Y63579999D03*
G04 #@! TD*
D16*
G04 #@! TO.C,Gemini1*
X104285000Y61990000D03*
D17*
X105000000Y61990000D03*
D16*
X104285000Y59450000D03*
D17*
X105000000Y59450000D03*
D16*
X104285000Y56910000D03*
D17*
X105000000Y56910000D03*
D16*
X104285000Y54370000D03*
D17*
X105000000Y54370000D03*
D16*
X104285000Y51830000D03*
D17*
X105000000Y51830000D03*
D16*
X104285000Y49290000D03*
D17*
X105000000Y49290000D03*
D16*
X104285000Y46750000D03*
D17*
X105000000Y46750000D03*
D16*
X104285000Y44210000D03*
D17*
X105000000Y44210000D03*
D16*
X104285000Y41670000D03*
D17*
X105000000Y41670000D03*
D18*
X101080000Y41005000D03*
D17*
X101080000Y40290000D03*
D18*
X98540000Y41005000D03*
D17*
X98540000Y40290000D03*
D18*
X96000000Y40971000D03*
D17*
X96000000Y40256000D03*
D18*
X93460000Y41005000D03*
D17*
X93460000Y40290000D03*
D18*
X90920000Y41005000D03*
D17*
X90920000Y40290000D03*
X87000000Y41670000D03*
D16*
X87715000Y41670000D03*
D17*
X87000000Y44210000D03*
D16*
X87715000Y44210000D03*
D19*
X89904000Y43886000D03*
D20*
X90920000Y44210000D03*
D19*
X89904000Y45156000D03*
X89904000Y46426000D03*
X89904000Y47696000D03*
X89904000Y48966000D03*
X89904000Y50236000D03*
X89904000Y51506000D03*
X89904000Y52776000D03*
X89904000Y54046000D03*
X89904000Y55316000D03*
D17*
X87000000Y46750000D03*
D16*
X87715000Y46750000D03*
D17*
X87000000Y49290000D03*
D16*
X87715000Y49290000D03*
D17*
X87000000Y51830000D03*
D16*
X87715000Y51830000D03*
D17*
X87000000Y54370000D03*
D16*
X87715000Y54370000D03*
D21*
X87443745Y56910000D03*
D22*
X88380000Y56910000D03*
D23*
X87000000Y59450000D03*
D24*
X87715000Y59450000D03*
D25*
X89904000Y56586000D03*
D26*
X94100000Y62930000D03*
D21*
X87443745Y61990000D03*
D22*
X88380000Y61990000D03*
D26*
X95370000Y62930000D03*
X96640000Y62930000D03*
X97910000Y62930000D03*
G04 #@! TD*
D12*
G04 #@! TO.C,KiKit_MB_36_6*
X105000000Y33956667D03*
G04 #@! TD*
G04 #@! TO.C,KiKit_MB_10_3*
X82697156Y40290258D03*
G04 #@! TD*
G04 #@! TO.C,KiKit_MB_23_1*
X62029510Y30290000D03*
G04 #@! TD*
G04 #@! TO.C,KiKit_MB_15_5*
X95410490Y63579999D03*
G04 #@! TD*
G04 #@! TO.C,KiKit_MB_35_1*
X86000000Y37290000D03*
G04 #@! TD*
G04 #@! TO.C,KiKit_MB_30_7*
X95389510Y7000001D03*
G04 #@! TD*
G04 #@! TO.C,KiKit_MB_22_4*
X49969510Y30290000D03*
G04 #@! TD*
G04 #@! TO.C,KiKit_MB_44_2*
X107625000Y7000000D03*
G04 #@! TD*
G04 #@! TO.C,KiKit_MB_3_9*
X17810490Y63579999D03*
G04 #@! TD*
G04 #@! TO.C,KiKit_MB_38_3*
X105000000Y69330000D03*
G04 #@! TD*
G04 #@! TO.C,KiKit_MB_27_10*
X73589510Y7000001D03*
G04 #@! TD*
G04 #@! TO.C,KiKit_MB_4_3*
X42697156Y40290258D03*
G04 #@! TD*
G04 #@! TO.C,KiKit_MB_34_1*
X26000000Y37290000D03*
G04 #@! TD*
G04 #@! TO.C,KiKit_MB_15_1*
X93010490Y63579999D03*
G04 #@! TD*
G04 #@! TO.C,KiKit_MB_37_7*
X7000000Y66830000D03*
G04 #@! TD*
G04 #@! TO.C,KiKit_MB_30_8*
X94789510Y7000001D03*
G04 #@! TD*
G04 #@! TO.C,KiKit_MB_43_3*
X108250000Y63580000D03*
G04 #@! TD*
G04 #@! TO.C,KiKit_MB_22_3*
X49302843Y30289743D03*
G04 #@! TD*
G04 #@! TO.C,KiKit_MB_13_3*
X102697156Y40290258D03*
G04 #@! TD*
G04 #@! TO.C,KiKit_MB_1_2*
X23363823Y40290516D03*
G04 #@! TD*
G04 #@! TO.C,KiKit_MB_23_4*
X64029510Y30289253D03*
G04 #@! TD*
G04 #@! TO.C,KiKit_MB_26_3*
X83362843Y30289502D03*
G04 #@! TD*
G04 #@! TO.C,KiKit_MB_1_4*
X22030490Y40290000D03*
G04 #@! TD*
G04 #@! TO.C,KiKit_MB_42_9*
X5000000Y7000000D03*
G04 #@! TD*
G04 #@! TO.C,KiKit_MB_40_3*
X105000000Y3750000D03*
G04 #@! TD*
G04 #@! TO.C,KiKit_MB_9_8*
X57210490Y63579999D03*
G04 #@! TD*
G04 #@! TO.C,KiKit_MB_33_7*
X7000000Y33290000D03*
G04 #@! TD*
G04 #@! TO.C,KiKit_MB_32_4*
X66000000Y35290000D03*
G04 #@! TD*
G04 #@! TO.C,KiKit_MB_17_4*
X24029510Y30289253D03*
G04 #@! TD*
G04 #@! TO.C,KiKit_MB_27_7*
X75389510Y7000001D03*
G04 #@! TD*
G04 #@! TO.C,KiKit_MB_28_1*
X87969510Y30289228D03*
G04 #@! TD*
G04 #@! TO.C,KiKit_MB_42_2*
X625000Y7000000D03*
G04 #@! TD*
G04 #@! TO.C,KiKit_MB_38_8*
X105000000Y66205000D03*
G04 #@! TD*
G04 #@! TO.C,KiKit_MB_33_2*
X7000000Y36623334D03*
G04 #@! TD*
G04 #@! TO.C,KiKit_MB_19_4*
X29969510Y30290000D03*
G04 #@! TD*
G04 #@! TO.C,KiKit_MB_15_10*
X98410490Y63579999D03*
G04 #@! TD*
G04 #@! TO.C,KiKit_MB_21_7*
X35389510Y7000001D03*
G04 #@! TD*
G04 #@! TO.C,KiKit_MB_37_4*
X7000000Y68705000D03*
G04 #@! TD*
D13*
G04 #@! TO.C,J1*
X33109510Y12080000D03*
X38889510Y12080000D03*
D14*
X31679510Y12580000D03*
D15*
X31679510Y8400000D03*
X40319510Y8400000D03*
D14*
X40319510Y12580000D03*
G04 #@! TD*
D12*
G04 #@! TO.C,KiKit_MB_32_2*
X66000000Y36623334D03*
G04 #@! TD*
G04 #@! TO.C,KiKit_MB_12_3*
X74210490Y63579999D03*
G04 #@! TD*
G04 #@! TO.C,KiKit_MB_25_1*
X67969510Y30289228D03*
G04 #@! TD*
G04 #@! TO.C,KiKit_MB_29_1*
X102029510Y30290000D03*
G04 #@! TD*
G04 #@! TO.C,KiKit_MB_24_7*
X55389510Y7000001D03*
G04 #@! TD*
G04 #@! TO.C,KiKit_MB_18_9*
X14189510Y7000001D03*
G04 #@! TD*
G04 #@! TO.C,KiKit_MB_9_2*
X53610490Y63579999D03*
G04 #@! TD*
G04 #@! TO.C,KiKit_MB_16_3*
X9302844Y30289743D03*
G04 #@! TD*
G04 #@! TO.C,KiKit_MB_7_4*
X62030490Y40290000D03*
G04 #@! TD*
G04 #@! TO.C,KiKit_MB_36_5*
X105000000Y34623334D03*
G04 #@! TD*
G04 #@! TO.C,KiKit_MB_16_4*
X9969510Y30290000D03*
G04 #@! TD*
G04 #@! TO.C,KiKit_MB_39_8*
X7000000Y625000D03*
G04 #@! TD*
G04 #@! TO.C,KiKit_MB_43_8*
X111375000Y63580000D03*
G04 #@! TD*
G04 #@! TO.C,KiKit_MB_9_6*
X56010490Y63579999D03*
G04 #@! TD*
G04 #@! TO.C,KiKit_MB_8_1*
X49970490Y40290000D03*
G04 #@! TD*
G04 #@! TO.C,KiKit_MB_8_3*
X48637156Y40290499D03*
G04 #@! TD*
G04 #@! TO.C,KiKit_MB_21_9*
X34189510Y7000001D03*
G04 #@! TD*
G04 #@! TO.C,KiKit_MB_18_5*
X16589510Y7000001D03*
G04 #@! TD*
D16*
G04 #@! TO.C,Gemini1*
X7715000Y8590000D03*
D17*
X7000000Y8590000D03*
D16*
X7715000Y11130000D03*
D17*
X7000000Y11130000D03*
D16*
X7715000Y13670000D03*
D17*
X7000000Y13670000D03*
D16*
X7715000Y16210000D03*
D17*
X7000000Y16210000D03*
D16*
X7715000Y18750000D03*
D17*
X7000000Y18750000D03*
D16*
X7715000Y21290000D03*
D17*
X7000000Y21290000D03*
D16*
X7715000Y23830000D03*
D17*
X7000000Y23830000D03*
D16*
X7715000Y26370000D03*
D17*
X7000000Y26370000D03*
D16*
X7715000Y28910000D03*
D17*
X7000000Y28910000D03*
D18*
X10920000Y29575000D03*
D17*
X10920000Y30290000D03*
D18*
X13460000Y29575000D03*
D17*
X13460000Y30290000D03*
D18*
X16000000Y29609000D03*
D17*
X16000000Y30324000D03*
D18*
X18540000Y29575000D03*
D17*
X18540000Y30290000D03*
D18*
X21080000Y29575000D03*
D17*
X21080000Y30290000D03*
X25000000Y28910000D03*
D16*
X24285000Y28910000D03*
D17*
X25000000Y26370000D03*
D16*
X24285000Y26370000D03*
D19*
X22096000Y26694000D03*
D20*
X21080000Y26370000D03*
D19*
X22096000Y25424000D03*
X22096000Y24154000D03*
X22096000Y22884000D03*
X22096000Y21614000D03*
X22096000Y20344000D03*
X22096000Y19074000D03*
X22096000Y17804000D03*
X22096000Y16534000D03*
X22096000Y15264000D03*
D17*
X25000000Y23830000D03*
D16*
X24285000Y23830000D03*
D17*
X25000000Y21290000D03*
D16*
X24285000Y21290000D03*
D17*
X25000000Y18750000D03*
D16*
X24285000Y18750000D03*
D17*
X25000000Y16210000D03*
D16*
X24285000Y16210000D03*
D27*
X24556255Y13670000D03*
D28*
X23620000Y13670000D03*
D29*
X25000000Y11130000D03*
D30*
X24285000Y11130000D03*
D31*
X22096000Y13994000D03*
D26*
X17900000Y7650000D03*
D27*
X24556255Y8590000D03*
D28*
X23620000Y8590000D03*
D26*
X16630000Y7650000D03*
X15360000Y7650000D03*
X14090000Y7650000D03*
G04 #@! TD*
D13*
G04 #@! TO.C,J1*
X13109510Y12080000D03*
X18889510Y12080000D03*
D14*
X11679510Y12580000D03*
D15*
X11679510Y8400000D03*
X20319510Y8400000D03*
D14*
X20319510Y12580000D03*
G04 #@! TD*
D12*
G04 #@! TO.C,KiKit_MB_41_3*
X1250000Y63580000D03*
G04 #@! TD*
G04 #@! TO.C,KiKit_MB_36_7*
X105000000Y33290000D03*
G04 #@! TD*
G04 #@! TO.C,KiKit_MB_25_2*
X68636176Y30289485D03*
G04 #@! TD*
G04 #@! TO.C,KiKit_MB_35_7*
X86000000Y33290000D03*
G04 #@! TD*
G04 #@! TO.C,KiKit_MB_30_1*
X98989510Y7000001D03*
G04 #@! TD*
G04 #@! TO.C,KiKit_MB_6_9*
X37810490Y63579999D03*
G04 #@! TD*
G04 #@! TO.C,KiKit_MB_21_6*
X35989510Y7000001D03*
G04 #@! TD*
G04 #@! TO.C,KiKit_MB_12_11*
X79010490Y63579999D03*
G04 #@! TD*
G04 #@! TO.C,KiKit_MB_40_5*
X105000000Y2500000D03*
G04 #@! TD*
G04 #@! TO.C,KiKit_MB_13_1*
X104030490Y40290773D03*
G04 #@! TD*
G04 #@! TO.C,KiKit_MB_35_5*
X86000000Y34623334D03*
G04 #@! TD*
G04 #@! TO.C,KiKit_MB_20_1*
X42029510Y30290000D03*
G04 #@! TD*
G04 #@! TO.C,KiKit_MB_14_4*
X87970490Y40290748D03*
G04 #@! TD*
G04 #@! TO.C,KiKit_MB_20_4*
X44029510Y30289253D03*
G04 #@! TD*
G04 #@! TO.C,KiKit_MB_2_2*
X9303824Y40290250D03*
G04 #@! TD*
G04 #@! TO.C,KiKit_MB_18_6*
X15989510Y7000001D03*
G04 #@! TD*
G04 #@! TO.C,KiKit_MB_6_6*
X36010490Y63579999D03*
G04 #@! TD*
G04 #@! TO.C,KiKit_MB_24_2*
X58389510Y7000001D03*
G04 #@! TD*
G04 #@! TO.C,KiKit_MB_3_8*
X17210490Y63579999D03*
G04 #@! TD*
G04 #@! TO.C,KiKit_MB_6_4*
X34810490Y63579999D03*
G04 #@! TD*
D32*
G04 #@! TO.C,KiKit_TO_3*
X2500000Y2500000D03*
G04 #@! TD*
D12*
G04 #@! TO.C,KiKit_MB_9_5*
X55410490Y63579999D03*
G04 #@! TD*
G04 #@! TO.C,KiKit_MB_29_3*
X103362843Y30289502D03*
G04 #@! TD*
G04 #@! TO.C,KiKit_MB_21_4*
X37189510Y7000001D03*
G04 #@! TD*
G04 #@! TO.C,KiKit_MB_12_1*
X73010490Y63579999D03*
G04 #@! TD*
G04 #@! TO.C,KiKit_MB_32_1*
X66000000Y37290000D03*
G04 #@! TD*
G04 #@! TO.C,KiKit_MB_15_9*
X97810490Y63579999D03*
G04 #@! TD*
G04 #@! TO.C,KiKit_MB_25_4*
X69969510Y30290000D03*
G04 #@! TD*
G04 #@! TO.C,KiKit_MB_35_6*
X86000000Y33956667D03*
G04 #@! TD*
G04 #@! TO.C,KiKit_MB_36_2*
X105000000Y36623334D03*
G04 #@! TD*
G04 #@! TO.C,KiKit_MB_35_4*
X86000000Y35290000D03*
G04 #@! TD*
G04 #@! TO.C,KiKit_MB_28_2*
X88636176Y30289485D03*
G04 #@! TD*
G04 #@! TO.C,KiKit_MB_27_1*
X78989510Y7000001D03*
G04 #@! TD*
G04 #@! TO.C,KiKit_MB_40_9*
X105000000Y0D03*
G04 #@! TD*
G04 #@! TO.C,KiKit_MB_10_1*
X84030490Y40290773D03*
G04 #@! TD*
G04 #@! TO.C,KiKit_MB_44_3*
X108250000Y7000000D03*
G04 #@! TD*
G04 #@! TO.C,KiKit_MB_14_1*
X89970490Y40290000D03*
G04 #@! TD*
G04 #@! TO.C,KiKit_MB_15_11*
X99010490Y63579999D03*
G04 #@! TD*
G04 #@! TO.C,KiKit_MB_43_7*
X110750000Y63580000D03*
G04 #@! TD*
G04 #@! TO.C,KiKit_MB_33_4*
X7000000Y35290000D03*
G04 #@! TD*
G04 #@! TO.C,KiKit_MB_7_1*
X64030490Y40290773D03*
G04 #@! TD*
G04 #@! TO.C,KiKit_MB_37_1*
X7000000Y70580000D03*
G04 #@! TD*
G04 #@! TO.C,KiKit_MB_38_7*
X105000000Y66830000D03*
G04 #@! TD*
G04 #@! TO.C,KiKit_MB_24_5*
X56589510Y7000001D03*
G04 #@! TD*
D13*
G04 #@! TO.C,J1*
X38890490Y58500000D03*
X33110490Y58500000D03*
D14*
X40320490Y58000000D03*
D15*
X40320490Y62180000D03*
X31680490Y62180000D03*
D14*
X31680490Y58000000D03*
G04 #@! TD*
D13*
G04 #@! TO.C,J1*
X18890490Y58500000D03*
X13110490Y58500000D03*
D14*
X20320490Y58000000D03*
D15*
X20320490Y62180000D03*
X11680490Y62180000D03*
D14*
X11680490Y58000000D03*
G04 #@! TD*
D12*
G04 #@! TO.C,KiKit_MB_39_6*
X7000000Y1875000D03*
G04 #@! TD*
D32*
G04 #@! TO.C,KiKit_TO_2*
X109500000Y68080000D03*
G04 #@! TD*
D12*
G04 #@! TO.C,KiKit_MB_32_3*
X66000000Y35956667D03*
G04 #@! TD*
D16*
G04 #@! TO.C,Gemini1*
X27715000Y8590000D03*
D17*
X27000000Y8590000D03*
D16*
X27715000Y11130000D03*
D17*
X27000000Y11130000D03*
D16*
X27715000Y13670000D03*
D17*
X27000000Y13670000D03*
D16*
X27715000Y16210000D03*
D17*
X27000000Y16210000D03*
D16*
X27715000Y18750000D03*
D17*
X27000000Y18750000D03*
D16*
X27715000Y21290000D03*
D17*
X27000000Y21290000D03*
D16*
X27715000Y23830000D03*
D17*
X27000000Y23830000D03*
D16*
X27715000Y26370000D03*
D17*
X27000000Y26370000D03*
D16*
X27715000Y28910000D03*
D17*
X27000000Y28910000D03*
D18*
X30920000Y29575000D03*
D17*
X30920000Y30290000D03*
D18*
X33460000Y29575000D03*
D17*
X33460000Y30290000D03*
D18*
X36000000Y29609000D03*
D17*
X36000000Y30324000D03*
D18*
X38540000Y29575000D03*
D17*
X38540000Y30290000D03*
D18*
X41080000Y29575000D03*
D17*
X41080000Y30290000D03*
X45000000Y28910000D03*
D16*
X44285000Y28910000D03*
D17*
X45000000Y26370000D03*
D16*
X44285000Y26370000D03*
D19*
X42096000Y26694000D03*
D20*
X41080000Y26370000D03*
D19*
X42096000Y25424000D03*
X42096000Y24154000D03*
X42096000Y22884000D03*
X42096000Y21614000D03*
X42096000Y20344000D03*
X42096000Y19074000D03*
X42096000Y17804000D03*
X42096000Y16534000D03*
X42096000Y15264000D03*
D17*
X45000000Y23830000D03*
D16*
X44285000Y23830000D03*
D17*
X45000000Y21290000D03*
D16*
X44285000Y21290000D03*
D17*
X45000000Y18750000D03*
D16*
X44285000Y18750000D03*
D17*
X45000000Y16210000D03*
D16*
X44285000Y16210000D03*
D27*
X44556255Y13670000D03*
D28*
X43620000Y13670000D03*
D29*
X45000000Y11130000D03*
D30*
X44285000Y11130000D03*
D31*
X42096000Y13994000D03*
D26*
X37900000Y7650000D03*
D27*
X44556255Y8590000D03*
D28*
X43620000Y8590000D03*
D26*
X36630000Y7650000D03*
X35360000Y7650000D03*
X34090000Y7650000D03*
G04 #@! TD*
D12*
G04 #@! TO.C,KiKit_MB_44_1*
X107000000Y7000000D03*
G04 #@! TD*
G04 #@! TO.C,KiKit_MB_42_8*
X4375000Y7000000D03*
G04 #@! TD*
G04 #@! TO.C,KiKit_MB_21_8*
X34789510Y7000001D03*
G04 #@! TD*
G04 #@! TO.C,KiKit_MB_18_11*
X12989510Y7000001D03*
G04 #@! TD*
G04 #@! TO.C,KiKit_MB_27_9*
X74189510Y7000001D03*
G04 #@! TD*
G04 #@! TO.C,KiKit_MB_40_7*
X105000000Y1250000D03*
G04 #@! TD*
G04 #@! TO.C,KiKit_MB_9_9*
X57810490Y63579999D03*
G04 #@! TD*
D16*
G04 #@! TO.C,Gemini1*
X84285000Y61990000D03*
D17*
X85000000Y61990000D03*
D16*
X84285000Y59450000D03*
D17*
X85000000Y59450000D03*
D16*
X84285000Y56910000D03*
D17*
X85000000Y56910000D03*
D16*
X84285000Y54370000D03*
D17*
X85000000Y54370000D03*
D16*
X84285000Y51830000D03*
D17*
X85000000Y51830000D03*
D16*
X84285000Y49290000D03*
D17*
X85000000Y49290000D03*
D16*
X84285000Y46750000D03*
D17*
X85000000Y46750000D03*
D16*
X84285000Y44210000D03*
D17*
X85000000Y44210000D03*
D16*
X84285000Y41670000D03*
D17*
X85000000Y41670000D03*
D18*
X81080000Y41005000D03*
D17*
X81080000Y40290000D03*
D18*
X78540000Y41005000D03*
D17*
X78540000Y40290000D03*
D18*
X76000000Y40971000D03*
D17*
X76000000Y40256000D03*
D18*
X73460000Y41005000D03*
D17*
X73460000Y40290000D03*
D18*
X70920000Y41005000D03*
D17*
X70920000Y40290000D03*
X67000000Y41670000D03*
D16*
X67715000Y41670000D03*
D17*
X67000000Y44210000D03*
D16*
X67715000Y44210000D03*
D19*
X69904000Y43886000D03*
D20*
X70920000Y44210000D03*
D19*
X69904000Y45156000D03*
X69904000Y46426000D03*
X69904000Y47696000D03*
X69904000Y48966000D03*
X69904000Y50236000D03*
X69904000Y51506000D03*
X69904000Y52776000D03*
X69904000Y54046000D03*
X69904000Y55316000D03*
D17*
X67000000Y46750000D03*
D16*
X67715000Y46750000D03*
D17*
X67000000Y49290000D03*
D16*
X67715000Y49290000D03*
D17*
X67000000Y51830000D03*
D16*
X67715000Y51830000D03*
D17*
X67000000Y54370000D03*
D16*
X67715000Y54370000D03*
D21*
X67443745Y56910000D03*
D22*
X68380000Y56910000D03*
D23*
X67000000Y59450000D03*
D24*
X67715000Y59450000D03*
D25*
X69904000Y56586000D03*
D26*
X74100000Y62930000D03*
D21*
X67443745Y61990000D03*
D22*
X68380000Y61990000D03*
D26*
X75370000Y62930000D03*
X76640000Y62930000D03*
X77910000Y62930000D03*
G04 #@! TD*
D12*
G04 #@! TO.C,KiKit_MB_40_4*
X105000000Y3125000D03*
G04 #@! TD*
G04 #@! TO.C,KiKit_MB_37_3*
X7000000Y69330000D03*
G04 #@! TD*
G04 #@! TO.C,KiKit_MB_6_1*
X33010490Y63579999D03*
G04 #@! TD*
G04 #@! TO.C,KiKit_MB_36_4*
X105000000Y35290000D03*
G04 #@! TD*
G04 #@! TO.C,KiKit_MB_9_7*
X56610490Y63579999D03*
G04 #@! TD*
G04 #@! TO.C,KiKit_MB_11_1*
X69970490Y40290000D03*
G04 #@! TD*
G04 #@! TO.C,KiKit_MB_31_3*
X46000000Y34623334D03*
G04 #@! TD*
G04 #@! TO.C,KiKit_MB_21_1*
X38989510Y7000001D03*
G04 #@! TD*
G04 #@! TO.C,KiKit_MB_30_6*
X95989510Y7000001D03*
G04 #@! TD*
G04 #@! TO.C,KiKit_MB_27_2*
X78389510Y7000001D03*
G04 #@! TD*
G04 #@! TO.C,KiKit_MB_27_4*
X77189510Y7000001D03*
G04 #@! TD*
G04 #@! TO.C,KiKit_MB_26_4*
X84029510Y30289253D03*
G04 #@! TD*
G04 #@! TO.C,KiKit_MB_38_2*
X105000000Y69955000D03*
G04 #@! TD*
G04 #@! TO.C,KiKit_MB_37_2*
X7000000Y69955000D03*
G04 #@! TD*
G04 #@! TO.C,KiKit_MB_34_2*
X26000000Y36623334D03*
G04 #@! TD*
G04 #@! TO.C,KiKit_MB_40_8*
X105000000Y625000D03*
G04 #@! TD*
G04 #@! TO.C,KiKit_MB_8_2*
X49303823Y40290250D03*
G04 #@! TD*
G04 #@! TO.C,KiKit_MB_6_10*
X38410490Y63579999D03*
G04 #@! TD*
G04 #@! TO.C,KiKit_MB_42_5*
X2500000Y7000000D03*
G04 #@! TD*
G04 #@! TO.C,KiKit_MB_6_11*
X39010490Y63579999D03*
G04 #@! TD*
G04 #@! TO.C,KiKit_MB_30_11*
X92989510Y7000001D03*
G04 #@! TD*
G04 #@! TO.C,KiKit_MB_43_2*
X107625000Y63580000D03*
G04 #@! TD*
G04 #@! TO.C,KiKit_MB_3_3*
X14210490Y63579999D03*
G04 #@! TD*
G04 #@! TO.C,KiKit_MB_30_5*
X96589510Y7000001D03*
G04 #@! TD*
G04 #@! TO.C,KiKit_MB_42_3*
X1250000Y7000000D03*
G04 #@! TD*
G04 #@! TO.C,KiKit_MB_3_11*
X19010490Y63579999D03*
G04 #@! TD*
G04 #@! TO.C,KiKit_MB_14_2*
X89303823Y40290250D03*
G04 #@! TD*
G04 #@! TO.C,KiKit_MB_15_8*
X97210490Y63579999D03*
G04 #@! TD*
G04 #@! TO.C,KiKit_MB_5_1*
X29970490Y40290000D03*
G04 #@! TD*
G04 #@! TO.C,KiKit_MB_11_4*
X67970490Y40290748D03*
G04 #@! TD*
G04 #@! TO.C,KiKit_MB_18_7*
X15389510Y7000001D03*
G04 #@! TD*
G04 #@! TO.C,KiKit_MB_12_8*
X77210490Y63579999D03*
G04 #@! TD*
G04 #@! TO.C,KiKit_MB_30_9*
X94189510Y7000001D03*
G04 #@! TD*
D16*
G04 #@! TO.C,Gemini1*
X44285000Y61990000D03*
D17*
X45000000Y61990000D03*
D16*
X44285000Y59450000D03*
D17*
X45000000Y59450000D03*
D16*
X44285000Y56910000D03*
D17*
X45000000Y56910000D03*
D16*
X44285000Y54370000D03*
D17*
X45000000Y54370000D03*
D16*
X44285000Y51830000D03*
D17*
X45000000Y51830000D03*
D16*
X44285000Y49290000D03*
D17*
X45000000Y49290000D03*
D16*
X44285000Y46750000D03*
D17*
X45000000Y46750000D03*
D16*
X44285000Y44210000D03*
D17*
X45000000Y44210000D03*
D16*
X44285000Y41670000D03*
D17*
X45000000Y41670000D03*
D18*
X41080000Y41005000D03*
D17*
X41080000Y40290000D03*
D18*
X38540000Y41005000D03*
D17*
X38540000Y40290000D03*
D18*
X36000000Y40971000D03*
D17*
X36000000Y40256000D03*
D18*
X33460000Y41005000D03*
D17*
X33460000Y40290000D03*
D18*
X30920000Y41005000D03*
D17*
X30920000Y40290000D03*
X27000000Y41670000D03*
D16*
X27715000Y41670000D03*
D17*
X27000000Y44210000D03*
D16*
X27715000Y44210000D03*
D19*
X29904000Y43886000D03*
D20*
X30920000Y44210000D03*
D19*
X29904000Y45156000D03*
X29904000Y46426000D03*
X29904000Y47696000D03*
X29904000Y48966000D03*
X29904000Y50236000D03*
X29904000Y51506000D03*
X29904000Y52776000D03*
X29904000Y54046000D03*
X29904000Y55316000D03*
D17*
X27000000Y46750000D03*
D16*
X27715000Y46750000D03*
D17*
X27000000Y49290000D03*
D16*
X27715000Y49290000D03*
D17*
X27000000Y51830000D03*
D16*
X27715000Y51830000D03*
D17*
X27000000Y54370000D03*
D16*
X27715000Y54370000D03*
D21*
X27443745Y56910000D03*
D22*
X28380000Y56910000D03*
D23*
X27000000Y59450000D03*
D24*
X27715000Y59450000D03*
D25*
X29904000Y56586000D03*
D26*
X34100000Y62930000D03*
D21*
X27443745Y61990000D03*
D22*
X28380000Y61990000D03*
D26*
X35370000Y62930000D03*
X36640000Y62930000D03*
X37910000Y62930000D03*
G04 #@! TD*
D12*
G04 #@! TO.C,KiKit_MB_21_10*
X33589510Y7000001D03*
G04 #@! TD*
G04 #@! TO.C,KiKit_MB_1_3*
X22697156Y40290258D03*
G04 #@! TD*
G04 #@! TO.C,KiKit_MB_37_9*
X7000000Y65580000D03*
G04 #@! TD*
G04 #@! TO.C,KiKit_MB_29_2*
X102696176Y30289751D03*
G04 #@! TD*
G04 #@! TO.C,KiKit_MB_30_2*
X98389510Y7000001D03*
G04 #@! TD*
G04 #@! TO.C,KiKit_MB_9_10*
X58410490Y63579999D03*
G04 #@! TD*
G04 #@! TO.C,KiKit_MB_34_4*
X26000000Y35290000D03*
G04 #@! TD*
G04 #@! TO.C,KiKit_MB_42_6*
X3125000Y7000000D03*
G04 #@! TD*
G04 #@! TO.C,KiKit_MB_12_7*
X76610490Y63579999D03*
G04 #@! TD*
G04 #@! TO.C,KiKit_MB_7_3*
X62697156Y40290258D03*
G04 #@! TD*
G04 #@! TO.C,KiKit_MB_23_3*
X63362843Y30289502D03*
G04 #@! TD*
G04 #@! TO.C,KiKit_MB_19_2*
X28636176Y30289485D03*
G04 #@! TD*
G04 #@! TO.C,KiKit_MB_33_3*
X7000000Y35956667D03*
G04 #@! TD*
G04 #@! TO.C,KiKit_MB_18_4*
X17189510Y7000001D03*
G04 #@! TD*
G04 #@! TO.C,KiKit_MB_26_1*
X82029510Y30290000D03*
G04 #@! TD*
G04 #@! TO.C,KiKit_MB_18_1*
X18989510Y7000001D03*
G04 #@! TD*
G04 #@! TO.C,KiKit_MB_5_4*
X27970490Y40290748D03*
G04 #@! TD*
G04 #@! TO.C,KiKit_MB_3_4*
X14810490Y63579999D03*
G04 #@! TD*
G04 #@! TO.C,KiKit_MB_13_2*
X103363823Y40290516D03*
G04 #@! TD*
G04 #@! TO.C,KiKit_MB_22_2*
X48636176Y30289485D03*
G04 #@! TD*
G04 #@! TO.C,KiKit_MB_5_2*
X29303823Y40290250D03*
G04 #@! TD*
G04 #@! TO.C,KiKit_MB_41_7*
X3750000Y63580000D03*
G04 #@! TD*
G04 #@! TO.C,KiKit_MB_39_2*
X7000000Y4375000D03*
G04 #@! TD*
G04 #@! TO.C,KiKit_MB_41_5*
X2500000Y63580000D03*
G04 #@! TD*
G04 #@! TO.C,KiKit_MB_32_5*
X66000000Y34623334D03*
G04 #@! TD*
G04 #@! TO.C,KiKit_MB_25_3*
X69302843Y30289743D03*
G04 #@! TD*
G04 #@! TO.C,KiKit_MB_16_2*
X8636177Y30289485D03*
G04 #@! TD*
G04 #@! TO.C,KiKit_MB_12_10*
X78410490Y63579999D03*
G04 #@! TD*
G04 #@! TO.C,KiKit_MB_37_8*
X7000000Y66205000D03*
G04 #@! TD*
G04 #@! TO.C,KiKit_MB_19_3*
X29302843Y30289743D03*
G04 #@! TD*
G04 #@! TO.C,KiKit_MB_39_1*
X7000000Y5000000D03*
G04 #@! TD*
G04 #@! TO.C,KiKit_MB_11_3*
X68637156Y40290499D03*
G04 #@! TD*
G04 #@! TO.C,KiKit_MB_15_4*
X94810490Y63579999D03*
G04 #@! TD*
G04 #@! TO.C,KiKit_MB_44_5*
X109500000Y7000000D03*
G04 #@! TD*
G04 #@! TO.C,KiKit_MB_34_7*
X26000000Y33290000D03*
G04 #@! TD*
G04 #@! TO.C,KiKit_MB_24_9*
X54189510Y7000001D03*
G04 #@! TD*
G04 #@! TO.C,KiKit_MB_34_5*
X26000000Y34623334D03*
G04 #@! TD*
G04 #@! TO.C,KiKit_MB_20_3*
X43362843Y30289502D03*
G04 #@! TD*
D16*
G04 #@! TO.C,Gemini1*
X87715000Y8590000D03*
D17*
X87000000Y8590000D03*
D16*
X87715000Y11130000D03*
D17*
X87000000Y11130000D03*
D16*
X87715000Y13670000D03*
D17*
X87000000Y13670000D03*
D16*
X87715000Y16210000D03*
D17*
X87000000Y16210000D03*
D16*
X87715000Y18750000D03*
D17*
X87000000Y18750000D03*
D16*
X87715000Y21290000D03*
D17*
X87000000Y21290000D03*
D16*
X87715000Y23830000D03*
D17*
X87000000Y23830000D03*
D16*
X87715000Y26370000D03*
D17*
X87000000Y26370000D03*
D16*
X87715000Y28910000D03*
D17*
X87000000Y28910000D03*
D18*
X90920000Y29575000D03*
D17*
X90920000Y30290000D03*
D18*
X93460000Y29575000D03*
D17*
X93460000Y30290000D03*
D18*
X96000000Y29609000D03*
D17*
X96000000Y30324000D03*
D18*
X98540000Y29575000D03*
D17*
X98540000Y30290000D03*
D18*
X101080000Y29575000D03*
D17*
X101080000Y30290000D03*
X105000000Y28910000D03*
D16*
X104285000Y28910000D03*
D17*
X105000000Y26370000D03*
D16*
X104285000Y26370000D03*
D19*
X102096000Y26694000D03*
D20*
X101080000Y26370000D03*
D19*
X102096000Y25424000D03*
X102096000Y24154000D03*
X102096000Y22884000D03*
X102096000Y21614000D03*
X102096000Y20344000D03*
X102096000Y19074000D03*
X102096000Y17804000D03*
X102096000Y16534000D03*
X102096000Y15264000D03*
D17*
X105000000Y23830000D03*
D16*
X104285000Y23830000D03*
D17*
X105000000Y21290000D03*
D16*
X104285000Y21290000D03*
D17*
X105000000Y18750000D03*
D16*
X104285000Y18750000D03*
D17*
X105000000Y16210000D03*
D16*
X104285000Y16210000D03*
D27*
X104556255Y13670000D03*
D28*
X103620000Y13670000D03*
D29*
X105000000Y11130000D03*
D30*
X104285000Y11130000D03*
D31*
X102096000Y13994000D03*
D26*
X97900000Y7650000D03*
D27*
X104556255Y8590000D03*
D28*
X103620000Y8590000D03*
D26*
X96630000Y7650000D03*
X95360000Y7650000D03*
X94090000Y7650000D03*
G04 #@! TD*
D12*
G04 #@! TO.C,KiKit_MB_15_3*
X94210490Y63579999D03*
G04 #@! TD*
G04 #@! TO.C,KiKit_MB_2_1*
X9970490Y40290000D03*
G04 #@! TD*
D16*
G04 #@! TO.C,Gemini1*
X67715000Y8590000D03*
D17*
X67000000Y8590000D03*
D16*
X67715000Y11130000D03*
D17*
X67000000Y11130000D03*
D16*
X67715000Y13670000D03*
D17*
X67000000Y13670000D03*
D16*
X67715000Y16210000D03*
D17*
X67000000Y16210000D03*
D16*
X67715000Y18750000D03*
D17*
X67000000Y18750000D03*
D16*
X67715000Y21290000D03*
D17*
X67000000Y21290000D03*
D16*
X67715000Y23830000D03*
D17*
X67000000Y23830000D03*
D16*
X67715000Y26370000D03*
D17*
X67000000Y26370000D03*
D16*
X67715000Y28910000D03*
D17*
X67000000Y28910000D03*
D18*
X70920000Y29575000D03*
D17*
X70920000Y30290000D03*
D18*
X73460000Y29575000D03*
D17*
X73460000Y30290000D03*
D18*
X76000000Y29609000D03*
D17*
X76000000Y30324000D03*
D18*
X78540000Y29575000D03*
D17*
X78540000Y30290000D03*
D18*
X81080000Y29575000D03*
D17*
X81080000Y30290000D03*
X85000000Y28910000D03*
D16*
X84285000Y28910000D03*
D17*
X85000000Y26370000D03*
D16*
X84285000Y26370000D03*
D19*
X82096000Y26694000D03*
D20*
X81080000Y26370000D03*
D19*
X82096000Y25424000D03*
X82096000Y24154000D03*
X82096000Y22884000D03*
X82096000Y21614000D03*
X82096000Y20344000D03*
X82096000Y19074000D03*
X82096000Y17804000D03*
X82096000Y16534000D03*
X82096000Y15264000D03*
D17*
X85000000Y23830000D03*
D16*
X84285000Y23830000D03*
D17*
X85000000Y21290000D03*
D16*
X84285000Y21290000D03*
D17*
X85000000Y18750000D03*
D16*
X84285000Y18750000D03*
D17*
X85000000Y16210000D03*
D16*
X84285000Y16210000D03*
D27*
X84556255Y13670000D03*
D28*
X83620000Y13670000D03*
D29*
X85000000Y11130000D03*
D30*
X84285000Y11130000D03*
D31*
X82096000Y13994000D03*
D26*
X77900000Y7650000D03*
D27*
X84556255Y8590000D03*
D28*
X83620000Y8590000D03*
D26*
X76630000Y7650000D03*
X75360000Y7650000D03*
X74090000Y7650000D03*
G04 #@! TD*
D12*
G04 #@! TO.C,KiKit_MB_28_3*
X89302843Y30289743D03*
G04 #@! TD*
G04 #@! TO.C,KiKit_MB_24_10*
X53589510Y7000001D03*
G04 #@! TD*
D16*
G04 #@! TO.C,Gemini1*
X64285000Y61990000D03*
D17*
X65000000Y61990000D03*
D16*
X64285000Y59450000D03*
D17*
X65000000Y59450000D03*
D16*
X64285000Y56910000D03*
D17*
X65000000Y56910000D03*
D16*
X64285000Y54370000D03*
D17*
X65000000Y54370000D03*
D16*
X64285000Y51830000D03*
D17*
X65000000Y51830000D03*
D16*
X64285000Y49290000D03*
D17*
X65000000Y49290000D03*
D16*
X64285000Y46750000D03*
D17*
X65000000Y46750000D03*
D16*
X64285000Y44210000D03*
D17*
X65000000Y44210000D03*
D16*
X64285000Y41670000D03*
D17*
X65000000Y41670000D03*
D18*
X61080000Y41005000D03*
D17*
X61080000Y40290000D03*
D18*
X58540000Y41005000D03*
D17*
X58540000Y40290000D03*
D18*
X56000000Y40971000D03*
D17*
X56000000Y40256000D03*
D18*
X53460000Y41005000D03*
D17*
X53460000Y40290000D03*
D18*
X50920000Y41005000D03*
D17*
X50920000Y40290000D03*
X47000000Y41670000D03*
D16*
X47715000Y41670000D03*
D17*
X47000000Y44210000D03*
D16*
X47715000Y44210000D03*
D19*
X49904000Y43886000D03*
D20*
X50920000Y44210000D03*
D19*
X49904000Y45156000D03*
X49904000Y46426000D03*
X49904000Y47696000D03*
X49904000Y48966000D03*
X49904000Y50236000D03*
X49904000Y51506000D03*
X49904000Y52776000D03*
X49904000Y54046000D03*
X49904000Y55316000D03*
D17*
X47000000Y46750000D03*
D16*
X47715000Y46750000D03*
D17*
X47000000Y49290000D03*
D16*
X47715000Y49290000D03*
D17*
X47000000Y51830000D03*
D16*
X47715000Y51830000D03*
D17*
X47000000Y54370000D03*
D16*
X47715000Y54370000D03*
D21*
X47443745Y56910000D03*
D22*
X48380000Y56910000D03*
D23*
X47000000Y59450000D03*
D24*
X47715000Y59450000D03*
D25*
X49904000Y56586000D03*
D26*
X54100000Y62930000D03*
D21*
X47443745Y61990000D03*
D22*
X48380000Y61990000D03*
D26*
X55370000Y62930000D03*
X56640000Y62930000D03*
X57910000Y62930000D03*
G04 #@! TD*
D12*
G04 #@! TO.C,KiKit_MB_24_8*
X54789510Y7000001D03*
G04 #@! TD*
G04 #@! TO.C,KiKit_MB_30_4*
X97189510Y7000001D03*
G04 #@! TD*
G04 #@! TO.C,KiKit_MB_38_1*
X105000000Y70580000D03*
G04 #@! TD*
G04 #@! TO.C,KiKit_MB_39_3*
X7000000Y3750000D03*
G04 #@! TD*
G04 #@! TO.C,KiKit_MB_10_2*
X83363823Y40290516D03*
G04 #@! TD*
G04 #@! TO.C,KiKit_MB_42_7*
X3750000Y7000000D03*
G04 #@! TD*
G04 #@! TO.C,KiKit_MB_20_2*
X42696176Y30289751D03*
G04 #@! TD*
G04 #@! TO.C,KiKit_MB_18_2*
X18389510Y7000001D03*
G04 #@! TD*
G04 #@! TO.C,KiKit_MB_6_3*
X34210490Y63579999D03*
G04 #@! TD*
G04 #@! TO.C,KiKit_MB_38_4*
X105000000Y68705000D03*
G04 #@! TD*
G04 #@! TO.C,KiKit_MB_15_2*
X93610490Y63579999D03*
G04 #@! TD*
G04 #@! TO.C,KiKit_MB_21_2*
X38389510Y7000001D03*
G04 #@! TD*
G04 #@! TO.C,KiKit_MB_18_10*
X13589510Y7000001D03*
G04 #@! TD*
G04 #@! TO.C,KiKit_MB_44_6*
X110125000Y7000000D03*
G04 #@! TD*
G04 #@! TO.C,KiKit_MB_39_7*
X7000000Y1250000D03*
G04 #@! TD*
G04 #@! TO.C,KiKit_MB_36_1*
X105000000Y37290000D03*
G04 #@! TD*
G04 #@! TO.C,KiKit_MB_26_2*
X82696176Y30289751D03*
G04 #@! TD*
G04 #@! TO.C,KiKit_MB_31_6*
X46000000Y36623334D03*
G04 #@! TD*
G04 #@! TO.C,KiKit_MB_18_8*
X14789510Y7000001D03*
G04 #@! TD*
G04 #@! TO.C,KiKit_MB_32_7*
X66000000Y33290000D03*
G04 #@! TD*
G04 #@! TO.C,KiKit_MB_12_9*
X77810490Y63579999D03*
G04 #@! TD*
G04 #@! TO.C,KiKit_MB_12_4*
X74810490Y63579999D03*
G04 #@! TD*
G04 #@! TO.C,KiKit_MB_13_4*
X102030490Y40290000D03*
G04 #@! TD*
G04 #@! TO.C,KiKit_MB_18_3*
X17789510Y7000001D03*
G04 #@! TD*
G04 #@! TO.C,KiKit_MB_24_4*
X57189510Y7000001D03*
G04 #@! TD*
G04 #@! TO.C,KiKit_MB_41_1*
X0Y63580000D03*
G04 #@! TD*
G04 #@! TO.C,KiKit_MB_4_1*
X44030490Y40290773D03*
G04 #@! TD*
G04 #@! TO.C,KiKit_MB_4_4*
X42030490Y40290000D03*
G04 #@! TD*
G04 #@! TO.C,KiKit_MB_10_4*
X82030490Y40290000D03*
G04 #@! TD*
G04 #@! TO.C,KiKit_MB_43_1*
X107000000Y63580000D03*
G04 #@! TD*
G04 #@! TO.C,KiKit_MB_41_2*
X625000Y63580000D03*
G04 #@! TD*
G04 #@! TO.C,KiKit_MB_3_6*
X16010490Y63579999D03*
G04 #@! TD*
G04 #@! TO.C,KiKit_MB_35_3*
X86000000Y35956667D03*
G04 #@! TD*
G04 #@! TO.C,KiKit_MB_42_4*
X1875000Y7000000D03*
G04 #@! TD*
G04 #@! TO.C,KiKit_MB_27_3*
X77789510Y7000001D03*
G04 #@! TD*
D13*
G04 #@! TO.C,J1*
X53109510Y12080000D03*
X58889510Y12080000D03*
D14*
X51679510Y12580000D03*
D15*
X51679510Y8400000D03*
X60319510Y8400000D03*
D14*
X60319510Y12580000D03*
G04 #@! TD*
D12*
G04 #@! TO.C,KiKit_MB_23_2*
X62696176Y30289751D03*
G04 #@! TD*
G04 #@! TO.C,KiKit_MB_27_5*
X76589510Y7000001D03*
G04 #@! TD*
G04 #@! TO.C,KiKit_MB_3_5*
X15410490Y63579999D03*
G04 #@! TD*
G04 #@! TO.C,KiKit_MB_40_1*
X105000000Y5000000D03*
G04 #@! TD*
D13*
G04 #@! TO.C,J1*
X93109510Y12080000D03*
X98889510Y12080000D03*
D14*
X91679510Y12580000D03*
D15*
X91679510Y8400000D03*
X100319510Y8400000D03*
D14*
X100319510Y12580000D03*
G04 #@! TD*
D12*
G04 #@! TO.C,KiKit_MB_43_4*
X108875000Y63580000D03*
G04 #@! TD*
G04 #@! TO.C,KiKit_MB_39_5*
X7000000Y2500000D03*
G04 #@! TD*
G04 #@! TO.C,KiKit_MB_42_1*
X0Y7000000D03*
G04 #@! TD*
G04 #@! TO.C,KiKit_MB_2_4*
X7970490Y40290748D03*
G04 #@! TD*
D13*
G04 #@! TO.C,J1*
X73109510Y12080000D03*
X78889510Y12080000D03*
D14*
X71679510Y12580000D03*
D15*
X71679510Y8400000D03*
X80319510Y8400000D03*
D14*
X80319510Y12580000D03*
G04 #@! TD*
D12*
G04 #@! TO.C,KiKit_MB_6_5*
X35410490Y63579999D03*
G04 #@! TD*
G04 #@! TO.C,KiKit_MB_30_10*
X93589510Y7000001D03*
G04 #@! TD*
G04 #@! TO.C,KiKit_MB_5_3*
X28637156Y40290499D03*
G04 #@! TD*
G04 #@! TO.C,KiKit_MB_44_7*
X110750000Y7000000D03*
G04 #@! TD*
G04 #@! TO.C,KiKit_MB_24_6*
X55989510Y7000001D03*
G04 #@! TD*
G04 #@! TO.C,KiKit_MB_27_11*
X72989510Y7000001D03*
G04 #@! TD*
G04 #@! TO.C,KiKit_MB_33_1*
X7000000Y37290000D03*
G04 #@! TD*
G04 #@! TO.C,KiKit_MB_9_3*
X54210490Y63579999D03*
G04 #@! TD*
G04 #@! TO.C,KiKit_MB_1_1*
X24030490Y40290773D03*
G04 #@! TD*
G04 #@! TO.C,KiKit_MB_3_7*
X16610490Y63579999D03*
G04 #@! TD*
G04 #@! TO.C,KiKit_MB_21_5*
X36589510Y7000001D03*
G04 #@! TD*
D16*
G04 #@! TO.C,Gemini1*
X47715000Y8590000D03*
D17*
X47000000Y8590000D03*
D16*
X47715000Y11130000D03*
D17*
X47000000Y11130000D03*
D16*
X47715000Y13670000D03*
D17*
X47000000Y13670000D03*
D16*
X47715000Y16210000D03*
D17*
X47000000Y16210000D03*
D16*
X47715000Y18750000D03*
D17*
X47000000Y18750000D03*
D16*
X47715000Y21290000D03*
D17*
X47000000Y21290000D03*
D16*
X47715000Y23830000D03*
D17*
X47000000Y23830000D03*
D16*
X47715000Y26370000D03*
D17*
X47000000Y26370000D03*
D16*
X47715000Y28910000D03*
D17*
X47000000Y28910000D03*
D18*
X50920000Y29575000D03*
D17*
X50920000Y30290000D03*
D18*
X53460000Y29575000D03*
D17*
X53460000Y30290000D03*
D18*
X56000000Y29609000D03*
D17*
X56000000Y30324000D03*
D18*
X58540000Y29575000D03*
D17*
X58540000Y30290000D03*
D18*
X61080000Y29575000D03*
D17*
X61080000Y30290000D03*
X65000000Y28910000D03*
D16*
X64285000Y28910000D03*
D17*
X65000000Y26370000D03*
D16*
X64285000Y26370000D03*
D19*
X62096000Y26694000D03*
D20*
X61080000Y26370000D03*
D19*
X62096000Y25424000D03*
X62096000Y24154000D03*
X62096000Y22884000D03*
X62096000Y21614000D03*
X62096000Y20344000D03*
X62096000Y19074000D03*
X62096000Y17804000D03*
X62096000Y16534000D03*
X62096000Y15264000D03*
D17*
X65000000Y23830000D03*
D16*
X64285000Y23830000D03*
D17*
X65000000Y21290000D03*
D16*
X64285000Y21290000D03*
D17*
X65000000Y18750000D03*
D16*
X64285000Y18750000D03*
D17*
X65000000Y16210000D03*
D16*
X64285000Y16210000D03*
D27*
X64556255Y13670000D03*
D28*
X63620000Y13670000D03*
D29*
X65000000Y11130000D03*
D30*
X64285000Y11130000D03*
D31*
X62096000Y13994000D03*
D26*
X57900000Y7650000D03*
D27*
X64556255Y8590000D03*
D28*
X63620000Y8590000D03*
D26*
X56630000Y7650000D03*
X55360000Y7650000D03*
X54090000Y7650000D03*
G04 #@! TD*
D12*
G04 #@! TO.C,KiKit_MB_9_11*
X59010490Y63579999D03*
G04 #@! TD*
G04 #@! TO.C,KiKit_MB_31_4*
X46000000Y35290000D03*
G04 #@! TD*
G04 #@! TO.C,KiKit_MB_14_3*
X88637156Y40290499D03*
G04 #@! TD*
G04 #@! TO.C,KiKit_MB_31_5*
X46000000Y35956667D03*
G04 #@! TD*
G04 #@! TO.C,KiKit_MB_17_2*
X22696176Y30289751D03*
G04 #@! TD*
G04 #@! TO.C,KiKit_MB_12_2*
X73610490Y63579999D03*
G04 #@! TD*
G04 #@! TO.C,KiKit_MB_41_8*
X4375000Y63580000D03*
G04 #@! TD*
G04 #@! TO.C,KiKit_MB_6_8*
X37210490Y63579999D03*
G04 #@! TD*
G04 #@! TO.C,KiKit_MB_37_5*
X7000000Y68080000D03*
G04 #@! TD*
D13*
G04 #@! TO.C,J1*
X58890490Y58500000D03*
X53110490Y58500000D03*
D14*
X60320490Y58000000D03*
D15*
X60320490Y62180000D03*
X51680490Y62180000D03*
D14*
X51680490Y58000000D03*
G04 #@! TD*
D12*
G04 #@! TO.C,KiKit_MB_12_5*
X75410490Y63579999D03*
G04 #@! TD*
G04 #@! TO.C,KiKit_MB_39_9*
X7000000Y0D03*
G04 #@! TD*
G04 #@! TO.C,KiKit_MB_7_2*
X63363823Y40290516D03*
G04 #@! TD*
D32*
G04 #@! TO.C,KiKit_TO_1*
X2500000Y68080000D03*
G04 #@! TD*
D12*
G04 #@! TO.C,KiKit_MB_44_4*
X108875000Y7000000D03*
G04 #@! TD*
G04 #@! TO.C,KiKit_MB_9_1*
X53010490Y63579999D03*
G04 #@! TD*
G04 #@! TO.C,KiKit_MB_24_3*
X57789510Y7000001D03*
G04 #@! TD*
G04 #@! TO.C,KiKit_MB_3_10*
X18410490Y63579999D03*
G04 #@! TD*
G04 #@! TO.C,KiKit_MB_11_2*
X69303823Y40290250D03*
G04 #@! TD*
G04 #@! TO.C,KiKit_MB_38_9*
X105000000Y65580000D03*
G04 #@! TD*
G04 #@! TO.C,KiKit_MB_33_5*
X7000000Y34623334D03*
G04 #@! TD*
G04 #@! TO.C,KiKit_MB_27_6*
X75989510Y7000001D03*
G04 #@! TD*
G04 #@! TO.C,KiKit_MB_8_4*
X47970490Y40290748D03*
G04 #@! TD*
G04 #@! TO.C,KiKit_MB_31_7*
X46000000Y37290000D03*
G04 #@! TD*
G04 #@! TO.C,KiKit_MB_40_6*
X105000000Y1875000D03*
G04 #@! TD*
G04 #@! TO.C,KiKit_MB_21_11*
X32989510Y7000001D03*
G04 #@! TD*
G04 #@! TO.C,KiKit_MB_41_4*
X1875000Y63580000D03*
G04 #@! TD*
G04 #@! TO.C,KiKit_MB_40_2*
X105000000Y4375000D03*
G04 #@! TD*
G04 #@! TO.C,KiKit_MB_2_3*
X8637157Y40290499D03*
G04 #@! TD*
G04 #@! TO.C,KiKit_MB_9_4*
X54810490Y63579999D03*
G04 #@! TD*
G04 #@! TO.C,KiKit_MB_44_8*
X111375000Y7000000D03*
G04 #@! TD*
G04 #@! TO.C,KiKit_MB_38_5*
X105000000Y68080000D03*
G04 #@! TD*
G04 #@! TO.C,KiKit_MB_31_2*
X46000000Y33956667D03*
G04 #@! TD*
G04 #@! TO.C,KiKit_MB_30_3*
X97789510Y7000001D03*
G04 #@! TD*
G04 #@! TO.C,KiKit_MB_34_6*
X26000000Y33956667D03*
G04 #@! TD*
G04 #@! TO.C,KiKit_MB_24_11*
X52989510Y7000001D03*
G04 #@! TD*
G04 #@! TO.C,KiKit_MB_43_9*
X112000000Y63580000D03*
G04 #@! TD*
D13*
G04 #@! TO.C,J1*
X98890490Y58500000D03*
X93110490Y58500000D03*
D14*
X100320490Y58000000D03*
D15*
X100320490Y62180000D03*
X91680490Y62180000D03*
D14*
X91680490Y58000000D03*
G04 #@! TD*
D12*
G04 #@! TO.C,KiKit_MB_24_1*
X58989510Y7000001D03*
G04 #@! TD*
G04 #@! TO.C,KiKit_MB_19_1*
X27969510Y30289228D03*
G04 #@! TD*
G04 #@! TO.C,KiKit_MB_31_1*
X46000000Y33290000D03*
G04 #@! TD*
G04 #@! TO.C,KiKit_MB_36_3*
X105000000Y35956667D03*
G04 #@! TD*
G04 #@! TO.C,KiKit_MB_44_9*
X112000000Y7000000D03*
G04 #@! TD*
G04 #@! TO.C,KiKit_MB_32_6*
X66000000Y33956667D03*
G04 #@! TD*
G04 #@! TO.C,KiKit_MB_29_4*
X104029510Y30289253D03*
G04 #@! TD*
G04 #@! TO.C,KiKit_MB_37_6*
X7000000Y67455000D03*
G04 #@! TD*
D16*
G04 #@! TO.C,Gemini1*
X24285000Y61990000D03*
D17*
X25000000Y61990000D03*
D16*
X24285000Y59450000D03*
D17*
X25000000Y59450000D03*
D16*
X24285000Y56910000D03*
D17*
X25000000Y56910000D03*
D16*
X24285000Y54370000D03*
D17*
X25000000Y54370000D03*
D16*
X24285000Y51830000D03*
D17*
X25000000Y51830000D03*
D16*
X24285000Y49290000D03*
D17*
X25000000Y49290000D03*
D16*
X24285000Y46750000D03*
D17*
X25000000Y46750000D03*
D16*
X24285000Y44210000D03*
D17*
X25000000Y44210000D03*
D16*
X24285000Y41670000D03*
D17*
X25000000Y41670000D03*
D18*
X21080000Y41005000D03*
D17*
X21080000Y40290000D03*
D18*
X18540000Y41005000D03*
D17*
X18540000Y40290000D03*
D18*
X16000000Y40971000D03*
D17*
X16000000Y40256000D03*
D18*
X13460000Y41005000D03*
D17*
X13460000Y40290000D03*
D18*
X10920000Y41005000D03*
D17*
X10920000Y40290000D03*
X7000000Y41670000D03*
D16*
X7715000Y41670000D03*
D17*
X7000000Y44210000D03*
D16*
X7715000Y44210000D03*
D19*
X9904000Y43886000D03*
D20*
X10920000Y44210000D03*
D19*
X9904000Y45156000D03*
X9904000Y46426000D03*
X9904000Y47696000D03*
X9904000Y48966000D03*
X9904000Y50236000D03*
X9904000Y51506000D03*
X9904000Y52776000D03*
X9904000Y54046000D03*
X9904000Y55316000D03*
D17*
X7000000Y46750000D03*
D16*
X7715000Y46750000D03*
D17*
X7000000Y49290000D03*
D16*
X7715000Y49290000D03*
D17*
X7000000Y51830000D03*
D16*
X7715000Y51830000D03*
D17*
X7000000Y54370000D03*
D16*
X7715000Y54370000D03*
D21*
X7443745Y56910000D03*
D22*
X8380000Y56910000D03*
D23*
X7000000Y59450000D03*
D24*
X7715000Y59450000D03*
D25*
X9904000Y56586000D03*
D26*
X14100000Y62930000D03*
D21*
X7443745Y61990000D03*
D22*
X8380000Y61990000D03*
D26*
X15370000Y62930000D03*
X16640000Y62930000D03*
X17910000Y62930000D03*
G04 #@! TD*
D12*
G04 #@! TO.C,KiKit_MB_38_6*
X105000000Y67455000D03*
G04 #@! TD*
D33*
G04 #@! TO.C,U4*
X72562500Y17530000D03*
D34*
X72562500Y17930000D03*
X72562500Y18330000D03*
X72562500Y18730000D03*
X72562500Y19130000D03*
X72562500Y19530000D03*
X72562500Y19930000D03*
X72562500Y20330000D03*
X72562500Y20730000D03*
X72562500Y21130000D03*
X72562500Y21530000D03*
X72562500Y21930000D03*
X72562500Y22330000D03*
X72562500Y22730000D03*
D35*
X73400000Y23567500D03*
X73800000Y23567500D03*
X74200000Y23567500D03*
X74600000Y23567500D03*
X75000000Y23567500D03*
X75400000Y23567500D03*
X75800000Y23567500D03*
X76200000Y23567500D03*
X76600000Y23567500D03*
X77000000Y23567500D03*
X77400000Y23567500D03*
X77800000Y23567500D03*
X78200000Y23567500D03*
X78600000Y23567500D03*
D34*
X79437500Y22730000D03*
X79437500Y22330000D03*
X79437500Y21930000D03*
X79437500Y21530000D03*
X79437500Y21130000D03*
X79437500Y20730000D03*
X79437500Y20330000D03*
X79437500Y19930000D03*
X79437500Y19530000D03*
X79437500Y19130000D03*
X79437500Y18730000D03*
X79437500Y18330000D03*
X79437500Y17930000D03*
X79437500Y17530000D03*
D35*
X78600000Y16692500D03*
X78200000Y16692500D03*
X77800000Y16692500D03*
X77400000Y16692500D03*
X77000000Y16692500D03*
X76600000Y16692500D03*
X76200000Y16692500D03*
X75800000Y16692500D03*
X75400000Y16692500D03*
X75000000Y16692500D03*
X74600000Y16692500D03*
X74200000Y16692500D03*
X73800000Y16692500D03*
X73400000Y16692500D03*
D36*
X76000000Y20130000D03*
G04 #@! TD*
D37*
G04 #@! TO.C,R6*
X93930490Y45870000D03*
X93290490Y45870000D03*
G04 #@! TD*
D38*
G04 #@! TO.C,R16*
X99329510Y9405000D03*
X99329510Y8765000D03*
G04 #@! TD*
G04 #@! TO.C,C7*
X53939510Y26790000D03*
X53939510Y26150000D03*
G04 #@! TD*
D39*
G04 #@! TO.C,C2*
X32550490Y45220000D03*
X32550490Y45860000D03*
G04 #@! TD*
D38*
G04 #@! TO.C,R4*
X38749510Y26790000D03*
X38749510Y26150000D03*
G04 #@! TD*
D39*
G04 #@! TO.C,R2*
X72539510Y26150000D03*
X72539510Y26790000D03*
G04 #@! TD*
D40*
G04 #@! TO.C,R5*
X53290490Y45170000D03*
X53930490Y45170000D03*
G04 #@! TD*
D37*
G04 #@! TO.C,R13*
X16639510Y24600000D03*
X15999510Y24600000D03*
G04 #@! TD*
D39*
G04 #@! TO.C,R16*
X12670490Y61175000D03*
X12670490Y61815000D03*
G04 #@! TD*
G04 #@! TO.C,R3*
X38760490Y43790000D03*
X38760490Y44430000D03*
G04 #@! TD*
G04 #@! TO.C,R3*
X98760490Y43790000D03*
X98760490Y44430000D03*
G04 #@! TD*
D40*
G04 #@! TO.C,R11*
X54989510Y14630000D03*
X55629510Y14630000D03*
G04 #@! TD*
D41*
G04 #@! TO.C,C1*
X74059510Y9310000D03*
X74059510Y10270000D03*
G04 #@! TD*
D42*
G04 #@! TO.C,C1*
X37940490Y61270000D03*
X37940490Y60310000D03*
G04 #@! TD*
D40*
G04 #@! TO.C,R13*
X55360490Y45980000D03*
X56000490Y45980000D03*
G04 #@! TD*
D38*
G04 #@! TO.C,R16*
X79329510Y9405000D03*
X79329510Y8765000D03*
G04 #@! TD*
D39*
G04 #@! TO.C,R2*
X52539510Y26150000D03*
X52539510Y26790000D03*
G04 #@! TD*
G04 #@! TO.C,R8*
X78049510Y11515000D03*
X78049510Y12155000D03*
G04 #@! TD*
D38*
G04 #@! TO.C,R2*
X39460490Y44430000D03*
X39460490Y43790000D03*
G04 #@! TD*
D43*
G04 #@! TO.C,FB1*
X39290490Y57420000D03*
X39290490Y56400000D03*
G04 #@! TD*
D40*
G04 #@! TO.C,R6*
X18069510Y24710000D03*
X18709510Y24710000D03*
G04 #@! TD*
G04 #@! TO.C,R12*
X94960490Y55950000D03*
X95600490Y55950000D03*
G04 #@! TD*
D38*
G04 #@! TO.C,R3*
X13239510Y26790000D03*
X13239510Y26150000D03*
G04 #@! TD*
D39*
G04 #@! TO.C,R8*
X18049510Y11515000D03*
X18049510Y12155000D03*
G04 #@! TD*
D40*
G04 #@! TO.C,R13*
X35360490Y45980000D03*
X36000490Y45980000D03*
G04 #@! TD*
D41*
G04 #@! TO.C,C1*
X54059510Y9310000D03*
X54059510Y10270000D03*
G04 #@! TD*
D42*
G04 #@! TO.C,C1*
X77940490Y61270000D03*
X77940490Y60310000D03*
G04 #@! TD*
D38*
G04 #@! TO.C,R1*
X91839510Y26790000D03*
X91839510Y26150000D03*
G04 #@! TD*
D39*
G04 #@! TO.C,R15*
X92670490Y59775000D03*
X92670490Y60415000D03*
G04 #@! TD*
D40*
G04 #@! TO.C,R5*
X33290490Y45170000D03*
X33930490Y45170000D03*
G04 #@! TD*
D38*
G04 #@! TO.C,C8*
X18039510Y26790000D03*
X18039510Y26150000D03*
G04 #@! TD*
D43*
G04 #@! TO.C,FB1*
X19290490Y57420000D03*
X19290490Y56400000D03*
G04 #@! TD*
D42*
G04 #@! TO.C,C1*
X97940490Y61270000D03*
X97940490Y60310000D03*
G04 #@! TD*
D44*
G04 #@! TO.C,F1*
X99130490Y61577500D03*
X99130490Y60002500D03*
G04 #@! TD*
D45*
G04 #@! TO.C,D1*
X60350490Y59850000D03*
D46*
X60350490Y60650000D03*
G04 #@! TD*
D38*
G04 #@! TO.C,R2*
X99460490Y44430000D03*
X99460490Y43790000D03*
G04 #@! TD*
D39*
G04 #@! TO.C,R3*
X58760490Y43790000D03*
X58760490Y44430000D03*
G04 #@! TD*
D40*
G04 #@! TO.C,R12*
X54960490Y55950000D03*
X55600490Y55950000D03*
G04 #@! TD*
D47*
G04 #@! TO.C,U1*
X75462990Y58650000D03*
D48*
X76000490Y58725000D03*
D49*
X76537990Y58650000D03*
X76537990Y56950000D03*
D48*
X76000490Y56875000D03*
D49*
X75462990Y56950000D03*
G04 #@! TD*
D50*
G04 #@! TO.C,FB1*
X52709510Y13160000D03*
X52709510Y14180000D03*
G04 #@! TD*
D39*
G04 #@! TO.C,R1*
X40160490Y43790000D03*
X40160490Y44430000D03*
G04 #@! TD*
G04 #@! TO.C,R7*
X73949510Y11515000D03*
X73949510Y12155000D03*
G04 #@! TD*
D50*
G04 #@! TO.C,FB1*
X72709510Y13160000D03*
X72709510Y14180000D03*
G04 #@! TD*
D44*
G04 #@! TO.C,F1*
X19130490Y61577500D03*
X19130490Y60002500D03*
G04 #@! TD*
D37*
G04 #@! TO.C,R12*
X17039510Y14630000D03*
X16399510Y14630000D03*
G04 #@! TD*
D39*
G04 #@! TO.C,R4*
X53250490Y43790000D03*
X53250490Y44430000D03*
G04 #@! TD*
D47*
G04 #@! TO.C,U1*
X55462990Y58650000D03*
D48*
X56000490Y58725000D03*
D49*
X56537990Y58650000D03*
X56537990Y56950000D03*
D48*
X56000490Y56875000D03*
D49*
X55462990Y56950000D03*
G04 #@! TD*
D38*
G04 #@! TO.C,C2*
X79449510Y25360000D03*
X79449510Y24720000D03*
G04 #@! TD*
D51*
G04 #@! TO.C,JP1*
X13750490Y61530000D03*
D52*
X13750490Y60030000D03*
G04 #@! TD*
D38*
G04 #@! TO.C,R7*
X18050490Y59065000D03*
X18050490Y58425000D03*
G04 #@! TD*
G04 #@! TO.C,R4*
X98749510Y26790000D03*
X98749510Y26150000D03*
G04 #@! TD*
G04 #@! TO.C,C8*
X58039510Y26790000D03*
X58039510Y26150000D03*
G04 #@! TD*
D37*
G04 #@! TO.C,R11*
X77010490Y55950000D03*
X76370490Y55950000D03*
G04 #@! TD*
D39*
G04 #@! TO.C,R15*
X32670490Y59775000D03*
X32670490Y60415000D03*
G04 #@! TD*
D37*
G04 #@! TO.C,R11*
X57010490Y55950000D03*
X56370490Y55950000D03*
G04 #@! TD*
D53*
G04 #@! TO.C,F1*
X52869510Y9002500D03*
X52869510Y10577500D03*
G04 #@! TD*
D33*
G04 #@! TO.C,U4*
X92562500Y17530000D03*
D34*
X92562500Y17930000D03*
X92562500Y18330000D03*
X92562500Y18730000D03*
X92562500Y19130000D03*
X92562500Y19530000D03*
X92562500Y19930000D03*
X92562500Y20330000D03*
X92562500Y20730000D03*
X92562500Y21130000D03*
X92562500Y21530000D03*
X92562500Y21930000D03*
X92562500Y22330000D03*
X92562500Y22730000D03*
D35*
X93400000Y23567500D03*
X93800000Y23567500D03*
X94200000Y23567500D03*
X94600000Y23567500D03*
X95000000Y23567500D03*
X95400000Y23567500D03*
X95800000Y23567500D03*
X96200000Y23567500D03*
X96600000Y23567500D03*
X97000000Y23567500D03*
X97400000Y23567500D03*
X97800000Y23567500D03*
X98200000Y23567500D03*
X98600000Y23567500D03*
D34*
X99437500Y22730000D03*
X99437500Y22330000D03*
X99437500Y21930000D03*
X99437500Y21530000D03*
X99437500Y21130000D03*
X99437500Y20730000D03*
X99437500Y20330000D03*
X99437500Y19930000D03*
X99437500Y19530000D03*
X99437500Y19130000D03*
X99437500Y18730000D03*
X99437500Y18330000D03*
X99437500Y17930000D03*
X99437500Y17530000D03*
D35*
X98600000Y16692500D03*
X98200000Y16692500D03*
X97800000Y16692500D03*
X97400000Y16692500D03*
X97000000Y16692500D03*
X96600000Y16692500D03*
X96200000Y16692500D03*
X95800000Y16692500D03*
X95400000Y16692500D03*
X95000000Y16692500D03*
X94600000Y16692500D03*
X94200000Y16692500D03*
X93800000Y16692500D03*
X93400000Y16692500D03*
D36*
X96000000Y20130000D03*
G04 #@! TD*
D39*
G04 #@! TO.C,C7*
X38060490Y43790000D03*
X38060490Y44430000D03*
G04 #@! TD*
D37*
G04 #@! TO.C,R11*
X17010490Y55950000D03*
X16370490Y55950000D03*
G04 #@! TD*
D39*
G04 #@! TO.C,R15*
X72670490Y59775000D03*
X72670490Y60415000D03*
G04 #@! TD*
G04 #@! TO.C,R3*
X78760490Y43790000D03*
X78760490Y44430000D03*
G04 #@! TD*
D54*
G04 #@! TO.C,U1*
X76537010Y11930000D03*
D55*
X75999510Y11855000D03*
D56*
X75462010Y11930000D03*
X75462010Y13630000D03*
D55*
X75999510Y13705000D03*
D56*
X76537010Y13630000D03*
G04 #@! TD*
D44*
G04 #@! TO.C,F1*
X79130490Y61577500D03*
X79130490Y60002500D03*
G04 #@! TD*
D39*
G04 #@! TO.C,R15*
X12670490Y59775000D03*
X12670490Y60415000D03*
G04 #@! TD*
D57*
G04 #@! TO.C,Y1*
X55135490Y44820000D03*
X56885490Y44820000D03*
X56885490Y43420000D03*
X55135490Y43420000D03*
G04 #@! TD*
D38*
G04 #@! TO.C,C7*
X73939510Y26790000D03*
X73939510Y26150000D03*
G04 #@! TD*
D42*
G04 #@! TO.C,C3*
X52440490Y44400000D03*
X52440490Y43440000D03*
G04 #@! TD*
D51*
G04 #@! TO.C,JP1*
X73750490Y61530000D03*
D52*
X73750490Y60030000D03*
G04 #@! TD*
D57*
G04 #@! TO.C,Y1*
X75135490Y44820000D03*
X76885490Y44820000D03*
X76885490Y43420000D03*
X75135490Y43420000D03*
G04 #@! TD*
D40*
G04 #@! TO.C,R5*
X73290490Y45170000D03*
X73930490Y45170000D03*
G04 #@! TD*
G04 #@! TO.C,R12*
X74960490Y55950000D03*
X75600490Y55950000D03*
G04 #@! TD*
D37*
G04 #@! TO.C,R13*
X36639510Y24600000D03*
X35999510Y24600000D03*
G04 #@! TD*
D41*
G04 #@! TO.C,C3*
X59559510Y26180000D03*
X59559510Y27140000D03*
G04 #@! TD*
D39*
G04 #@! TO.C,R2*
X12539510Y26150000D03*
X12539510Y26790000D03*
G04 #@! TD*
D51*
G04 #@! TO.C,JP1*
X93750490Y61530000D03*
D52*
X93750490Y60030000D03*
G04 #@! TD*
D37*
G04 #@! TO.C,R12*
X97039510Y14630000D03*
X96399510Y14630000D03*
G04 #@! TD*
D58*
G04 #@! TO.C,JP1*
X98249510Y9050000D03*
D59*
X98249510Y10550000D03*
G04 #@! TD*
D38*
G04 #@! TO.C,R15*
X99329510Y10805000D03*
X99329510Y10165000D03*
G04 #@! TD*
D39*
G04 #@! TO.C,R7*
X13949510Y11515000D03*
X13949510Y12155000D03*
G04 #@! TD*
G04 #@! TO.C,R16*
X52670490Y61175000D03*
X52670490Y61815000D03*
G04 #@! TD*
D41*
G04 #@! TO.C,C1*
X34059510Y9310000D03*
X34059510Y10270000D03*
G04 #@! TD*
D58*
G04 #@! TO.C,JP1*
X38249510Y9050000D03*
D59*
X38249510Y10550000D03*
G04 #@! TD*
D41*
G04 #@! TO.C,C1*
X94059510Y9310000D03*
X94059510Y10270000D03*
G04 #@! TD*
D39*
G04 #@! TO.C,R1*
X20160490Y43790000D03*
X20160490Y44430000D03*
G04 #@! TD*
D45*
G04 #@! TO.C,D1*
X80350490Y59850000D03*
D46*
X80350490Y60650000D03*
G04 #@! TD*
D37*
G04 #@! TO.C,R13*
X96639510Y24600000D03*
X95999510Y24600000D03*
G04 #@! TD*
D60*
G04 #@! TO.C,U4*
X39437500Y53050000D03*
D61*
X39437500Y52650000D03*
X39437500Y52250000D03*
X39437500Y51850000D03*
X39437500Y51450000D03*
X39437500Y51050000D03*
X39437500Y50650000D03*
X39437500Y50250000D03*
X39437500Y49850000D03*
X39437500Y49450000D03*
X39437500Y49050000D03*
X39437500Y48650000D03*
X39437500Y48250000D03*
X39437500Y47850000D03*
D62*
X38600000Y47012500D03*
X38200000Y47012500D03*
X37800000Y47012500D03*
X37400000Y47012500D03*
X37000000Y47012500D03*
X36600000Y47012500D03*
X36200000Y47012500D03*
X35800000Y47012500D03*
X35400000Y47012500D03*
X35000000Y47012500D03*
X34600000Y47012500D03*
X34200000Y47012500D03*
X33800000Y47012500D03*
X33400000Y47012500D03*
D61*
X32562500Y47850000D03*
X32562500Y48250000D03*
X32562500Y48650000D03*
X32562500Y49050000D03*
X32562500Y49450000D03*
X32562500Y49850000D03*
X32562500Y50250000D03*
X32562500Y50650000D03*
X32562500Y51050000D03*
X32562500Y51450000D03*
X32562500Y51850000D03*
X32562500Y52250000D03*
X32562500Y52650000D03*
X32562500Y53050000D03*
D62*
X33400000Y53887500D03*
X33800000Y53887500D03*
X34200000Y53887500D03*
X34600000Y53887500D03*
X35000000Y53887500D03*
X35400000Y53887500D03*
X35800000Y53887500D03*
X36200000Y53887500D03*
X36600000Y53887500D03*
X37000000Y53887500D03*
X37400000Y53887500D03*
X37800000Y53887500D03*
X38200000Y53887500D03*
X38600000Y53887500D03*
D63*
X36000000Y50450000D03*
G04 #@! TD*
D54*
G04 #@! TO.C,U1*
X16537010Y11930000D03*
D55*
X15999510Y11855000D03*
D56*
X15462010Y11930000D03*
X15462010Y13630000D03*
D55*
X15999510Y13705000D03*
D56*
X16537010Y13630000D03*
G04 #@! TD*
D41*
G04 #@! TO.C,C3*
X39559510Y26180000D03*
X39559510Y27140000D03*
G04 #@! TD*
D37*
G04 #@! TO.C,R6*
X33930490Y45870000D03*
X33290490Y45870000D03*
G04 #@! TD*
D39*
G04 #@! TO.C,R15*
X52670490Y59775000D03*
X52670490Y60415000D03*
G04 #@! TD*
D33*
G04 #@! TO.C,U4*
X32562500Y17530000D03*
D34*
X32562500Y17930000D03*
X32562500Y18330000D03*
X32562500Y18730000D03*
X32562500Y19130000D03*
X32562500Y19530000D03*
X32562500Y19930000D03*
X32562500Y20330000D03*
X32562500Y20730000D03*
X32562500Y21130000D03*
X32562500Y21530000D03*
X32562500Y21930000D03*
X32562500Y22330000D03*
X32562500Y22730000D03*
D35*
X33400000Y23567500D03*
X33800000Y23567500D03*
X34200000Y23567500D03*
X34600000Y23567500D03*
X35000000Y23567500D03*
X35400000Y23567500D03*
X35800000Y23567500D03*
X36200000Y23567500D03*
X36600000Y23567500D03*
X37000000Y23567500D03*
X37400000Y23567500D03*
X37800000Y23567500D03*
X38200000Y23567500D03*
X38600000Y23567500D03*
D34*
X39437500Y22730000D03*
X39437500Y22330000D03*
X39437500Y21930000D03*
X39437500Y21530000D03*
X39437500Y21130000D03*
X39437500Y20730000D03*
X39437500Y20330000D03*
X39437500Y19930000D03*
X39437500Y19530000D03*
X39437500Y19130000D03*
X39437500Y18730000D03*
X39437500Y18330000D03*
X39437500Y17930000D03*
X39437500Y17530000D03*
D35*
X38600000Y16692500D03*
X38200000Y16692500D03*
X37800000Y16692500D03*
X37400000Y16692500D03*
X37000000Y16692500D03*
X36600000Y16692500D03*
X36200000Y16692500D03*
X35800000Y16692500D03*
X35400000Y16692500D03*
X35000000Y16692500D03*
X34600000Y16692500D03*
X34200000Y16692500D03*
X33800000Y16692500D03*
X33400000Y16692500D03*
D36*
X36000000Y20130000D03*
G04 #@! TD*
D33*
G04 #@! TO.C,U4*
X52562500Y17530000D03*
D34*
X52562500Y17930000D03*
X52562500Y18330000D03*
X52562500Y18730000D03*
X52562500Y19130000D03*
X52562500Y19530000D03*
X52562500Y19930000D03*
X52562500Y20330000D03*
X52562500Y20730000D03*
X52562500Y21130000D03*
X52562500Y21530000D03*
X52562500Y21930000D03*
X52562500Y22330000D03*
X52562500Y22730000D03*
D35*
X53400000Y23567500D03*
X53800000Y23567500D03*
X54200000Y23567500D03*
X54600000Y23567500D03*
X55000000Y23567500D03*
X55400000Y23567500D03*
X55800000Y23567500D03*
X56200000Y23567500D03*
X56600000Y23567500D03*
X57000000Y23567500D03*
X57400000Y23567500D03*
X57800000Y23567500D03*
X58200000Y23567500D03*
X58600000Y23567500D03*
D34*
X59437500Y22730000D03*
X59437500Y22330000D03*
X59437500Y21930000D03*
X59437500Y21530000D03*
X59437500Y21130000D03*
X59437500Y20730000D03*
X59437500Y20330000D03*
X59437500Y19930000D03*
X59437500Y19530000D03*
X59437500Y19130000D03*
X59437500Y18730000D03*
X59437500Y18330000D03*
X59437500Y17930000D03*
X59437500Y17530000D03*
D35*
X58600000Y16692500D03*
X58200000Y16692500D03*
X57800000Y16692500D03*
X57400000Y16692500D03*
X57000000Y16692500D03*
X56600000Y16692500D03*
X56200000Y16692500D03*
X55800000Y16692500D03*
X55400000Y16692500D03*
X55000000Y16692500D03*
X54600000Y16692500D03*
X54200000Y16692500D03*
X53800000Y16692500D03*
X53400000Y16692500D03*
D36*
X56000000Y20130000D03*
G04 #@! TD*
D64*
G04 #@! TO.C,D1*
X91649510Y10730000D03*
D65*
X91649510Y9930000D03*
G04 #@! TD*
D47*
G04 #@! TO.C,U1*
X95462990Y58650000D03*
D48*
X96000490Y58725000D03*
D49*
X96537990Y58650000D03*
X96537990Y56950000D03*
D48*
X96000490Y56875000D03*
D49*
X95462990Y56950000D03*
G04 #@! TD*
D38*
G04 #@! TO.C,R7*
X98050490Y59065000D03*
X98050490Y58425000D03*
G04 #@! TD*
D58*
G04 #@! TO.C,JP1*
X78249510Y9050000D03*
D59*
X78249510Y10550000D03*
G04 #@! TD*
D44*
G04 #@! TO.C,F1*
X39130490Y61577500D03*
X39130490Y60002500D03*
G04 #@! TD*
D32*
G04 #@! TO.C,KiKit_FID_B_1*
X5000000Y66730000D03*
G04 #@! TD*
D43*
G04 #@! TO.C,FB1*
X59290490Y57420000D03*
X59290490Y56400000D03*
G04 #@! TD*
D39*
G04 #@! TO.C,R16*
X32670490Y61175000D03*
X32670490Y61815000D03*
G04 #@! TD*
D41*
G04 #@! TO.C,C1*
X14059510Y9310000D03*
X14059510Y10270000D03*
G04 #@! TD*
D38*
G04 #@! TO.C,R8*
X33950490Y59065000D03*
X33950490Y58425000D03*
G04 #@! TD*
D66*
G04 #@! TO.C,Y1*
X16864510Y25760000D03*
X15114510Y25760000D03*
X15114510Y27160000D03*
X16864510Y27160000D03*
G04 #@! TD*
D38*
G04 #@! TO.C,R15*
X19329510Y10805000D03*
X19329510Y10165000D03*
G04 #@! TD*
D39*
G04 #@! TO.C,C7*
X18060490Y43790000D03*
X18060490Y44430000D03*
G04 #@! TD*
D51*
G04 #@! TO.C,JP1*
X53750490Y61530000D03*
D52*
X53750490Y60030000D03*
G04 #@! TD*
D37*
G04 #@! TO.C,R6*
X13930490Y45870000D03*
X13290490Y45870000D03*
G04 #@! TD*
D40*
G04 #@! TO.C,R11*
X14989510Y14630000D03*
X15629510Y14630000D03*
G04 #@! TD*
D41*
G04 #@! TO.C,C3*
X19559510Y26180000D03*
X19559510Y27140000D03*
G04 #@! TD*
D50*
G04 #@! TO.C,FB1*
X92709510Y13160000D03*
X92709510Y14180000D03*
G04 #@! TD*
D40*
G04 #@! TO.C,R6*
X98069510Y24710000D03*
X98709510Y24710000D03*
G04 #@! TD*
D53*
G04 #@! TO.C,F1*
X12869510Y9002500D03*
X12869510Y10577500D03*
G04 #@! TD*
D37*
G04 #@! TO.C,R12*
X77039510Y14630000D03*
X76399510Y14630000D03*
G04 #@! TD*
D40*
G04 #@! TO.C,R5*
X93290490Y45170000D03*
X93930490Y45170000D03*
G04 #@! TD*
G04 #@! TO.C,R6*
X38069510Y24710000D03*
X38709510Y24710000D03*
G04 #@! TD*
D50*
G04 #@! TO.C,FB1*
X32709510Y13160000D03*
X32709510Y14180000D03*
G04 #@! TD*
D38*
G04 #@! TO.C,R16*
X39329510Y9405000D03*
X39329510Y8765000D03*
G04 #@! TD*
D64*
G04 #@! TO.C,D1*
X71649510Y10730000D03*
D65*
X71649510Y9930000D03*
G04 #@! TD*
D37*
G04 #@! TO.C,R13*
X76639510Y24600000D03*
X75999510Y24600000D03*
G04 #@! TD*
D38*
G04 #@! TO.C,C2*
X99449510Y25360000D03*
X99449510Y24720000D03*
G04 #@! TD*
D47*
G04 #@! TO.C,U1*
X15462990Y58650000D03*
D48*
X16000490Y58725000D03*
D49*
X16537990Y58650000D03*
X16537990Y56950000D03*
D48*
X16000490Y56875000D03*
D49*
X15462990Y56950000D03*
G04 #@! TD*
D38*
G04 #@! TO.C,R3*
X93239510Y26790000D03*
X93239510Y26150000D03*
G04 #@! TD*
G04 #@! TO.C,R3*
X73239510Y26790000D03*
X73239510Y26150000D03*
G04 #@! TD*
D39*
G04 #@! TO.C,R8*
X58049510Y11515000D03*
X58049510Y12155000D03*
G04 #@! TD*
D38*
G04 #@! TO.C,C2*
X19449510Y25360000D03*
X19449510Y24720000D03*
G04 #@! TD*
G04 #@! TO.C,C7*
X13939510Y26790000D03*
X13939510Y26150000D03*
G04 #@! TD*
D37*
G04 #@! TO.C,R11*
X97010490Y55950000D03*
X96370490Y55950000D03*
G04 #@! TD*
D39*
G04 #@! TO.C,R4*
X13250490Y43790000D03*
X13250490Y44430000D03*
G04 #@! TD*
G04 #@! TO.C,R1*
X100160490Y43790000D03*
X100160490Y44430000D03*
G04 #@! TD*
D45*
G04 #@! TO.C,D1*
X40350490Y59850000D03*
D46*
X40350490Y60650000D03*
G04 #@! TD*
D39*
G04 #@! TO.C,R8*
X38049510Y11515000D03*
X38049510Y12155000D03*
G04 #@! TD*
D43*
G04 #@! TO.C,FB1*
X99290490Y57420000D03*
X99290490Y56400000D03*
G04 #@! TD*
D38*
G04 #@! TO.C,R15*
X39329510Y10805000D03*
X39329510Y10165000D03*
G04 #@! TD*
D39*
G04 #@! TO.C,R8*
X98049510Y11515000D03*
X98049510Y12155000D03*
G04 #@! TD*
D38*
G04 #@! TO.C,R4*
X18749510Y26790000D03*
X18749510Y26150000D03*
G04 #@! TD*
D40*
G04 #@! TO.C,R11*
X34989510Y14630000D03*
X35629510Y14630000D03*
G04 #@! TD*
D32*
G04 #@! TO.C,KiKit_FID_B_3*
X5000000Y3850000D03*
G04 #@! TD*
D38*
G04 #@! TO.C,R8*
X73950490Y59065000D03*
X73950490Y58425000D03*
G04 #@! TD*
D39*
G04 #@! TO.C,C2*
X12550490Y45220000D03*
X12550490Y45860000D03*
G04 #@! TD*
G04 #@! TO.C,R2*
X32539510Y26150000D03*
X32539510Y26790000D03*
G04 #@! TD*
G04 #@! TO.C,R7*
X33949510Y11515000D03*
X33949510Y12155000D03*
G04 #@! TD*
G04 #@! TO.C,C7*
X98060490Y43790000D03*
X98060490Y44430000D03*
G04 #@! TD*
D38*
G04 #@! TO.C,C7*
X33939510Y26790000D03*
X33939510Y26150000D03*
G04 #@! TD*
D41*
G04 #@! TO.C,C3*
X99559510Y26180000D03*
X99559510Y27140000D03*
G04 #@! TD*
D39*
G04 #@! TO.C,R16*
X92670490Y61175000D03*
X92670490Y61815000D03*
G04 #@! TD*
D37*
G04 #@! TO.C,R11*
X37010490Y55950000D03*
X36370490Y55950000D03*
G04 #@! TD*
D45*
G04 #@! TO.C,D1*
X100350490Y59850000D03*
D46*
X100350490Y60650000D03*
G04 #@! TD*
D39*
G04 #@! TO.C,R1*
X60160490Y43790000D03*
X60160490Y44430000D03*
G04 #@! TD*
D44*
G04 #@! TO.C,F1*
X59130490Y61577500D03*
X59130490Y60002500D03*
G04 #@! TD*
D38*
G04 #@! TO.C,R8*
X53950490Y59065000D03*
X53950490Y58425000D03*
G04 #@! TD*
D39*
G04 #@! TO.C,R16*
X72670490Y61175000D03*
X72670490Y61815000D03*
G04 #@! TD*
D38*
G04 #@! TO.C,R8*
X13950490Y59065000D03*
X13950490Y58425000D03*
G04 #@! TD*
G04 #@! TO.C,R3*
X53239510Y26790000D03*
X53239510Y26150000D03*
G04 #@! TD*
D40*
G04 #@! TO.C,R13*
X75360490Y45980000D03*
X76000490Y45980000D03*
G04 #@! TD*
D37*
G04 #@! TO.C,R5*
X98709510Y25410000D03*
X98069510Y25410000D03*
G04 #@! TD*
D42*
G04 #@! TO.C,C3*
X72440490Y44400000D03*
X72440490Y43440000D03*
G04 #@! TD*
D38*
G04 #@! TO.C,R16*
X59329510Y9405000D03*
X59329510Y8765000D03*
G04 #@! TD*
D37*
G04 #@! TO.C,R13*
X56639510Y24600000D03*
X55999510Y24600000D03*
G04 #@! TD*
D40*
G04 #@! TO.C,R11*
X94989510Y14630000D03*
X95629510Y14630000D03*
G04 #@! TD*
D39*
G04 #@! TO.C,R4*
X73250490Y43790000D03*
X73250490Y44430000D03*
G04 #@! TD*
G04 #@! TO.C,R1*
X80160490Y43790000D03*
X80160490Y44430000D03*
G04 #@! TD*
G04 #@! TO.C,C2*
X92550490Y45220000D03*
X92550490Y45860000D03*
G04 #@! TD*
D54*
G04 #@! TO.C,U1*
X36537010Y11930000D03*
D55*
X35999510Y11855000D03*
D56*
X35462010Y11930000D03*
X35462010Y13630000D03*
D55*
X35999510Y13705000D03*
D56*
X36537010Y13630000D03*
G04 #@! TD*
D38*
G04 #@! TO.C,R4*
X78749510Y26790000D03*
X78749510Y26150000D03*
G04 #@! TD*
D39*
G04 #@! TO.C,C7*
X78060490Y43790000D03*
X78060490Y44430000D03*
G04 #@! TD*
D38*
G04 #@! TO.C,C8*
X38039510Y26790000D03*
X38039510Y26150000D03*
G04 #@! TD*
D42*
G04 #@! TO.C,C1*
X57940490Y61270000D03*
X57940490Y60310000D03*
G04 #@! TD*
D58*
G04 #@! TO.C,JP1*
X18249510Y9050000D03*
D59*
X18249510Y10550000D03*
G04 #@! TD*
D37*
G04 #@! TO.C,R12*
X37039510Y14630000D03*
X36399510Y14630000D03*
G04 #@! TD*
D42*
G04 #@! TO.C,C3*
X32440490Y44400000D03*
X32440490Y43440000D03*
G04 #@! TD*
D38*
G04 #@! TO.C,R8*
X93950490Y59065000D03*
X93950490Y58425000D03*
G04 #@! TD*
G04 #@! TO.C,C7*
X93939510Y26790000D03*
X93939510Y26150000D03*
G04 #@! TD*
D39*
G04 #@! TO.C,R2*
X92539510Y26150000D03*
X92539510Y26790000D03*
G04 #@! TD*
D38*
G04 #@! TO.C,R16*
X19329510Y9405000D03*
X19329510Y8765000D03*
G04 #@! TD*
D40*
G04 #@! TO.C,R6*
X78069510Y24710000D03*
X78709510Y24710000D03*
G04 #@! TD*
G04 #@! TO.C,R5*
X13290490Y45170000D03*
X13930490Y45170000D03*
G04 #@! TD*
D60*
G04 #@! TO.C,U4*
X59437500Y53050000D03*
D61*
X59437500Y52650000D03*
X59437500Y52250000D03*
X59437500Y51850000D03*
X59437500Y51450000D03*
X59437500Y51050000D03*
X59437500Y50650000D03*
X59437500Y50250000D03*
X59437500Y49850000D03*
X59437500Y49450000D03*
X59437500Y49050000D03*
X59437500Y48650000D03*
X59437500Y48250000D03*
X59437500Y47850000D03*
D62*
X58600000Y47012500D03*
X58200000Y47012500D03*
X57800000Y47012500D03*
X57400000Y47012500D03*
X57000000Y47012500D03*
X56600000Y47012500D03*
X56200000Y47012500D03*
X55800000Y47012500D03*
X55400000Y47012500D03*
X55000000Y47012500D03*
X54600000Y47012500D03*
X54200000Y47012500D03*
X53800000Y47012500D03*
X53400000Y47012500D03*
D61*
X52562500Y47850000D03*
X52562500Y48250000D03*
X52562500Y48650000D03*
X52562500Y49050000D03*
X52562500Y49450000D03*
X52562500Y49850000D03*
X52562500Y50250000D03*
X52562500Y50650000D03*
X52562500Y51050000D03*
X52562500Y51450000D03*
X52562500Y51850000D03*
X52562500Y52250000D03*
X52562500Y52650000D03*
X52562500Y53050000D03*
D62*
X53400000Y53887500D03*
X53800000Y53887500D03*
X54200000Y53887500D03*
X54600000Y53887500D03*
X55000000Y53887500D03*
X55400000Y53887500D03*
X55800000Y53887500D03*
X56200000Y53887500D03*
X56600000Y53887500D03*
X57000000Y53887500D03*
X57400000Y53887500D03*
X57800000Y53887500D03*
X58200000Y53887500D03*
X58600000Y53887500D03*
D63*
X56000000Y50450000D03*
G04 #@! TD*
D38*
G04 #@! TO.C,R1*
X31839510Y26790000D03*
X31839510Y26150000D03*
G04 #@! TD*
D50*
G04 #@! TO.C,FB1*
X12709510Y13160000D03*
X12709510Y14180000D03*
G04 #@! TD*
D57*
G04 #@! TO.C,Y1*
X95135490Y44820000D03*
X96885490Y44820000D03*
X96885490Y43420000D03*
X95135490Y43420000D03*
G04 #@! TD*
D32*
G04 #@! TO.C,KiKit_FID_B_2*
X107000000Y66730000D03*
G04 #@! TD*
D38*
G04 #@! TO.C,R1*
X71839510Y26790000D03*
X71839510Y26150000D03*
G04 #@! TD*
D39*
G04 #@! TO.C,C8*
X53960490Y43790000D03*
X53960490Y44430000D03*
G04 #@! TD*
D40*
G04 #@! TO.C,R11*
X74989510Y14630000D03*
X75629510Y14630000D03*
G04 #@! TD*
D39*
G04 #@! TO.C,R7*
X53949510Y11515000D03*
X53949510Y12155000D03*
G04 #@! TD*
D64*
G04 #@! TO.C,D1*
X11649510Y10730000D03*
D65*
X11649510Y9930000D03*
G04 #@! TD*
D38*
G04 #@! TO.C,C2*
X39449510Y25360000D03*
X39449510Y24720000D03*
G04 #@! TD*
G04 #@! TO.C,R1*
X51839510Y26790000D03*
X51839510Y26150000D03*
G04 #@! TD*
D40*
G04 #@! TO.C,R13*
X95360490Y45980000D03*
X96000490Y45980000D03*
G04 #@! TD*
D64*
G04 #@! TO.C,D1*
X31649510Y10730000D03*
D65*
X31649510Y9930000D03*
G04 #@! TD*
D60*
G04 #@! TO.C,U4*
X79437500Y53050000D03*
D61*
X79437500Y52650000D03*
X79437500Y52250000D03*
X79437500Y51850000D03*
X79437500Y51450000D03*
X79437500Y51050000D03*
X79437500Y50650000D03*
X79437500Y50250000D03*
X79437500Y49850000D03*
X79437500Y49450000D03*
X79437500Y49050000D03*
X79437500Y48650000D03*
X79437500Y48250000D03*
X79437500Y47850000D03*
D62*
X78600000Y47012500D03*
X78200000Y47012500D03*
X77800000Y47012500D03*
X77400000Y47012500D03*
X77000000Y47012500D03*
X76600000Y47012500D03*
X76200000Y47012500D03*
X75800000Y47012500D03*
X75400000Y47012500D03*
X75000000Y47012500D03*
X74600000Y47012500D03*
X74200000Y47012500D03*
X73800000Y47012500D03*
X73400000Y47012500D03*
D61*
X72562500Y47850000D03*
X72562500Y48250000D03*
X72562500Y48650000D03*
X72562500Y49050000D03*
X72562500Y49450000D03*
X72562500Y49850000D03*
X72562500Y50250000D03*
X72562500Y50650000D03*
X72562500Y51050000D03*
X72562500Y51450000D03*
X72562500Y51850000D03*
X72562500Y52250000D03*
X72562500Y52650000D03*
X72562500Y53050000D03*
D62*
X73400000Y53887500D03*
X73800000Y53887500D03*
X74200000Y53887500D03*
X74600000Y53887500D03*
X75000000Y53887500D03*
X75400000Y53887500D03*
X75800000Y53887500D03*
X76200000Y53887500D03*
X76600000Y53887500D03*
X77000000Y53887500D03*
X77400000Y53887500D03*
X77800000Y53887500D03*
X78200000Y53887500D03*
X78600000Y53887500D03*
D63*
X76000000Y50450000D03*
G04 #@! TD*
D38*
G04 #@! TO.C,R7*
X38050490Y59065000D03*
X38050490Y58425000D03*
G04 #@! TD*
D37*
G04 #@! TO.C,R6*
X73930490Y45870000D03*
X73290490Y45870000D03*
G04 #@! TD*
D54*
G04 #@! TO.C,U1*
X96537010Y11930000D03*
D55*
X95999510Y11855000D03*
D56*
X95462010Y11930000D03*
X95462010Y13630000D03*
D55*
X95999510Y13705000D03*
D56*
X96537010Y13630000D03*
G04 #@! TD*
D38*
G04 #@! TO.C,R7*
X78050490Y59065000D03*
X78050490Y58425000D03*
G04 #@! TD*
D39*
G04 #@! TO.C,C8*
X93960490Y43790000D03*
X93960490Y44430000D03*
G04 #@! TD*
D40*
G04 #@! TO.C,R12*
X34960490Y55950000D03*
X35600490Y55950000D03*
G04 #@! TD*
D38*
G04 #@! TO.C,C8*
X78039510Y26790000D03*
X78039510Y26150000D03*
G04 #@! TD*
D37*
G04 #@! TO.C,R12*
X57039510Y14630000D03*
X56399510Y14630000D03*
G04 #@! TD*
D38*
G04 #@! TO.C,R2*
X59460490Y44430000D03*
X59460490Y43790000D03*
G04 #@! TD*
D40*
G04 #@! TO.C,R6*
X58069510Y24710000D03*
X58709510Y24710000D03*
G04 #@! TD*
D64*
G04 #@! TO.C,D1*
X51649510Y10730000D03*
D65*
X51649510Y9930000D03*
G04 #@! TD*
D39*
G04 #@! TO.C,R3*
X18760490Y43790000D03*
X18760490Y44430000D03*
G04 #@! TD*
D54*
G04 #@! TO.C,U1*
X56537010Y11930000D03*
D55*
X55999510Y11855000D03*
D56*
X55462010Y11930000D03*
X55462010Y13630000D03*
D55*
X55999510Y13705000D03*
D56*
X56537010Y13630000D03*
G04 #@! TD*
D39*
G04 #@! TO.C,C8*
X13960490Y43790000D03*
X13960490Y44430000D03*
G04 #@! TD*
D38*
G04 #@! TO.C,C8*
X98039510Y26790000D03*
X98039510Y26150000D03*
G04 #@! TD*
G04 #@! TO.C,R7*
X58050490Y59065000D03*
X58050490Y58425000D03*
G04 #@! TD*
D45*
G04 #@! TO.C,D1*
X20350490Y59850000D03*
D46*
X20350490Y60650000D03*
G04 #@! TD*
D60*
G04 #@! TO.C,U4*
X99437500Y53050000D03*
D61*
X99437500Y52650000D03*
X99437500Y52250000D03*
X99437500Y51850000D03*
X99437500Y51450000D03*
X99437500Y51050000D03*
X99437500Y50650000D03*
X99437500Y50250000D03*
X99437500Y49850000D03*
X99437500Y49450000D03*
X99437500Y49050000D03*
X99437500Y48650000D03*
X99437500Y48250000D03*
X99437500Y47850000D03*
D62*
X98600000Y47012500D03*
X98200000Y47012500D03*
X97800000Y47012500D03*
X97400000Y47012500D03*
X97000000Y47012500D03*
X96600000Y47012500D03*
X96200000Y47012500D03*
X95800000Y47012500D03*
X95400000Y47012500D03*
X95000000Y47012500D03*
X94600000Y47012500D03*
X94200000Y47012500D03*
X93800000Y47012500D03*
X93400000Y47012500D03*
D61*
X92562500Y47850000D03*
X92562500Y48250000D03*
X92562500Y48650000D03*
X92562500Y49050000D03*
X92562500Y49450000D03*
X92562500Y49850000D03*
X92562500Y50250000D03*
X92562500Y50650000D03*
X92562500Y51050000D03*
X92562500Y51450000D03*
X92562500Y51850000D03*
X92562500Y52250000D03*
X92562500Y52650000D03*
X92562500Y53050000D03*
D62*
X93400000Y53887500D03*
X93800000Y53887500D03*
X94200000Y53887500D03*
X94600000Y53887500D03*
X95000000Y53887500D03*
X95400000Y53887500D03*
X95800000Y53887500D03*
X96200000Y53887500D03*
X96600000Y53887500D03*
X97000000Y53887500D03*
X97400000Y53887500D03*
X97800000Y53887500D03*
X98200000Y53887500D03*
X98600000Y53887500D03*
D63*
X96000000Y50450000D03*
G04 #@! TD*
D42*
G04 #@! TO.C,C3*
X12440490Y44400000D03*
X12440490Y43440000D03*
G04 #@! TD*
D39*
G04 #@! TO.C,C7*
X58060490Y43790000D03*
X58060490Y44430000D03*
G04 #@! TD*
D33*
G04 #@! TO.C,U4*
X12562500Y17530000D03*
D34*
X12562500Y17930000D03*
X12562500Y18330000D03*
X12562500Y18730000D03*
X12562500Y19130000D03*
X12562500Y19530000D03*
X12562500Y19930000D03*
X12562500Y20330000D03*
X12562500Y20730000D03*
X12562500Y21130000D03*
X12562500Y21530000D03*
X12562500Y21930000D03*
X12562500Y22330000D03*
X12562500Y22730000D03*
D35*
X13400000Y23567500D03*
X13800000Y23567500D03*
X14200000Y23567500D03*
X14600000Y23567500D03*
X15000000Y23567500D03*
X15400000Y23567500D03*
X15800000Y23567500D03*
X16200000Y23567500D03*
X16600000Y23567500D03*
X17000000Y23567500D03*
X17400000Y23567500D03*
X17800000Y23567500D03*
X18200000Y23567500D03*
X18600000Y23567500D03*
D34*
X19437500Y22730000D03*
X19437500Y22330000D03*
X19437500Y21930000D03*
X19437500Y21530000D03*
X19437500Y21130000D03*
X19437500Y20730000D03*
X19437500Y20330000D03*
X19437500Y19930000D03*
X19437500Y19530000D03*
X19437500Y19130000D03*
X19437500Y18730000D03*
X19437500Y18330000D03*
X19437500Y17930000D03*
X19437500Y17530000D03*
D35*
X18600000Y16692500D03*
X18200000Y16692500D03*
X17800000Y16692500D03*
X17400000Y16692500D03*
X17000000Y16692500D03*
X16600000Y16692500D03*
X16200000Y16692500D03*
X15800000Y16692500D03*
X15400000Y16692500D03*
X15000000Y16692500D03*
X14600000Y16692500D03*
X14200000Y16692500D03*
X13800000Y16692500D03*
X13400000Y16692500D03*
D36*
X16000000Y20130000D03*
G04 #@! TD*
D51*
G04 #@! TO.C,JP1*
X33750490Y61530000D03*
D52*
X33750490Y60030000D03*
G04 #@! TD*
D37*
G04 #@! TO.C,R5*
X78709510Y25410000D03*
X78069510Y25410000D03*
G04 #@! TD*
D39*
G04 #@! TO.C,C8*
X33960490Y43790000D03*
X33960490Y44430000D03*
G04 #@! TD*
D53*
G04 #@! TO.C,F1*
X92869510Y9002500D03*
X92869510Y10577500D03*
G04 #@! TD*
D38*
G04 #@! TO.C,R4*
X58749510Y26790000D03*
X58749510Y26150000D03*
G04 #@! TD*
D42*
G04 #@! TO.C,C3*
X92440490Y44400000D03*
X92440490Y43440000D03*
G04 #@! TD*
D38*
G04 #@! TO.C,R2*
X19460490Y44430000D03*
X19460490Y43790000D03*
G04 #@! TD*
G04 #@! TO.C,R1*
X11839510Y26790000D03*
X11839510Y26150000D03*
G04 #@! TD*
D57*
G04 #@! TO.C,Y1*
X15135490Y44820000D03*
X16885490Y44820000D03*
X16885490Y43420000D03*
X15135490Y43420000D03*
G04 #@! TD*
D39*
G04 #@! TO.C,R4*
X33250490Y43790000D03*
X33250490Y44430000D03*
G04 #@! TD*
D47*
G04 #@! TO.C,U1*
X35462990Y58650000D03*
D48*
X36000490Y58725000D03*
D49*
X36537990Y58650000D03*
X36537990Y56950000D03*
D48*
X36000490Y56875000D03*
D49*
X35462990Y56950000D03*
G04 #@! TD*
D39*
G04 #@! TO.C,R7*
X93949510Y11515000D03*
X93949510Y12155000D03*
G04 #@! TD*
D40*
G04 #@! TO.C,R13*
X15360490Y45980000D03*
X16000490Y45980000D03*
G04 #@! TD*
D39*
G04 #@! TO.C,C8*
X73960490Y43790000D03*
X73960490Y44430000D03*
G04 #@! TD*
D38*
G04 #@! TO.C,R3*
X33239510Y26790000D03*
X33239510Y26150000D03*
G04 #@! TD*
G04 #@! TO.C,R2*
X79460490Y44430000D03*
X79460490Y43790000D03*
G04 #@! TD*
D58*
G04 #@! TO.C,JP1*
X58249510Y9050000D03*
D59*
X58249510Y10550000D03*
G04 #@! TD*
D60*
G04 #@! TO.C,U4*
X19437500Y53050000D03*
D61*
X19437500Y52650000D03*
X19437500Y52250000D03*
X19437500Y51850000D03*
X19437500Y51450000D03*
X19437500Y51050000D03*
X19437500Y50650000D03*
X19437500Y50250000D03*
X19437500Y49850000D03*
X19437500Y49450000D03*
X19437500Y49050000D03*
X19437500Y48650000D03*
X19437500Y48250000D03*
X19437500Y47850000D03*
D62*
X18600000Y47012500D03*
X18200000Y47012500D03*
X17800000Y47012500D03*
X17400000Y47012500D03*
X17000000Y47012500D03*
X16600000Y47012500D03*
X16200000Y47012500D03*
X15800000Y47012500D03*
X15400000Y47012500D03*
X15000000Y47012500D03*
X14600000Y47012500D03*
X14200000Y47012500D03*
X13800000Y47012500D03*
X13400000Y47012500D03*
D61*
X12562500Y47850000D03*
X12562500Y48250000D03*
X12562500Y48650000D03*
X12562500Y49050000D03*
X12562500Y49450000D03*
X12562500Y49850000D03*
X12562500Y50250000D03*
X12562500Y50650000D03*
X12562500Y51050000D03*
X12562500Y51450000D03*
X12562500Y51850000D03*
X12562500Y52250000D03*
X12562500Y52650000D03*
X12562500Y53050000D03*
D62*
X13400000Y53887500D03*
X13800000Y53887500D03*
X14200000Y53887500D03*
X14600000Y53887500D03*
X15000000Y53887500D03*
X15400000Y53887500D03*
X15800000Y53887500D03*
X16200000Y53887500D03*
X16600000Y53887500D03*
X17000000Y53887500D03*
X17400000Y53887500D03*
X17800000Y53887500D03*
X18200000Y53887500D03*
X18600000Y53887500D03*
D63*
X16000000Y50450000D03*
G04 #@! TD*
D37*
G04 #@! TO.C,R5*
X58709510Y25410000D03*
X58069510Y25410000D03*
G04 #@! TD*
G04 #@! TO.C,R5*
X38709510Y25410000D03*
X38069510Y25410000D03*
G04 #@! TD*
D66*
G04 #@! TO.C,Y1*
X36864510Y25760000D03*
X35114510Y25760000D03*
X35114510Y27160000D03*
X36864510Y27160000D03*
G04 #@! TD*
D53*
G04 #@! TO.C,F1*
X32869510Y9002500D03*
X32869510Y10577500D03*
G04 #@! TD*
D37*
G04 #@! TO.C,R6*
X53930490Y45870000D03*
X53290490Y45870000D03*
G04 #@! TD*
D38*
G04 #@! TO.C,R15*
X79329510Y10805000D03*
X79329510Y10165000D03*
G04 #@! TD*
D40*
G04 #@! TO.C,R12*
X14960490Y55950000D03*
X15600490Y55950000D03*
G04 #@! TD*
D66*
G04 #@! TO.C,Y1*
X96864510Y25760000D03*
X95114510Y25760000D03*
X95114510Y27160000D03*
X96864510Y27160000D03*
G04 #@! TD*
D38*
G04 #@! TO.C,C2*
X59449510Y25360000D03*
X59449510Y24720000D03*
G04 #@! TD*
D43*
G04 #@! TO.C,FB1*
X79290490Y57420000D03*
X79290490Y56400000D03*
G04 #@! TD*
D57*
G04 #@! TO.C,Y1*
X35135490Y44820000D03*
X36885490Y44820000D03*
X36885490Y43420000D03*
X35135490Y43420000D03*
G04 #@! TD*
D37*
G04 #@! TO.C,R5*
X18709510Y25410000D03*
X18069510Y25410000D03*
G04 #@! TD*
D39*
G04 #@! TO.C,R4*
X93250490Y43790000D03*
X93250490Y44430000D03*
G04 #@! TD*
G04 #@! TO.C,C2*
X72550490Y45220000D03*
X72550490Y45860000D03*
G04 #@! TD*
D38*
G04 #@! TO.C,R15*
X59329510Y10805000D03*
X59329510Y10165000D03*
G04 #@! TD*
D53*
G04 #@! TO.C,F1*
X72869510Y9002500D03*
X72869510Y10577500D03*
G04 #@! TD*
D42*
G04 #@! TO.C,C1*
X17940490Y61270000D03*
X17940490Y60310000D03*
G04 #@! TD*
D41*
G04 #@! TO.C,C3*
X79559510Y26180000D03*
X79559510Y27140000D03*
G04 #@! TD*
D66*
G04 #@! TO.C,Y1*
X76864510Y25760000D03*
X75114510Y25760000D03*
X75114510Y27160000D03*
X76864510Y27160000D03*
G04 #@! TD*
D39*
G04 #@! TO.C,C2*
X52550490Y45220000D03*
X52550490Y45860000D03*
G04 #@! TD*
D66*
G04 #@! TO.C,Y1*
X56864510Y25760000D03*
X55114510Y25760000D03*
X55114510Y27160000D03*
X56864510Y27160000D03*
G04 #@! TD*
M02*
