G04 #@! TF.GenerationSoftware,KiCad,Pcbnew,8.0.1-8.0.1-1~ubuntu22.04.1*
G04 #@! TF.CreationDate,2024-08-08T21:33:10+00:00*
G04 #@! TF.ProjectId,gemini-panel,67656d69-6e69-42d7-9061-6e656c2e6b69,1.0*
G04 #@! TF.SameCoordinates,Original*
G04 #@! TF.FileFunction,Legend,Top*
G04 #@! TF.FilePolarity,Positive*
%FSLAX46Y46*%
G04 Gerber Fmt 4.6, Leading zero omitted, Abs format (unit mm)*
G04 Created by KiCad (PCBNEW 8.0.1-8.0.1-1~ubuntu22.04.1) date 2024-08-08 21:33:10*
%MOMM*%
%LPD*%
G01*
G04 APERTURE LIST*
%ADD10C,0.300000*%
G04 APERTURE END LIST*
D10*
X45142858Y68901672D02*
X45285715Y68901672D01*
X45285715Y68901672D02*
X45428572Y68830243D01*
X45428572Y68830243D02*
X45500001Y68758815D01*
X45500001Y68758815D02*
X45571429Y68615958D01*
X45571429Y68615958D02*
X45642858Y68330243D01*
X45642858Y68330243D02*
X45642858Y67973100D01*
X45642858Y67973100D02*
X45571429Y67687386D01*
X45571429Y67687386D02*
X45500001Y67544529D01*
X45500001Y67544529D02*
X45428572Y67473100D01*
X45428572Y67473100D02*
X45285715Y67401672D01*
X45285715Y67401672D02*
X45142858Y67401672D01*
X45142858Y67401672D02*
X45000001Y67473100D01*
X45000001Y67473100D02*
X44928572Y67544529D01*
X44928572Y67544529D02*
X44857143Y67687386D01*
X44857143Y67687386D02*
X44785715Y67973100D01*
X44785715Y67973100D02*
X44785715Y68330243D01*
X44785715Y68330243D02*
X44857143Y68615958D01*
X44857143Y68615958D02*
X44928572Y68758815D01*
X44928572Y68758815D02*
X45000001Y68830243D01*
X45000001Y68830243D02*
X45142858Y68901672D01*
X46142857Y67401672D02*
X46928572Y68401672D01*
X46142857Y68401672D02*
X46928572Y67401672D01*
X48357143Y67544529D02*
X48285715Y67473100D01*
X48285715Y67473100D02*
X48071429Y67401672D01*
X48071429Y67401672D02*
X47928572Y67401672D01*
X47928572Y67401672D02*
X47714286Y67473100D01*
X47714286Y67473100D02*
X47571429Y67615958D01*
X47571429Y67615958D02*
X47500000Y67758815D01*
X47500000Y67758815D02*
X47428572Y68044529D01*
X47428572Y68044529D02*
X47428572Y68258815D01*
X47428572Y68258815D02*
X47500000Y68544529D01*
X47500000Y68544529D02*
X47571429Y68687386D01*
X47571429Y68687386D02*
X47714286Y68830243D01*
X47714286Y68830243D02*
X47928572Y68901672D01*
X47928572Y68901672D02*
X48071429Y68901672D01*
X48071429Y68901672D02*
X48285715Y68830243D01*
X48285715Y68830243D02*
X48357143Y68758815D01*
X49500000Y68187386D02*
X49714286Y68115958D01*
X49714286Y68115958D02*
X49785715Y68044529D01*
X49785715Y68044529D02*
X49857143Y67901672D01*
X49857143Y67901672D02*
X49857143Y67687386D01*
X49857143Y67687386D02*
X49785715Y67544529D01*
X49785715Y67544529D02*
X49714286Y67473100D01*
X49714286Y67473100D02*
X49571429Y67401672D01*
X49571429Y67401672D02*
X49000000Y67401672D01*
X49000000Y67401672D02*
X49000000Y68901672D01*
X49000000Y68901672D02*
X49500000Y68901672D01*
X49500000Y68901672D02*
X49642858Y68830243D01*
X49642858Y68830243D02*
X49714286Y68758815D01*
X49714286Y68758815D02*
X49785715Y68615958D01*
X49785715Y68615958D02*
X49785715Y68473100D01*
X49785715Y68473100D02*
X49714286Y68330243D01*
X49714286Y68330243D02*
X49642858Y68258815D01*
X49642858Y68258815D02*
X49500000Y68187386D01*
X49500000Y68187386D02*
X49000000Y68187386D01*
X52428572Y68830243D02*
X52285715Y68901672D01*
X52285715Y68901672D02*
X52071429Y68901672D01*
X52071429Y68901672D02*
X51857143Y68830243D01*
X51857143Y68830243D02*
X51714286Y68687386D01*
X51714286Y68687386D02*
X51642857Y68544529D01*
X51642857Y68544529D02*
X51571429Y68258815D01*
X51571429Y68258815D02*
X51571429Y68044529D01*
X51571429Y68044529D02*
X51642857Y67758815D01*
X51642857Y67758815D02*
X51714286Y67615958D01*
X51714286Y67615958D02*
X51857143Y67473100D01*
X51857143Y67473100D02*
X52071429Y67401672D01*
X52071429Y67401672D02*
X52214286Y67401672D01*
X52214286Y67401672D02*
X52428572Y67473100D01*
X52428572Y67473100D02*
X52500000Y67544529D01*
X52500000Y67544529D02*
X52500000Y68044529D01*
X52500000Y68044529D02*
X52214286Y68044529D01*
X53714286Y67473100D02*
X53571429Y67401672D01*
X53571429Y67401672D02*
X53285715Y67401672D01*
X53285715Y67401672D02*
X53142857Y67473100D01*
X53142857Y67473100D02*
X53071429Y67615958D01*
X53071429Y67615958D02*
X53071429Y68187386D01*
X53071429Y68187386D02*
X53142857Y68330243D01*
X53142857Y68330243D02*
X53285715Y68401672D01*
X53285715Y68401672D02*
X53571429Y68401672D01*
X53571429Y68401672D02*
X53714286Y68330243D01*
X53714286Y68330243D02*
X53785715Y68187386D01*
X53785715Y68187386D02*
X53785715Y68044529D01*
X53785715Y68044529D02*
X53071429Y67901672D01*
X54428571Y67401672D02*
X54428571Y68401672D01*
X54428571Y68258815D02*
X54500000Y68330243D01*
X54500000Y68330243D02*
X54642857Y68401672D01*
X54642857Y68401672D02*
X54857143Y68401672D01*
X54857143Y68401672D02*
X55000000Y68330243D01*
X55000000Y68330243D02*
X55071429Y68187386D01*
X55071429Y68187386D02*
X55071429Y67401672D01*
X55071429Y68187386D02*
X55142857Y68330243D01*
X55142857Y68330243D02*
X55285714Y68401672D01*
X55285714Y68401672D02*
X55500000Y68401672D01*
X55500000Y68401672D02*
X55642857Y68330243D01*
X55642857Y68330243D02*
X55714286Y68187386D01*
X55714286Y68187386D02*
X55714286Y67401672D01*
X56428571Y67401672D02*
X56428571Y68401672D01*
X56428571Y68901672D02*
X56357143Y68830243D01*
X56357143Y68830243D02*
X56428571Y68758815D01*
X56428571Y68758815D02*
X56500000Y68830243D01*
X56500000Y68830243D02*
X56428571Y68901672D01*
X56428571Y68901672D02*
X56428571Y68758815D01*
X57142857Y68401672D02*
X57142857Y67401672D01*
X57142857Y68258815D02*
X57214286Y68330243D01*
X57214286Y68330243D02*
X57357143Y68401672D01*
X57357143Y68401672D02*
X57571429Y68401672D01*
X57571429Y68401672D02*
X57714286Y68330243D01*
X57714286Y68330243D02*
X57785715Y68187386D01*
X57785715Y68187386D02*
X57785715Y67401672D01*
X58500000Y67401672D02*
X58500000Y68401672D01*
X58500000Y68901672D02*
X58428572Y68830243D01*
X58428572Y68830243D02*
X58500000Y68758815D01*
X58500000Y68758815D02*
X58571429Y68830243D01*
X58571429Y68830243D02*
X58500000Y68901672D01*
X58500000Y68901672D02*
X58500000Y68758815D01*
X61214286Y67401672D02*
X60714286Y68115958D01*
X60357143Y67401672D02*
X60357143Y68901672D01*
X60357143Y68901672D02*
X60928572Y68901672D01*
X60928572Y68901672D02*
X61071429Y68830243D01*
X61071429Y68830243D02*
X61142858Y68758815D01*
X61142858Y68758815D02*
X61214286Y68615958D01*
X61214286Y68615958D02*
X61214286Y68401672D01*
X61214286Y68401672D02*
X61142858Y68258815D01*
X61142858Y68258815D02*
X61071429Y68187386D01*
X61071429Y68187386D02*
X60928572Y68115958D01*
X60928572Y68115958D02*
X60357143Y68115958D01*
X62428572Y67473100D02*
X62285715Y67401672D01*
X62285715Y67401672D02*
X62000001Y67401672D01*
X62000001Y67401672D02*
X61857143Y67473100D01*
X61857143Y67473100D02*
X61785715Y67615958D01*
X61785715Y67615958D02*
X61785715Y68187386D01*
X61785715Y68187386D02*
X61857143Y68330243D01*
X61857143Y68330243D02*
X62000001Y68401672D01*
X62000001Y68401672D02*
X62285715Y68401672D01*
X62285715Y68401672D02*
X62428572Y68330243D01*
X62428572Y68330243D02*
X62500001Y68187386D01*
X62500001Y68187386D02*
X62500001Y68044529D01*
X62500001Y68044529D02*
X61785715Y67901672D01*
X63000000Y68401672D02*
X63357143Y67401672D01*
X63357143Y67401672D02*
X63714286Y68401672D01*
X65071429Y67401672D02*
X64214286Y67401672D01*
X64642857Y67401672D02*
X64642857Y68901672D01*
X64642857Y68901672D02*
X64500000Y68687386D01*
X64500000Y68687386D02*
X64357143Y68544529D01*
X64357143Y68544529D02*
X64214286Y68473100D01*
X65714285Y67544529D02*
X65785714Y67473100D01*
X65785714Y67473100D02*
X65714285Y67401672D01*
X65714285Y67401672D02*
X65642857Y67473100D01*
X65642857Y67473100D02*
X65714285Y67544529D01*
X65714285Y67544529D02*
X65714285Y67401672D01*
X66714286Y68901672D02*
X66857143Y68901672D01*
X66857143Y68901672D02*
X67000000Y68830243D01*
X67000000Y68830243D02*
X67071429Y68758815D01*
X67071429Y68758815D02*
X67142857Y68615958D01*
X67142857Y68615958D02*
X67214286Y68330243D01*
X67214286Y68330243D02*
X67214286Y67973100D01*
X67214286Y67973100D02*
X67142857Y67687386D01*
X67142857Y67687386D02*
X67071429Y67544529D01*
X67071429Y67544529D02*
X67000000Y67473100D01*
X67000000Y67473100D02*
X66857143Y67401672D01*
X66857143Y67401672D02*
X66714286Y67401672D01*
X66714286Y67401672D02*
X66571429Y67473100D01*
X66571429Y67473100D02*
X66500000Y67544529D01*
X66500000Y67544529D02*
X66428571Y67687386D01*
X66428571Y67687386D02*
X66357143Y67973100D01*
X66357143Y67973100D02*
X66357143Y68330243D01*
X66357143Y68330243D02*
X66428571Y68615958D01*
X66428571Y68615958D02*
X66500000Y68758815D01*
X66500000Y68758815D02*
X66571429Y68830243D01*
X66571429Y68830243D02*
X66714286Y68901672D01*
M02*
