G04 #@! TF.GenerationSoftware,KiCad,Pcbnew,8.0.1-8.0.1-1~ubuntu22.04.1*
G04 #@! TF.CreationDate,2024-08-08T21:33:10+00:00*
G04 #@! TF.ProjectId,gemini-panel,67656d69-6e69-42d7-9061-6e656c2e6b69,1.0*
G04 #@! TF.SameCoordinates,Original*
G04 #@! TF.FileFunction,Soldermask,Top*
G04 #@! TF.FilePolarity,Negative*
%FSLAX46Y46*%
G04 Gerber Fmt 4.6, Leading zero omitted, Abs format (unit mm)*
G04 Created by KiCad (PCBNEW 8.0.1-8.0.1-1~ubuntu22.04.1) date 2024-08-08 21:33:10*
%MOMM*%
%LPD*%
G01*
G04 APERTURE LIST*
G04 Aperture macros list*
%AMRoundRect*
0 Rectangle with rounded corners*
0 $1 Rounding radius*
0 $2 $3 $4 $5 $6 $7 $8 $9 X,Y pos of 4 corners*
0 Add a 4 corners polygon primitive as box body*
4,1,4,$2,$3,$4,$5,$6,$7,$8,$9,$2,$3,0*
0 Add four circle primitives for the rounded corners*
1,1,$1+$1,$2,$3*
1,1,$1+$1,$4,$5*
1,1,$1+$1,$6,$7*
1,1,$1+$1,$8,$9*
0 Add four rect primitives between the rounded corners*
20,1,$1+$1,$2,$3,$4,$5,0*
20,1,$1+$1,$4,$5,$6,$7,0*
20,1,$1+$1,$6,$7,$8,$9,0*
20,1,$1+$1,$8,$9,$2,$3,0*%
%AMFreePoly0*
4,1,14,0.385355,0.205355,0.400000,0.170000,0.400000,-0.170000,0.385355,-0.205355,0.350000,-0.220000,-0.350000,-0.220000,-0.385355,-0.205355,-0.400000,-0.170000,-0.400000,0.051000,-0.385355,0.086355,-0.266355,0.205355,-0.231000,0.220000,0.350000,0.220000,0.385355,0.205355,0.385355,0.205355,$1*%
%AMFreePoly1*
4,1,35,0.503356,0.269039,0.513459,0.267029,0.531478,0.259566,0.540043,0.253844,0.553844,0.240043,0.559566,0.231478,0.567029,0.213459,0.569039,0.203356,0.570000,0.193600,0.570000,-0.193600,0.569039,-0.203356,0.567029,-0.213459,0.559566,-0.231478,0.553844,-0.240043,0.540043,-0.253844,0.531478,-0.259566,0.513459,-0.267029,0.503356,-0.269039,0.493600,-0.270000,-0.493600,-0.270000,
-0.503356,-0.269039,-0.513459,-0.267029,-0.531478,-0.259566,-0.540043,-0.253844,-0.553844,-0.240043,-0.559566,-0.231478,-0.567029,-0.213459,-0.569039,-0.203356,-0.570000,-0.193600,-0.570000,0.066000,-0.555355,0.101355,-0.401355,0.255355,-0.366000,0.270000,0.493600,0.270000,0.503356,0.269039,0.503356,0.269039,$1*%
%AMFreePoly2*
4,1,35,0.184754,0.399039,0.251724,0.385718,0.269748,0.378253,0.326522,0.340318,0.340318,0.326522,0.378253,0.269748,0.385718,0.251724,0.399039,0.184754,0.400000,0.175000,0.400000,-0.175000,0.399039,-0.184754,0.385718,-0.251724,0.378253,-0.269748,0.340318,-0.326522,0.326522,-0.340318,0.269748,-0.378253,0.251724,-0.385718,0.184754,-0.399039,0.175000,-0.400000,-0.175000,-0.400000,
-0.184754,-0.399039,-0.251724,-0.385718,-0.269748,-0.378253,-0.326522,-0.340318,-0.340318,-0.326522,-0.378253,-0.269748,-0.385718,-0.251724,-0.399039,-0.184754,-0.400000,-0.175000,-0.400000,0.070000,-0.385355,0.105355,-0.105355,0.385355,-0.070000,0.400000,0.175000,0.400000,0.184754,0.399039,0.184754,0.399039,$1*%
G04 Aperture macros list end*
%ADD10RoundRect,0.125000X0.125000X-0.155000X0.125000X0.155000X-0.125000X0.155000X-0.125000X-0.155000X0*%
%ADD11C,0.400000*%
%ADD12FreePoly0,90.000000*%
%ADD13RoundRect,0.050000X0.170000X-0.350000X0.170000X0.350000X-0.170000X0.350000X-0.170000X-0.350000X0*%
%ADD14FreePoly0,0.000000*%
%ADD15RoundRect,0.050000X-0.350000X-0.170000X0.350000X-0.170000X0.350000X0.170000X-0.350000X0.170000X0*%
%ADD16C,0.750000*%
%ADD17RoundRect,0.175000X0.175000X0.450000X-0.175000X0.450000X-0.175000X-0.450000X0.175000X-0.450000X0*%
%ADD18RoundRect,0.100000X0.100000X0.525000X-0.100000X0.525000X-0.100000X-0.525000X0.100000X-0.525000X0*%
%ADD19O,1.100000X2.200000*%
%ADD20O,1.100000X1.900000*%
%ADD21RoundRect,0.125000X-0.125000X0.155000X-0.125000X-0.155000X0.125000X-0.155000X0.125000X0.155000X0*%
%ADD22FreePoly0,270.000000*%
%ADD23RoundRect,0.050000X-0.170000X0.350000X-0.170000X-0.350000X0.170000X-0.350000X0.170000X0.350000X0*%
%ADD24RoundRect,0.165000X-0.195000X0.165000X-0.195000X-0.165000X0.195000X-0.165000X0.195000X0.165000X0*%
%ADD25O,3.030000X1.600000*%
%ADD26C,1.600000*%
%ADD27O,1.600000X3.030000*%
%ADD28C,1.400000*%
%ADD29RoundRect,0.329412X0.963843X0.470588X-0.963843X0.470588X-0.963843X-0.470588X0.963843X-0.470588X0*%
%ADD30RoundRect,0.335625X-0.474645X0.000000X0.000000X-0.474645X0.474645X0.000000X0.000000X0.474645X0*%
%ADD31RoundRect,0.400000X0.400000X0.400000X-0.400000X0.400000X-0.400000X-0.400000X0.400000X-0.400000X0*%
%ADD32RoundRect,0.400000X-1.115000X-0.400000X1.115000X-0.400000X1.115000X0.400000X-1.115000X0.400000X0*%
%ADD33C,2.000000*%
%ADD34FreePoly1,180.000000*%
%ADD35RoundRect,0.032400X0.537600X0.237600X-0.537600X0.237600X-0.537600X-0.237600X0.537600X-0.237600X0*%
%ADD36RoundRect,0.050000X1.700000X2.150000X-1.700000X2.150000X-1.700000X-2.150000X1.700000X-2.150000X0*%
%ADD37FreePoly1,0.000000*%
%ADD38RoundRect,0.032400X-0.537600X-0.237600X0.537600X-0.237600X0.537600X0.237600X-0.537600X0.237600X0*%
%ADD39RoundRect,0.050000X-1.700000X-2.150000X1.700000X-2.150000X1.700000X2.150000X-1.700000X2.150000X0*%
%ADD40RoundRect,0.162500X0.162500X-0.237500X0.162500X0.237500X-0.162500X0.237500X-0.162500X-0.237500X0*%
%ADD41RoundRect,0.162500X-0.162500X0.237500X-0.162500X-0.237500X0.162500X-0.237500X0.162500X0.237500X0*%
%ADD42RoundRect,0.125000X-0.155000X-0.125000X0.155000X-0.125000X0.155000X0.125000X-0.155000X0.125000X0*%
%ADD43FreePoly0,180.000000*%
%ADD44RoundRect,0.050000X0.350000X0.170000X-0.350000X0.170000X-0.350000X-0.170000X0.350000X-0.170000X0*%
%ADD45FreePoly2,180.000000*%
%ADD46RoundRect,0.200000X0.200000X0.200000X-0.200000X0.200000X-0.200000X-0.200000X0.200000X-0.200000X0*%
%ADD47FreePoly2,0.000000*%
%ADD48RoundRect,0.200000X-0.200000X-0.200000X0.200000X-0.200000X0.200000X0.200000X-0.200000X0.200000X0*%
%ADD49RoundRect,0.175000X-0.175000X-0.450000X0.175000X-0.450000X0.175000X0.450000X-0.175000X0.450000X0*%
%ADD50RoundRect,0.100000X-0.100000X-0.525000X0.100000X-0.525000X0.100000X0.525000X-0.100000X0.525000X0*%
%ADD51RoundRect,0.125000X0.155000X0.125000X-0.155000X0.125000X-0.155000X-0.125000X0.155000X-0.125000X0*%
%ADD52RoundRect,0.165000X0.195000X-0.165000X0.195000X0.165000X-0.195000X0.165000X-0.195000X-0.165000X0*%
%ADD53RoundRect,0.329412X-0.963843X-0.470588X0.963843X-0.470588X0.963843X0.470588X-0.963843X0.470588X0*%
%ADD54RoundRect,0.335625X0.474645X0.000000X0.000000X0.474645X-0.474645X0.000000X0.000000X-0.474645X0*%
%ADD55RoundRect,0.400000X-0.400000X-0.400000X0.400000X-0.400000X0.400000X0.400000X-0.400000X0.400000X0*%
%ADD56RoundRect,0.400000X1.115000X0.400000X-1.115000X0.400000X-1.115000X-0.400000X1.115000X-0.400000X0*%
G04 APERTURE END LIST*
D10*
G04 #@! TO.C,C19*
X58630490Y55387940D03*
X58630490Y56027940D03*
G04 #@! TD*
D11*
G04 #@! TO.C,KiKit_MB_35_2*
X86000000Y36623334D03*
G04 #@! TD*
G04 #@! TO.C,KiKit_MB_17_1*
X22029510Y30290000D03*
G04 #@! TD*
G04 #@! TO.C,KiKit_MB_21_3*
X37789510Y7000001D03*
G04 #@! TD*
G04 #@! TO.C,KiKit_MB_16_1*
X7969510Y30289228D03*
G04 #@! TD*
G04 #@! TO.C,KiKit_MB_43_5*
X109500000Y63580000D03*
G04 #@! TD*
G04 #@! TO.C,KiKit_MB_34_3*
X26000000Y35956667D03*
G04 #@! TD*
G04 #@! TO.C,KiKit_MB_12_6*
X76010490Y63579999D03*
G04 #@! TD*
G04 #@! TO.C,KiKit_MB_3_2*
X13610490Y63579999D03*
G04 #@! TD*
G04 #@! TO.C,KiKit_MB_22_1*
X47969510Y30289228D03*
G04 #@! TD*
D10*
G04 #@! TO.C,R10*
X99149510Y16260000D03*
X99149510Y16900000D03*
G04 #@! TD*
D11*
G04 #@! TO.C,KiKit_MB_39_4*
X7000000Y3125000D03*
G04 #@! TD*
D10*
G04 #@! TO.C,C19*
X38630490Y55387940D03*
X38630490Y56027940D03*
G04 #@! TD*
G04 #@! TO.C,C6*
X79990490Y53640000D03*
X79990490Y54280000D03*
G04 #@! TD*
G04 #@! TO.C,C16*
X79290490Y53640000D03*
X79290490Y54280000D03*
G04 #@! TD*
D11*
G04 #@! TO.C,KiKit_MB_15_6*
X96010490Y63579999D03*
G04 #@! TD*
G04 #@! TO.C,KiKit_MB_43_6*
X110125000Y63580000D03*
G04 #@! TD*
G04 #@! TO.C,KiKit_MB_6_2*
X33610490Y63579999D03*
G04 #@! TD*
D12*
G04 #@! TO.C,Q2*
X98679510Y25770000D03*
D13*
X99179510Y25770000D03*
X99679510Y25770000D03*
X99679510Y27270000D03*
X99179510Y27270000D03*
X98679510Y27270000D03*
G04 #@! TD*
D11*
G04 #@! TO.C,KiKit_MB_28_4*
X89969510Y30290000D03*
G04 #@! TD*
G04 #@! TO.C,KiKit_MB_41_6*
X3125000Y63580000D03*
G04 #@! TD*
G04 #@! TO.C,KiKit_MB_6_7*
X36610490Y63579999D03*
G04 #@! TD*
D14*
G04 #@! TO.C,U5*
X78399510Y24530000D03*
D15*
X78399510Y24030000D03*
X78399510Y23530000D03*
X79899510Y23530000D03*
X79899510Y24030000D03*
X79899510Y24530000D03*
G04 #@! TD*
D16*
G04 #@! TO.C,J1*
X78890490Y58500000D03*
X73110490Y58500000D03*
D17*
X79200490Y57425000D03*
X78400490Y57425000D03*
D18*
X77250490Y57425000D03*
X76250490Y57425000D03*
X75750490Y57425000D03*
X74750490Y57425000D03*
D17*
X73600490Y57425000D03*
X72800490Y57425000D03*
X72800490Y57425000D03*
X73600490Y57425000D03*
D18*
X74250490Y57425000D03*
X75250490Y57425000D03*
X76750490Y57425000D03*
X77750490Y57425000D03*
D17*
X78400490Y57425000D03*
X79200490Y57425000D03*
D19*
X80320490Y58000000D03*
D20*
X80320490Y62180000D03*
X71680490Y62180000D03*
D19*
X71680490Y58000000D03*
G04 #@! TD*
D11*
G04 #@! TO.C,KiKit_MB_33_6*
X7000000Y33956667D03*
G04 #@! TD*
D21*
G04 #@! TO.C,C17*
X55250490Y47270000D03*
X55250490Y46630000D03*
G04 #@! TD*
D11*
G04 #@! TO.C,KiKit_MB_15_7*
X96610490Y63579999D03*
G04 #@! TD*
G04 #@! TO.C,KiKit_MB_4_2*
X43363823Y40290516D03*
G04 #@! TD*
D21*
G04 #@! TO.C,C17*
X95250490Y47270000D03*
X95250490Y46630000D03*
G04 #@! TD*
D11*
G04 #@! TO.C,KiKit_MB_27_8*
X74789510Y7000001D03*
G04 #@! TD*
D10*
G04 #@! TO.C,R9*
X100579510Y16260000D03*
X100579510Y16900000D03*
G04 #@! TD*
D11*
G04 #@! TO.C,KiKit_MB_41_9*
X5000000Y63580000D03*
G04 #@! TD*
D22*
G04 #@! TO.C,Q2*
X73320490Y44810000D03*
D23*
X72820490Y44810000D03*
X72320490Y44810000D03*
X72320490Y43310000D03*
X72820490Y43310000D03*
X73320490Y43310000D03*
G04 #@! TD*
D11*
G04 #@! TO.C,KiKit_MB_17_3*
X23362843Y30289502D03*
G04 #@! TD*
D24*
G04 #@! TO.C,C5*
X51889510Y15340000D03*
X51889510Y14380000D03*
G04 #@! TD*
D10*
G04 #@! TO.C,C18*
X12130490Y53680000D03*
X12130490Y54320000D03*
G04 #@! TD*
D11*
G04 #@! TO.C,KiKit_MB_3_1*
X13010490Y63579999D03*
G04 #@! TD*
D25*
G04 #@! TO.C,Gemini1*
X104285000Y61990000D03*
D26*
X105000000Y61990000D03*
D25*
X104285000Y59450000D03*
D26*
X105000000Y59450000D03*
D25*
X104285000Y56910000D03*
D26*
X105000000Y56910000D03*
D25*
X104285000Y54370000D03*
D26*
X105000000Y54370000D03*
D25*
X104285000Y51830000D03*
D26*
X105000000Y51830000D03*
D25*
X104285000Y49290000D03*
D26*
X105000000Y49290000D03*
D25*
X104285000Y46750000D03*
D26*
X105000000Y46750000D03*
D25*
X104285000Y44210000D03*
D26*
X105000000Y44210000D03*
D25*
X104285000Y41670000D03*
D26*
X105000000Y41670000D03*
D27*
X101080000Y41005000D03*
D26*
X101080000Y40290000D03*
D27*
X98540000Y41005000D03*
D26*
X98540000Y40290000D03*
D27*
X96000000Y40971000D03*
D26*
X96000000Y40256000D03*
D27*
X93460000Y41005000D03*
D26*
X93460000Y40290000D03*
D27*
X90920000Y41005000D03*
D26*
X90920000Y40290000D03*
X87000000Y41670000D03*
D25*
X87715000Y41670000D03*
D26*
X87000000Y44210000D03*
D25*
X87715000Y44210000D03*
D28*
X90920000Y44210000D03*
D26*
X87000000Y46750000D03*
D25*
X87715000Y46750000D03*
D26*
X87000000Y49290000D03*
D25*
X87715000Y49290000D03*
D26*
X87000000Y51830000D03*
D25*
X87715000Y51830000D03*
D26*
X87000000Y54370000D03*
D25*
X87715000Y54370000D03*
D29*
X87443745Y56910000D03*
D30*
X88380000Y56910000D03*
D31*
X87000000Y59450000D03*
D32*
X87715000Y59450000D03*
D29*
X87443745Y61990000D03*
D30*
X88380000Y61990000D03*
G04 #@! TD*
D11*
G04 #@! TO.C,KiKit_MB_36_6*
X105000000Y33956667D03*
G04 #@! TD*
G04 #@! TO.C,KiKit_MB_10_3*
X82697156Y40290258D03*
G04 #@! TD*
D33*
G04 #@! TO.C,KiKit_FID_T_3*
X5000000Y3850000D03*
G04 #@! TD*
D21*
G04 #@! TO.C,C18*
X59869510Y16900000D03*
X59869510Y16260000D03*
G04 #@! TD*
D10*
G04 #@! TO.C,C10*
X37119510Y14550000D03*
X37119510Y15190000D03*
G04 #@! TD*
D12*
G04 #@! TO.C,Q1*
X72299510Y25770000D03*
D13*
X72799510Y25770000D03*
X73299510Y25770000D03*
X73299510Y27270000D03*
X72799510Y27270000D03*
X72299510Y27270000D03*
G04 #@! TD*
D24*
G04 #@! TO.C,C5*
X91889510Y15340000D03*
X91889510Y14380000D03*
G04 #@! TD*
D34*
G04 #@! TO.C,U3*
X58845000Y18225000D03*
D35*
X58845000Y19495000D03*
X58845000Y20765000D03*
X58845000Y22035000D03*
X53155000Y22035000D03*
X53155000Y20765000D03*
X53155000Y19495000D03*
X53155000Y18225000D03*
D36*
X56000000Y20130000D03*
G04 #@! TD*
D37*
G04 #@! TO.C,U3*
X73155000Y52355000D03*
D38*
X73155000Y51085000D03*
X73155000Y49815000D03*
X73155000Y48545000D03*
X78845000Y48545000D03*
X78845000Y49815000D03*
X78845000Y51085000D03*
X78845000Y52355000D03*
D39*
X76000000Y50450000D03*
G04 #@! TD*
D11*
G04 #@! TO.C,KiKit_MB_23_1*
X62029510Y30290000D03*
G04 #@! TD*
D40*
G04 #@! TO.C,SW1*
X100745490Y43720000D03*
X100745490Y46420000D03*
X101895490Y43720000D03*
X101895490Y46420000D03*
G04 #@! TD*
D41*
G04 #@! TO.C,SW1*
X91254510Y26860000D03*
X91254510Y24160000D03*
X90104510Y26860000D03*
X90104510Y24160000D03*
G04 #@! TD*
D11*
G04 #@! TO.C,KiKit_MB_15_5*
X95410490Y63579999D03*
G04 #@! TD*
G04 #@! TO.C,KiKit_MB_35_1*
X86000000Y37290000D03*
G04 #@! TD*
G04 #@! TO.C,KiKit_MB_30_7*
X95389510Y7000001D03*
G04 #@! TD*
G04 #@! TO.C,KiKit_MB_22_4*
X49969510Y30290000D03*
G04 #@! TD*
G04 #@! TO.C,KiKit_MB_44_2*
X107625000Y7000000D03*
G04 #@! TD*
G04 #@! TO.C,KiKit_MB_3_9*
X17810490Y63579999D03*
G04 #@! TD*
D21*
G04 #@! TO.C,C16*
X92709510Y16940000D03*
X92709510Y16300000D03*
G04 #@! TD*
D11*
G04 #@! TO.C,KiKit_MB_38_3*
X105000000Y69330000D03*
G04 #@! TD*
D10*
G04 #@! TO.C,C16*
X19290490Y53640000D03*
X19290490Y54280000D03*
G04 #@! TD*
D11*
G04 #@! TO.C,KiKit_MB_27_10*
X73589510Y7000001D03*
G04 #@! TD*
D42*
G04 #@! TO.C,C13*
X60000490Y49450000D03*
X60640490Y49450000D03*
G04 #@! TD*
D10*
G04 #@! TO.C,C11*
X77130490Y55387940D03*
X77130490Y56027940D03*
G04 #@! TD*
D43*
G04 #@! TO.C,U5*
X13600490Y46050000D03*
D44*
X13600490Y46550000D03*
X13600490Y47050000D03*
X12100490Y47050000D03*
X12100490Y46550000D03*
X12100490Y46050000D03*
G04 #@! TD*
D11*
G04 #@! TO.C,KiKit_MB_4_3*
X42697156Y40290258D03*
G04 #@! TD*
G04 #@! TO.C,KiKit_MB_34_1*
X26000000Y37290000D03*
G04 #@! TD*
G04 #@! TO.C,KiKit_MB_15_1*
X93010490Y63579999D03*
G04 #@! TD*
D10*
G04 #@! TO.C,C6*
X39990490Y53640000D03*
X39990490Y54280000D03*
G04 #@! TD*
D45*
G04 #@! TO.C,D2*
X36875894Y25039999D03*
D46*
X36875894Y26139999D03*
X35045894Y26139999D03*
X35045894Y25039999D03*
G04 #@! TD*
D12*
G04 #@! TO.C,Q1*
X32299510Y25770000D03*
D13*
X32799510Y25770000D03*
X33299510Y25770000D03*
X33299510Y27270000D03*
X32799510Y27270000D03*
X32299510Y27270000D03*
G04 #@! TD*
D11*
G04 #@! TO.C,KiKit_MB_37_7*
X7000000Y66830000D03*
G04 #@! TD*
D21*
G04 #@! TO.C,R9*
X51420490Y54320000D03*
X51420490Y53680000D03*
G04 #@! TD*
G04 #@! TO.C,C14*
X54119510Y15192060D03*
X54119510Y14552060D03*
G04 #@! TD*
G04 #@! TO.C,C10*
X34880490Y56030000D03*
X34880490Y55390000D03*
G04 #@! TD*
D10*
G04 #@! TO.C,R10*
X59149510Y16260000D03*
X59149510Y16900000D03*
G04 #@! TD*
D21*
G04 #@! TO.C,C15*
X55950490Y47270000D03*
X55950490Y46630000D03*
G04 #@! TD*
D11*
G04 #@! TO.C,KiKit_MB_30_8*
X94789510Y7000001D03*
G04 #@! TD*
G04 #@! TO.C,KiKit_MB_43_3*
X108250000Y63580000D03*
G04 #@! TD*
D45*
G04 #@! TO.C,D2*
X16875894Y25039999D03*
D46*
X16875894Y26139999D03*
X15045894Y26139999D03*
X15045894Y25039999D03*
G04 #@! TD*
D11*
G04 #@! TO.C,KiKit_MB_22_3*
X49302843Y30289743D03*
G04 #@! TD*
D41*
G04 #@! TO.C,SW1*
X11254510Y26860000D03*
X11254510Y24160000D03*
X10104510Y26860000D03*
X10104510Y24160000D03*
G04 #@! TD*
D11*
G04 #@! TO.C,KiKit_MB_13_3*
X102697156Y40290258D03*
G04 #@! TD*
G04 #@! TO.C,KiKit_MB_1_2*
X23363823Y40290516D03*
G04 #@! TD*
D47*
G04 #@! TO.C,D2*
X35124106Y45540001D03*
D48*
X35124106Y44440001D03*
X36954106Y44440001D03*
X36954106Y45540001D03*
G04 #@! TD*
D21*
G04 #@! TO.C,C12*
X78619510Y15192060D03*
X78619510Y14552060D03*
G04 #@! TD*
D11*
G04 #@! TO.C,KiKit_MB_23_4*
X64029510Y30289253D03*
G04 #@! TD*
D21*
G04 #@! TO.C,C12*
X38619510Y15192060D03*
X38619510Y14552060D03*
G04 #@! TD*
D11*
G04 #@! TO.C,KiKit_MB_26_3*
X83362843Y30289502D03*
G04 #@! TD*
G04 #@! TO.C,KiKit_MB_1_4*
X22030490Y40290000D03*
G04 #@! TD*
D22*
G04 #@! TO.C,Q2*
X93320490Y44810000D03*
D23*
X92820490Y44810000D03*
X92320490Y44810000D03*
X92320490Y43310000D03*
X92820490Y43310000D03*
X93320490Y43310000D03*
G04 #@! TD*
D21*
G04 #@! TO.C,C20*
X96650490Y47270000D03*
X96650490Y46630000D03*
G04 #@! TD*
D10*
G04 #@! TO.C,R9*
X40579510Y16260000D03*
X40579510Y16900000D03*
G04 #@! TD*
D41*
G04 #@! TO.C,SW1*
X71254510Y26860000D03*
X71254510Y24160000D03*
X70104510Y26860000D03*
X70104510Y24160000D03*
G04 #@! TD*
D21*
G04 #@! TO.C,C6*
X32009510Y16940000D03*
X32009510Y16300000D03*
G04 #@! TD*
D37*
G04 #@! TO.C,U3*
X53155000Y52355000D03*
D38*
X53155000Y51085000D03*
X53155000Y49815000D03*
X53155000Y48545000D03*
X58845000Y48545000D03*
X58845000Y49815000D03*
X58845000Y51085000D03*
X58845000Y52355000D03*
D39*
X56000000Y50450000D03*
G04 #@! TD*
D11*
G04 #@! TO.C,KiKit_MB_42_9*
X5000000Y7000000D03*
G04 #@! TD*
D10*
G04 #@! TO.C,C17*
X56749510Y23310000D03*
X56749510Y23950000D03*
G04 #@! TD*
D11*
G04 #@! TO.C,KiKit_MB_40_3*
X105000000Y3750000D03*
G04 #@! TD*
G04 #@! TO.C,KiKit_MB_9_8*
X57210490Y63579999D03*
G04 #@! TD*
G04 #@! TO.C,KiKit_MB_33_7*
X7000000Y33290000D03*
G04 #@! TD*
G04 #@! TO.C,KiKit_MB_32_4*
X66000000Y35290000D03*
G04 #@! TD*
D21*
G04 #@! TO.C,C9*
X14130490Y56027940D03*
X14130490Y55387940D03*
G04 #@! TD*
D11*
G04 #@! TO.C,KiKit_MB_17_4*
X24029510Y30289253D03*
G04 #@! TD*
D22*
G04 #@! TO.C,Q1*
X59700490Y44810000D03*
D23*
X59200490Y44810000D03*
X58700490Y44810000D03*
X58700490Y43310000D03*
X59200490Y43310000D03*
X59700490Y43310000D03*
G04 #@! TD*
D11*
G04 #@! TO.C,KiKit_MB_27_7*
X75389510Y7000001D03*
G04 #@! TD*
G04 #@! TO.C,KiKit_MB_28_1*
X87969510Y30289228D03*
G04 #@! TD*
D21*
G04 #@! TO.C,C19*
X73369510Y15192060D03*
X73369510Y14552060D03*
G04 #@! TD*
G04 #@! TO.C,C12*
X98619510Y15192060D03*
X98619510Y14552060D03*
G04 #@! TD*
D10*
G04 #@! TO.C,C20*
X35349510Y23310000D03*
X35349510Y23950000D03*
G04 #@! TD*
D43*
G04 #@! TO.C,U5*
X73600490Y46050000D03*
D44*
X73600490Y46550000D03*
X73600490Y47050000D03*
X72100490Y47050000D03*
X72100490Y46550000D03*
X72100490Y46050000D03*
G04 #@! TD*
D11*
G04 #@! TO.C,KiKit_MB_42_2*
X625000Y7000000D03*
G04 #@! TD*
G04 #@! TO.C,KiKit_MB_38_8*
X105000000Y66205000D03*
G04 #@! TD*
D10*
G04 #@! TO.C,C15*
X36049510Y23310000D03*
X36049510Y23950000D03*
G04 #@! TD*
D21*
G04 #@! TO.C,C19*
X93369510Y15192060D03*
X93369510Y14552060D03*
G04 #@! TD*
D11*
G04 #@! TO.C,KiKit_MB_33_2*
X7000000Y36623334D03*
G04 #@! TD*
G04 #@! TO.C,KiKit_MB_19_4*
X29969510Y30290000D03*
G04 #@! TD*
D21*
G04 #@! TO.C,R10*
X12850490Y54320000D03*
X12850490Y53680000D03*
G04 #@! TD*
D11*
G04 #@! TO.C,KiKit_MB_15_10*
X98410490Y63579999D03*
G04 #@! TD*
D10*
G04 #@! TO.C,C12*
X53380490Y55387940D03*
X53380490Y56027940D03*
G04 #@! TD*
D11*
G04 #@! TO.C,KiKit_MB_21_7*
X35389510Y7000001D03*
G04 #@! TD*
D21*
G04 #@! TO.C,C11*
X34869510Y15192060D03*
X34869510Y14552060D03*
G04 #@! TD*
D11*
G04 #@! TO.C,KiKit_MB_37_4*
X7000000Y68705000D03*
G04 #@! TD*
D16*
G04 #@! TO.C,J1*
X33109510Y12080000D03*
X38889510Y12080000D03*
D49*
X32799510Y13155000D03*
X33599510Y13155000D03*
D50*
X34749510Y13155000D03*
X35749510Y13155000D03*
X36249510Y13155000D03*
X37249510Y13155000D03*
D49*
X38399510Y13155000D03*
X39199510Y13155000D03*
X39199510Y13155000D03*
X38399510Y13155000D03*
D50*
X37749510Y13155000D03*
X36749510Y13155000D03*
X35249510Y13155000D03*
X34249510Y13155000D03*
D49*
X33599510Y13155000D03*
X32799510Y13155000D03*
D19*
X31679510Y12580000D03*
D20*
X31679510Y8400000D03*
X40319510Y8400000D03*
D19*
X40319510Y12580000D03*
G04 #@! TD*
D11*
G04 #@! TO.C,KiKit_MB_32_2*
X66000000Y36623334D03*
G04 #@! TD*
G04 #@! TO.C,KiKit_MB_12_3*
X74210490Y63579999D03*
G04 #@! TD*
G04 #@! TO.C,KiKit_MB_25_1*
X67969510Y30289228D03*
G04 #@! TD*
G04 #@! TO.C,KiKit_MB_29_1*
X102029510Y30290000D03*
G04 #@! TD*
G04 #@! TO.C,KiKit_MB_24_7*
X55389510Y7000001D03*
G04 #@! TD*
D47*
G04 #@! TO.C,D2*
X75124106Y45540001D03*
D48*
X75124106Y44440001D03*
X76954106Y44440001D03*
X76954106Y45540001D03*
G04 #@! TD*
D21*
G04 #@! TO.C,R9*
X31420490Y54320000D03*
X31420490Y53680000D03*
G04 #@! TD*
D11*
G04 #@! TO.C,KiKit_MB_18_9*
X14189510Y7000001D03*
G04 #@! TD*
G04 #@! TO.C,KiKit_MB_9_2*
X53610490Y63579999D03*
G04 #@! TD*
D21*
G04 #@! TO.C,R10*
X52850490Y54320000D03*
X52850490Y53680000D03*
G04 #@! TD*
D11*
G04 #@! TO.C,KiKit_MB_16_3*
X9302844Y30289743D03*
G04 #@! TD*
G04 #@! TO.C,KiKit_MB_7_4*
X62030490Y40290000D03*
G04 #@! TD*
G04 #@! TO.C,KiKit_MB_36_5*
X105000000Y34623334D03*
G04 #@! TD*
D12*
G04 #@! TO.C,Q2*
X78679510Y25770000D03*
D13*
X79179510Y25770000D03*
X79679510Y25770000D03*
X79679510Y27270000D03*
X79179510Y27270000D03*
X78679510Y27270000D03*
G04 #@! TD*
D11*
G04 #@! TO.C,KiKit_MB_16_4*
X9969510Y30290000D03*
G04 #@! TD*
D51*
G04 #@! TO.C,C13*
X31999510Y21130000D03*
X31359510Y21130000D03*
G04 #@! TD*
D11*
G04 #@! TO.C,KiKit_MB_39_8*
X7000000Y625000D03*
G04 #@! TD*
G04 #@! TO.C,KiKit_MB_43_8*
X111375000Y63580000D03*
G04 #@! TD*
G04 #@! TO.C,KiKit_MB_9_6*
X56010490Y63579999D03*
G04 #@! TD*
G04 #@! TO.C,KiKit_MB_8_1*
X49970490Y40290000D03*
G04 #@! TD*
D21*
G04 #@! TO.C,C17*
X35250490Y47270000D03*
X35250490Y46630000D03*
G04 #@! TD*
D11*
G04 #@! TO.C,KiKit_MB_8_3*
X48637156Y40290499D03*
G04 #@! TD*
G04 #@! TO.C,KiKit_MB_21_9*
X34189510Y7000001D03*
G04 #@! TD*
G04 #@! TO.C,KiKit_MB_18_5*
X16589510Y7000001D03*
G04 #@! TD*
D52*
G04 #@! TO.C,C4*
X70969510Y14380000D03*
X70969510Y15340000D03*
G04 #@! TD*
D10*
G04 #@! TO.C,R10*
X79149510Y16260000D03*
X79149510Y16900000D03*
G04 #@! TD*
D25*
G04 #@! TO.C,Gemini1*
X7715000Y8590000D03*
D26*
X7000000Y8590000D03*
D25*
X7715000Y11130000D03*
D26*
X7000000Y11130000D03*
D25*
X7715000Y13670000D03*
D26*
X7000000Y13670000D03*
D25*
X7715000Y16210000D03*
D26*
X7000000Y16210000D03*
D25*
X7715000Y18750000D03*
D26*
X7000000Y18750000D03*
D25*
X7715000Y21290000D03*
D26*
X7000000Y21290000D03*
D25*
X7715000Y23830000D03*
D26*
X7000000Y23830000D03*
D25*
X7715000Y26370000D03*
D26*
X7000000Y26370000D03*
D25*
X7715000Y28910000D03*
D26*
X7000000Y28910000D03*
D27*
X10920000Y29575000D03*
D26*
X10920000Y30290000D03*
D27*
X13460000Y29575000D03*
D26*
X13460000Y30290000D03*
D27*
X16000000Y29609000D03*
D26*
X16000000Y30324000D03*
D27*
X18540000Y29575000D03*
D26*
X18540000Y30290000D03*
D27*
X21080000Y29575000D03*
D26*
X21080000Y30290000D03*
X25000000Y28910000D03*
D25*
X24285000Y28910000D03*
D26*
X25000000Y26370000D03*
D25*
X24285000Y26370000D03*
D28*
X21080000Y26370000D03*
D26*
X25000000Y23830000D03*
D25*
X24285000Y23830000D03*
D26*
X25000000Y21290000D03*
D25*
X24285000Y21290000D03*
D26*
X25000000Y18750000D03*
D25*
X24285000Y18750000D03*
D26*
X25000000Y16210000D03*
D25*
X24285000Y16210000D03*
D53*
X24556255Y13670000D03*
D54*
X23620000Y13670000D03*
D55*
X25000000Y11130000D03*
D56*
X24285000Y11130000D03*
D53*
X24556255Y8590000D03*
D54*
X23620000Y8590000D03*
G04 #@! TD*
D16*
G04 #@! TO.C,J1*
X13109510Y12080000D03*
X18889510Y12080000D03*
D49*
X12799510Y13155000D03*
X13599510Y13155000D03*
D50*
X14749510Y13155000D03*
X15749510Y13155000D03*
X16249510Y13155000D03*
X17249510Y13155000D03*
D49*
X18399510Y13155000D03*
X19199510Y13155000D03*
X19199510Y13155000D03*
X18399510Y13155000D03*
D50*
X17749510Y13155000D03*
X16749510Y13155000D03*
X15249510Y13155000D03*
X14249510Y13155000D03*
D49*
X13599510Y13155000D03*
X12799510Y13155000D03*
D19*
X11679510Y12580000D03*
D20*
X11679510Y8400000D03*
X20319510Y8400000D03*
D19*
X20319510Y12580000D03*
G04 #@! TD*
D11*
G04 #@! TO.C,KiKit_MB_41_3*
X1250000Y63580000D03*
G04 #@! TD*
G04 #@! TO.C,KiKit_MB_36_7*
X105000000Y33290000D03*
G04 #@! TD*
G04 #@! TO.C,KiKit_MB_25_2*
X68636176Y30289485D03*
G04 #@! TD*
G04 #@! TO.C,KiKit_MB_35_7*
X86000000Y33290000D03*
G04 #@! TD*
D21*
G04 #@! TO.C,C14*
X14119510Y15192060D03*
X14119510Y14552060D03*
G04 #@! TD*
D11*
G04 #@! TO.C,KiKit_MB_30_1*
X98989510Y7000001D03*
G04 #@! TD*
G04 #@! TO.C,KiKit_MB_6_9*
X37810490Y63579999D03*
G04 #@! TD*
G04 #@! TO.C,KiKit_MB_21_6*
X35989510Y7000001D03*
G04 #@! TD*
G04 #@! TO.C,KiKit_MB_12_11*
X79010490Y63579999D03*
G04 #@! TD*
D10*
G04 #@! TO.C,C15*
X16049510Y23310000D03*
X16049510Y23950000D03*
G04 #@! TD*
D11*
G04 #@! TO.C,KiKit_MB_40_5*
X105000000Y2500000D03*
G04 #@! TD*
G04 #@! TO.C,KiKit_MB_13_1*
X104030490Y40290773D03*
G04 #@! TD*
G04 #@! TO.C,KiKit_MB_35_5*
X86000000Y34623334D03*
G04 #@! TD*
D24*
G04 #@! TO.C,C4*
X101030490Y56200000D03*
X101030490Y55240000D03*
G04 #@! TD*
D10*
G04 #@! TO.C,C12*
X13380490Y55387940D03*
X13380490Y56027940D03*
G04 #@! TD*
D11*
G04 #@! TO.C,KiKit_MB_20_1*
X42029510Y30290000D03*
G04 #@! TD*
D21*
G04 #@! TO.C,C9*
X94130490Y56027940D03*
X94130490Y55387940D03*
G04 #@! TD*
D11*
G04 #@! TO.C,KiKit_MB_14_4*
X87970490Y40290748D03*
G04 #@! TD*
G04 #@! TO.C,KiKit_MB_20_4*
X44029510Y30289253D03*
G04 #@! TD*
G04 #@! TO.C,KiKit_MB_2_2*
X9303824Y40290250D03*
G04 #@! TD*
G04 #@! TO.C,KiKit_MB_18_6*
X15989510Y7000001D03*
G04 #@! TD*
G04 #@! TO.C,KiKit_MB_6_6*
X36010490Y63579999D03*
G04 #@! TD*
G04 #@! TO.C,KiKit_MB_24_2*
X58389510Y7000001D03*
G04 #@! TD*
D21*
G04 #@! TO.C,C14*
X94119510Y15192060D03*
X94119510Y14552060D03*
G04 #@! TD*
D11*
G04 #@! TO.C,KiKit_MB_3_8*
X17210490Y63579999D03*
G04 #@! TD*
G04 #@! TO.C,KiKit_MB_6_4*
X34810490Y63579999D03*
G04 #@! TD*
D33*
G04 #@! TO.C,KiKit_TO_3*
X2500000Y2500000D03*
G04 #@! TD*
D14*
G04 #@! TO.C,U5*
X18399510Y24530000D03*
D15*
X18399510Y24030000D03*
X18399510Y23530000D03*
X19899510Y23530000D03*
X19899510Y24030000D03*
X19899510Y24530000D03*
G04 #@! TD*
D10*
G04 #@! TO.C,C17*
X76749510Y23310000D03*
X76749510Y23950000D03*
G04 #@! TD*
D21*
G04 #@! TO.C,C9*
X74130490Y56027940D03*
X74130490Y55387940D03*
G04 #@! TD*
D11*
G04 #@! TO.C,KiKit_MB_9_5*
X55410490Y63579999D03*
G04 #@! TD*
G04 #@! TO.C,KiKit_MB_29_3*
X103362843Y30289502D03*
G04 #@! TD*
G04 #@! TO.C,KiKit_MB_21_4*
X37189510Y7000001D03*
G04 #@! TD*
D10*
G04 #@! TO.C,C11*
X17130490Y55387940D03*
X17130490Y56027940D03*
G04 #@! TD*
D11*
G04 #@! TO.C,KiKit_MB_12_1*
X73010490Y63579999D03*
G04 #@! TD*
D21*
G04 #@! TO.C,C16*
X72709510Y16940000D03*
X72709510Y16300000D03*
G04 #@! TD*
D24*
G04 #@! TO.C,C4*
X81030490Y56200000D03*
X81030490Y55240000D03*
G04 #@! TD*
D11*
G04 #@! TO.C,KiKit_MB_32_1*
X66000000Y37290000D03*
G04 #@! TD*
D21*
G04 #@! TO.C,C9*
X54130490Y56027940D03*
X54130490Y55387940D03*
G04 #@! TD*
D11*
G04 #@! TO.C,KiKit_MB_15_9*
X97810490Y63579999D03*
G04 #@! TD*
D40*
G04 #@! TO.C,SW1*
X40745490Y43720000D03*
X40745490Y46420000D03*
X41895490Y43720000D03*
X41895490Y46420000D03*
G04 #@! TD*
D11*
G04 #@! TO.C,KiKit_MB_25_4*
X69969510Y30290000D03*
G04 #@! TD*
D10*
G04 #@! TO.C,R9*
X80579510Y16260000D03*
X80579510Y16900000D03*
G04 #@! TD*
D21*
G04 #@! TO.C,R9*
X11420490Y54320000D03*
X11420490Y53680000D03*
G04 #@! TD*
D52*
G04 #@! TO.C,C5*
X60110490Y55240000D03*
X60110490Y56200000D03*
G04 #@! TD*
D37*
G04 #@! TO.C,U3*
X93155000Y52355000D03*
D38*
X93155000Y51085000D03*
X93155000Y49815000D03*
X93155000Y48545000D03*
X98845000Y48545000D03*
X98845000Y49815000D03*
X98845000Y51085000D03*
X98845000Y52355000D03*
D39*
X96000000Y50450000D03*
G04 #@! TD*
D11*
G04 #@! TO.C,KiKit_MB_35_6*
X86000000Y33956667D03*
G04 #@! TD*
D24*
G04 #@! TO.C,C4*
X21030490Y56200000D03*
X21030490Y55240000D03*
G04 #@! TD*
D11*
G04 #@! TO.C,KiKit_MB_36_2*
X105000000Y36623334D03*
G04 #@! TD*
G04 #@! TO.C,KiKit_MB_35_4*
X86000000Y35290000D03*
G04 #@! TD*
G04 #@! TO.C,KiKit_MB_28_2*
X88636176Y30289485D03*
G04 #@! TD*
D10*
G04 #@! TO.C,C10*
X97119510Y14550000D03*
X97119510Y15190000D03*
G04 #@! TD*
D21*
G04 #@! TO.C,C10*
X94880490Y56030000D03*
X94880490Y55390000D03*
G04 #@! TD*
D10*
G04 #@! TO.C,C17*
X96749510Y23310000D03*
X96749510Y23950000D03*
G04 #@! TD*
D11*
G04 #@! TO.C,KiKit_MB_27_1*
X78989510Y7000001D03*
G04 #@! TD*
G04 #@! TO.C,KiKit_MB_40_9*
X105000000Y0D03*
G04 #@! TD*
G04 #@! TO.C,KiKit_MB_10_1*
X84030490Y40290773D03*
G04 #@! TD*
G04 #@! TO.C,KiKit_MB_44_3*
X108250000Y7000000D03*
G04 #@! TD*
D21*
G04 #@! TO.C,C12*
X18619510Y15192060D03*
X18619510Y14552060D03*
G04 #@! TD*
D11*
G04 #@! TO.C,KiKit_MB_14_1*
X89970490Y40290000D03*
G04 #@! TD*
D21*
G04 #@! TO.C,R9*
X91420490Y54320000D03*
X91420490Y53680000D03*
G04 #@! TD*
D11*
G04 #@! TO.C,KiKit_MB_15_11*
X99010490Y63579999D03*
G04 #@! TD*
G04 #@! TO.C,KiKit_MB_43_7*
X110750000Y63580000D03*
G04 #@! TD*
G04 #@! TO.C,KiKit_MB_33_4*
X7000000Y35290000D03*
G04 #@! TD*
G04 #@! TO.C,KiKit_MB_7_1*
X64030490Y40290773D03*
G04 #@! TD*
G04 #@! TO.C,KiKit_MB_37_1*
X7000000Y70580000D03*
G04 #@! TD*
G04 #@! TO.C,KiKit_MB_38_7*
X105000000Y66830000D03*
G04 #@! TD*
G04 #@! TO.C,KiKit_MB_24_5*
X56589510Y7000001D03*
G04 #@! TD*
D10*
G04 #@! TO.C,C18*
X32130490Y53680000D03*
X32130490Y54320000D03*
G04 #@! TD*
G04 #@! TO.C,C15*
X76049510Y23310000D03*
X76049510Y23950000D03*
G04 #@! TD*
D45*
G04 #@! TO.C,D2*
X56875894Y25039999D03*
D46*
X56875894Y26139999D03*
X55045894Y26139999D03*
X55045894Y25039999D03*
G04 #@! TD*
D10*
G04 #@! TO.C,C11*
X57130490Y55387940D03*
X57130490Y56027940D03*
G04 #@! TD*
D21*
G04 #@! TO.C,C20*
X76650490Y47270000D03*
X76650490Y46630000D03*
G04 #@! TD*
D52*
G04 #@! TO.C,C4*
X30969510Y14380000D03*
X30969510Y15340000D03*
G04 #@! TD*
D16*
G04 #@! TO.C,J1*
X38890490Y58500000D03*
X33110490Y58500000D03*
D17*
X39200490Y57425000D03*
X38400490Y57425000D03*
D18*
X37250490Y57425000D03*
X36250490Y57425000D03*
X35750490Y57425000D03*
X34750490Y57425000D03*
D17*
X33600490Y57425000D03*
X32800490Y57425000D03*
X32800490Y57425000D03*
X33600490Y57425000D03*
D18*
X34250490Y57425000D03*
X35250490Y57425000D03*
X36750490Y57425000D03*
X37750490Y57425000D03*
D17*
X38400490Y57425000D03*
X39200490Y57425000D03*
D19*
X40320490Y58000000D03*
D20*
X40320490Y62180000D03*
X31680490Y62180000D03*
D19*
X31680490Y58000000D03*
G04 #@! TD*
D21*
G04 #@! TO.C,C16*
X52709510Y16940000D03*
X52709510Y16300000D03*
G04 #@! TD*
D24*
G04 #@! TO.C,C5*
X11889510Y15340000D03*
X11889510Y14380000D03*
G04 #@! TD*
D37*
G04 #@! TO.C,U3*
X13155000Y52355000D03*
D38*
X13155000Y51085000D03*
X13155000Y49815000D03*
X13155000Y48545000D03*
X18845000Y48545000D03*
X18845000Y49815000D03*
X18845000Y51085000D03*
X18845000Y52355000D03*
D39*
X16000000Y50450000D03*
G04 #@! TD*
D10*
G04 #@! TO.C,C10*
X17119510Y14550000D03*
X17119510Y15190000D03*
G04 #@! TD*
D21*
G04 #@! TO.C,C19*
X13369510Y15192060D03*
X13369510Y14552060D03*
G04 #@! TD*
G04 #@! TO.C,C10*
X14880490Y56030000D03*
X14880490Y55390000D03*
G04 #@! TD*
D45*
G04 #@! TO.C,D2*
X96875894Y25039999D03*
D46*
X96875894Y26139999D03*
X95045894Y26139999D03*
X95045894Y25039999D03*
G04 #@! TD*
D22*
G04 #@! TO.C,Q2*
X53320490Y44810000D03*
D23*
X52820490Y44810000D03*
X52320490Y44810000D03*
X52320490Y43310000D03*
X52820490Y43310000D03*
X53320490Y43310000D03*
G04 #@! TD*
D21*
G04 #@! TO.C,C16*
X12709510Y16940000D03*
X12709510Y16300000D03*
G04 #@! TD*
G04 #@! TO.C,R14*
X74550490Y47270000D03*
X74550490Y46630000D03*
G04 #@! TD*
G04 #@! TO.C,C18*
X99869510Y16900000D03*
X99869510Y16260000D03*
G04 #@! TD*
D47*
G04 #@! TO.C,D2*
X55124106Y45540001D03*
D48*
X55124106Y44440001D03*
X56954106Y44440001D03*
X56954106Y45540001D03*
G04 #@! TD*
D10*
G04 #@! TO.C,C16*
X99290490Y53640000D03*
X99290490Y54280000D03*
G04 #@! TD*
G04 #@! TO.C,C11*
X37130490Y55387940D03*
X37130490Y56027940D03*
G04 #@! TD*
D16*
G04 #@! TO.C,J1*
X18890490Y58500000D03*
X13110490Y58500000D03*
D17*
X19200490Y57425000D03*
X18400490Y57425000D03*
D18*
X17250490Y57425000D03*
X16250490Y57425000D03*
X15750490Y57425000D03*
X14750490Y57425000D03*
D17*
X13600490Y57425000D03*
X12800490Y57425000D03*
X12800490Y57425000D03*
X13600490Y57425000D03*
D18*
X14250490Y57425000D03*
X15250490Y57425000D03*
X16750490Y57425000D03*
X17750490Y57425000D03*
D17*
X18400490Y57425000D03*
X19200490Y57425000D03*
D19*
X20320490Y58000000D03*
D20*
X20320490Y62180000D03*
X11680490Y62180000D03*
D19*
X11680490Y58000000D03*
G04 #@! TD*
D11*
G04 #@! TO.C,KiKit_MB_39_6*
X7000000Y1875000D03*
G04 #@! TD*
D51*
G04 #@! TO.C,C13*
X11999510Y21130000D03*
X11359510Y21130000D03*
G04 #@! TD*
D33*
G04 #@! TO.C,KiKit_TO_2*
X109500000Y68080000D03*
G04 #@! TD*
D10*
G04 #@! TO.C,C20*
X75349510Y23310000D03*
X75349510Y23950000D03*
G04 #@! TD*
D14*
G04 #@! TO.C,U5*
X58399510Y24530000D03*
D15*
X58399510Y24030000D03*
X58399510Y23530000D03*
X59899510Y23530000D03*
X59899510Y24030000D03*
X59899510Y24530000D03*
G04 #@! TD*
D11*
G04 #@! TO.C,KiKit_MB_32_3*
X66000000Y35956667D03*
G04 #@! TD*
D10*
G04 #@! TO.C,R9*
X20579510Y16260000D03*
X20579510Y16900000D03*
G04 #@! TD*
G04 #@! TO.C,C17*
X36749510Y23310000D03*
X36749510Y23950000D03*
G04 #@! TD*
G04 #@! TO.C,C18*
X52130490Y53680000D03*
X52130490Y54320000D03*
G04 #@! TD*
D25*
G04 #@! TO.C,Gemini1*
X27715000Y8590000D03*
D26*
X27000000Y8590000D03*
D25*
X27715000Y11130000D03*
D26*
X27000000Y11130000D03*
D25*
X27715000Y13670000D03*
D26*
X27000000Y13670000D03*
D25*
X27715000Y16210000D03*
D26*
X27000000Y16210000D03*
D25*
X27715000Y18750000D03*
D26*
X27000000Y18750000D03*
D25*
X27715000Y21290000D03*
D26*
X27000000Y21290000D03*
D25*
X27715000Y23830000D03*
D26*
X27000000Y23830000D03*
D25*
X27715000Y26370000D03*
D26*
X27000000Y26370000D03*
D25*
X27715000Y28910000D03*
D26*
X27000000Y28910000D03*
D27*
X30920000Y29575000D03*
D26*
X30920000Y30290000D03*
D27*
X33460000Y29575000D03*
D26*
X33460000Y30290000D03*
D27*
X36000000Y29609000D03*
D26*
X36000000Y30324000D03*
D27*
X38540000Y29575000D03*
D26*
X38540000Y30290000D03*
D27*
X41080000Y29575000D03*
D26*
X41080000Y30290000D03*
X45000000Y28910000D03*
D25*
X44285000Y28910000D03*
D26*
X45000000Y26370000D03*
D25*
X44285000Y26370000D03*
D28*
X41080000Y26370000D03*
D26*
X45000000Y23830000D03*
D25*
X44285000Y23830000D03*
D26*
X45000000Y21290000D03*
D25*
X44285000Y21290000D03*
D26*
X45000000Y18750000D03*
D25*
X44285000Y18750000D03*
D26*
X45000000Y16210000D03*
D25*
X44285000Y16210000D03*
D53*
X44556255Y13670000D03*
D54*
X43620000Y13670000D03*
D55*
X45000000Y11130000D03*
D56*
X44285000Y11130000D03*
D53*
X44556255Y8590000D03*
D54*
X43620000Y8590000D03*
G04 #@! TD*
D11*
G04 #@! TO.C,KiKit_MB_44_1*
X107000000Y7000000D03*
G04 #@! TD*
D42*
G04 #@! TO.C,C13*
X80000490Y49450000D03*
X80640490Y49450000D03*
G04 #@! TD*
D11*
G04 #@! TO.C,KiKit_MB_42_8*
X4375000Y7000000D03*
G04 #@! TD*
D10*
G04 #@! TO.C,C14*
X17880490Y55387940D03*
X17880490Y56027940D03*
G04 #@! TD*
D11*
G04 #@! TO.C,KiKit_MB_21_8*
X34789510Y7000001D03*
G04 #@! TD*
G04 #@! TO.C,KiKit_MB_18_11*
X12989510Y7000001D03*
G04 #@! TD*
G04 #@! TO.C,KiKit_MB_27_9*
X74189510Y7000001D03*
G04 #@! TD*
G04 #@! TO.C,KiKit_MB_40_7*
X105000000Y1250000D03*
G04 #@! TD*
D10*
G04 #@! TO.C,C11*
X97130490Y55387940D03*
X97130490Y56027940D03*
G04 #@! TD*
D11*
G04 #@! TO.C,KiKit_MB_9_9*
X57810490Y63579999D03*
G04 #@! TD*
D40*
G04 #@! TO.C,SW1*
X60745490Y43720000D03*
X60745490Y46420000D03*
X61895490Y43720000D03*
X61895490Y46420000D03*
G04 #@! TD*
D10*
G04 #@! TO.C,C20*
X95349510Y23310000D03*
X95349510Y23950000D03*
G04 #@! TD*
D25*
G04 #@! TO.C,Gemini1*
X84285000Y61990000D03*
D26*
X85000000Y61990000D03*
D25*
X84285000Y59450000D03*
D26*
X85000000Y59450000D03*
D25*
X84285000Y56910000D03*
D26*
X85000000Y56910000D03*
D25*
X84285000Y54370000D03*
D26*
X85000000Y54370000D03*
D25*
X84285000Y51830000D03*
D26*
X85000000Y51830000D03*
D25*
X84285000Y49290000D03*
D26*
X85000000Y49290000D03*
D25*
X84285000Y46750000D03*
D26*
X85000000Y46750000D03*
D25*
X84285000Y44210000D03*
D26*
X85000000Y44210000D03*
D25*
X84285000Y41670000D03*
D26*
X85000000Y41670000D03*
D27*
X81080000Y41005000D03*
D26*
X81080000Y40290000D03*
D27*
X78540000Y41005000D03*
D26*
X78540000Y40290000D03*
D27*
X76000000Y40971000D03*
D26*
X76000000Y40256000D03*
D27*
X73460000Y41005000D03*
D26*
X73460000Y40290000D03*
D27*
X70920000Y41005000D03*
D26*
X70920000Y40290000D03*
X67000000Y41670000D03*
D25*
X67715000Y41670000D03*
D26*
X67000000Y44210000D03*
D25*
X67715000Y44210000D03*
D28*
X70920000Y44210000D03*
D26*
X67000000Y46750000D03*
D25*
X67715000Y46750000D03*
D26*
X67000000Y49290000D03*
D25*
X67715000Y49290000D03*
D26*
X67000000Y51830000D03*
D25*
X67715000Y51830000D03*
D26*
X67000000Y54370000D03*
D25*
X67715000Y54370000D03*
D29*
X67443745Y56910000D03*
D30*
X68380000Y56910000D03*
D31*
X67000000Y59450000D03*
D32*
X67715000Y59450000D03*
D29*
X67443745Y61990000D03*
D30*
X68380000Y61990000D03*
G04 #@! TD*
D11*
G04 #@! TO.C,KiKit_MB_40_4*
X105000000Y3125000D03*
G04 #@! TD*
G04 #@! TO.C,KiKit_MB_37_3*
X7000000Y69330000D03*
G04 #@! TD*
D21*
G04 #@! TO.C,C14*
X74119510Y15192060D03*
X74119510Y14552060D03*
G04 #@! TD*
D22*
G04 #@! TO.C,Q1*
X39700490Y44810000D03*
D23*
X39200490Y44810000D03*
X38700490Y44810000D03*
X38700490Y43310000D03*
X39200490Y43310000D03*
X39700490Y43310000D03*
G04 #@! TD*
D21*
G04 #@! TO.C,R10*
X72850490Y54320000D03*
X72850490Y53680000D03*
G04 #@! TD*
D11*
G04 #@! TO.C,KiKit_MB_6_1*
X33010490Y63579999D03*
G04 #@! TD*
G04 #@! TO.C,KiKit_MB_36_4*
X105000000Y35290000D03*
G04 #@! TD*
G04 #@! TO.C,KiKit_MB_9_7*
X56610490Y63579999D03*
G04 #@! TD*
D10*
G04 #@! TO.C,C6*
X99990490Y53640000D03*
X99990490Y54280000D03*
G04 #@! TD*
D11*
G04 #@! TO.C,KiKit_MB_11_1*
X69970490Y40290000D03*
G04 #@! TD*
D10*
G04 #@! TO.C,C6*
X59990490Y53640000D03*
X59990490Y54280000D03*
G04 #@! TD*
D11*
G04 #@! TO.C,KiKit_MB_31_3*
X46000000Y34623334D03*
G04 #@! TD*
D52*
G04 #@! TO.C,C5*
X40110490Y55240000D03*
X40110490Y56200000D03*
G04 #@! TD*
D11*
G04 #@! TO.C,KiKit_MB_21_1*
X38989510Y7000001D03*
G04 #@! TD*
G04 #@! TO.C,KiKit_MB_30_6*
X95989510Y7000001D03*
G04 #@! TD*
D52*
G04 #@! TO.C,C4*
X10969510Y14380000D03*
X10969510Y15340000D03*
G04 #@! TD*
D11*
G04 #@! TO.C,KiKit_MB_27_2*
X78389510Y7000001D03*
G04 #@! TD*
G04 #@! TO.C,KiKit_MB_27_4*
X77189510Y7000001D03*
G04 #@! TD*
D33*
G04 #@! TO.C,KiKit_FID_T_2*
X107000000Y66730000D03*
G04 #@! TD*
D11*
G04 #@! TO.C,KiKit_MB_26_4*
X84029510Y30289253D03*
G04 #@! TD*
D10*
G04 #@! TO.C,R9*
X60579510Y16260000D03*
X60579510Y16900000D03*
G04 #@! TD*
D11*
G04 #@! TO.C,KiKit_MB_38_2*
X105000000Y69955000D03*
G04 #@! TD*
D22*
G04 #@! TO.C,Q1*
X19700490Y44810000D03*
D23*
X19200490Y44810000D03*
X18700490Y44810000D03*
X18700490Y43310000D03*
X19200490Y43310000D03*
X19700490Y43310000D03*
G04 #@! TD*
D41*
G04 #@! TO.C,SW1*
X31254510Y26860000D03*
X31254510Y24160000D03*
X30104510Y26860000D03*
X30104510Y24160000D03*
G04 #@! TD*
D11*
G04 #@! TO.C,KiKit_MB_37_2*
X7000000Y69955000D03*
G04 #@! TD*
D43*
G04 #@! TO.C,U5*
X33600490Y46050000D03*
D44*
X33600490Y46550000D03*
X33600490Y47050000D03*
X32100490Y47050000D03*
X32100490Y46550000D03*
X32100490Y46050000D03*
G04 #@! TD*
D11*
G04 #@! TO.C,KiKit_MB_34_2*
X26000000Y36623334D03*
G04 #@! TD*
G04 #@! TO.C,KiKit_MB_40_8*
X105000000Y625000D03*
G04 #@! TD*
D14*
G04 #@! TO.C,U5*
X98399510Y24530000D03*
D15*
X98399510Y24030000D03*
X98399510Y23530000D03*
X99899510Y23530000D03*
X99899510Y24030000D03*
X99899510Y24530000D03*
G04 #@! TD*
D11*
G04 #@! TO.C,KiKit_MB_8_2*
X49303823Y40290250D03*
G04 #@! TD*
D10*
G04 #@! TO.C,C19*
X98630490Y55387940D03*
X98630490Y56027940D03*
G04 #@! TD*
D21*
G04 #@! TO.C,C9*
X34130490Y56027940D03*
X34130490Y55387940D03*
G04 #@! TD*
D11*
G04 #@! TO.C,KiKit_MB_6_10*
X38410490Y63579999D03*
G04 #@! TD*
G04 #@! TO.C,KiKit_MB_42_5*
X2500000Y7000000D03*
G04 #@! TD*
D34*
G04 #@! TO.C,U3*
X98845000Y18225000D03*
D35*
X98845000Y19495000D03*
X98845000Y20765000D03*
X98845000Y22035000D03*
X93155000Y22035000D03*
X93155000Y20765000D03*
X93155000Y19495000D03*
X93155000Y18225000D03*
D36*
X96000000Y20130000D03*
G04 #@! TD*
D11*
G04 #@! TO.C,KiKit_MB_6_11*
X39010490Y63579999D03*
G04 #@! TD*
G04 #@! TO.C,KiKit_MB_30_11*
X92989510Y7000001D03*
G04 #@! TD*
G04 #@! TO.C,KiKit_MB_43_2*
X107625000Y63580000D03*
G04 #@! TD*
D21*
G04 #@! TO.C,C17*
X15250490Y47270000D03*
X15250490Y46630000D03*
G04 #@! TD*
D11*
G04 #@! TO.C,KiKit_MB_3_3*
X14210490Y63579999D03*
G04 #@! TD*
D21*
G04 #@! TO.C,C6*
X12009510Y16940000D03*
X12009510Y16300000D03*
G04 #@! TD*
D11*
G04 #@! TO.C,KiKit_MB_30_5*
X96589510Y7000001D03*
G04 #@! TD*
G04 #@! TO.C,KiKit_MB_42_3*
X1250000Y7000000D03*
G04 #@! TD*
G04 #@! TO.C,KiKit_MB_3_11*
X19010490Y63579999D03*
G04 #@! TD*
D22*
G04 #@! TO.C,Q1*
X79700490Y44810000D03*
D23*
X79200490Y44810000D03*
X78700490Y44810000D03*
X78700490Y43310000D03*
X79200490Y43310000D03*
X79700490Y43310000D03*
G04 #@! TD*
D11*
G04 #@! TO.C,KiKit_MB_14_2*
X89303823Y40290250D03*
G04 #@! TD*
D12*
G04 #@! TO.C,Q2*
X38679510Y25770000D03*
D13*
X39179510Y25770000D03*
X39679510Y25770000D03*
X39679510Y27270000D03*
X39179510Y27270000D03*
X38679510Y27270000D03*
G04 #@! TD*
D11*
G04 #@! TO.C,KiKit_MB_15_8*
X97210490Y63579999D03*
G04 #@! TD*
G04 #@! TO.C,KiKit_MB_5_1*
X29970490Y40290000D03*
G04 #@! TD*
D10*
G04 #@! TO.C,R14*
X77449510Y23310000D03*
X77449510Y23950000D03*
G04 #@! TD*
D11*
G04 #@! TO.C,KiKit_MB_11_4*
X67970490Y40290748D03*
G04 #@! TD*
G04 #@! TO.C,KiKit_MB_18_7*
X15389510Y7000001D03*
G04 #@! TD*
D10*
G04 #@! TO.C,R10*
X39149510Y16260000D03*
X39149510Y16900000D03*
G04 #@! TD*
D11*
G04 #@! TO.C,KiKit_MB_12_8*
X77210490Y63579999D03*
G04 #@! TD*
G04 #@! TO.C,KiKit_MB_30_9*
X94189510Y7000001D03*
G04 #@! TD*
D25*
G04 #@! TO.C,Gemini1*
X44285000Y61990000D03*
D26*
X45000000Y61990000D03*
D25*
X44285000Y59450000D03*
D26*
X45000000Y59450000D03*
D25*
X44285000Y56910000D03*
D26*
X45000000Y56910000D03*
D25*
X44285000Y54370000D03*
D26*
X45000000Y54370000D03*
D25*
X44285000Y51830000D03*
D26*
X45000000Y51830000D03*
D25*
X44285000Y49290000D03*
D26*
X45000000Y49290000D03*
D25*
X44285000Y46750000D03*
D26*
X45000000Y46750000D03*
D25*
X44285000Y44210000D03*
D26*
X45000000Y44210000D03*
D25*
X44285000Y41670000D03*
D26*
X45000000Y41670000D03*
D27*
X41080000Y41005000D03*
D26*
X41080000Y40290000D03*
D27*
X38540000Y41005000D03*
D26*
X38540000Y40290000D03*
D27*
X36000000Y40971000D03*
D26*
X36000000Y40256000D03*
D27*
X33460000Y41005000D03*
D26*
X33460000Y40290000D03*
D27*
X30920000Y41005000D03*
D26*
X30920000Y40290000D03*
X27000000Y41670000D03*
D25*
X27715000Y41670000D03*
D26*
X27000000Y44210000D03*
D25*
X27715000Y44210000D03*
D28*
X30920000Y44210000D03*
D26*
X27000000Y46750000D03*
D25*
X27715000Y46750000D03*
D26*
X27000000Y49290000D03*
D25*
X27715000Y49290000D03*
D26*
X27000000Y51830000D03*
D25*
X27715000Y51830000D03*
D26*
X27000000Y54370000D03*
D25*
X27715000Y54370000D03*
D29*
X27443745Y56910000D03*
D30*
X28380000Y56910000D03*
D31*
X27000000Y59450000D03*
D32*
X27715000Y59450000D03*
D29*
X27443745Y61990000D03*
D30*
X28380000Y61990000D03*
G04 #@! TD*
D11*
G04 #@! TO.C,KiKit_MB_21_10*
X33589510Y7000001D03*
G04 #@! TD*
G04 #@! TO.C,KiKit_MB_1_3*
X22697156Y40290258D03*
G04 #@! TD*
D21*
G04 #@! TO.C,C19*
X33369510Y15192060D03*
X33369510Y14552060D03*
G04 #@! TD*
D11*
G04 #@! TO.C,KiKit_MB_37_9*
X7000000Y65580000D03*
G04 #@! TD*
G04 #@! TO.C,KiKit_MB_29_2*
X102696176Y30289751D03*
G04 #@! TD*
G04 #@! TO.C,KiKit_MB_30_2*
X98389510Y7000001D03*
G04 #@! TD*
G04 #@! TO.C,KiKit_MB_9_10*
X58410490Y63579999D03*
G04 #@! TD*
G04 #@! TO.C,KiKit_MB_34_4*
X26000000Y35290000D03*
G04 #@! TD*
G04 #@! TO.C,KiKit_MB_42_6*
X3125000Y7000000D03*
G04 #@! TD*
G04 #@! TO.C,KiKit_MB_12_7*
X76610490Y63579999D03*
G04 #@! TD*
D52*
G04 #@! TO.C,C5*
X80110490Y55240000D03*
X80110490Y56200000D03*
G04 #@! TD*
D11*
G04 #@! TO.C,KiKit_MB_7_3*
X62697156Y40290258D03*
G04 #@! TD*
D21*
G04 #@! TO.C,C20*
X36650490Y47270000D03*
X36650490Y46630000D03*
G04 #@! TD*
D11*
G04 #@! TO.C,KiKit_MB_23_3*
X63362843Y30289502D03*
G04 #@! TD*
D42*
G04 #@! TO.C,C13*
X40000490Y49450000D03*
X40640490Y49450000D03*
G04 #@! TD*
D10*
G04 #@! TO.C,R14*
X17449510Y23310000D03*
X17449510Y23950000D03*
G04 #@! TD*
D11*
G04 #@! TO.C,KiKit_MB_19_2*
X28636176Y30289485D03*
G04 #@! TD*
G04 #@! TO.C,KiKit_MB_33_3*
X7000000Y35956667D03*
G04 #@! TD*
G04 #@! TO.C,KiKit_MB_18_4*
X17189510Y7000001D03*
G04 #@! TD*
G04 #@! TO.C,KiKit_MB_26_1*
X82029510Y30290000D03*
G04 #@! TD*
G04 #@! TO.C,KiKit_MB_18_1*
X18989510Y7000001D03*
G04 #@! TD*
G04 #@! TO.C,KiKit_MB_5_4*
X27970490Y40290748D03*
G04 #@! TD*
D21*
G04 #@! TO.C,C18*
X79869510Y16900000D03*
X79869510Y16260000D03*
G04 #@! TD*
D11*
G04 #@! TO.C,KiKit_MB_3_4*
X14810490Y63579999D03*
G04 #@! TD*
D52*
G04 #@! TO.C,C5*
X100110490Y55240000D03*
X100110490Y56200000D03*
G04 #@! TD*
D21*
G04 #@! TO.C,C16*
X32709510Y16940000D03*
X32709510Y16300000D03*
G04 #@! TD*
D10*
G04 #@! TO.C,C17*
X16749510Y23310000D03*
X16749510Y23950000D03*
G04 #@! TD*
D51*
G04 #@! TO.C,C13*
X51999510Y21130000D03*
X51359510Y21130000D03*
G04 #@! TD*
D24*
G04 #@! TO.C,C4*
X41030490Y56200000D03*
X41030490Y55240000D03*
G04 #@! TD*
D11*
G04 #@! TO.C,KiKit_MB_13_2*
X103363823Y40290516D03*
G04 #@! TD*
G04 #@! TO.C,KiKit_MB_22_2*
X48636176Y30289485D03*
G04 #@! TD*
G04 #@! TO.C,KiKit_MB_5_2*
X29303823Y40290250D03*
G04 #@! TD*
G04 #@! TO.C,KiKit_MB_41_7*
X3750000Y63580000D03*
G04 #@! TD*
D21*
G04 #@! TO.C,R10*
X92850490Y54320000D03*
X92850490Y53680000D03*
G04 #@! TD*
D22*
G04 #@! TO.C,Q1*
X99700490Y44810000D03*
D23*
X99200490Y44810000D03*
X98700490Y44810000D03*
X98700490Y43310000D03*
X99200490Y43310000D03*
X99700490Y43310000D03*
G04 #@! TD*
D11*
G04 #@! TO.C,KiKit_MB_39_2*
X7000000Y4375000D03*
G04 #@! TD*
D10*
G04 #@! TO.C,R14*
X57449510Y23310000D03*
X57449510Y23950000D03*
G04 #@! TD*
D11*
G04 #@! TO.C,KiKit_MB_41_5*
X2500000Y63580000D03*
G04 #@! TD*
D12*
G04 #@! TO.C,Q1*
X92299510Y25770000D03*
D13*
X92799510Y25770000D03*
X93299510Y25770000D03*
X93299510Y27270000D03*
X92799510Y27270000D03*
X92299510Y27270000D03*
G04 #@! TD*
D21*
G04 #@! TO.C,C6*
X72009510Y16940000D03*
X72009510Y16300000D03*
G04 #@! TD*
D10*
G04 #@! TO.C,C14*
X77880490Y55387940D03*
X77880490Y56027940D03*
G04 #@! TD*
D11*
G04 #@! TO.C,KiKit_MB_32_5*
X66000000Y34623334D03*
G04 #@! TD*
G04 #@! TO.C,KiKit_MB_25_3*
X69302843Y30289743D03*
G04 #@! TD*
D10*
G04 #@! TO.C,C19*
X78630490Y55387940D03*
X78630490Y56027940D03*
G04 #@! TD*
D11*
G04 #@! TO.C,KiKit_MB_16_2*
X8636177Y30289485D03*
G04 #@! TD*
G04 #@! TO.C,KiKit_MB_12_10*
X78410490Y63579999D03*
G04 #@! TD*
D21*
G04 #@! TO.C,C10*
X74880490Y56030000D03*
X74880490Y55390000D03*
G04 #@! TD*
D11*
G04 #@! TO.C,KiKit_MB_37_8*
X7000000Y66205000D03*
G04 #@! TD*
D21*
G04 #@! TO.C,R14*
X54550490Y47270000D03*
X54550490Y46630000D03*
G04 #@! TD*
D41*
G04 #@! TO.C,SW1*
X51254510Y26860000D03*
X51254510Y24160000D03*
X50104510Y26860000D03*
X50104510Y24160000D03*
G04 #@! TD*
D11*
G04 #@! TO.C,KiKit_MB_19_3*
X29302843Y30289743D03*
G04 #@! TD*
G04 #@! TO.C,KiKit_MB_39_1*
X7000000Y5000000D03*
G04 #@! TD*
G04 #@! TO.C,KiKit_MB_11_3*
X68637156Y40290499D03*
G04 #@! TD*
G04 #@! TO.C,KiKit_MB_15_4*
X94810490Y63579999D03*
G04 #@! TD*
G04 #@! TO.C,KiKit_MB_44_5*
X109500000Y7000000D03*
G04 #@! TD*
D14*
G04 #@! TO.C,U5*
X38399510Y24530000D03*
D15*
X38399510Y24030000D03*
X38399510Y23530000D03*
X39899510Y23530000D03*
X39899510Y24030000D03*
X39899510Y24530000D03*
G04 #@! TD*
D21*
G04 #@! TO.C,C15*
X95950490Y47270000D03*
X95950490Y46630000D03*
G04 #@! TD*
D10*
G04 #@! TO.C,C18*
X92130490Y53680000D03*
X92130490Y54320000D03*
G04 #@! TD*
D11*
G04 #@! TO.C,KiKit_MB_34_7*
X26000000Y33290000D03*
G04 #@! TD*
G04 #@! TO.C,KiKit_MB_24_9*
X54189510Y7000001D03*
G04 #@! TD*
D21*
G04 #@! TO.C,C11*
X14869510Y15192060D03*
X14869510Y14552060D03*
G04 #@! TD*
G04 #@! TO.C,C20*
X56650490Y47270000D03*
X56650490Y46630000D03*
G04 #@! TD*
D11*
G04 #@! TO.C,KiKit_MB_34_5*
X26000000Y34623334D03*
G04 #@! TD*
G04 #@! TO.C,KiKit_MB_20_3*
X43362843Y30289502D03*
G04 #@! TD*
D25*
G04 #@! TO.C,Gemini1*
X87715000Y8590000D03*
D26*
X87000000Y8590000D03*
D25*
X87715000Y11130000D03*
D26*
X87000000Y11130000D03*
D25*
X87715000Y13670000D03*
D26*
X87000000Y13670000D03*
D25*
X87715000Y16210000D03*
D26*
X87000000Y16210000D03*
D25*
X87715000Y18750000D03*
D26*
X87000000Y18750000D03*
D25*
X87715000Y21290000D03*
D26*
X87000000Y21290000D03*
D25*
X87715000Y23830000D03*
D26*
X87000000Y23830000D03*
D25*
X87715000Y26370000D03*
D26*
X87000000Y26370000D03*
D25*
X87715000Y28910000D03*
D26*
X87000000Y28910000D03*
D27*
X90920000Y29575000D03*
D26*
X90920000Y30290000D03*
D27*
X93460000Y29575000D03*
D26*
X93460000Y30290000D03*
D27*
X96000000Y29609000D03*
D26*
X96000000Y30324000D03*
D27*
X98540000Y29575000D03*
D26*
X98540000Y30290000D03*
D27*
X101080000Y29575000D03*
D26*
X101080000Y30290000D03*
X105000000Y28910000D03*
D25*
X104285000Y28910000D03*
D26*
X105000000Y26370000D03*
D25*
X104285000Y26370000D03*
D28*
X101080000Y26370000D03*
D26*
X105000000Y23830000D03*
D25*
X104285000Y23830000D03*
D26*
X105000000Y21290000D03*
D25*
X104285000Y21290000D03*
D26*
X105000000Y18750000D03*
D25*
X104285000Y18750000D03*
D26*
X105000000Y16210000D03*
D25*
X104285000Y16210000D03*
D53*
X104556255Y13670000D03*
D54*
X103620000Y13670000D03*
D55*
X105000000Y11130000D03*
D56*
X104285000Y11130000D03*
D53*
X104556255Y8590000D03*
D54*
X103620000Y8590000D03*
G04 #@! TD*
D24*
G04 #@! TO.C,C5*
X71889510Y15340000D03*
X71889510Y14380000D03*
G04 #@! TD*
D11*
G04 #@! TO.C,KiKit_MB_15_3*
X94210490Y63579999D03*
G04 #@! TD*
G04 #@! TO.C,KiKit_MB_2_1*
X9970490Y40290000D03*
G04 #@! TD*
D25*
G04 #@! TO.C,Gemini1*
X67715000Y8590000D03*
D26*
X67000000Y8590000D03*
D25*
X67715000Y11130000D03*
D26*
X67000000Y11130000D03*
D25*
X67715000Y13670000D03*
D26*
X67000000Y13670000D03*
D25*
X67715000Y16210000D03*
D26*
X67000000Y16210000D03*
D25*
X67715000Y18750000D03*
D26*
X67000000Y18750000D03*
D25*
X67715000Y21290000D03*
D26*
X67000000Y21290000D03*
D25*
X67715000Y23830000D03*
D26*
X67000000Y23830000D03*
D25*
X67715000Y26370000D03*
D26*
X67000000Y26370000D03*
D25*
X67715000Y28910000D03*
D26*
X67000000Y28910000D03*
D27*
X70920000Y29575000D03*
D26*
X70920000Y30290000D03*
D27*
X73460000Y29575000D03*
D26*
X73460000Y30290000D03*
D27*
X76000000Y29609000D03*
D26*
X76000000Y30324000D03*
D27*
X78540000Y29575000D03*
D26*
X78540000Y30290000D03*
D27*
X81080000Y29575000D03*
D26*
X81080000Y30290000D03*
X85000000Y28910000D03*
D25*
X84285000Y28910000D03*
D26*
X85000000Y26370000D03*
D25*
X84285000Y26370000D03*
D28*
X81080000Y26370000D03*
D26*
X85000000Y23830000D03*
D25*
X84285000Y23830000D03*
D26*
X85000000Y21290000D03*
D25*
X84285000Y21290000D03*
D26*
X85000000Y18750000D03*
D25*
X84285000Y18750000D03*
D26*
X85000000Y16210000D03*
D25*
X84285000Y16210000D03*
D53*
X84556255Y13670000D03*
D54*
X83620000Y13670000D03*
D55*
X85000000Y11130000D03*
D56*
X84285000Y11130000D03*
D53*
X84556255Y8590000D03*
D54*
X83620000Y8590000D03*
G04 #@! TD*
D11*
G04 #@! TO.C,KiKit_MB_28_3*
X89302843Y30289743D03*
G04 #@! TD*
G04 #@! TO.C,KiKit_MB_24_10*
X53589510Y7000001D03*
G04 #@! TD*
D25*
G04 #@! TO.C,Gemini1*
X64285000Y61990000D03*
D26*
X65000000Y61990000D03*
D25*
X64285000Y59450000D03*
D26*
X65000000Y59450000D03*
D25*
X64285000Y56910000D03*
D26*
X65000000Y56910000D03*
D25*
X64285000Y54370000D03*
D26*
X65000000Y54370000D03*
D25*
X64285000Y51830000D03*
D26*
X65000000Y51830000D03*
D25*
X64285000Y49290000D03*
D26*
X65000000Y49290000D03*
D25*
X64285000Y46750000D03*
D26*
X65000000Y46750000D03*
D25*
X64285000Y44210000D03*
D26*
X65000000Y44210000D03*
D25*
X64285000Y41670000D03*
D26*
X65000000Y41670000D03*
D27*
X61080000Y41005000D03*
D26*
X61080000Y40290000D03*
D27*
X58540000Y41005000D03*
D26*
X58540000Y40290000D03*
D27*
X56000000Y40971000D03*
D26*
X56000000Y40256000D03*
D27*
X53460000Y41005000D03*
D26*
X53460000Y40290000D03*
D27*
X50920000Y41005000D03*
D26*
X50920000Y40290000D03*
X47000000Y41670000D03*
D25*
X47715000Y41670000D03*
D26*
X47000000Y44210000D03*
D25*
X47715000Y44210000D03*
D28*
X50920000Y44210000D03*
D26*
X47000000Y46750000D03*
D25*
X47715000Y46750000D03*
D26*
X47000000Y49290000D03*
D25*
X47715000Y49290000D03*
D26*
X47000000Y51830000D03*
D25*
X47715000Y51830000D03*
D26*
X47000000Y54370000D03*
D25*
X47715000Y54370000D03*
D29*
X47443745Y56910000D03*
D30*
X48380000Y56910000D03*
D31*
X47000000Y59450000D03*
D32*
X47715000Y59450000D03*
D29*
X47443745Y61990000D03*
D30*
X48380000Y61990000D03*
G04 #@! TD*
D52*
G04 #@! TO.C,C4*
X90969510Y14380000D03*
X90969510Y15340000D03*
G04 #@! TD*
D11*
G04 #@! TO.C,KiKit_MB_24_8*
X54789510Y7000001D03*
G04 #@! TD*
G04 #@! TO.C,KiKit_MB_30_4*
X97189510Y7000001D03*
G04 #@! TD*
D51*
G04 #@! TO.C,C13*
X71999510Y21130000D03*
X71359510Y21130000D03*
G04 #@! TD*
D11*
G04 #@! TO.C,KiKit_MB_38_1*
X105000000Y70580000D03*
G04 #@! TD*
G04 #@! TO.C,KiKit_MB_39_3*
X7000000Y3750000D03*
G04 #@! TD*
G04 #@! TO.C,KiKit_MB_10_2*
X83363823Y40290516D03*
G04 #@! TD*
G04 #@! TO.C,KiKit_MB_42_7*
X3750000Y7000000D03*
G04 #@! TD*
G04 #@! TO.C,KiKit_MB_20_2*
X42696176Y30289751D03*
G04 #@! TD*
D21*
G04 #@! TO.C,C10*
X54880490Y56030000D03*
X54880490Y55390000D03*
G04 #@! TD*
D11*
G04 #@! TO.C,KiKit_MB_18_2*
X18389510Y7000001D03*
G04 #@! TD*
D10*
G04 #@! TO.C,C20*
X15349510Y23310000D03*
X15349510Y23950000D03*
G04 #@! TD*
D11*
G04 #@! TO.C,KiKit_MB_6_3*
X34210490Y63579999D03*
G04 #@! TD*
D21*
G04 #@! TO.C,R10*
X32850490Y54320000D03*
X32850490Y53680000D03*
G04 #@! TD*
D11*
G04 #@! TO.C,KiKit_MB_38_4*
X105000000Y68705000D03*
G04 #@! TD*
G04 #@! TO.C,KiKit_MB_15_2*
X93610490Y63579999D03*
G04 #@! TD*
G04 #@! TO.C,KiKit_MB_21_2*
X38389510Y7000001D03*
G04 #@! TD*
D22*
G04 #@! TO.C,Q2*
X13320490Y44810000D03*
D23*
X12820490Y44810000D03*
X12320490Y44810000D03*
X12320490Y43310000D03*
X12820490Y43310000D03*
X13320490Y43310000D03*
G04 #@! TD*
D21*
G04 #@! TO.C,C14*
X34119510Y15192060D03*
X34119510Y14552060D03*
G04 #@! TD*
D11*
G04 #@! TO.C,KiKit_MB_18_10*
X13589510Y7000001D03*
G04 #@! TD*
G04 #@! TO.C,KiKit_MB_44_6*
X110125000Y7000000D03*
G04 #@! TD*
D47*
G04 #@! TO.C,D2*
X95124106Y45540001D03*
D48*
X95124106Y44440001D03*
X96954106Y44440001D03*
X96954106Y45540001D03*
G04 #@! TD*
D11*
G04 #@! TO.C,KiKit_MB_39_7*
X7000000Y1250000D03*
G04 #@! TD*
G04 #@! TO.C,KiKit_MB_36_1*
X105000000Y37290000D03*
G04 #@! TD*
G04 #@! TO.C,KiKit_MB_26_2*
X82696176Y30289751D03*
G04 #@! TD*
D10*
G04 #@! TO.C,C16*
X39290490Y53640000D03*
X39290490Y54280000D03*
G04 #@! TD*
D11*
G04 #@! TO.C,KiKit_MB_31_6*
X46000000Y36623334D03*
G04 #@! TD*
D21*
G04 #@! TO.C,R14*
X94550490Y47270000D03*
X94550490Y46630000D03*
G04 #@! TD*
D11*
G04 #@! TO.C,KiKit_MB_18_8*
X14789510Y7000001D03*
G04 #@! TD*
D33*
G04 #@! TO.C,KiKit_FID_T_1*
X5000000Y66730000D03*
G04 #@! TD*
D21*
G04 #@! TO.C,C11*
X54869510Y15192060D03*
X54869510Y14552060D03*
G04 #@! TD*
D45*
G04 #@! TO.C,D2*
X76875894Y25039999D03*
D46*
X76875894Y26139999D03*
X75045894Y26139999D03*
X75045894Y25039999D03*
G04 #@! TD*
D11*
G04 #@! TO.C,KiKit_MB_32_7*
X66000000Y33290000D03*
G04 #@! TD*
G04 #@! TO.C,KiKit_MB_12_9*
X77810490Y63579999D03*
G04 #@! TD*
G04 #@! TO.C,KiKit_MB_12_4*
X74810490Y63579999D03*
G04 #@! TD*
D10*
G04 #@! TO.C,C14*
X37880490Y55387940D03*
X37880490Y56027940D03*
G04 #@! TD*
D21*
G04 #@! TO.C,C15*
X15950490Y47270000D03*
X15950490Y46630000D03*
G04 #@! TD*
D11*
G04 #@! TO.C,KiKit_MB_13_4*
X102030490Y40290000D03*
G04 #@! TD*
D10*
G04 #@! TO.C,C10*
X57119510Y14550000D03*
X57119510Y15190000D03*
G04 #@! TD*
D11*
G04 #@! TO.C,KiKit_MB_18_3*
X17789510Y7000001D03*
G04 #@! TD*
D22*
G04 #@! TO.C,Q2*
X33320490Y44810000D03*
D23*
X32820490Y44810000D03*
X32320490Y44810000D03*
X32320490Y43310000D03*
X32820490Y43310000D03*
X33320490Y43310000D03*
G04 #@! TD*
D10*
G04 #@! TO.C,C9*
X77869510Y14552060D03*
X77869510Y15192060D03*
G04 #@! TD*
D11*
G04 #@! TO.C,KiKit_MB_24_4*
X57189510Y7000001D03*
G04 #@! TD*
G04 #@! TO.C,KiKit_MB_41_1*
X0Y63580000D03*
G04 #@! TD*
G04 #@! TO.C,KiKit_MB_4_1*
X44030490Y40290773D03*
G04 #@! TD*
D51*
G04 #@! TO.C,C13*
X91999510Y21130000D03*
X91359510Y21130000D03*
G04 #@! TD*
D11*
G04 #@! TO.C,KiKit_MB_4_4*
X42030490Y40290000D03*
G04 #@! TD*
G04 #@! TO.C,KiKit_MB_10_4*
X82030490Y40290000D03*
G04 #@! TD*
D10*
G04 #@! TO.C,C19*
X18630490Y55387940D03*
X18630490Y56027940D03*
G04 #@! TD*
D11*
G04 #@! TO.C,KiKit_MB_43_1*
X107000000Y63580000D03*
G04 #@! TD*
G04 #@! TO.C,KiKit_MB_41_2*
X625000Y63580000D03*
G04 #@! TD*
D21*
G04 #@! TO.C,R14*
X14550490Y47270000D03*
X14550490Y46630000D03*
G04 #@! TD*
D40*
G04 #@! TO.C,SW1*
X80745490Y43720000D03*
X80745490Y46420000D03*
X81895490Y43720000D03*
X81895490Y46420000D03*
G04 #@! TD*
D21*
G04 #@! TO.C,C11*
X74869510Y15192060D03*
X74869510Y14552060D03*
G04 #@! TD*
D10*
G04 #@! TO.C,C9*
X57869510Y14552060D03*
X57869510Y15192060D03*
G04 #@! TD*
D21*
G04 #@! TO.C,C18*
X39869510Y16900000D03*
X39869510Y16260000D03*
G04 #@! TD*
D11*
G04 #@! TO.C,KiKit_MB_3_6*
X16010490Y63579999D03*
G04 #@! TD*
D52*
G04 #@! TO.C,C4*
X50969510Y14380000D03*
X50969510Y15340000D03*
G04 #@! TD*
D24*
G04 #@! TO.C,C4*
X61030490Y56200000D03*
X61030490Y55240000D03*
G04 #@! TD*
D11*
G04 #@! TO.C,KiKit_MB_35_3*
X86000000Y35956667D03*
G04 #@! TD*
G04 #@! TO.C,KiKit_MB_42_4*
X1875000Y7000000D03*
G04 #@! TD*
D10*
G04 #@! TO.C,R14*
X97449510Y23310000D03*
X97449510Y23950000D03*
G04 #@! TD*
D34*
G04 #@! TO.C,U3*
X18845000Y18225000D03*
D35*
X18845000Y19495000D03*
X18845000Y20765000D03*
X18845000Y22035000D03*
X13155000Y22035000D03*
X13155000Y20765000D03*
X13155000Y19495000D03*
X13155000Y18225000D03*
D36*
X16000000Y20130000D03*
G04 #@! TD*
D11*
G04 #@! TO.C,KiKit_MB_27_3*
X77789510Y7000001D03*
G04 #@! TD*
D16*
G04 #@! TO.C,J1*
X53109510Y12080000D03*
X58889510Y12080000D03*
D49*
X52799510Y13155000D03*
X53599510Y13155000D03*
D50*
X54749510Y13155000D03*
X55749510Y13155000D03*
X56249510Y13155000D03*
X57249510Y13155000D03*
D49*
X58399510Y13155000D03*
X59199510Y13155000D03*
X59199510Y13155000D03*
X58399510Y13155000D03*
D50*
X57749510Y13155000D03*
X56749510Y13155000D03*
X55249510Y13155000D03*
X54249510Y13155000D03*
D49*
X53599510Y13155000D03*
X52799510Y13155000D03*
D19*
X51679510Y12580000D03*
D20*
X51679510Y8400000D03*
X60319510Y8400000D03*
D19*
X60319510Y12580000D03*
G04 #@! TD*
D11*
G04 #@! TO.C,KiKit_MB_23_2*
X62696176Y30289751D03*
G04 #@! TD*
G04 #@! TO.C,KiKit_MB_27_5*
X76589510Y7000001D03*
G04 #@! TD*
G04 #@! TO.C,KiKit_MB_3_5*
X15410490Y63579999D03*
G04 #@! TD*
G04 #@! TO.C,KiKit_MB_40_1*
X105000000Y5000000D03*
G04 #@! TD*
D16*
G04 #@! TO.C,J1*
X93109510Y12080000D03*
X98889510Y12080000D03*
D49*
X92799510Y13155000D03*
X93599510Y13155000D03*
D50*
X94749510Y13155000D03*
X95749510Y13155000D03*
X96249510Y13155000D03*
X97249510Y13155000D03*
D49*
X98399510Y13155000D03*
X99199510Y13155000D03*
X99199510Y13155000D03*
X98399510Y13155000D03*
D50*
X97749510Y13155000D03*
X96749510Y13155000D03*
X95249510Y13155000D03*
X94249510Y13155000D03*
D49*
X93599510Y13155000D03*
X92799510Y13155000D03*
D19*
X91679510Y12580000D03*
D20*
X91679510Y8400000D03*
X100319510Y8400000D03*
D19*
X100319510Y12580000D03*
G04 #@! TD*
D11*
G04 #@! TO.C,KiKit_MB_43_4*
X108875000Y63580000D03*
G04 #@! TD*
G04 #@! TO.C,KiKit_MB_39_5*
X7000000Y2500000D03*
G04 #@! TD*
G04 #@! TO.C,KiKit_MB_42_1*
X0Y7000000D03*
G04 #@! TD*
G04 #@! TO.C,KiKit_MB_2_4*
X7970490Y40290748D03*
G04 #@! TD*
D16*
G04 #@! TO.C,J1*
X73109510Y12080000D03*
X78889510Y12080000D03*
D49*
X72799510Y13155000D03*
X73599510Y13155000D03*
D50*
X74749510Y13155000D03*
X75749510Y13155000D03*
X76249510Y13155000D03*
X77249510Y13155000D03*
D49*
X78399510Y13155000D03*
X79199510Y13155000D03*
X79199510Y13155000D03*
X78399510Y13155000D03*
D50*
X77749510Y13155000D03*
X76749510Y13155000D03*
X75249510Y13155000D03*
X74249510Y13155000D03*
D49*
X73599510Y13155000D03*
X72799510Y13155000D03*
D19*
X71679510Y12580000D03*
D20*
X71679510Y8400000D03*
X80319510Y8400000D03*
D19*
X80319510Y12580000D03*
G04 #@! TD*
D21*
G04 #@! TO.C,C11*
X94869510Y15192060D03*
X94869510Y14552060D03*
G04 #@! TD*
D11*
G04 #@! TO.C,KiKit_MB_6_5*
X35410490Y63579999D03*
G04 #@! TD*
D40*
G04 #@! TO.C,SW1*
X20745490Y43720000D03*
X20745490Y46420000D03*
X21895490Y43720000D03*
X21895490Y46420000D03*
G04 #@! TD*
D11*
G04 #@! TO.C,KiKit_MB_30_10*
X93589510Y7000001D03*
G04 #@! TD*
D34*
G04 #@! TO.C,U3*
X38845000Y18225000D03*
D35*
X38845000Y19495000D03*
X38845000Y20765000D03*
X38845000Y22035000D03*
X33155000Y22035000D03*
X33155000Y20765000D03*
X33155000Y19495000D03*
X33155000Y18225000D03*
D36*
X36000000Y20130000D03*
G04 #@! TD*
D10*
G04 #@! TO.C,C14*
X57880490Y55387940D03*
X57880490Y56027940D03*
G04 #@! TD*
D11*
G04 #@! TO.C,KiKit_MB_5_3*
X28637156Y40290499D03*
G04 #@! TD*
G04 #@! TO.C,KiKit_MB_44_7*
X110750000Y7000000D03*
G04 #@! TD*
G04 #@! TO.C,KiKit_MB_24_6*
X55989510Y7000001D03*
G04 #@! TD*
G04 #@! TO.C,KiKit_MB_27_11*
X72989510Y7000001D03*
G04 #@! TD*
G04 #@! TO.C,KiKit_MB_33_1*
X7000000Y37290000D03*
G04 #@! TD*
G04 #@! TO.C,KiKit_MB_9_3*
X54210490Y63579999D03*
G04 #@! TD*
D10*
G04 #@! TO.C,C12*
X93380490Y55387940D03*
X93380490Y56027940D03*
G04 #@! TD*
D21*
G04 #@! TO.C,C15*
X75950490Y47270000D03*
X75950490Y46630000D03*
G04 #@! TD*
D52*
G04 #@! TO.C,C5*
X20110490Y55240000D03*
X20110490Y56200000D03*
G04 #@! TD*
D10*
G04 #@! TO.C,R14*
X37449510Y23310000D03*
X37449510Y23950000D03*
G04 #@! TD*
D12*
G04 #@! TO.C,Q2*
X18679510Y25770000D03*
D13*
X19179510Y25770000D03*
X19679510Y25770000D03*
X19679510Y27270000D03*
X19179510Y27270000D03*
X18679510Y27270000D03*
G04 #@! TD*
D11*
G04 #@! TO.C,KiKit_MB_1_1*
X24030490Y40290773D03*
G04 #@! TD*
G04 #@! TO.C,KiKit_MB_3_7*
X16610490Y63579999D03*
G04 #@! TD*
G04 #@! TO.C,KiKit_MB_21_5*
X36589510Y7000001D03*
G04 #@! TD*
D25*
G04 #@! TO.C,Gemini1*
X47715000Y8590000D03*
D26*
X47000000Y8590000D03*
D25*
X47715000Y11130000D03*
D26*
X47000000Y11130000D03*
D25*
X47715000Y13670000D03*
D26*
X47000000Y13670000D03*
D25*
X47715000Y16210000D03*
D26*
X47000000Y16210000D03*
D25*
X47715000Y18750000D03*
D26*
X47000000Y18750000D03*
D25*
X47715000Y21290000D03*
D26*
X47000000Y21290000D03*
D25*
X47715000Y23830000D03*
D26*
X47000000Y23830000D03*
D25*
X47715000Y26370000D03*
D26*
X47000000Y26370000D03*
D25*
X47715000Y28910000D03*
D26*
X47000000Y28910000D03*
D27*
X50920000Y29575000D03*
D26*
X50920000Y30290000D03*
D27*
X53460000Y29575000D03*
D26*
X53460000Y30290000D03*
D27*
X56000000Y29609000D03*
D26*
X56000000Y30324000D03*
D27*
X58540000Y29575000D03*
D26*
X58540000Y30290000D03*
D27*
X61080000Y29575000D03*
D26*
X61080000Y30290000D03*
X65000000Y28910000D03*
D25*
X64285000Y28910000D03*
D26*
X65000000Y26370000D03*
D25*
X64285000Y26370000D03*
D28*
X61080000Y26370000D03*
D26*
X65000000Y23830000D03*
D25*
X64285000Y23830000D03*
D26*
X65000000Y21290000D03*
D25*
X64285000Y21290000D03*
D26*
X65000000Y18750000D03*
D25*
X64285000Y18750000D03*
D26*
X65000000Y16210000D03*
D25*
X64285000Y16210000D03*
D53*
X64556255Y13670000D03*
D54*
X63620000Y13670000D03*
D55*
X65000000Y11130000D03*
D56*
X64285000Y11130000D03*
D53*
X64556255Y8590000D03*
D54*
X63620000Y8590000D03*
G04 #@! TD*
D11*
G04 #@! TO.C,KiKit_MB_9_11*
X59010490Y63579999D03*
G04 #@! TD*
D24*
G04 #@! TO.C,C5*
X31889510Y15340000D03*
X31889510Y14380000D03*
G04 #@! TD*
D11*
G04 #@! TO.C,KiKit_MB_31_4*
X46000000Y35290000D03*
G04 #@! TD*
G04 #@! TO.C,KiKit_MB_14_3*
X88637156Y40290499D03*
G04 #@! TD*
D21*
G04 #@! TO.C,C12*
X58619510Y15192060D03*
X58619510Y14552060D03*
G04 #@! TD*
D11*
G04 #@! TO.C,KiKit_MB_31_5*
X46000000Y35956667D03*
G04 #@! TD*
D10*
G04 #@! TO.C,C16*
X59290490Y53640000D03*
X59290490Y54280000D03*
G04 #@! TD*
D11*
G04 #@! TO.C,KiKit_MB_17_2*
X22696176Y30289751D03*
G04 #@! TD*
D42*
G04 #@! TO.C,C13*
X100000490Y49450000D03*
X100640490Y49450000D03*
G04 #@! TD*
D11*
G04 #@! TO.C,KiKit_MB_12_2*
X73610490Y63579999D03*
G04 #@! TD*
G04 #@! TO.C,KiKit_MB_41_8*
X4375000Y63580000D03*
G04 #@! TD*
D10*
G04 #@! TO.C,C6*
X19990490Y53640000D03*
X19990490Y54280000D03*
G04 #@! TD*
D11*
G04 #@! TO.C,KiKit_MB_6_8*
X37210490Y63579999D03*
G04 #@! TD*
D21*
G04 #@! TO.C,C20*
X16650490Y47270000D03*
X16650490Y46630000D03*
G04 #@! TD*
D11*
G04 #@! TO.C,KiKit_MB_37_5*
X7000000Y68080000D03*
G04 #@! TD*
D10*
G04 #@! TO.C,C20*
X55349510Y23310000D03*
X55349510Y23950000D03*
G04 #@! TD*
D16*
G04 #@! TO.C,J1*
X58890490Y58500000D03*
X53110490Y58500000D03*
D17*
X59200490Y57425000D03*
X58400490Y57425000D03*
D18*
X57250490Y57425000D03*
X56250490Y57425000D03*
X55750490Y57425000D03*
X54750490Y57425000D03*
D17*
X53600490Y57425000D03*
X52800490Y57425000D03*
X52800490Y57425000D03*
X53600490Y57425000D03*
D18*
X54250490Y57425000D03*
X55250490Y57425000D03*
X56750490Y57425000D03*
X57750490Y57425000D03*
D17*
X58400490Y57425000D03*
X59200490Y57425000D03*
D19*
X60320490Y58000000D03*
D20*
X60320490Y62180000D03*
X51680490Y62180000D03*
D19*
X51680490Y58000000D03*
G04 #@! TD*
D21*
G04 #@! TO.C,C17*
X75250490Y47270000D03*
X75250490Y46630000D03*
G04 #@! TD*
D11*
G04 #@! TO.C,KiKit_MB_12_5*
X75410490Y63579999D03*
G04 #@! TD*
D10*
G04 #@! TO.C,R10*
X19149510Y16260000D03*
X19149510Y16900000D03*
G04 #@! TD*
D11*
G04 #@! TO.C,KiKit_MB_39_9*
X7000000Y0D03*
G04 #@! TD*
G04 #@! TO.C,KiKit_MB_7_2*
X63363823Y40290516D03*
G04 #@! TD*
D33*
G04 #@! TO.C,KiKit_TO_1*
X2500000Y68080000D03*
G04 #@! TD*
D12*
G04 #@! TO.C,Q2*
X58679510Y25770000D03*
D13*
X59179510Y25770000D03*
X59679510Y25770000D03*
X59679510Y27270000D03*
X59179510Y27270000D03*
X58679510Y27270000D03*
G04 #@! TD*
D11*
G04 #@! TO.C,KiKit_MB_44_4*
X108875000Y7000000D03*
G04 #@! TD*
G04 #@! TO.C,KiKit_MB_9_1*
X53010490Y63579999D03*
G04 #@! TD*
D21*
G04 #@! TO.C,R9*
X71420490Y54320000D03*
X71420490Y53680000D03*
G04 #@! TD*
D11*
G04 #@! TO.C,KiKit_MB_24_3*
X57789510Y7000001D03*
G04 #@! TD*
G04 #@! TO.C,KiKit_MB_3_10*
X18410490Y63579999D03*
G04 #@! TD*
G04 #@! TO.C,KiKit_MB_11_2*
X69303823Y40290250D03*
G04 #@! TD*
D21*
G04 #@! TO.C,R14*
X34550490Y47270000D03*
X34550490Y46630000D03*
G04 #@! TD*
D11*
G04 #@! TO.C,KiKit_MB_38_9*
X105000000Y65580000D03*
G04 #@! TD*
G04 #@! TO.C,KiKit_MB_33_5*
X7000000Y34623334D03*
G04 #@! TD*
G04 #@! TO.C,KiKit_MB_27_6*
X75989510Y7000001D03*
G04 #@! TD*
D10*
G04 #@! TO.C,C15*
X96049510Y23310000D03*
X96049510Y23950000D03*
G04 #@! TD*
D11*
G04 #@! TO.C,KiKit_MB_8_4*
X47970490Y40290748D03*
G04 #@! TD*
G04 #@! TO.C,KiKit_MB_31_7*
X46000000Y37290000D03*
G04 #@! TD*
G04 #@! TO.C,KiKit_MB_40_6*
X105000000Y1875000D03*
G04 #@! TD*
G04 #@! TO.C,KiKit_MB_21_11*
X32989510Y7000001D03*
G04 #@! TD*
G04 #@! TO.C,KiKit_MB_41_4*
X1875000Y63580000D03*
G04 #@! TD*
G04 #@! TO.C,KiKit_MB_40_2*
X105000000Y4375000D03*
G04 #@! TD*
G04 #@! TO.C,KiKit_MB_2_3*
X8637157Y40290499D03*
G04 #@! TD*
G04 #@! TO.C,KiKit_MB_9_4*
X54810490Y63579999D03*
G04 #@! TD*
D43*
G04 #@! TO.C,U5*
X93600490Y46050000D03*
D44*
X93600490Y46550000D03*
X93600490Y47050000D03*
X92100490Y47050000D03*
X92100490Y46550000D03*
X92100490Y46050000D03*
G04 #@! TD*
D37*
G04 #@! TO.C,U3*
X33155000Y52355000D03*
D38*
X33155000Y51085000D03*
X33155000Y49815000D03*
X33155000Y48545000D03*
X38845000Y48545000D03*
X38845000Y49815000D03*
X38845000Y51085000D03*
X38845000Y52355000D03*
D39*
X36000000Y50450000D03*
G04 #@! TD*
D11*
G04 #@! TO.C,KiKit_MB_44_8*
X111375000Y7000000D03*
G04 #@! TD*
G04 #@! TO.C,KiKit_MB_38_5*
X105000000Y68080000D03*
G04 #@! TD*
G04 #@! TO.C,KiKit_MB_31_2*
X46000000Y33956667D03*
G04 #@! TD*
D10*
G04 #@! TO.C,C9*
X97869510Y14552060D03*
X97869510Y15192060D03*
G04 #@! TD*
D11*
G04 #@! TO.C,KiKit_MB_30_3*
X97789510Y7000001D03*
G04 #@! TD*
G04 #@! TO.C,KiKit_MB_34_6*
X26000000Y33956667D03*
G04 #@! TD*
D43*
G04 #@! TO.C,U5*
X53600490Y46050000D03*
D44*
X53600490Y46550000D03*
X53600490Y47050000D03*
X52100490Y47050000D03*
X52100490Y46550000D03*
X52100490Y46050000D03*
G04 #@! TD*
D21*
G04 #@! TO.C,C19*
X53369510Y15192060D03*
X53369510Y14552060D03*
G04 #@! TD*
D11*
G04 #@! TO.C,KiKit_MB_24_11*
X52989510Y7000001D03*
G04 #@! TD*
G04 #@! TO.C,KiKit_MB_43_9*
X112000000Y63580000D03*
G04 #@! TD*
D21*
G04 #@! TO.C,C18*
X19869510Y16900000D03*
X19869510Y16260000D03*
G04 #@! TD*
D16*
G04 #@! TO.C,J1*
X98890490Y58500000D03*
X93110490Y58500000D03*
D17*
X99200490Y57425000D03*
X98400490Y57425000D03*
D18*
X97250490Y57425000D03*
X96250490Y57425000D03*
X95750490Y57425000D03*
X94750490Y57425000D03*
D17*
X93600490Y57425000D03*
X92800490Y57425000D03*
X92800490Y57425000D03*
X93600490Y57425000D03*
D18*
X94250490Y57425000D03*
X95250490Y57425000D03*
X96750490Y57425000D03*
X97750490Y57425000D03*
D17*
X98400490Y57425000D03*
X99200490Y57425000D03*
D19*
X100320490Y58000000D03*
D20*
X100320490Y62180000D03*
X91680490Y62180000D03*
D19*
X91680490Y58000000D03*
G04 #@! TD*
D11*
G04 #@! TO.C,KiKit_MB_24_1*
X58989510Y7000001D03*
G04 #@! TD*
D34*
G04 #@! TO.C,U3*
X78845000Y18225000D03*
D35*
X78845000Y19495000D03*
X78845000Y20765000D03*
X78845000Y22035000D03*
X73155000Y22035000D03*
X73155000Y20765000D03*
X73155000Y19495000D03*
X73155000Y18225000D03*
D36*
X76000000Y20130000D03*
G04 #@! TD*
D47*
G04 #@! TO.C,D2*
X15124106Y45540001D03*
D48*
X15124106Y44440001D03*
X16954106Y44440001D03*
X16954106Y45540001D03*
G04 #@! TD*
D11*
G04 #@! TO.C,KiKit_MB_19_1*
X27969510Y30289228D03*
G04 #@! TD*
G04 #@! TO.C,KiKit_MB_31_1*
X46000000Y33290000D03*
G04 #@! TD*
D10*
G04 #@! TO.C,C9*
X37869510Y14552060D03*
X37869510Y15192060D03*
G04 #@! TD*
D21*
G04 #@! TO.C,C15*
X35950490Y47270000D03*
X35950490Y46630000D03*
G04 #@! TD*
D11*
G04 #@! TO.C,KiKit_MB_36_3*
X105000000Y35956667D03*
G04 #@! TD*
G04 #@! TO.C,KiKit_MB_44_9*
X112000000Y7000000D03*
G04 #@! TD*
D10*
G04 #@! TO.C,C14*
X97880490Y55387940D03*
X97880490Y56027940D03*
G04 #@! TD*
G04 #@! TO.C,C15*
X56049510Y23310000D03*
X56049510Y23950000D03*
G04 #@! TD*
D11*
G04 #@! TO.C,KiKit_MB_32_6*
X66000000Y33956667D03*
G04 #@! TD*
D42*
G04 #@! TO.C,C13*
X20000490Y49450000D03*
X20640490Y49450000D03*
G04 #@! TD*
D21*
G04 #@! TO.C,C6*
X92009510Y16940000D03*
X92009510Y16300000D03*
G04 #@! TD*
D10*
G04 #@! TO.C,C10*
X77119510Y14550000D03*
X77119510Y15190000D03*
G04 #@! TD*
D21*
G04 #@! TO.C,C6*
X52009510Y16940000D03*
X52009510Y16300000D03*
G04 #@! TD*
D11*
G04 #@! TO.C,KiKit_MB_29_4*
X104029510Y30289253D03*
G04 #@! TD*
D10*
G04 #@! TO.C,C18*
X72130490Y53680000D03*
X72130490Y54320000D03*
G04 #@! TD*
D12*
G04 #@! TO.C,Q1*
X12299510Y25770000D03*
D13*
X12799510Y25770000D03*
X13299510Y25770000D03*
X13299510Y27270000D03*
X12799510Y27270000D03*
X12299510Y27270000D03*
G04 #@! TD*
D10*
G04 #@! TO.C,C12*
X73380490Y55387940D03*
X73380490Y56027940D03*
G04 #@! TD*
G04 #@! TO.C,C12*
X33380490Y55387940D03*
X33380490Y56027940D03*
G04 #@! TD*
D11*
G04 #@! TO.C,KiKit_MB_37_6*
X7000000Y67455000D03*
G04 #@! TD*
D25*
G04 #@! TO.C,Gemini1*
X24285000Y61990000D03*
D26*
X25000000Y61990000D03*
D25*
X24285000Y59450000D03*
D26*
X25000000Y59450000D03*
D25*
X24285000Y56910000D03*
D26*
X25000000Y56910000D03*
D25*
X24285000Y54370000D03*
D26*
X25000000Y54370000D03*
D25*
X24285000Y51830000D03*
D26*
X25000000Y51830000D03*
D25*
X24285000Y49290000D03*
D26*
X25000000Y49290000D03*
D25*
X24285000Y46750000D03*
D26*
X25000000Y46750000D03*
D25*
X24285000Y44210000D03*
D26*
X25000000Y44210000D03*
D25*
X24285000Y41670000D03*
D26*
X25000000Y41670000D03*
D27*
X21080000Y41005000D03*
D26*
X21080000Y40290000D03*
D27*
X18540000Y41005000D03*
D26*
X18540000Y40290000D03*
D27*
X16000000Y40971000D03*
D26*
X16000000Y40256000D03*
D27*
X13460000Y41005000D03*
D26*
X13460000Y40290000D03*
D27*
X10920000Y41005000D03*
D26*
X10920000Y40290000D03*
X7000000Y41670000D03*
D25*
X7715000Y41670000D03*
D26*
X7000000Y44210000D03*
D25*
X7715000Y44210000D03*
D28*
X10920000Y44210000D03*
D26*
X7000000Y46750000D03*
D25*
X7715000Y46750000D03*
D26*
X7000000Y49290000D03*
D25*
X7715000Y49290000D03*
D26*
X7000000Y51830000D03*
D25*
X7715000Y51830000D03*
D26*
X7000000Y54370000D03*
D25*
X7715000Y54370000D03*
D29*
X7443745Y56910000D03*
D30*
X8380000Y56910000D03*
D31*
X7000000Y59450000D03*
D32*
X7715000Y59450000D03*
D29*
X7443745Y61990000D03*
D30*
X8380000Y61990000D03*
G04 #@! TD*
D10*
G04 #@! TO.C,C9*
X17869510Y14552060D03*
X17869510Y15192060D03*
G04 #@! TD*
D11*
G04 #@! TO.C,KiKit_MB_38_6*
X105000000Y67455000D03*
G04 #@! TD*
D12*
G04 #@! TO.C,Q1*
X52299510Y25770000D03*
D13*
X52799510Y25770000D03*
X53299510Y25770000D03*
X53299510Y27270000D03*
X52799510Y27270000D03*
X52299510Y27270000D03*
G04 #@! TD*
M02*
