G04 #@! TF.GenerationSoftware,KiCad,Pcbnew,8.0.1-8.0.1-1~ubuntu22.04.1*
G04 #@! TF.CreationDate,2024-08-08T21:33:10+00:00*
G04 #@! TF.ProjectId,gemini-panel,67656d69-6e69-42d7-9061-6e656c2e6b69,1.0*
G04 #@! TF.SameCoordinates,Original*
G04 #@! TF.FileFunction,Paste,Top*
G04 #@! TF.FilePolarity,Positive*
%FSLAX46Y46*%
G04 Gerber Fmt 4.6, Leading zero omitted, Abs format (unit mm)*
G04 Created by KiCad (PCBNEW 8.0.1-8.0.1-1~ubuntu22.04.1) date 2024-08-08 21:33:10*
%MOMM*%
%LPD*%
G01*
G04 APERTURE LIST*
G04 Aperture macros list*
%AMRoundRect*
0 Rectangle with rounded corners*
0 $1 Rounding radius*
0 $2 $3 $4 $5 $6 $7 $8 $9 X,Y pos of 4 corners*
0 Add a 4 corners polygon primitive as box body*
4,1,4,$2,$3,$4,$5,$6,$7,$8,$9,$2,$3,0*
0 Add four circle primitives for the rounded corners*
1,1,$1+$1,$2,$3*
1,1,$1+$1,$4,$5*
1,1,$1+$1,$6,$7*
1,1,$1+$1,$8,$9*
0 Add four rect primitives between the rounded corners*
20,1,$1+$1,$2,$3,$4,$5,0*
20,1,$1+$1,$4,$5,$6,$7,0*
20,1,$1+$1,$6,$7,$8,$9,0*
20,1,$1+$1,$8,$9,$2,$3,0*%
%AMOutline5P*
0 Free polygon, 5 corners , with rotation*
0 The origin of the aperture is its center*
0 number of corners: always 5*
0 $1 to $10 corner X, Y*
0 $11 Rotation angle, in degrees counterclockwise*
0 create outline with 5 corners*
4,1,5,$1,$2,$3,$4,$5,$6,$7,$8,$9,$10,$1,$2,$11*%
%AMOutline6P*
0 Free polygon, 6 corners , with rotation*
0 The origin of the aperture is its center*
0 number of corners: always 6*
0 $1 to $12 corner X, Y*
0 $13 Rotation angle, in degrees counterclockwise*
0 create outline with 6 corners*
4,1,6,$1,$2,$3,$4,$5,$6,$7,$8,$9,$10,$11,$12,$1,$2,$13*%
%AMOutline7P*
0 Free polygon, 7 corners , with rotation*
0 The origin of the aperture is its center*
0 number of corners: always 7*
0 $1 to $14 corner X, Y*
0 $15 Rotation angle, in degrees counterclockwise*
0 create outline with 7 corners*
4,1,7,$1,$2,$3,$4,$5,$6,$7,$8,$9,$10,$11,$12,$13,$14,$1,$2,$15*%
%AMOutline8P*
0 Free polygon, 8 corners , with rotation*
0 The origin of the aperture is its center*
0 number of corners: always 8*
0 $1 to $16 corner X, Y*
0 $17 Rotation angle, in degrees counterclockwise*
0 create outline with 8 corners*
4,1,8,$1,$2,$3,$4,$5,$6,$7,$8,$9,$10,$11,$12,$13,$14,$15,$16,$1,$2,$17*%
%AMFreePoly0*
4,1,18,-0.520000,0.066000,-0.366000,0.220000,0.493600,0.220000,0.503703,0.217990,0.512268,0.212268,0.517990,0.203703,0.520000,0.193600,0.520000,-0.193600,0.517990,-0.203703,0.512268,-0.212268,0.503703,-0.217990,0.493600,-0.220000,-0.493600,-0.220000,-0.503703,-0.217990,-0.512268,-0.212268,-0.517990,-0.203703,-0.520000,-0.193600,-0.520000,0.066000,-0.520000,0.066000,$1*%
%AMFreePoly1*
4,1,18,-0.350000,0.070000,-0.070000,0.350000,0.175000,0.350000,0.241970,0.336679,0.298744,0.298744,0.336679,0.241970,0.350000,0.175000,0.350000,-0.175000,0.336679,-0.241970,0.298744,-0.298744,0.241970,-0.336679,0.175000,-0.350000,-0.175000,-0.350000,-0.241970,-0.336679,-0.298744,-0.298744,-0.336679,-0.241970,-0.350000,-0.175000,-0.350000,0.070000,-0.350000,0.070000,$1*%
G04 Aperture macros list end*
%ADD10C,0.010000*%
%ADD11RoundRect,0.079500X0.100500X-0.079500X0.100500X0.079500X-0.100500X0.079500X-0.100500X-0.079500X0*%
%ADD12Outline5P,-0.350000X0.051000X-0.231000X0.170000X0.350000X0.170000X0.350000X-0.170000X-0.350000X-0.170000X90.000000*%
%ADD13R,0.340000X0.700000*%
%ADD14Outline5P,-0.350000X0.051000X-0.231000X0.170000X0.350000X0.170000X0.350000X-0.170000X-0.350000X-0.170000X0.000000*%
%ADD15R,0.700000X0.340000*%
%ADD16RoundRect,0.150000X0.150000X0.425000X-0.150000X0.425000X-0.150000X-0.425000X0.150000X-0.425000X0*%
%ADD17RoundRect,0.075000X0.075000X0.500000X-0.075000X0.500000X-0.075000X-0.500000X0.075000X-0.500000X0*%
%ADD18O,1.000000X2.100000*%
%ADD19O,1.000000X1.800000*%
%ADD20RoundRect,0.079500X-0.100500X0.079500X-0.100500X-0.079500X0.100500X-0.079500X0.100500X0.079500X0*%
%ADD21Outline5P,-0.350000X0.051000X-0.231000X0.170000X0.350000X0.170000X0.350000X-0.170000X-0.350000X-0.170000X270.000000*%
%ADD22RoundRect,0.140000X-0.170000X0.140000X-0.170000X-0.140000X0.170000X-0.140000X0.170000X0.140000X0*%
%ADD23FreePoly0,180.000000*%
%ADD24RoundRect,0.026400X0.493600X0.193600X-0.493600X0.193600X-0.493600X-0.193600X0.493600X-0.193600X0*%
%ADD25FreePoly0,0.000000*%
%ADD26RoundRect,0.026400X-0.493600X-0.193600X0.493600X-0.193600X0.493600X0.193600X-0.493600X0.193600X0*%
%ADD27RoundRect,0.137500X0.137500X-0.212500X0.137500X0.212500X-0.137500X0.212500X-0.137500X-0.212500X0*%
%ADD28RoundRect,0.137500X-0.137500X0.212500X-0.137500X-0.212500X0.137500X-0.212500X0.137500X0.212500X0*%
%ADD29RoundRect,0.079500X-0.079500X-0.100500X0.079500X-0.100500X0.079500X0.100500X-0.079500X0.100500X0*%
%ADD30Outline5P,-0.350000X0.051000X-0.231000X0.170000X0.350000X0.170000X0.350000X-0.170000X-0.350000X-0.170000X180.000000*%
%ADD31FreePoly1,180.000000*%
%ADD32RoundRect,0.175000X0.175000X0.175000X-0.175000X0.175000X-0.175000X-0.175000X0.175000X-0.175000X0*%
%ADD33FreePoly1,0.000000*%
%ADD34RoundRect,0.175000X-0.175000X-0.175000X0.175000X-0.175000X0.175000X0.175000X-0.175000X0.175000X0*%
%ADD35RoundRect,0.150000X-0.150000X-0.425000X0.150000X-0.425000X0.150000X0.425000X-0.150000X0.425000X0*%
%ADD36RoundRect,0.075000X-0.075000X-0.500000X0.075000X-0.500000X0.075000X0.500000X-0.075000X0.500000X0*%
%ADD37RoundRect,0.079500X0.079500X0.100500X-0.079500X0.100500X-0.079500X-0.100500X0.079500X-0.100500X0*%
%ADD38RoundRect,0.140000X0.170000X-0.140000X0.170000X0.140000X-0.170000X0.140000X-0.170000X-0.140000X0*%
%ADD39C,2.000000*%
G04 APERTURE END LIST*
D10*
G04 #@! TO.C,U3*
X57080000Y18770000D02*
X54920000Y18770000D01*
X54920000Y21490000D01*
X57080000Y21490000D01*
X57080000Y18770000D01*
G36*
X57080000Y18770000D02*
G01*
X54920000Y18770000D01*
X54920000Y21490000D01*
X57080000Y21490000D01*
X57080000Y18770000D01*
G37*
X77080000Y49090000D02*
X74920000Y49090000D01*
X74920000Y51810000D01*
X77080000Y51810000D01*
X77080000Y49090000D01*
G36*
X77080000Y49090000D02*
G01*
X74920000Y49090000D01*
X74920000Y51810000D01*
X77080000Y51810000D01*
X77080000Y49090000D01*
G37*
X57080000Y49090000D02*
X54920000Y49090000D01*
X54920000Y51810000D01*
X57080000Y51810000D01*
X57080000Y49090000D01*
G36*
X57080000Y49090000D02*
G01*
X54920000Y49090000D01*
X54920000Y51810000D01*
X57080000Y51810000D01*
X57080000Y49090000D01*
G37*
X97080000Y49090000D02*
X94920000Y49090000D01*
X94920000Y51810000D01*
X97080000Y51810000D01*
X97080000Y49090000D01*
G36*
X97080000Y49090000D02*
G01*
X94920000Y49090000D01*
X94920000Y51810000D01*
X97080000Y51810000D01*
X97080000Y49090000D01*
G37*
X17080000Y49090000D02*
X14920000Y49090000D01*
X14920000Y51810000D01*
X17080000Y51810000D01*
X17080000Y49090000D01*
G36*
X17080000Y49090000D02*
G01*
X14920000Y49090000D01*
X14920000Y51810000D01*
X17080000Y51810000D01*
X17080000Y49090000D01*
G37*
X97080000Y18770000D02*
X94920000Y18770000D01*
X94920000Y21490000D01*
X97080000Y21490000D01*
X97080000Y18770000D01*
G36*
X97080000Y18770000D02*
G01*
X94920000Y18770000D01*
X94920000Y21490000D01*
X97080000Y21490000D01*
X97080000Y18770000D01*
G37*
X17080000Y18770000D02*
X14920000Y18770000D01*
X14920000Y21490000D01*
X17080000Y21490000D01*
X17080000Y18770000D01*
G36*
X17080000Y18770000D02*
G01*
X14920000Y18770000D01*
X14920000Y21490000D01*
X17080000Y21490000D01*
X17080000Y18770000D01*
G37*
X37080000Y18770000D02*
X34920000Y18770000D01*
X34920000Y21490000D01*
X37080000Y21490000D01*
X37080000Y18770000D01*
G36*
X37080000Y18770000D02*
G01*
X34920000Y18770000D01*
X34920000Y21490000D01*
X37080000Y21490000D01*
X37080000Y18770000D01*
G37*
X37080000Y49090000D02*
X34920000Y49090000D01*
X34920000Y51810000D01*
X37080000Y51810000D01*
X37080000Y49090000D01*
G36*
X37080000Y49090000D02*
G01*
X34920000Y49090000D01*
X34920000Y51810000D01*
X37080000Y51810000D01*
X37080000Y49090000D01*
G37*
X77080000Y18770000D02*
X74920000Y18770000D01*
X74920000Y21490000D01*
X77080000Y21490000D01*
X77080000Y18770000D01*
G36*
X77080000Y18770000D02*
G01*
X74920000Y18770000D01*
X74920000Y21490000D01*
X77080000Y21490000D01*
X77080000Y18770000D01*
G37*
G04 #@! TD*
D11*
G04 #@! TO.C,C19*
X58630490Y55362940D03*
X58630490Y56052940D03*
G04 #@! TD*
G04 #@! TO.C,R10*
X99149510Y16235000D03*
X99149510Y16925000D03*
G04 #@! TD*
G04 #@! TO.C,C19*
X38630490Y55362940D03*
X38630490Y56052940D03*
G04 #@! TD*
G04 #@! TO.C,C6*
X79990490Y53615000D03*
X79990490Y54305000D03*
G04 #@! TD*
G04 #@! TO.C,C16*
X79290490Y53615000D03*
X79290490Y54305000D03*
G04 #@! TD*
D12*
G04 #@! TO.C,Q2*
X98679510Y25770000D03*
D13*
X99179510Y25770000D03*
X99679510Y25770000D03*
X99679510Y27270000D03*
X99179510Y27270000D03*
X98679510Y27270000D03*
G04 #@! TD*
D14*
G04 #@! TO.C,U5*
X78399510Y24530000D03*
D15*
X78399510Y24030000D03*
X78399510Y23530000D03*
X79899510Y23530000D03*
X79899510Y24030000D03*
X79899510Y24530000D03*
G04 #@! TD*
D16*
G04 #@! TO.C,J1*
X79200490Y57425000D03*
X78400490Y57425000D03*
D17*
X77250490Y57425000D03*
X76250490Y57425000D03*
X75750490Y57425000D03*
X74750490Y57425000D03*
D16*
X73600490Y57425000D03*
X72800490Y57425000D03*
X72800490Y57425000D03*
X73600490Y57425000D03*
D17*
X74250490Y57425000D03*
X75250490Y57425000D03*
X76750490Y57425000D03*
X77750490Y57425000D03*
D16*
X78400490Y57425000D03*
X79200490Y57425000D03*
D18*
X80320490Y58000000D03*
D19*
X80320490Y62180000D03*
X71680490Y62180000D03*
D18*
X71680490Y58000000D03*
G04 #@! TD*
D20*
G04 #@! TO.C,C17*
X55250490Y47295000D03*
X55250490Y46605000D03*
G04 #@! TD*
G04 #@! TO.C,C17*
X95250490Y47295000D03*
X95250490Y46605000D03*
G04 #@! TD*
D11*
G04 #@! TO.C,R9*
X100579510Y16235000D03*
X100579510Y16925000D03*
G04 #@! TD*
D21*
G04 #@! TO.C,Q2*
X73320490Y44810000D03*
D13*
X72820490Y44810000D03*
X72320490Y44810000D03*
X72320490Y43310000D03*
X72820490Y43310000D03*
X73320490Y43310000D03*
G04 #@! TD*
D22*
G04 #@! TO.C,C5*
X51889510Y15340000D03*
X51889510Y14380000D03*
G04 #@! TD*
D11*
G04 #@! TO.C,C18*
X12130490Y53655000D03*
X12130490Y54345000D03*
G04 #@! TD*
D20*
G04 #@! TO.C,C18*
X59869510Y16925000D03*
X59869510Y16235000D03*
G04 #@! TD*
D11*
G04 #@! TO.C,C10*
X37119510Y14525000D03*
X37119510Y15215000D03*
G04 #@! TD*
D12*
G04 #@! TO.C,Q1*
X72299510Y25770000D03*
D13*
X72799510Y25770000D03*
X73299510Y25770000D03*
X73299510Y27270000D03*
X72799510Y27270000D03*
X72299510Y27270000D03*
G04 #@! TD*
D22*
G04 #@! TO.C,C5*
X91889510Y15340000D03*
X91889510Y14380000D03*
G04 #@! TD*
D23*
G04 #@! TO.C,U3*
X58845000Y18225000D03*
D24*
X58845000Y19495000D03*
X58845000Y20765000D03*
X58845000Y22035000D03*
X53155000Y22035000D03*
X53155000Y20765000D03*
X53155000Y19495000D03*
X53155000Y18225000D03*
G04 #@! TD*
D25*
G04 #@! TO.C,U3*
X73155000Y52355000D03*
D26*
X73155000Y51085000D03*
X73155000Y49815000D03*
X73155000Y48545000D03*
X78845000Y48545000D03*
X78845000Y49815000D03*
X78845000Y51085000D03*
X78845000Y52355000D03*
G04 #@! TD*
D27*
G04 #@! TO.C,SW1*
X100745490Y43720000D03*
X100745490Y46420000D03*
X101895490Y43720000D03*
X101895490Y46420000D03*
G04 #@! TD*
D28*
G04 #@! TO.C,SW1*
X91254510Y26860000D03*
X91254510Y24160000D03*
X90104510Y26860000D03*
X90104510Y24160000D03*
G04 #@! TD*
D20*
G04 #@! TO.C,C16*
X92709510Y16965000D03*
X92709510Y16275000D03*
G04 #@! TD*
D11*
G04 #@! TO.C,C16*
X19290490Y53615000D03*
X19290490Y54305000D03*
G04 #@! TD*
D29*
G04 #@! TO.C,C13*
X59975490Y49450000D03*
X60665490Y49450000D03*
G04 #@! TD*
D11*
G04 #@! TO.C,C11*
X77130490Y55362940D03*
X77130490Y56052940D03*
G04 #@! TD*
D30*
G04 #@! TO.C,U5*
X13600490Y46050000D03*
D15*
X13600490Y46550000D03*
X13600490Y47050000D03*
X12100490Y47050000D03*
X12100490Y46550000D03*
X12100490Y46050000D03*
G04 #@! TD*
D11*
G04 #@! TO.C,C6*
X39990490Y53615000D03*
X39990490Y54305000D03*
G04 #@! TD*
D31*
G04 #@! TO.C,D2*
X36875894Y25039999D03*
D32*
X36875894Y26139999D03*
X35045894Y26139999D03*
X35045894Y25039999D03*
G04 #@! TD*
D12*
G04 #@! TO.C,Q1*
X32299510Y25770000D03*
D13*
X32799510Y25770000D03*
X33299510Y25770000D03*
X33299510Y27270000D03*
X32799510Y27270000D03*
X32299510Y27270000D03*
G04 #@! TD*
D20*
G04 #@! TO.C,R9*
X51420490Y54345000D03*
X51420490Y53655000D03*
G04 #@! TD*
G04 #@! TO.C,C14*
X54119510Y15217060D03*
X54119510Y14527060D03*
G04 #@! TD*
G04 #@! TO.C,C10*
X34880490Y56055000D03*
X34880490Y55365000D03*
G04 #@! TD*
D11*
G04 #@! TO.C,R10*
X59149510Y16235000D03*
X59149510Y16925000D03*
G04 #@! TD*
D20*
G04 #@! TO.C,C15*
X55950490Y47295000D03*
X55950490Y46605000D03*
G04 #@! TD*
D31*
G04 #@! TO.C,D2*
X16875894Y25039999D03*
D32*
X16875894Y26139999D03*
X15045894Y26139999D03*
X15045894Y25039999D03*
G04 #@! TD*
D28*
G04 #@! TO.C,SW1*
X11254510Y26860000D03*
X11254510Y24160000D03*
X10104510Y26860000D03*
X10104510Y24160000D03*
G04 #@! TD*
D33*
G04 #@! TO.C,D2*
X35124106Y45540001D03*
D34*
X35124106Y44440001D03*
X36954106Y44440001D03*
X36954106Y45540001D03*
G04 #@! TD*
D20*
G04 #@! TO.C,C12*
X78619510Y15217060D03*
X78619510Y14527060D03*
G04 #@! TD*
G04 #@! TO.C,C12*
X38619510Y15217060D03*
X38619510Y14527060D03*
G04 #@! TD*
D21*
G04 #@! TO.C,Q2*
X93320490Y44810000D03*
D13*
X92820490Y44810000D03*
X92320490Y44810000D03*
X92320490Y43310000D03*
X92820490Y43310000D03*
X93320490Y43310000D03*
G04 #@! TD*
D20*
G04 #@! TO.C,C20*
X96650490Y47295000D03*
X96650490Y46605000D03*
G04 #@! TD*
D11*
G04 #@! TO.C,R9*
X40579510Y16235000D03*
X40579510Y16925000D03*
G04 #@! TD*
D28*
G04 #@! TO.C,SW1*
X71254510Y26860000D03*
X71254510Y24160000D03*
X70104510Y26860000D03*
X70104510Y24160000D03*
G04 #@! TD*
D20*
G04 #@! TO.C,C6*
X32009510Y16965000D03*
X32009510Y16275000D03*
G04 #@! TD*
D25*
G04 #@! TO.C,U3*
X53155000Y52355000D03*
D26*
X53155000Y51085000D03*
X53155000Y49815000D03*
X53155000Y48545000D03*
X58845000Y48545000D03*
X58845000Y49815000D03*
X58845000Y51085000D03*
X58845000Y52355000D03*
G04 #@! TD*
D11*
G04 #@! TO.C,C17*
X56749510Y23285000D03*
X56749510Y23975000D03*
G04 #@! TD*
D20*
G04 #@! TO.C,C9*
X14130490Y56052940D03*
X14130490Y55362940D03*
G04 #@! TD*
D21*
G04 #@! TO.C,Q1*
X59700490Y44810000D03*
D13*
X59200490Y44810000D03*
X58700490Y44810000D03*
X58700490Y43310000D03*
X59200490Y43310000D03*
X59700490Y43310000D03*
G04 #@! TD*
D20*
G04 #@! TO.C,C19*
X73369510Y15217060D03*
X73369510Y14527060D03*
G04 #@! TD*
G04 #@! TO.C,C12*
X98619510Y15217060D03*
X98619510Y14527060D03*
G04 #@! TD*
D11*
G04 #@! TO.C,C20*
X35349510Y23285000D03*
X35349510Y23975000D03*
G04 #@! TD*
D30*
G04 #@! TO.C,U5*
X73600490Y46050000D03*
D15*
X73600490Y46550000D03*
X73600490Y47050000D03*
X72100490Y47050000D03*
X72100490Y46550000D03*
X72100490Y46050000D03*
G04 #@! TD*
D11*
G04 #@! TO.C,C15*
X36049510Y23285000D03*
X36049510Y23975000D03*
G04 #@! TD*
D20*
G04 #@! TO.C,C19*
X93369510Y15217060D03*
X93369510Y14527060D03*
G04 #@! TD*
G04 #@! TO.C,R10*
X12850490Y54345000D03*
X12850490Y53655000D03*
G04 #@! TD*
D11*
G04 #@! TO.C,C12*
X53380490Y55362940D03*
X53380490Y56052940D03*
G04 #@! TD*
D20*
G04 #@! TO.C,C11*
X34869510Y15217060D03*
X34869510Y14527060D03*
G04 #@! TD*
D35*
G04 #@! TO.C,J1*
X32799510Y13155000D03*
X33599510Y13155000D03*
D36*
X34749510Y13155000D03*
X35749510Y13155000D03*
X36249510Y13155000D03*
X37249510Y13155000D03*
D35*
X38399510Y13155000D03*
X39199510Y13155000D03*
X39199510Y13155000D03*
X38399510Y13155000D03*
D36*
X37749510Y13155000D03*
X36749510Y13155000D03*
X35249510Y13155000D03*
X34249510Y13155000D03*
D35*
X33599510Y13155000D03*
X32799510Y13155000D03*
D18*
X31679510Y12580000D03*
D19*
X31679510Y8400000D03*
X40319510Y8400000D03*
D18*
X40319510Y12580000D03*
G04 #@! TD*
D33*
G04 #@! TO.C,D2*
X75124106Y45540001D03*
D34*
X75124106Y44440001D03*
X76954106Y44440001D03*
X76954106Y45540001D03*
G04 #@! TD*
D20*
G04 #@! TO.C,R9*
X31420490Y54345000D03*
X31420490Y53655000D03*
G04 #@! TD*
G04 #@! TO.C,R10*
X52850490Y54345000D03*
X52850490Y53655000D03*
G04 #@! TD*
D12*
G04 #@! TO.C,Q2*
X78679510Y25770000D03*
D13*
X79179510Y25770000D03*
X79679510Y25770000D03*
X79679510Y27270000D03*
X79179510Y27270000D03*
X78679510Y27270000D03*
G04 #@! TD*
D37*
G04 #@! TO.C,C13*
X32024510Y21130000D03*
X31334510Y21130000D03*
G04 #@! TD*
D20*
G04 #@! TO.C,C17*
X35250490Y47295000D03*
X35250490Y46605000D03*
G04 #@! TD*
D38*
G04 #@! TO.C,C4*
X70969510Y14380000D03*
X70969510Y15340000D03*
G04 #@! TD*
D11*
G04 #@! TO.C,R10*
X79149510Y16235000D03*
X79149510Y16925000D03*
G04 #@! TD*
D35*
G04 #@! TO.C,J1*
X12799510Y13155000D03*
X13599510Y13155000D03*
D36*
X14749510Y13155000D03*
X15749510Y13155000D03*
X16249510Y13155000D03*
X17249510Y13155000D03*
D35*
X18399510Y13155000D03*
X19199510Y13155000D03*
X19199510Y13155000D03*
X18399510Y13155000D03*
D36*
X17749510Y13155000D03*
X16749510Y13155000D03*
X15249510Y13155000D03*
X14249510Y13155000D03*
D35*
X13599510Y13155000D03*
X12799510Y13155000D03*
D18*
X11679510Y12580000D03*
D19*
X11679510Y8400000D03*
X20319510Y8400000D03*
D18*
X20319510Y12580000D03*
G04 #@! TD*
D20*
G04 #@! TO.C,C14*
X14119510Y15217060D03*
X14119510Y14527060D03*
G04 #@! TD*
D11*
G04 #@! TO.C,C15*
X16049510Y23285000D03*
X16049510Y23975000D03*
G04 #@! TD*
D22*
G04 #@! TO.C,C4*
X101030490Y56200000D03*
X101030490Y55240000D03*
G04 #@! TD*
D11*
G04 #@! TO.C,C12*
X13380490Y55362940D03*
X13380490Y56052940D03*
G04 #@! TD*
D20*
G04 #@! TO.C,C9*
X94130490Y56052940D03*
X94130490Y55362940D03*
G04 #@! TD*
G04 #@! TO.C,C14*
X94119510Y15217060D03*
X94119510Y14527060D03*
G04 #@! TD*
D39*
G04 #@! TO.C,KiKit_TO_3*
X2500000Y2500000D03*
G04 #@! TD*
D14*
G04 #@! TO.C,U5*
X18399510Y24530000D03*
D15*
X18399510Y24030000D03*
X18399510Y23530000D03*
X19899510Y23530000D03*
X19899510Y24030000D03*
X19899510Y24530000D03*
G04 #@! TD*
D11*
G04 #@! TO.C,C17*
X76749510Y23285000D03*
X76749510Y23975000D03*
G04 #@! TD*
D20*
G04 #@! TO.C,C9*
X74130490Y56052940D03*
X74130490Y55362940D03*
G04 #@! TD*
D11*
G04 #@! TO.C,C11*
X17130490Y55362940D03*
X17130490Y56052940D03*
G04 #@! TD*
D20*
G04 #@! TO.C,C16*
X72709510Y16965000D03*
X72709510Y16275000D03*
G04 #@! TD*
D22*
G04 #@! TO.C,C4*
X81030490Y56200000D03*
X81030490Y55240000D03*
G04 #@! TD*
D20*
G04 #@! TO.C,C9*
X54130490Y56052940D03*
X54130490Y55362940D03*
G04 #@! TD*
D27*
G04 #@! TO.C,SW1*
X40745490Y43720000D03*
X40745490Y46420000D03*
X41895490Y43720000D03*
X41895490Y46420000D03*
G04 #@! TD*
D11*
G04 #@! TO.C,R9*
X80579510Y16235000D03*
X80579510Y16925000D03*
G04 #@! TD*
D20*
G04 #@! TO.C,R9*
X11420490Y54345000D03*
X11420490Y53655000D03*
G04 #@! TD*
D38*
G04 #@! TO.C,C5*
X60110490Y55240000D03*
X60110490Y56200000D03*
G04 #@! TD*
D25*
G04 #@! TO.C,U3*
X93155000Y52355000D03*
D26*
X93155000Y51085000D03*
X93155000Y49815000D03*
X93155000Y48545000D03*
X98845000Y48545000D03*
X98845000Y49815000D03*
X98845000Y51085000D03*
X98845000Y52355000D03*
G04 #@! TD*
D22*
G04 #@! TO.C,C4*
X21030490Y56200000D03*
X21030490Y55240000D03*
G04 #@! TD*
D11*
G04 #@! TO.C,C10*
X97119510Y14525000D03*
X97119510Y15215000D03*
G04 #@! TD*
D20*
G04 #@! TO.C,C10*
X94880490Y56055000D03*
X94880490Y55365000D03*
G04 #@! TD*
D11*
G04 #@! TO.C,C17*
X96749510Y23285000D03*
X96749510Y23975000D03*
G04 #@! TD*
D20*
G04 #@! TO.C,C12*
X18619510Y15217060D03*
X18619510Y14527060D03*
G04 #@! TD*
G04 #@! TO.C,R9*
X91420490Y54345000D03*
X91420490Y53655000D03*
G04 #@! TD*
D11*
G04 #@! TO.C,C18*
X32130490Y53655000D03*
X32130490Y54345000D03*
G04 #@! TD*
G04 #@! TO.C,C15*
X76049510Y23285000D03*
X76049510Y23975000D03*
G04 #@! TD*
D31*
G04 #@! TO.C,D2*
X56875894Y25039999D03*
D32*
X56875894Y26139999D03*
X55045894Y26139999D03*
X55045894Y25039999D03*
G04 #@! TD*
D11*
G04 #@! TO.C,C11*
X57130490Y55362940D03*
X57130490Y56052940D03*
G04 #@! TD*
D20*
G04 #@! TO.C,C20*
X76650490Y47295000D03*
X76650490Y46605000D03*
G04 #@! TD*
D38*
G04 #@! TO.C,C4*
X30969510Y14380000D03*
X30969510Y15340000D03*
G04 #@! TD*
D16*
G04 #@! TO.C,J1*
X39200490Y57425000D03*
X38400490Y57425000D03*
D17*
X37250490Y57425000D03*
X36250490Y57425000D03*
X35750490Y57425000D03*
X34750490Y57425000D03*
D16*
X33600490Y57425000D03*
X32800490Y57425000D03*
X32800490Y57425000D03*
X33600490Y57425000D03*
D17*
X34250490Y57425000D03*
X35250490Y57425000D03*
X36750490Y57425000D03*
X37750490Y57425000D03*
D16*
X38400490Y57425000D03*
X39200490Y57425000D03*
D18*
X40320490Y58000000D03*
D19*
X40320490Y62180000D03*
X31680490Y62180000D03*
D18*
X31680490Y58000000D03*
G04 #@! TD*
D20*
G04 #@! TO.C,C16*
X52709510Y16965000D03*
X52709510Y16275000D03*
G04 #@! TD*
D22*
G04 #@! TO.C,C5*
X11889510Y15340000D03*
X11889510Y14380000D03*
G04 #@! TD*
D25*
G04 #@! TO.C,U3*
X13155000Y52355000D03*
D26*
X13155000Y51085000D03*
X13155000Y49815000D03*
X13155000Y48545000D03*
X18845000Y48545000D03*
X18845000Y49815000D03*
X18845000Y51085000D03*
X18845000Y52355000D03*
G04 #@! TD*
D11*
G04 #@! TO.C,C10*
X17119510Y14525000D03*
X17119510Y15215000D03*
G04 #@! TD*
D20*
G04 #@! TO.C,C19*
X13369510Y15217060D03*
X13369510Y14527060D03*
G04 #@! TD*
G04 #@! TO.C,C10*
X14880490Y56055000D03*
X14880490Y55365000D03*
G04 #@! TD*
D31*
G04 #@! TO.C,D2*
X96875894Y25039999D03*
D32*
X96875894Y26139999D03*
X95045894Y26139999D03*
X95045894Y25039999D03*
G04 #@! TD*
D21*
G04 #@! TO.C,Q2*
X53320490Y44810000D03*
D13*
X52820490Y44810000D03*
X52320490Y44810000D03*
X52320490Y43310000D03*
X52820490Y43310000D03*
X53320490Y43310000D03*
G04 #@! TD*
D20*
G04 #@! TO.C,C16*
X12709510Y16965000D03*
X12709510Y16275000D03*
G04 #@! TD*
G04 #@! TO.C,R14*
X74550490Y47295000D03*
X74550490Y46605000D03*
G04 #@! TD*
G04 #@! TO.C,C18*
X99869510Y16925000D03*
X99869510Y16235000D03*
G04 #@! TD*
D33*
G04 #@! TO.C,D2*
X55124106Y45540001D03*
D34*
X55124106Y44440001D03*
X56954106Y44440001D03*
X56954106Y45540001D03*
G04 #@! TD*
D11*
G04 #@! TO.C,C16*
X99290490Y53615000D03*
X99290490Y54305000D03*
G04 #@! TD*
G04 #@! TO.C,C11*
X37130490Y55362940D03*
X37130490Y56052940D03*
G04 #@! TD*
D16*
G04 #@! TO.C,J1*
X19200490Y57425000D03*
X18400490Y57425000D03*
D17*
X17250490Y57425000D03*
X16250490Y57425000D03*
X15750490Y57425000D03*
X14750490Y57425000D03*
D16*
X13600490Y57425000D03*
X12800490Y57425000D03*
X12800490Y57425000D03*
X13600490Y57425000D03*
D17*
X14250490Y57425000D03*
X15250490Y57425000D03*
X16750490Y57425000D03*
X17750490Y57425000D03*
D16*
X18400490Y57425000D03*
X19200490Y57425000D03*
D18*
X20320490Y58000000D03*
D19*
X20320490Y62180000D03*
X11680490Y62180000D03*
D18*
X11680490Y58000000D03*
G04 #@! TD*
D37*
G04 #@! TO.C,C13*
X12024510Y21130000D03*
X11334510Y21130000D03*
G04 #@! TD*
D39*
G04 #@! TO.C,KiKit_TO_2*
X109500000Y68080000D03*
G04 #@! TD*
D11*
G04 #@! TO.C,C20*
X75349510Y23285000D03*
X75349510Y23975000D03*
G04 #@! TD*
D14*
G04 #@! TO.C,U5*
X58399510Y24530000D03*
D15*
X58399510Y24030000D03*
X58399510Y23530000D03*
X59899510Y23530000D03*
X59899510Y24030000D03*
X59899510Y24530000D03*
G04 #@! TD*
D11*
G04 #@! TO.C,R9*
X20579510Y16235000D03*
X20579510Y16925000D03*
G04 #@! TD*
G04 #@! TO.C,C17*
X36749510Y23285000D03*
X36749510Y23975000D03*
G04 #@! TD*
G04 #@! TO.C,C18*
X52130490Y53655000D03*
X52130490Y54345000D03*
G04 #@! TD*
D29*
G04 #@! TO.C,C13*
X79975490Y49450000D03*
X80665490Y49450000D03*
G04 #@! TD*
D11*
G04 #@! TO.C,C14*
X17880490Y55362940D03*
X17880490Y56052940D03*
G04 #@! TD*
G04 #@! TO.C,C11*
X97130490Y55362940D03*
X97130490Y56052940D03*
G04 #@! TD*
D27*
G04 #@! TO.C,SW1*
X60745490Y43720000D03*
X60745490Y46420000D03*
X61895490Y43720000D03*
X61895490Y46420000D03*
G04 #@! TD*
D11*
G04 #@! TO.C,C20*
X95349510Y23285000D03*
X95349510Y23975000D03*
G04 #@! TD*
D20*
G04 #@! TO.C,C14*
X74119510Y15217060D03*
X74119510Y14527060D03*
G04 #@! TD*
D21*
G04 #@! TO.C,Q1*
X39700490Y44810000D03*
D13*
X39200490Y44810000D03*
X38700490Y44810000D03*
X38700490Y43310000D03*
X39200490Y43310000D03*
X39700490Y43310000D03*
G04 #@! TD*
D20*
G04 #@! TO.C,R10*
X72850490Y54345000D03*
X72850490Y53655000D03*
G04 #@! TD*
D11*
G04 #@! TO.C,C6*
X99990490Y53615000D03*
X99990490Y54305000D03*
G04 #@! TD*
G04 #@! TO.C,C6*
X59990490Y53615000D03*
X59990490Y54305000D03*
G04 #@! TD*
D38*
G04 #@! TO.C,C5*
X40110490Y55240000D03*
X40110490Y56200000D03*
G04 #@! TD*
G04 #@! TO.C,C4*
X10969510Y14380000D03*
X10969510Y15340000D03*
G04 #@! TD*
D11*
G04 #@! TO.C,R9*
X60579510Y16235000D03*
X60579510Y16925000D03*
G04 #@! TD*
D21*
G04 #@! TO.C,Q1*
X19700490Y44810000D03*
D13*
X19200490Y44810000D03*
X18700490Y44810000D03*
X18700490Y43310000D03*
X19200490Y43310000D03*
X19700490Y43310000D03*
G04 #@! TD*
D28*
G04 #@! TO.C,SW1*
X31254510Y26860000D03*
X31254510Y24160000D03*
X30104510Y26860000D03*
X30104510Y24160000D03*
G04 #@! TD*
D30*
G04 #@! TO.C,U5*
X33600490Y46050000D03*
D15*
X33600490Y46550000D03*
X33600490Y47050000D03*
X32100490Y47050000D03*
X32100490Y46550000D03*
X32100490Y46050000D03*
G04 #@! TD*
D14*
G04 #@! TO.C,U5*
X98399510Y24530000D03*
D15*
X98399510Y24030000D03*
X98399510Y23530000D03*
X99899510Y23530000D03*
X99899510Y24030000D03*
X99899510Y24530000D03*
G04 #@! TD*
D11*
G04 #@! TO.C,C19*
X98630490Y55362940D03*
X98630490Y56052940D03*
G04 #@! TD*
D20*
G04 #@! TO.C,C9*
X34130490Y56052940D03*
X34130490Y55362940D03*
G04 #@! TD*
D23*
G04 #@! TO.C,U3*
X98845000Y18225000D03*
D24*
X98845000Y19495000D03*
X98845000Y20765000D03*
X98845000Y22035000D03*
X93155000Y22035000D03*
X93155000Y20765000D03*
X93155000Y19495000D03*
X93155000Y18225000D03*
G04 #@! TD*
D20*
G04 #@! TO.C,C17*
X15250490Y47295000D03*
X15250490Y46605000D03*
G04 #@! TD*
G04 #@! TO.C,C6*
X12009510Y16965000D03*
X12009510Y16275000D03*
G04 #@! TD*
D21*
G04 #@! TO.C,Q1*
X79700490Y44810000D03*
D13*
X79200490Y44810000D03*
X78700490Y44810000D03*
X78700490Y43310000D03*
X79200490Y43310000D03*
X79700490Y43310000D03*
G04 #@! TD*
D12*
G04 #@! TO.C,Q2*
X38679510Y25770000D03*
D13*
X39179510Y25770000D03*
X39679510Y25770000D03*
X39679510Y27270000D03*
X39179510Y27270000D03*
X38679510Y27270000D03*
G04 #@! TD*
D11*
G04 #@! TO.C,R14*
X77449510Y23285000D03*
X77449510Y23975000D03*
G04 #@! TD*
G04 #@! TO.C,R10*
X39149510Y16235000D03*
X39149510Y16925000D03*
G04 #@! TD*
D20*
G04 #@! TO.C,C19*
X33369510Y15217060D03*
X33369510Y14527060D03*
G04 #@! TD*
D38*
G04 #@! TO.C,C5*
X80110490Y55240000D03*
X80110490Y56200000D03*
G04 #@! TD*
D20*
G04 #@! TO.C,C20*
X36650490Y47295000D03*
X36650490Y46605000D03*
G04 #@! TD*
D29*
G04 #@! TO.C,C13*
X39975490Y49450000D03*
X40665490Y49450000D03*
G04 #@! TD*
D11*
G04 #@! TO.C,R14*
X17449510Y23285000D03*
X17449510Y23975000D03*
G04 #@! TD*
D20*
G04 #@! TO.C,C18*
X79869510Y16925000D03*
X79869510Y16235000D03*
G04 #@! TD*
D38*
G04 #@! TO.C,C5*
X100110490Y55240000D03*
X100110490Y56200000D03*
G04 #@! TD*
D20*
G04 #@! TO.C,C16*
X32709510Y16965000D03*
X32709510Y16275000D03*
G04 #@! TD*
D11*
G04 #@! TO.C,C17*
X16749510Y23285000D03*
X16749510Y23975000D03*
G04 #@! TD*
D37*
G04 #@! TO.C,C13*
X52024510Y21130000D03*
X51334510Y21130000D03*
G04 #@! TD*
D22*
G04 #@! TO.C,C4*
X41030490Y56200000D03*
X41030490Y55240000D03*
G04 #@! TD*
D20*
G04 #@! TO.C,R10*
X92850490Y54345000D03*
X92850490Y53655000D03*
G04 #@! TD*
D21*
G04 #@! TO.C,Q1*
X99700490Y44810000D03*
D13*
X99200490Y44810000D03*
X98700490Y44810000D03*
X98700490Y43310000D03*
X99200490Y43310000D03*
X99700490Y43310000D03*
G04 #@! TD*
D11*
G04 #@! TO.C,R14*
X57449510Y23285000D03*
X57449510Y23975000D03*
G04 #@! TD*
D12*
G04 #@! TO.C,Q1*
X92299510Y25770000D03*
D13*
X92799510Y25770000D03*
X93299510Y25770000D03*
X93299510Y27270000D03*
X92799510Y27270000D03*
X92299510Y27270000D03*
G04 #@! TD*
D20*
G04 #@! TO.C,C6*
X72009510Y16965000D03*
X72009510Y16275000D03*
G04 #@! TD*
D11*
G04 #@! TO.C,C14*
X77880490Y55362940D03*
X77880490Y56052940D03*
G04 #@! TD*
G04 #@! TO.C,C19*
X78630490Y55362940D03*
X78630490Y56052940D03*
G04 #@! TD*
D20*
G04 #@! TO.C,C10*
X74880490Y56055000D03*
X74880490Y55365000D03*
G04 #@! TD*
G04 #@! TO.C,R14*
X54550490Y47295000D03*
X54550490Y46605000D03*
G04 #@! TD*
D28*
G04 #@! TO.C,SW1*
X51254510Y26860000D03*
X51254510Y24160000D03*
X50104510Y26860000D03*
X50104510Y24160000D03*
G04 #@! TD*
D14*
G04 #@! TO.C,U5*
X38399510Y24530000D03*
D15*
X38399510Y24030000D03*
X38399510Y23530000D03*
X39899510Y23530000D03*
X39899510Y24030000D03*
X39899510Y24530000D03*
G04 #@! TD*
D20*
G04 #@! TO.C,C15*
X95950490Y47295000D03*
X95950490Y46605000D03*
G04 #@! TD*
D11*
G04 #@! TO.C,C18*
X92130490Y53655000D03*
X92130490Y54345000D03*
G04 #@! TD*
D20*
G04 #@! TO.C,C11*
X14869510Y15217060D03*
X14869510Y14527060D03*
G04 #@! TD*
G04 #@! TO.C,C20*
X56650490Y47295000D03*
X56650490Y46605000D03*
G04 #@! TD*
D22*
G04 #@! TO.C,C5*
X71889510Y15340000D03*
X71889510Y14380000D03*
G04 #@! TD*
D38*
G04 #@! TO.C,C4*
X90969510Y14380000D03*
X90969510Y15340000D03*
G04 #@! TD*
D37*
G04 #@! TO.C,C13*
X72024510Y21130000D03*
X71334510Y21130000D03*
G04 #@! TD*
D20*
G04 #@! TO.C,C10*
X54880490Y56055000D03*
X54880490Y55365000D03*
G04 #@! TD*
D11*
G04 #@! TO.C,C20*
X15349510Y23285000D03*
X15349510Y23975000D03*
G04 #@! TD*
D20*
G04 #@! TO.C,R10*
X32850490Y54345000D03*
X32850490Y53655000D03*
G04 #@! TD*
D21*
G04 #@! TO.C,Q2*
X13320490Y44810000D03*
D13*
X12820490Y44810000D03*
X12320490Y44810000D03*
X12320490Y43310000D03*
X12820490Y43310000D03*
X13320490Y43310000D03*
G04 #@! TD*
D20*
G04 #@! TO.C,C14*
X34119510Y15217060D03*
X34119510Y14527060D03*
G04 #@! TD*
D33*
G04 #@! TO.C,D2*
X95124106Y45540001D03*
D34*
X95124106Y44440001D03*
X96954106Y44440001D03*
X96954106Y45540001D03*
G04 #@! TD*
D11*
G04 #@! TO.C,C16*
X39290490Y53615000D03*
X39290490Y54305000D03*
G04 #@! TD*
D20*
G04 #@! TO.C,R14*
X94550490Y47295000D03*
X94550490Y46605000D03*
G04 #@! TD*
G04 #@! TO.C,C11*
X54869510Y15217060D03*
X54869510Y14527060D03*
G04 #@! TD*
D31*
G04 #@! TO.C,D2*
X76875894Y25039999D03*
D32*
X76875894Y26139999D03*
X75045894Y26139999D03*
X75045894Y25039999D03*
G04 #@! TD*
D11*
G04 #@! TO.C,C14*
X37880490Y55362940D03*
X37880490Y56052940D03*
G04 #@! TD*
D20*
G04 #@! TO.C,C15*
X15950490Y47295000D03*
X15950490Y46605000D03*
G04 #@! TD*
D11*
G04 #@! TO.C,C10*
X57119510Y14525000D03*
X57119510Y15215000D03*
G04 #@! TD*
D21*
G04 #@! TO.C,Q2*
X33320490Y44810000D03*
D13*
X32820490Y44810000D03*
X32320490Y44810000D03*
X32320490Y43310000D03*
X32820490Y43310000D03*
X33320490Y43310000D03*
G04 #@! TD*
D11*
G04 #@! TO.C,C9*
X77869510Y14527060D03*
X77869510Y15217060D03*
G04 #@! TD*
D37*
G04 #@! TO.C,C13*
X92024510Y21130000D03*
X91334510Y21130000D03*
G04 #@! TD*
D11*
G04 #@! TO.C,C19*
X18630490Y55362940D03*
X18630490Y56052940D03*
G04 #@! TD*
D20*
G04 #@! TO.C,R14*
X14550490Y47295000D03*
X14550490Y46605000D03*
G04 #@! TD*
D27*
G04 #@! TO.C,SW1*
X80745490Y43720000D03*
X80745490Y46420000D03*
X81895490Y43720000D03*
X81895490Y46420000D03*
G04 #@! TD*
D20*
G04 #@! TO.C,C11*
X74869510Y15217060D03*
X74869510Y14527060D03*
G04 #@! TD*
D11*
G04 #@! TO.C,C9*
X57869510Y14527060D03*
X57869510Y15217060D03*
G04 #@! TD*
D20*
G04 #@! TO.C,C18*
X39869510Y16925000D03*
X39869510Y16235000D03*
G04 #@! TD*
D38*
G04 #@! TO.C,C4*
X50969510Y14380000D03*
X50969510Y15340000D03*
G04 #@! TD*
D22*
G04 #@! TO.C,C4*
X61030490Y56200000D03*
X61030490Y55240000D03*
G04 #@! TD*
D11*
G04 #@! TO.C,R14*
X97449510Y23285000D03*
X97449510Y23975000D03*
G04 #@! TD*
D23*
G04 #@! TO.C,U3*
X18845000Y18225000D03*
D24*
X18845000Y19495000D03*
X18845000Y20765000D03*
X18845000Y22035000D03*
X13155000Y22035000D03*
X13155000Y20765000D03*
X13155000Y19495000D03*
X13155000Y18225000D03*
G04 #@! TD*
D35*
G04 #@! TO.C,J1*
X52799510Y13155000D03*
X53599510Y13155000D03*
D36*
X54749510Y13155000D03*
X55749510Y13155000D03*
X56249510Y13155000D03*
X57249510Y13155000D03*
D35*
X58399510Y13155000D03*
X59199510Y13155000D03*
X59199510Y13155000D03*
X58399510Y13155000D03*
D36*
X57749510Y13155000D03*
X56749510Y13155000D03*
X55249510Y13155000D03*
X54249510Y13155000D03*
D35*
X53599510Y13155000D03*
X52799510Y13155000D03*
D18*
X51679510Y12580000D03*
D19*
X51679510Y8400000D03*
X60319510Y8400000D03*
D18*
X60319510Y12580000D03*
G04 #@! TD*
D35*
G04 #@! TO.C,J1*
X92799510Y13155000D03*
X93599510Y13155000D03*
D36*
X94749510Y13155000D03*
X95749510Y13155000D03*
X96249510Y13155000D03*
X97249510Y13155000D03*
D35*
X98399510Y13155000D03*
X99199510Y13155000D03*
X99199510Y13155000D03*
X98399510Y13155000D03*
D36*
X97749510Y13155000D03*
X96749510Y13155000D03*
X95249510Y13155000D03*
X94249510Y13155000D03*
D35*
X93599510Y13155000D03*
X92799510Y13155000D03*
D18*
X91679510Y12580000D03*
D19*
X91679510Y8400000D03*
X100319510Y8400000D03*
D18*
X100319510Y12580000D03*
G04 #@! TD*
D35*
G04 #@! TO.C,J1*
X72799510Y13155000D03*
X73599510Y13155000D03*
D36*
X74749510Y13155000D03*
X75749510Y13155000D03*
X76249510Y13155000D03*
X77249510Y13155000D03*
D35*
X78399510Y13155000D03*
X79199510Y13155000D03*
X79199510Y13155000D03*
X78399510Y13155000D03*
D36*
X77749510Y13155000D03*
X76749510Y13155000D03*
X75249510Y13155000D03*
X74249510Y13155000D03*
D35*
X73599510Y13155000D03*
X72799510Y13155000D03*
D18*
X71679510Y12580000D03*
D19*
X71679510Y8400000D03*
X80319510Y8400000D03*
D18*
X80319510Y12580000D03*
G04 #@! TD*
D20*
G04 #@! TO.C,C11*
X94869510Y15217060D03*
X94869510Y14527060D03*
G04 #@! TD*
D27*
G04 #@! TO.C,SW1*
X20745490Y43720000D03*
X20745490Y46420000D03*
X21895490Y43720000D03*
X21895490Y46420000D03*
G04 #@! TD*
D23*
G04 #@! TO.C,U3*
X38845000Y18225000D03*
D24*
X38845000Y19495000D03*
X38845000Y20765000D03*
X38845000Y22035000D03*
X33155000Y22035000D03*
X33155000Y20765000D03*
X33155000Y19495000D03*
X33155000Y18225000D03*
G04 #@! TD*
D11*
G04 #@! TO.C,C14*
X57880490Y55362940D03*
X57880490Y56052940D03*
G04 #@! TD*
G04 #@! TO.C,C12*
X93380490Y55362940D03*
X93380490Y56052940D03*
G04 #@! TD*
D20*
G04 #@! TO.C,C15*
X75950490Y47295000D03*
X75950490Y46605000D03*
G04 #@! TD*
D38*
G04 #@! TO.C,C5*
X20110490Y55240000D03*
X20110490Y56200000D03*
G04 #@! TD*
D11*
G04 #@! TO.C,R14*
X37449510Y23285000D03*
X37449510Y23975000D03*
G04 #@! TD*
D12*
G04 #@! TO.C,Q2*
X18679510Y25770000D03*
D13*
X19179510Y25770000D03*
X19679510Y25770000D03*
X19679510Y27270000D03*
X19179510Y27270000D03*
X18679510Y27270000D03*
G04 #@! TD*
D22*
G04 #@! TO.C,C5*
X31889510Y15340000D03*
X31889510Y14380000D03*
G04 #@! TD*
D20*
G04 #@! TO.C,C12*
X58619510Y15217060D03*
X58619510Y14527060D03*
G04 #@! TD*
D11*
G04 #@! TO.C,C16*
X59290490Y53615000D03*
X59290490Y54305000D03*
G04 #@! TD*
D29*
G04 #@! TO.C,C13*
X99975490Y49450000D03*
X100665490Y49450000D03*
G04 #@! TD*
D11*
G04 #@! TO.C,C6*
X19990490Y53615000D03*
X19990490Y54305000D03*
G04 #@! TD*
D20*
G04 #@! TO.C,C20*
X16650490Y47295000D03*
X16650490Y46605000D03*
G04 #@! TD*
D11*
G04 #@! TO.C,C20*
X55349510Y23285000D03*
X55349510Y23975000D03*
G04 #@! TD*
D16*
G04 #@! TO.C,J1*
X59200490Y57425000D03*
X58400490Y57425000D03*
D17*
X57250490Y57425000D03*
X56250490Y57425000D03*
X55750490Y57425000D03*
X54750490Y57425000D03*
D16*
X53600490Y57425000D03*
X52800490Y57425000D03*
X52800490Y57425000D03*
X53600490Y57425000D03*
D17*
X54250490Y57425000D03*
X55250490Y57425000D03*
X56750490Y57425000D03*
X57750490Y57425000D03*
D16*
X58400490Y57425000D03*
X59200490Y57425000D03*
D18*
X60320490Y58000000D03*
D19*
X60320490Y62180000D03*
X51680490Y62180000D03*
D18*
X51680490Y58000000D03*
G04 #@! TD*
D20*
G04 #@! TO.C,C17*
X75250490Y47295000D03*
X75250490Y46605000D03*
G04 #@! TD*
D11*
G04 #@! TO.C,R10*
X19149510Y16235000D03*
X19149510Y16925000D03*
G04 #@! TD*
D39*
G04 #@! TO.C,KiKit_TO_1*
X2500000Y68080000D03*
G04 #@! TD*
D12*
G04 #@! TO.C,Q2*
X58679510Y25770000D03*
D13*
X59179510Y25770000D03*
X59679510Y25770000D03*
X59679510Y27270000D03*
X59179510Y27270000D03*
X58679510Y27270000D03*
G04 #@! TD*
D20*
G04 #@! TO.C,R9*
X71420490Y54345000D03*
X71420490Y53655000D03*
G04 #@! TD*
G04 #@! TO.C,R14*
X34550490Y47295000D03*
X34550490Y46605000D03*
G04 #@! TD*
D11*
G04 #@! TO.C,C15*
X96049510Y23285000D03*
X96049510Y23975000D03*
G04 #@! TD*
D30*
G04 #@! TO.C,U5*
X93600490Y46050000D03*
D15*
X93600490Y46550000D03*
X93600490Y47050000D03*
X92100490Y47050000D03*
X92100490Y46550000D03*
X92100490Y46050000D03*
G04 #@! TD*
D25*
G04 #@! TO.C,U3*
X33155000Y52355000D03*
D26*
X33155000Y51085000D03*
X33155000Y49815000D03*
X33155000Y48545000D03*
X38845000Y48545000D03*
X38845000Y49815000D03*
X38845000Y51085000D03*
X38845000Y52355000D03*
G04 #@! TD*
D11*
G04 #@! TO.C,C9*
X97869510Y14527060D03*
X97869510Y15217060D03*
G04 #@! TD*
D30*
G04 #@! TO.C,U5*
X53600490Y46050000D03*
D15*
X53600490Y46550000D03*
X53600490Y47050000D03*
X52100490Y47050000D03*
X52100490Y46550000D03*
X52100490Y46050000D03*
G04 #@! TD*
D20*
G04 #@! TO.C,C19*
X53369510Y15217060D03*
X53369510Y14527060D03*
G04 #@! TD*
G04 #@! TO.C,C18*
X19869510Y16925000D03*
X19869510Y16235000D03*
G04 #@! TD*
D16*
G04 #@! TO.C,J1*
X99200490Y57425000D03*
X98400490Y57425000D03*
D17*
X97250490Y57425000D03*
X96250490Y57425000D03*
X95750490Y57425000D03*
X94750490Y57425000D03*
D16*
X93600490Y57425000D03*
X92800490Y57425000D03*
X92800490Y57425000D03*
X93600490Y57425000D03*
D17*
X94250490Y57425000D03*
X95250490Y57425000D03*
X96750490Y57425000D03*
X97750490Y57425000D03*
D16*
X98400490Y57425000D03*
X99200490Y57425000D03*
D18*
X100320490Y58000000D03*
D19*
X100320490Y62180000D03*
X91680490Y62180000D03*
D18*
X91680490Y58000000D03*
G04 #@! TD*
D23*
G04 #@! TO.C,U3*
X78845000Y18225000D03*
D24*
X78845000Y19495000D03*
X78845000Y20765000D03*
X78845000Y22035000D03*
X73155000Y22035000D03*
X73155000Y20765000D03*
X73155000Y19495000D03*
X73155000Y18225000D03*
G04 #@! TD*
D33*
G04 #@! TO.C,D2*
X15124106Y45540001D03*
D34*
X15124106Y44440001D03*
X16954106Y44440001D03*
X16954106Y45540001D03*
G04 #@! TD*
D11*
G04 #@! TO.C,C9*
X37869510Y14527060D03*
X37869510Y15217060D03*
G04 #@! TD*
D20*
G04 #@! TO.C,C15*
X35950490Y47295000D03*
X35950490Y46605000D03*
G04 #@! TD*
D11*
G04 #@! TO.C,C14*
X97880490Y55362940D03*
X97880490Y56052940D03*
G04 #@! TD*
G04 #@! TO.C,C15*
X56049510Y23285000D03*
X56049510Y23975000D03*
G04 #@! TD*
D29*
G04 #@! TO.C,C13*
X19975490Y49450000D03*
X20665490Y49450000D03*
G04 #@! TD*
D20*
G04 #@! TO.C,C6*
X92009510Y16965000D03*
X92009510Y16275000D03*
G04 #@! TD*
D11*
G04 #@! TO.C,C10*
X77119510Y14525000D03*
X77119510Y15215000D03*
G04 #@! TD*
D20*
G04 #@! TO.C,C6*
X52009510Y16965000D03*
X52009510Y16275000D03*
G04 #@! TD*
D11*
G04 #@! TO.C,C18*
X72130490Y53655000D03*
X72130490Y54345000D03*
G04 #@! TD*
D12*
G04 #@! TO.C,Q1*
X12299510Y25770000D03*
D13*
X12799510Y25770000D03*
X13299510Y25770000D03*
X13299510Y27270000D03*
X12799510Y27270000D03*
X12299510Y27270000D03*
G04 #@! TD*
D11*
G04 #@! TO.C,C12*
X73380490Y55362940D03*
X73380490Y56052940D03*
G04 #@! TD*
G04 #@! TO.C,C12*
X33380490Y55362940D03*
X33380490Y56052940D03*
G04 #@! TD*
G04 #@! TO.C,C9*
X17869510Y14527060D03*
X17869510Y15217060D03*
G04 #@! TD*
D12*
G04 #@! TO.C,Q1*
X52299510Y25770000D03*
D13*
X52799510Y25770000D03*
X53299510Y25770000D03*
X53299510Y27270000D03*
X52799510Y27270000D03*
X52299510Y27270000D03*
G04 #@! TD*
M02*
